<svg width="791" height="982" viewBox="0 0 791 982" fill="none" xmlns="http://www.w3.org/2000/svg">
<g opacity="0.6">
<path d="M512.528 -108.348C532.088 -9.35924 260.576 75.1316 292.227 235.313C323.878 395.494 835.341 431.438 868.681 600.168C888.24 699.156 616.729 783.647 648.379 943.828C680.03 1104.01 1191.49 1139.95 1224.83 1308.68" stroke="url(#paint0_linear_66_6087)" stroke-width="2" stroke-linecap="round" stroke-linejoin="round"/>
<path d="M737.252 -166.268C756.811 -67.2801 485.3 17.2107 516.951 177.392C548.601 337.573 1060.06 373.517 1093.4 542.247C1112.96 641.235 841.452 725.726 873.103 885.907C904.754 1046.09 1416.22 1082.03 1449.56 1250.76" stroke="url(#paint1_linear_66_6087)" stroke-width="2" stroke-linecap="round" stroke-linejoin="round"/>
<path d="M961.978 -224.19C981.537 -125.202 710.026 -40.7111 741.676 119.47C773.327 279.651 1284.79 315.595 1318.13 484.325C1337.69 583.314 1066.18 667.804 1097.83 827.985C1129.48 988.166 1640.94 1024.11 1674.28 1192.84" stroke="url(#paint2_linear_66_6087)" stroke-width="2" stroke-linecap="round" stroke-linejoin="round"/>
<path d="M492.593 -101.95C512.152 -2.96187 240.641 81.5289 272.292 241.71C303.942 401.891 815.405 437.835 848.745 606.565C868.305 705.554 596.793 790.045 628.444 950.226C660.094 1110.41 1171.56 1146.35 1204.9 1315.08" stroke="url(#paint3_linear_66_6087)" stroke-width="2" stroke-linecap="round" stroke-linejoin="round"/>
<path d="M717.317 -159.872C736.876 -60.8837 465.365 23.6072 497.015 183.788C528.666 343.969 1040.13 379.914 1073.47 548.644C1093.03 647.632 821.517 732.123 853.168 892.304C884.818 1052.48 1396.28 1088.43 1429.62 1257.16" stroke="url(#paint4_linear_66_6087)" stroke-width="2" stroke-linecap="round" stroke-linejoin="round"/>
<path d="M942.042 -217.793C961.601 -118.805 690.09 -34.3142 721.74 125.867C753.391 286.048 1264.85 321.992 1298.19 490.722C1317.75 589.711 1046.24 674.201 1077.89 834.382C1109.54 994.563 1621.01 1030.51 1654.35 1199.24" stroke="url(#paint5_linear_66_6087)" stroke-width="2" stroke-linecap="round" stroke-linejoin="round"/>
<path d="M472.659 -95.5546C492.218 3.43373 220.707 87.9245 252.357 248.106C284.008 408.287 795.471 444.231 828.811 612.961C848.37 711.949 576.859 796.44 608.51 956.621C640.16 1116.8 1151.62 1152.75 1184.96 1321.48" stroke="url(#paint6_linear_66_6087)" stroke-width="2" stroke-linecap="round" stroke-linejoin="round"/>
<path d="M697.386 -153.476C716.946 -54.4873 445.434 30.0036 477.085 190.185C508.736 350.366 1020.2 386.31 1053.54 555.04C1073.1 654.028 801.587 738.519 833.237 898.7C864.888 1058.88 1376.35 1094.83 1409.69 1263.56" stroke="url(#paint7_linear_66_6087)" stroke-width="2" stroke-linecap="round" stroke-linejoin="round"/>
<path d="M922.111 -211.396C941.67 -112.408 670.159 -27.9173 701.809 132.264C733.46 292.445 1244.92 328.389 1278.26 497.119C1297.82 596.107 1026.31 680.598 1057.96 840.779C1089.61 1000.96 1601.08 1036.9 1634.42 1205.63" stroke="url(#paint8_linear_66_6087)" stroke-width="2" stroke-linecap="round" stroke-linejoin="round"/>
<path d="M452.422 -90.5352C471.981 8.45309 200.47 92.9439 232.121 253.125C263.771 413.306 775.234 449.25 808.574 617.98C828.134 716.969 556.622 801.46 588.273 961.641C619.924 1121.82 1131.39 1157.77 1164.73 1326.5" stroke="url(#paint9_linear_66_6087)" stroke-width="2" stroke-linecap="round" stroke-linejoin="round"/>
<path d="M677.148 -148.457C696.707 -49.4686 425.196 35.0222 456.847 195.203C488.497 355.384 999.96 391.329 1033.3 560.059C1052.86 659.047 781.348 743.538 812.999 903.719C844.65 1063.9 1356.11 1099.84 1389.45 1268.57" stroke="url(#paint10_linear_66_6087)" stroke-width="2" stroke-linecap="round" stroke-linejoin="round"/>
<path d="M901.873 -206.378C921.432 -107.39 649.921 -22.8987 681.571 137.282C713.222 297.463 1224.69 333.408 1258.03 502.138C1277.58 601.126 1006.07 685.617 1037.72 845.798C1069.37 1005.98 1580.84 1041.92 1614.18 1210.65" stroke="url(#paint11_linear_66_6087)" stroke-width="2" stroke-linecap="round" stroke-linejoin="round"/>
<path d="M432.184 -85.516C451.744 13.4723 180.232 97.9631 211.883 258.144C243.533 418.325 754.997 454.27 788.336 623C807.896 721.988 536.384 806.479 568.035 966.66C599.686 1126.84 1111.15 1162.79 1144.49 1331.52" stroke="url(#paint12_linear_66_6087)" stroke-width="2" stroke-linecap="round" stroke-linejoin="round"/>
<path d="M656.909 -143.436C676.469 -44.4482 404.957 40.0426 436.608 200.224C468.259 360.405 979.722 396.349 1013.06 565.079C1032.62 664.067 761.11 748.558 792.76 908.739C824.411 1068.92 1335.87 1104.86 1369.21 1273.59" stroke="url(#paint13_linear_66_6087)" stroke-width="2" stroke-linecap="round" stroke-linejoin="round"/>
<path d="M881.633 -201.358C901.192 -102.37 629.681 -17.8792 661.332 142.302C692.982 302.483 1204.45 338.427 1237.79 507.157C1257.34 606.146 985.833 690.636 1017.48 850.817C1049.13 1011 1560.6 1046.94 1593.94 1215.67" stroke="url(#paint14_linear_66_6087)" stroke-width="2" stroke-linecap="round" stroke-linejoin="round"/>
<path d="M412.553 -77.7416C432.112 21.2467 160.601 105.738 192.251 265.919C223.902 426.1 735.365 462.044 768.705 630.774C788.264 729.762 516.753 814.253 548.404 974.434C580.054 1134.62 1091.52 1170.56 1124.86 1339.29" stroke="url(#paint15_linear_66_6087)" stroke-width="2" stroke-linecap="round" stroke-linejoin="round"/>
<path d="M637.278 -135.663C656.838 -36.6743 385.326 47.8165 416.977 207.998C448.628 368.179 960.091 404.123 993.431 572.853C1012.99 671.841 741.479 756.332 773.129 916.513C804.78 1076.69 1316.24 1112.64 1349.58 1281.37" stroke="url(#paint16_linear_66_6087)" stroke-width="2" stroke-linecap="round" stroke-linejoin="round"/>
<path d="M862.005 -193.585C881.564 -94.5966 610.053 -10.1058 641.704 150.075C673.354 310.256 1184.82 346.201 1218.16 514.931C1237.72 613.919 966.205 698.41 997.856 858.591C1029.51 1018.77 1540.97 1054.72 1574.31 1223.45" stroke="url(#paint17_linear_66_6087)" stroke-width="2" stroke-linecap="round" stroke-linejoin="round"/>
<path d="M392.315 -72.7221C411.875 26.2662 140.363 110.757 172.014 270.938C203.664 431.119 715.128 467.063 748.467 635.793C768.027 734.782 496.515 819.273 528.166 979.454C559.817 1139.63 1071.28 1175.58 1104.62 1344.31" stroke="url(#paint18_linear_66_6087)" stroke-width="2" stroke-linecap="round" stroke-linejoin="round"/>
<path d="M617.041 -130.643C636.601 -31.6547 365.089 52.8362 396.74 213.017C428.391 373.198 939.854 409.143 973.193 577.873C992.753 676.861 721.242 761.352 752.892 921.533C784.543 1081.71 1296.01 1117.66 1329.35 1286.39" stroke="url(#paint19_linear_66_6087)" stroke-width="2" stroke-linecap="round" stroke-linejoin="round"/>
<path d="M841.765 -188.565C861.324 -89.5765 589.813 -5.08572 621.464 155.095C653.114 315.276 1164.58 351.221 1197.92 519.951C1217.48 618.939 945.965 703.43 977.616 863.611C1009.27 1023.79 1520.73 1059.74 1554.07 1228.47" stroke="url(#paint20_linear_66_6087)" stroke-width="2" stroke-linecap="round" stroke-linejoin="round"/>
<path d="M372.077 -67.7032C391.637 31.2851 120.126 115.776 151.776 275.957C183.427 436.138 694.89 472.082 728.23 640.812C747.789 739.801 476.278 824.292 507.928 984.473C539.579 1144.65 1051.04 1180.6 1084.38 1349.33" stroke="url(#paint21_linear_66_6087)" stroke-width="2" stroke-linecap="round" stroke-linejoin="round"/>
<path d="M596.802 -125.625C616.361 -26.6366 344.85 57.8542 376.501 218.035C408.151 378.216 919.614 414.161 952.954 582.891C972.514 681.879 701.002 766.37 732.653 926.551C764.303 1086.73 1275.77 1122.68 1309.11 1291.41" stroke="url(#paint22_linear_66_6087)" stroke-width="2" stroke-linecap="round" stroke-linejoin="round"/>
<path d="M821.526 -183.547C841.085 -84.5585 569.574 -0.0676521 601.224 160.113C632.875 320.294 1144.34 356.239 1177.68 524.969C1197.24 623.957 925.726 708.448 957.376 868.629C989.027 1028.81 1500.49 1064.75 1533.83 1233.48" stroke="url(#paint23_linear_66_6087)" stroke-width="2" stroke-linecap="round" stroke-linejoin="round"/>
<path d="M351.837 -62.6835C371.396 36.3048 99.8847 120.796 131.535 280.977C163.186 441.158 674.649 477.102 707.989 645.832C727.548 744.82 456.037 829.311 487.688 989.492C519.338 1149.67 1030.8 1185.62 1064.14 1354.35" stroke="url(#paint24_linear_66_6087)" stroke-width="2" stroke-linecap="round" stroke-linejoin="round"/>
<path d="M576.563 -120.605C596.123 -21.6171 324.611 62.8737 356.262 223.055C387.912 383.236 899.376 419.18 932.715 587.91C952.275 686.898 680.763 771.389 712.414 931.57C744.065 1091.75 1255.53 1127.7 1288.87 1296.43" stroke="url(#paint25_linear_66_6087)" stroke-width="2" stroke-linecap="round" stroke-linejoin="round"/>
<path d="M801.287 -178.526C820.846 -79.538 549.335 4.95285 580.986 165.134C612.636 325.315 1124.1 361.259 1157.44 529.989C1177 628.978 905.487 713.468 937.138 873.649C968.788 1033.83 1480.25 1069.77 1513.59 1238.5" stroke="url(#paint26_linear_66_6087)" stroke-width="2" stroke-linecap="round" stroke-linejoin="round"/>
<path d="M331.296 -59.042C350.855 39.9463 79.344 124.437 110.995 284.618C142.645 444.799 654.108 480.744 687.448 649.474C707.008 748.462 435.496 832.953 467.147 993.134C498.798 1153.31 1010.26 1189.26 1043.6 1357.99" stroke="url(#paint27_linear_66_6087)" stroke-width="2" stroke-linecap="round" stroke-linejoin="round"/>
<path d="M556.019 -116.964C575.578 -17.9754 304.067 66.5154 335.717 226.696C367.368 386.877 878.831 422.822 912.171 591.552C931.73 690.54 660.219 775.031 691.87 935.212C723.52 1095.39 1234.98 1131.34 1268.32 1300.07" stroke="url(#paint28_linear_66_6087)" stroke-width="2" stroke-linecap="round" stroke-linejoin="round"/>
<path d="M780.744 -174.885C800.303 -75.8963 528.792 8.59446 560.442 168.776C592.093 328.957 1103.56 364.901 1136.9 533.631C1156.46 632.619 884.944 717.11 916.595 877.291C948.245 1037.47 1459.71 1073.42 1493.05 1242.15" stroke="url(#paint29_linear_66_6087)" stroke-width="2" stroke-linecap="round" stroke-linejoin="round"/>
<path d="M311.054 -54.0238C330.614 44.9645 59.1022 129.455 90.7528 289.636C122.403 449.817 633.867 485.762 667.207 654.492C686.766 753.48 415.255 837.971 446.905 998.152C478.556 1158.33 990.019 1194.28 1023.36 1363.01" stroke="url(#paint30_linear_66_6087)" stroke-width="2" stroke-linecap="round" stroke-linejoin="round"/>
<path d="M535.78 -111.945C555.34 -12.9564 283.828 71.5344 315.479 231.715C347.13 391.896 858.593 427.841 891.933 596.571C911.492 695.559 639.981 780.05 671.631 940.231C703.282 1100.41 1214.75 1136.36 1248.08 1305.09" stroke="url(#paint31_linear_66_6087)" stroke-width="2" stroke-linecap="round" stroke-linejoin="round"/>
<path d="M760.505 -169.867C780.064 -70.8785 508.553 13.6124 540.204 173.793C571.854 333.975 1083.32 369.919 1116.66 538.649C1136.22 637.637 864.705 722.128 896.356 882.309C928.006 1042.49 1439.47 1078.43 1472.81 1247.16" stroke="url(#paint32_linear_66_6087)" stroke-width="2" stroke-linecap="round" stroke-linejoin="round"/>
</g>
<defs>
<linearGradient id="paint0_linear_66_6087" x1="368.953" y1="623.617" x2="1062.39" y2="486.598" gradientUnits="userSpaceOnUse">
<stop stop-color="#0E1010"/>
<stop offset="0.19" stop-color="#3E4545" stop-opacity="0.4"/>
<stop offset="0.295" stop-color="#4D5656"/>
<stop offset="0.395" stop-color="#5C6666" stop-opacity="0.5"/>
<stop offset="0.59" stop-color="#1B1E1E"/>
<stop offset="1" stop-color="#030404"/>
</linearGradient>
<linearGradient id="paint1_linear_66_6087" x1="593.677" y1="565.696" x2="1287.12" y2="428.677" gradientUnits="userSpaceOnUse">
<stop stop-color="#0E1010"/>
<stop offset="0.19" stop-color="#3E4545" stop-opacity="0.4"/>
<stop offset="0.295" stop-color="#4D5656"/>
<stop offset="0.395" stop-color="#5C6666" stop-opacity="0.5"/>
<stop offset="0.59" stop-color="#1B1E1E"/>
<stop offset="1" stop-color="#030404"/>
</linearGradient>
<linearGradient id="paint2_linear_66_6087" x1="818.403" y1="507.774" x2="1511.84" y2="370.755" gradientUnits="userSpaceOnUse">
<stop stop-color="#0E1010"/>
<stop offset="0.19" stop-color="#3E4545" stop-opacity="0.4"/>
<stop offset="0.295" stop-color="#4D5656"/>
<stop offset="0.395" stop-color="#5C6666" stop-opacity="0.5"/>
<stop offset="0.59" stop-color="#1B1E1E"/>
<stop offset="1" stop-color="#030404"/>
</linearGradient>
<linearGradient id="paint3_linear_66_6087" x1="349.018" y1="630.014" x2="1042.46" y2="492.995" gradientUnits="userSpaceOnUse">
<stop stop-color="#0E1010"/>
<stop offset="0.19" stop-color="#3E4545" stop-opacity="0.4"/>
<stop offset="0.295" stop-color="#4D5656"/>
<stop offset="0.395" stop-color="#5C6666" stop-opacity="0.5"/>
<stop offset="0.59" stop-color="#1B1E1E"/>
<stop offset="1" stop-color="#030404"/>
</linearGradient>
<linearGradient id="paint4_linear_66_6087" x1="573.741" y1="572.092" x2="1267.18" y2="435.073" gradientUnits="userSpaceOnUse">
<stop stop-color="#0E1010"/>
<stop offset="0.19" stop-color="#3E4545" stop-opacity="0.4"/>
<stop offset="0.295" stop-color="#4D5656"/>
<stop offset="0.395" stop-color="#5C6666" stop-opacity="0.5"/>
<stop offset="0.59" stop-color="#1B1E1E"/>
<stop offset="1" stop-color="#030404"/>
</linearGradient>
<linearGradient id="paint5_linear_66_6087" x1="798.466" y1="514.171" x2="1491.91" y2="377.152" gradientUnits="userSpaceOnUse">
<stop stop-color="#0E1010"/>
<stop offset="0.19" stop-color="#3E4545" stop-opacity="0.4"/>
<stop offset="0.295" stop-color="#4D5656"/>
<stop offset="0.395" stop-color="#5C6666" stop-opacity="0.5"/>
<stop offset="0.59" stop-color="#1B1E1E"/>
<stop offset="1" stop-color="#030404"/>
</linearGradient>
<linearGradient id="paint6_linear_66_6087" x1="329.084" y1="636.41" x2="1022.53" y2="499.391" gradientUnits="userSpaceOnUse">
<stop stop-color="#0E1010"/>
<stop offset="0.19" stop-color="#3E4545" stop-opacity="0.4"/>
<stop offset="0.295" stop-color="#4D5656"/>
<stop offset="0.395" stop-color="#5C6666" stop-opacity="0.5"/>
<stop offset="0.59" stop-color="#1B1E1E"/>
<stop offset="1" stop-color="#030404"/>
</linearGradient>
<linearGradient id="paint7_linear_66_6087" x1="553.811" y1="578.489" x2="1247.25" y2="441.47" gradientUnits="userSpaceOnUse">
<stop stop-color="#0E1010"/>
<stop offset="0.19" stop-color="#3E4545" stop-opacity="0.4"/>
<stop offset="0.295" stop-color="#4D5656"/>
<stop offset="0.395" stop-color="#5C6666" stop-opacity="0.5"/>
<stop offset="0.59" stop-color="#1B1E1E"/>
<stop offset="1" stop-color="#030404"/>
</linearGradient>
<linearGradient id="paint8_linear_66_6087" x1="778.535" y1="520.568" x2="1471.98" y2="383.549" gradientUnits="userSpaceOnUse">
<stop stop-color="#0E1010"/>
<stop offset="0.19" stop-color="#3E4545" stop-opacity="0.4"/>
<stop offset="0.295" stop-color="#4D5656"/>
<stop offset="0.395" stop-color="#5C6666" stop-opacity="0.5"/>
<stop offset="0.59" stop-color="#1B1E1E"/>
<stop offset="1" stop-color="#030404"/>
</linearGradient>
<linearGradient id="paint9_linear_66_6087" x1="308.847" y1="641.429" x2="1002.29" y2="504.41" gradientUnits="userSpaceOnUse">
<stop stop-color="#0E1010"/>
<stop offset="0.19" stop-color="#3E4545" stop-opacity="0.4"/>
<stop offset="0.295" stop-color="#4D5656"/>
<stop offset="0.395" stop-color="#5C6666" stop-opacity="0.5"/>
<stop offset="0.59" stop-color="#1B1E1E"/>
<stop offset="1" stop-color="#030404"/>
</linearGradient>
<linearGradient id="paint10_linear_66_6087" x1="533.573" y1="583.507" x2="1227.01" y2="446.488" gradientUnits="userSpaceOnUse">
<stop stop-color="#0E1010"/>
<stop offset="0.19" stop-color="#3E4545" stop-opacity="0.4"/>
<stop offset="0.295" stop-color="#4D5656"/>
<stop offset="0.395" stop-color="#5C6666" stop-opacity="0.5"/>
<stop offset="0.59" stop-color="#1B1E1E"/>
<stop offset="1" stop-color="#030404"/>
</linearGradient>
<linearGradient id="paint11_linear_66_6087" x1="758.298" y1="525.586" x2="1451.74" y2="388.567" gradientUnits="userSpaceOnUse">
<stop stop-color="#0E1010"/>
<stop offset="0.19" stop-color="#3E4545" stop-opacity="0.4"/>
<stop offset="0.295" stop-color="#4D5656"/>
<stop offset="0.395" stop-color="#5C6666" stop-opacity="0.5"/>
<stop offset="0.59" stop-color="#1B1E1E"/>
<stop offset="1" stop-color="#030404"/>
</linearGradient>
<linearGradient id="paint12_linear_66_6087" x1="288.609" y1="646.448" x2="982.05" y2="509.429" gradientUnits="userSpaceOnUse">
<stop stop-color="#0E1010"/>
<stop offset="0.19" stop-color="#3E4545" stop-opacity="0.4"/>
<stop offset="0.295" stop-color="#4D5656"/>
<stop offset="0.395" stop-color="#5C6666" stop-opacity="0.5"/>
<stop offset="0.59" stop-color="#1B1E1E"/>
<stop offset="1" stop-color="#030404"/>
</linearGradient>
<linearGradient id="paint13_linear_66_6087" x1="513.334" y1="588.528" x2="1206.78" y2="451.509" gradientUnits="userSpaceOnUse">
<stop stop-color="#0E1010"/>
<stop offset="0.19" stop-color="#3E4545" stop-opacity="0.4"/>
<stop offset="0.295" stop-color="#4D5656"/>
<stop offset="0.395" stop-color="#5C6666" stop-opacity="0.5"/>
<stop offset="0.59" stop-color="#1B1E1E"/>
<stop offset="1" stop-color="#030404"/>
</linearGradient>
<linearGradient id="paint14_linear_66_6087" x1="738.058" y1="530.606" x2="1431.5" y2="393.587" gradientUnits="userSpaceOnUse">
<stop stop-color="#0E1010"/>
<stop offset="0.19" stop-color="#3E4545" stop-opacity="0.4"/>
<stop offset="0.295" stop-color="#4D5656"/>
<stop offset="0.395" stop-color="#5C6666" stop-opacity="0.5"/>
<stop offset="0.59" stop-color="#1B1E1E"/>
<stop offset="1" stop-color="#030404"/>
</linearGradient>
<linearGradient id="paint15_linear_66_6087" x1="268.978" y1="654.223" x2="962.419" y2="517.204" gradientUnits="userSpaceOnUse">
<stop stop-color="#0E1010"/>
<stop offset="0.19" stop-color="#3E4545" stop-opacity="0.4"/>
<stop offset="0.295" stop-color="#4D5656"/>
<stop offset="0.395" stop-color="#5C6666" stop-opacity="0.5"/>
<stop offset="0.59" stop-color="#1B1E1E"/>
<stop offset="1" stop-color="#030404"/>
</linearGradient>
<linearGradient id="paint16_linear_66_6087" x1="493.703" y1="596.302" x2="1187.14" y2="459.283" gradientUnits="userSpaceOnUse">
<stop stop-color="#0E1010"/>
<stop offset="0.19" stop-color="#3E4545" stop-opacity="0.4"/>
<stop offset="0.295" stop-color="#4D5656"/>
<stop offset="0.395" stop-color="#5C6666" stop-opacity="0.5"/>
<stop offset="0.59" stop-color="#1B1E1E"/>
<stop offset="1" stop-color="#030404"/>
</linearGradient>
<linearGradient id="paint17_linear_66_6087" x1="718.43" y1="538.379" x2="1411.87" y2="401.36" gradientUnits="userSpaceOnUse">
<stop stop-color="#0E1010"/>
<stop offset="0.19" stop-color="#3E4545" stop-opacity="0.4"/>
<stop offset="0.295" stop-color="#4D5656"/>
<stop offset="0.395" stop-color="#5C6666" stop-opacity="0.5"/>
<stop offset="0.59" stop-color="#1B1E1E"/>
<stop offset="1" stop-color="#030404"/>
</linearGradient>
<linearGradient id="paint18_linear_66_6087" x1="248.74" y1="659.242" x2="942.181" y2="522.223" gradientUnits="userSpaceOnUse">
<stop stop-color="#0E1010"/>
<stop offset="0.19" stop-color="#3E4545" stop-opacity="0.4"/>
<stop offset="0.295" stop-color="#4D5656"/>
<stop offset="0.395" stop-color="#5C6666" stop-opacity="0.5"/>
<stop offset="0.59" stop-color="#1B1E1E"/>
<stop offset="1" stop-color="#030404"/>
</linearGradient>
<linearGradient id="paint19_linear_66_6087" x1="473.466" y1="601.321" x2="1166.91" y2="464.302" gradientUnits="userSpaceOnUse">
<stop stop-color="#0E1010"/>
<stop offset="0.19" stop-color="#3E4545" stop-opacity="0.4"/>
<stop offset="0.295" stop-color="#4D5656"/>
<stop offset="0.395" stop-color="#5C6666" stop-opacity="0.5"/>
<stop offset="0.59" stop-color="#1B1E1E"/>
<stop offset="1" stop-color="#030404"/>
</linearGradient>
<linearGradient id="paint20_linear_66_6087" x1="698.19" y1="543.399" x2="1391.63" y2="406.38" gradientUnits="userSpaceOnUse">
<stop stop-color="#0E1010"/>
<stop offset="0.19" stop-color="#3E4545" stop-opacity="0.4"/>
<stop offset="0.295" stop-color="#4D5656"/>
<stop offset="0.395" stop-color="#5C6666" stop-opacity="0.5"/>
<stop offset="0.59" stop-color="#1B1E1E"/>
<stop offset="1" stop-color="#030404"/>
</linearGradient>
<linearGradient id="paint21_linear_66_6087" x1="228.502" y1="664.261" x2="921.943" y2="527.242" gradientUnits="userSpaceOnUse">
<stop stop-color="#0E1010"/>
<stop offset="0.19" stop-color="#3E4545" stop-opacity="0.4"/>
<stop offset="0.295" stop-color="#4D5656"/>
<stop offset="0.395" stop-color="#5C6666" stop-opacity="0.5"/>
<stop offset="0.59" stop-color="#1B1E1E"/>
<stop offset="1" stop-color="#030404"/>
</linearGradient>
<linearGradient id="paint22_linear_66_6087" x1="453.227" y1="606.339" x2="1146.67" y2="469.32" gradientUnits="userSpaceOnUse">
<stop stop-color="#0E1010"/>
<stop offset="0.19" stop-color="#3E4545" stop-opacity="0.4"/>
<stop offset="0.295" stop-color="#4D5656"/>
<stop offset="0.395" stop-color="#5C6666" stop-opacity="0.5"/>
<stop offset="0.59" stop-color="#1B1E1E"/>
<stop offset="1" stop-color="#030404"/>
</linearGradient>
<linearGradient id="paint23_linear_66_6087" x1="677.95" y1="548.417" x2="1371.39" y2="411.398" gradientUnits="userSpaceOnUse">
<stop stop-color="#0E1010"/>
<stop offset="0.19" stop-color="#3E4545" stop-opacity="0.4"/>
<stop offset="0.295" stop-color="#4D5656"/>
<stop offset="0.395" stop-color="#5C6666" stop-opacity="0.5"/>
<stop offset="0.59" stop-color="#1B1E1E"/>
<stop offset="1" stop-color="#030404"/>
</linearGradient>
<linearGradient id="paint24_linear_66_6087" x1="208.261" y1="669.281" x2="901.703" y2="532.262" gradientUnits="userSpaceOnUse">
<stop stop-color="#0E1010"/>
<stop offset="0.19" stop-color="#3E4545" stop-opacity="0.4"/>
<stop offset="0.295" stop-color="#4D5656"/>
<stop offset="0.395" stop-color="#5C6666" stop-opacity="0.5"/>
<stop offset="0.59" stop-color="#1B1E1E"/>
<stop offset="1" stop-color="#030404"/>
</linearGradient>
<linearGradient id="paint25_linear_66_6087" x1="432.988" y1="611.359" x2="1126.43" y2="474.34" gradientUnits="userSpaceOnUse">
<stop stop-color="#0E1010"/>
<stop offset="0.19" stop-color="#3E4545" stop-opacity="0.4"/>
<stop offset="0.295" stop-color="#4D5656"/>
<stop offset="0.395" stop-color="#5C6666" stop-opacity="0.5"/>
<stop offset="0.59" stop-color="#1B1E1E"/>
<stop offset="1" stop-color="#030404"/>
</linearGradient>
<linearGradient id="paint26_linear_66_6087" x1="657.712" y1="553.438" x2="1351.15" y2="416.419" gradientUnits="userSpaceOnUse">
<stop stop-color="#0E1010"/>
<stop offset="0.19" stop-color="#3E4545" stop-opacity="0.4"/>
<stop offset="0.295" stop-color="#4D5656"/>
<stop offset="0.395" stop-color="#5C6666" stop-opacity="0.5"/>
<stop offset="0.59" stop-color="#1B1E1E"/>
<stop offset="1" stop-color="#030404"/>
</linearGradient>
<linearGradient id="paint27_linear_66_6087" x1="187.721" y1="672.922" x2="881.162" y2="535.903" gradientUnits="userSpaceOnUse">
<stop stop-color="#0E1010"/>
<stop offset="0.19" stop-color="#3E4545" stop-opacity="0.4"/>
<stop offset="0.295" stop-color="#4D5656"/>
<stop offset="0.395" stop-color="#5C6666" stop-opacity="0.5"/>
<stop offset="0.59" stop-color="#1B1E1E"/>
<stop offset="1" stop-color="#030404"/>
</linearGradient>
<linearGradient id="paint28_linear_66_6087" x1="412.443" y1="615" x2="1105.88" y2="477.981" gradientUnits="userSpaceOnUse">
<stop stop-color="#0E1010"/>
<stop offset="0.19" stop-color="#3E4545" stop-opacity="0.4"/>
<stop offset="0.295" stop-color="#4D5656"/>
<stop offset="0.395" stop-color="#5C6666" stop-opacity="0.5"/>
<stop offset="0.59" stop-color="#1B1E1E"/>
<stop offset="1" stop-color="#030404"/>
</linearGradient>
<linearGradient id="paint29_linear_66_6087" x1="637.168" y1="557.08" x2="1330.61" y2="420.06" gradientUnits="userSpaceOnUse">
<stop stop-color="#0E1010"/>
<stop offset="0.19" stop-color="#3E4545" stop-opacity="0.4"/>
<stop offset="0.295" stop-color="#4D5656"/>
<stop offset="0.395" stop-color="#5C6666" stop-opacity="0.5"/>
<stop offset="0.59" stop-color="#1B1E1E"/>
<stop offset="1" stop-color="#030404"/>
</linearGradient>
<linearGradient id="paint30_linear_66_6087" x1="167.479" y1="677.94" x2="860.92" y2="540.921" gradientUnits="userSpaceOnUse">
<stop stop-color="#0E1010"/>
<stop offset="0.19" stop-color="#3E4545" stop-opacity="0.4"/>
<stop offset="0.295" stop-color="#4D5656"/>
<stop offset="0.395" stop-color="#5C6666" stop-opacity="0.5"/>
<stop offset="0.59" stop-color="#1B1E1E"/>
<stop offset="1" stop-color="#030404"/>
</linearGradient>
<linearGradient id="paint31_linear_66_6087" x1="392.205" y1="620.02" x2="1085.65" y2="483" gradientUnits="userSpaceOnUse">
<stop stop-color="#0E1010"/>
<stop offset="0.19" stop-color="#3E4545" stop-opacity="0.4"/>
<stop offset="0.295" stop-color="#4D5656"/>
<stop offset="0.395" stop-color="#5C6666" stop-opacity="0.5"/>
<stop offset="0.59" stop-color="#1B1E1E"/>
<stop offset="1" stop-color="#030404"/>
</linearGradient>
<linearGradient id="paint32_linear_66_6087" x1="616.93" y1="562.098" x2="1310.37" y2="425.078" gradientUnits="userSpaceOnUse">
<stop stop-color="#0E1010"/>
<stop offset="0.19" stop-color="#3E4545" stop-opacity="0.4"/>
<stop offset="0.295" stop-color="#4D5656"/>
<stop offset="0.395" stop-color="#5C6666" stop-opacity="0.5"/>
<stop offset="0.59" stop-color="#1B1E1E"/>
<stop offset="1" stop-color="#030404"/>
</linearGradient>
</defs>
</svg>
