<svg width="550" height="88" viewBox="0 0 550 88" fill="none" xmlns="http://www.w3.org/2000/svg">
<path d="M21.5418 74.7963H0V87C0 87.5523 0.447725 88 1.00001 88H548.034C548.586 88 549.034 87.5523 549.034 87V4.51411L524.641 15.6095C524.221 15.8005 523.725 15.6794 523.44 15.3165L512.509 1.38275C512.319 1.14112 512.029 1 511.722 1H480.58C480.464 1 480.348 1.02035 480.239 1.06012L458.89 8.81752C458.729 8.87602 458.555 8.89218 458.386 8.86446L432.421 4.60578C432.074 4.54891 431.723 4.67821 431.496 4.94636L412.262 27.6597C411.974 27.9999 411.495 28.1083 411.089 27.9254L388.859 17.9251C388.538 17.7806 388.164 17.8158 387.875 18.0178L383.699 20.9407C383.458 21.109 383.155 21.1631 382.871 21.0886L370.348 17.8021C370.08 17.7319 369.795 17.7757 369.561 17.9232L353.474 28.055C353.289 28.1713 353.072 28.224 352.854 28.205L333.63 26.5234C333.3 26.4945 332.977 26.6307 332.768 26.8871L313.262 50.775C313.104 50.9687 312.879 51.096 312.632 51.1321L283.258 55.4145C283.018 55.4494 282.774 55.3963 282.571 55.265L261.691 41.7772C261.349 41.5565 260.908 41.5647 260.575 41.7978L251.283 48.3001C251.151 48.3923 250.999 48.4514 250.84 48.4723L231.346 51.0301C231.119 51.0598 230.91 51.1663 230.752 51.3318L219.535 63.1064C219.37 63.2799 219.147 63.3883 218.909 63.4118L192.671 65.9938C192.556 66.0052 192.443 66.0365 192.338 66.0865L174.483 74.6058C174.229 74.7271 173.935 74.7356 173.674 74.6291L159.316 68.7678C159.123 68.689 158.91 68.6725 158.707 68.7208L117.41 78.5379C117.254 78.5752 117.09 78.5741 116.934 78.5347L102.356 74.8592C102.193 74.8179 102.021 74.8187 101.858 74.8616L88.8406 78.2776C88.7578 78.2994 88.6724 78.3104 88.5868 78.3104H62.1086C61.9929 78.3104 61.878 78.2903 61.7692 78.251L35.5364 68.7855C35.2898 68.6964 35.018 68.7079 34.7797 68.8173L21.9592 74.705C21.8283 74.7651 21.6859 74.7963 21.5418 74.7963Z" fill="url(#paint0_linear_66_6165)"/>
<path d="M3.26807 74.7963H21.1047C21.5369 74.7963 21.964 74.7029 22.3567 74.5225L34.0362 69.1589C34.7511 68.8305 35.5664 68.7962 36.3064 69.0632L61.4403 78.1323C61.7668 78.2501 62.1114 78.3104 62.4585 78.3104H88.3289C88.5859 78.3104 88.8418 78.2773 89.0904 78.2121L101.139 75.0504C101.767 74.8854 102.432 74.929 103.034 75.1746L116.2 80.5491C116.829 80.806 117.527 80.8415 118.18 80.6498L158.012 68.9427C158.664 68.751 159.362 68.7865 159.991 69.0434L172.856 74.2948C173.638 74.6142 174.519 74.5888 175.281 74.2249L192.022 66.2375C192.336 66.0876 192.674 65.9936 193.02 65.9595L218.169 63.4846C218.885 63.4141 219.552 63.089 220.048 62.5683L230.265 51.8434C230.738 51.3468 231.367 51.0274 232.047 50.9382L250.355 48.536C250.833 48.4732 251.289 48.296 251.684 48.0194L259.473 42.569C260.472 41.8696 261.796 41.845 262.821 42.507L281.94 54.8575C282.55 55.2515 283.282 55.4109 284.001 55.3062L311.863 51.2442C312.605 51.136 313.279 50.7539 313.754 50.1731L332.099 27.7067C332.727 26.9376 333.695 26.5291 334.684 26.6156L352.184 28.1463C352.836 28.2034 353.49 28.0453 354.044 27.6962L368.827 18.3856C369.53 17.9431 370.384 17.8116 371.187 18.0224L381.976 20.8535C382.828 21.0772 383.736 20.9149 384.457 20.4097L386.945 18.6692C387.811 18.0632 388.932 17.9576 389.895 18.3913L409.715 27.3075C410.935 27.8563 412.371 27.5311 413.235 26.5103L430.764 5.81087C431.445 5.00641 432.499 4.61852 433.539 4.78913L457.871 8.77989C458.378 8.86306 458.898 8.81457 459.381 8.63908L479.908 1.18036C480.237 1.06104 480.583 1 480.933 1H510.749C511.67 1 512.541 1.42336 513.109 2.14824L522.386 13.9722C523.278 15.1098 524.855 15.4489 526.136 14.7789L545.766 4.51411" stroke="#CAEAE5" stroke-width="2" stroke-linecap="round"/>
<defs>
<linearGradient id="paint0_linear_66_6165" x1="274.517" y1="1" x2="274.517" y2="88" gradientUnits="userSpaceOnUse">
<stop stop-color="#CAEAE5" stop-opacity="0.2"/>
<stop offset="1" stop-color="#FEF0EE" stop-opacity="0"/>
</linearGradient>
</defs>
</svg>
