<svg width="164" height="140" viewBox="0 0 164 140" fill="none" xmlns="http://www.w3.org/2000/svg">
<rect opacity="0.0416667" x="-0.111155" y="-0.297296" width="110.195" height="31.7227" transform="matrix(-0.87462 -0.48481 0.34202 -0.939693 149.8 134.946)" stroke="url(#paint0_linear_2662_11480)" stroke-width="0.417404"/>
<rect opacity="0.0833333" x="-0.0848205" y="-0.305853" width="110.195" height="31.7227" transform="matrix(-0.829038 -0.559193 0.422618 -0.906308 143.977 136.437)" stroke="url(#paint1_linear_2662_11480)" stroke-width="0.417404"/>
<rect opacity="0.125" x="-0.0578409" y="-0.312081" width="110.195" height="31.7227" transform="matrix(-0.777146 -0.62932 0.5 -0.866025 137.856 137.593)" stroke="url(#paint2_linear_2662_11480)" stroke-width="0.417404"/>
<rect opacity="0.166667" x="-0.0304211" y="-0.315935" width="110.195" height="31.7227" transform="matrix(-0.71934 -0.694658 0.573576 -0.819152 131.465 138.389)" stroke="url(#paint3_linear_2662_11480)" stroke-width="0.417404"/>
<rect opacity="0.208333" x="-0.00276975" y="-0.317384" width="110.195" height="31.7227" transform="matrix(-0.656059 -0.75471 0.642788 -0.766044 124.837 138.803)" stroke="url(#paint4_linear_2662_11480)" stroke-width="0.417404"/>
<rect opacity="0.25" x="0.0249026" y="-0.316418" width="110.195" height="31.7227" transform="matrix(-0.587785 -0.809017 0.707107 -0.707107 118.004 138.815)" stroke="url(#paint5_linear_2662_11480)" stroke-width="0.417404"/>
<rect opacity="0.291667" x="0.0523855" y="-0.313043" width="110.195" height="31.7227" transform="matrix(-0.515038 -0.857167 0.766044 -0.642788 111.003 138.408)" stroke="url(#paint6_linear_2662_11480)" stroke-width="0.417404"/>
<rect opacity="0.333333" x="0.0794697" y="-0.307286" width="110.195" height="31.7227" transform="matrix(-0.438371 -0.898794 0.819152 -0.573576 103.869 137.568)" stroke="url(#paint7_linear_2662_11480)" stroke-width="0.417404"/>
<rect opacity="0.375" x="0.105949" y="-0.299191" width="110.195" height="31.7227" transform="matrix(-0.358368 -0.93358 0.866025 -0.5 96.6403 136.285)" stroke="url(#paint8_linear_2662_11480)" stroke-width="0.417404"/>
<rect opacity="0.416667" x="0.131622" y="-0.288818" width="110.195" height="31.7227" transform="matrix(-0.275637 -0.961262 0.906308 -0.422618 89.3574 134.551)" stroke="url(#paint9_linear_2662_11480)" stroke-width="0.417404"/>
<rect opacity="0.458333" x="0.156293" y="-0.276248" width="110.195" height="31.7227" transform="matrix(-0.190809 -0.981627 0.939693 -0.34202 82.059 132.362)" stroke="url(#paint10_linear_2662_11480)" stroke-width="0.417404"/>
<rect opacity="0.5" x="0.179775" y="-0.261575" width="110.195" height="31.7227" transform="matrix(-0.104528 -0.994522 0.965926 -0.258819 74.7833 129.718)" stroke="url(#paint11_linear_2662_11480)" stroke-width="0.417404"/>
<rect opacity="0.541667" x="0.201889" y="-0.244911" width="110.195" height="31.7227" transform="matrix(-0.0174524 -0.999848 0.984808 -0.173648 67.5726 126.621)" stroke="url(#paint12_linear_2662_11480)" stroke-width="0.417404"/>
<rect opacity="0.583333" x="0.222466" y="-0.226383" width="110.195" height="31.7227" transform="matrix(0.0697565 -0.997564 0.996195 -0.0871557 60.4657 123.079)" stroke="url(#paint13_linear_2662_11480)" stroke-width="0.417404"/>
<rect opacity="0.625" x="0.24135" y="-0.206132" width="110.195" height="31.7227" transform="matrix(0.156434 -0.987688 1 0 53.5005 119.102)" stroke="url(#paint14_linear_2662_11480)" stroke-width="0.417404"/>
<rect opacity="0.666667" x="0.258397" y="-0.184313" width="110.195" height="31.7227" transform="matrix(0.241922 -0.970296 0.996195 0.0871557 46.7164 114.703)" stroke="url(#paint15_linear_2662_11480)" stroke-width="0.417404"/>
<rect opacity="0.708333" x="0.273478" y="-0.161091" width="110.195" height="31.7227" transform="matrix(0.325568 -0.945519 0.984808 0.173648 40.1497 109.899)" stroke="url(#paint16_linear_2662_11480)" stroke-width="0.417404"/>
<rect opacity="0.75" x="0.286477" y="-0.136643" width="110.195" height="31.7227" transform="matrix(0.406737 -0.913545 0.965926 0.258819 33.8361 104.709)" stroke="url(#paint17_linear_2662_11480)" stroke-width="0.417404"/>
<rect opacity="0.791667" x="0.297296" y="-0.111155" width="110.195" height="31.7227" transform="matrix(0.48481 -0.87462 0.939693 0.34202 27.8084 99.1591)" stroke="url(#paint18_linear_2662_11480)" stroke-width="0.417404"/>
<rect opacity="0.833333" x="0.305853" y="-0.0848205" width="110.195" height="31.7227" transform="matrix(0.559193 -0.829038 0.906308 0.422618 22.0984 93.2734)" stroke="url(#paint19_linear_2662_11480)" stroke-width="0.417404"/>
<rect opacity="0.875" x="0.312081" y="-0.0578409" width="110.195" height="31.7227" transform="matrix(0.62932 -0.777146 0.866025 0.5 16.7341 87.0818)" stroke="url(#paint20_linear_2662_11480)" stroke-width="0.417404"/>
<rect opacity="0.916667" x="0.315935" y="-0.0304211" width="110.195" height="31.7227" transform="matrix(0.694658 -0.71934 0.819152 0.573576 11.7425 80.6161)" stroke="url(#paint21_linear_2662_11480)" stroke-width="0.417404"/>
<rect opacity="0.958333" x="0.317384" y="-0.00276975" width="110.195" height="31.7227" transform="matrix(0.75471 -0.656059 0.766044 0.642788 7.14638 73.9104)" stroke="url(#paint22_linear_2662_11480)" stroke-width="0.417404"/>
<rect x="0.316418" y="0.0249026" width="110.195" height="31.7227" transform="matrix(0.809017 -0.587785 0.707107 0.707107 2.96567 66.9999)" stroke="url(#paint23_linear_2662_11480)" stroke-width="0.417404"/>
<path fill-rule="evenodd" clip-rule="evenodd" d="M89.487 2.11291e-05L0 65.0161L2.28311e-05 65.0161L30.3919 42.9351L28.6132 53.4L5.3127 70.3288L6.19813 71.2142L95.6851 6.19815L89.487 2.11291e-05ZM89.1892 3.78344L86.025 3.53441L89.4019 1.08098L92.3534 4.03247L89.1892 3.78344ZM72.9405 12.0219L70.2391 13.9846L71.1245 14.8701L73.826 12.9073L72.9405 12.0219ZM41.5357 34.8389L43.8968 37.2001L56.3913 28.1224L54.0301 25.7612L41.5357 34.8389Z" fill="#CAEAE5"/>
<path d="M43.9814 36.1191L42.2106 34.3482L53.3542 26.2519L55.1251 28.0228L43.9814 36.1191Z" fill="#CAEAE5"/>
<path d="M28.8722 44.0392L0 65.0161L4.42723 69.4433L27.2211 52.8826L28.8722 44.0392Z" fill="#CAEAE5"/>
<path d="M11.2635 67.5342L6.19824 71.2144L22.7266 87.7427L26.0714 85.3126L26.9923 84.6434L27.7919 84.0625L11.2635 67.5342Z" fill="#CAEAE5"/>
<path d="M12.38 82.3522L3.42504 73.3972L4.6922 71.1662L15.1651 81.6391L12.38 82.3522Z" stroke="#CAEAE5" stroke-width="0.417404"/>
<path d="M13.4893 83.7529L16.7385 82.921" stroke="#CAEAE5" stroke-width="0.417404"/>
<path d="M14.6699 84.9336L17.9192 84.1016" stroke="#CAEAE5" stroke-width="0.417404"/>
<path d="M15.8506 86.1143L19.0998 85.2823" stroke="#CAEAE5" stroke-width="0.417404"/>
<path d="M17.0312 87.2944L20.2805 86.4625" stroke="#CAEAE5" stroke-width="0.417404"/>
<path d="M18.2119 88.4751L21.4612 87.6431" stroke="#CAEAE5" stroke-width="0.417404"/>
<rect width="91.8288" height="15.8613" transform="matrix(0.809017 -0.587785 0.707107 0.707107 11.2637 67.5342)" fill="#CAEAE5"/>
<path d="M30.8258 57.7674L32.0813 56.8553L37.5794 62.3535L36.324 63.2656L34.0749 61.0165L31.2836 63.0446L33.5326 65.2936L32.2727 66.209L26.7746 60.7108L28.0345 59.7955L30.2485 62.0095L33.0399 59.9815L30.8258 57.7674ZM38.4205 54.7286L39.7427 53.768L42.216 60.2075C42.3659 60.5778 42.3937 60.9361 42.2993 61.2824C42.2075 61.6312 42.0087 61.9167 41.703 62.1388C41.4923 62.2919 41.2365 62.4128 40.9358 62.5015C40.6379 62.588 40.3509 62.6263 40.0746 62.6165L39.7155 61.4734C40.0181 61.5043 40.2792 61.44 40.4988 61.2805C40.7392 61.1058 40.8094 60.8711 40.7095 60.5765L40.5507 60.0872L34.6541 57.465L36.0031 56.485L39.9811 58.3647L38.4205 54.7286ZM43.4135 50.933C43.8379 50.6247 44.3157 50.4388 44.8467 50.3754C45.3781 50.3073 45.9052 50.3655 46.428 50.5501C46.9481 50.732 47.4066 51.0214 47.8035 51.4183C48.2004 51.8152 48.4644 52.2483 48.5953 52.7174C48.7237 53.184 48.7077 53.6368 48.5472 54.0759C48.3871 54.5102 48.0948 54.8816 47.6704 55.1899C47.059 55.6341 46.3599 55.8061 45.5731 55.706L47.5731 57.706L46.3889 58.5664L40.8129 52.9904L41.9971 52.13L42.4796 52.6125C42.4878 51.9392 42.7991 51.3794 43.4135 50.933ZM46.4305 54.3574C46.7986 54.09 46.9964 53.7627 47.0241 53.3753C47.0522 52.9832 46.9054 52.6263 46.5837 52.3046C46.262 51.9829 45.8732 51.8041 45.4171 51.7682C44.9614 51.7276 44.5495 51.841 44.1815 52.1084C43.8164 52.3736 43.6198 52.7023 43.5918 53.0944C43.5637 53.4865 43.7092 53.8421 44.0283 54.1612C44.3474 54.4803 44.7362 54.659 45.1949 54.6975C45.6536 54.736 46.0655 54.6227 46.4305 54.3574ZM53.7698 47.097C53.8995 47.2267 54.0125 47.3551 54.1088 47.4822L50.5072 50.0989C50.8471 50.2954 51.2096 50.3836 51.5945 50.3637C51.9794 50.3439 52.3396 50.2121 52.6749 49.9684C52.945 49.7722 53.1461 49.5454 53.2783 49.2882C53.4079 49.0283 53.4654 48.7783 53.4507 48.5381L54.8501 48.5694C54.8606 49.0052 54.7547 49.4271 54.5323 49.835C54.3129 50.2407 53.988 50.5999 53.5576 50.9126C53.0709 51.2662 52.5368 51.4931 51.9552 51.5931C51.3737 51.6931 50.8082 51.6605 50.2588 51.4954C49.7068 51.3277 49.231 51.0441 48.8315 50.6446C48.4372 50.2503 48.1861 49.8147 48.0781 49.3378C47.9705 48.8561 48.0131 48.3862 48.2058 47.9282C48.4015 47.468 48.7294 47.0708 49.1894 46.7366C49.8869 46.2298 50.6723 46.0108 51.5455 46.0795C52.4161 46.1457 53.1576 46.4848 53.7698 47.097ZM51.0691 47.3326C50.7024 47.3348 50.3751 47.4405 50.0872 47.6497C49.7993 47.8588 49.625 48.1176 49.5644 48.4259C49.5011 48.7316 49.5595 49.0385 49.7395 49.3466L52.1124 47.6226C51.784 47.4223 51.4362 47.3256 51.0691 47.3326ZM55.4728 42.2251L55.6732 42.0796L56.7432 43.1496L56.5429 43.2952C56.1215 43.6014 55.8932 43.9419 55.8581 44.3168C55.826 44.6895 55.9837 45.0496 56.3313 45.3972L58.2613 47.3272L57.0771 48.1876L53.0148 44.1253L54.199 43.2649L54.7243 43.7902C54.6861 43.1371 54.9356 42.6154 55.4728 42.2251ZM59.6788 36.8046L61.0589 35.8019L64.055 43.1178L62.764 44.0558L54.7638 40.3755L56.1706 39.3534L61.9681 42.1147L59.6788 36.8046ZM66.3963 34.403L67.5806 33.5426L71.6429 37.6049L70.4587 38.4653L69.9723 37.9789C69.9548 38.6634 69.6448 39.2246 69.0423 39.6623C68.3953 40.1324 67.6515 40.3212 66.8109 40.2288C65.9703 40.1363 65.2478 39.7879 64.6434 39.1835C64.039 38.579 63.7498 37.9158 63.7758 37.1937C63.8019 36.4716 64.1384 35.8755 64.7854 35.4054C65.3909 34.9655 66.0887 34.7922 66.8788 34.8855L66.3963 34.403ZM68.2654 38.4934C68.6335 38.2261 68.8315 37.8963 68.8596 37.5042C68.8906 37.1099 68.7466 36.7532 68.4275 36.4341C68.1084 36.1151 67.7181 35.9374 67.2564 35.901C66.7978 35.8625 66.3844 35.977 66.0164 36.2444C65.6513 36.5096 65.4548 36.8383 65.4267 37.2304C65.3986 37.6225 65.5441 37.9781 65.8632 38.2972C66.1823 38.6163 66.5712 38.7951 67.0298 38.8335C67.4885 38.872 67.9004 38.7587 68.2654 38.4934ZM75.4192 35.0292C74.7633 35.5057 74.0823 35.7318 73.3763 35.7073C72.6677 35.6802 72.054 35.4072 71.5352 34.8884L69.0915 32.4448L70.2758 31.5844L72.5754 33.8841C72.8348 34.1435 73.1314 34.2863 73.4651 34.3126C73.8018 34.3367 74.1185 34.2409 74.4153 34.0253C74.7121 33.8096 74.8717 33.5593 74.8942 33.2743C74.9196 32.9871 74.8026 32.7138 74.5432 32.4544L72.2435 30.1548L73.4277 29.2944L75.8713 31.738C76.3876 32.2542 76.6038 32.8138 76.5199 33.4166C76.4391 34.0173 76.0722 34.5548 75.4192 35.0292ZM79.0055 32.2557L73.2661 26.5163L74.4503 25.6559L80.1897 31.3953L79.0055 32.2557ZM81.5222 25.0459L80.2712 25.9548L81.9599 27.6436C82.3075 27.9912 82.695 28.0097 83.1224 27.6992C83.3035 27.5677 83.4614 27.3746 83.5961 27.1199L84.5611 28.0849C84.4315 28.3806 84.2005 28.6492 83.8681 28.8907C83.3487 29.2681 82.8363 29.4321 82.3309 29.3828C81.8259 29.3287 81.3633 29.0915 80.943 28.6713L79.087 26.8152L78.3479 27.3521L77.4024 26.4066L78.1414 25.8697L77.1103 24.8385L78.2945 23.9781L79.3256 25.0093L80.5766 24.1004L81.5222 25.0459Z" fill="#06110F"/>
<path fill-rule="evenodd" clip-rule="evenodd" d="M85.5547 13.5586L95.6853 6.19828L106.901 17.4139L96.7703 24.7743L85.5547 13.5586ZM95.6852 6.19845L93.574 8.7515L103.314 18.4914L106.606 17.119L95.6852 6.19845Z" fill="#CAEAE5"/>
<path d="M103.6 17.32L95.0238 8.74404L96.3007 7.10572L105.657 16.4623L103.6 17.32Z" stroke="#CAEAE5" stroke-width="0.417404"/>
<path fill-rule="evenodd" clip-rule="evenodd" d="M17.4131 82.4297L87.6517 31.3984L86.7172 41.2497L112.213 22.7263L106.9 17.4137L106.9 17.4136L106.999 17.5126L112.213 22.7263L78.7926 47.0074L59.4359 61.0709L33.5317 79.8914L31.9712 79.4967L30.2827 80.7234L30.4928 82.0993L22.7258 87.7424L17.512 82.5286L17.4131 82.4297Z" fill="#CAEAE5"/>
<path d="M88.8329 32.5793L108.081 18.5947L112.213 22.7268L88.2374 40.1462L88.8329 32.5793Z" fill="#CAEAE5"/>
<defs>
<linearGradient id="paint0_linear_2662_11480" x1="0" y1="0" x2="110.791" y2="31.5107" gradientUnits="userSpaceOnUse">
<stop stop-color="#CAEAE5"/>
<stop offset="1" stop-color="#CAEAE5"/>
</linearGradient>
<linearGradient id="paint1_linear_2662_11480" x1="0" y1="0" x2="110.791" y2="31.5107" gradientUnits="userSpaceOnUse">
<stop stop-color="#CAEAE5"/>
<stop offset="1" stop-color="#CAEAE5"/>
</linearGradient>
<linearGradient id="paint2_linear_2662_11480" x1="0" y1="0" x2="110.791" y2="31.5107" gradientUnits="userSpaceOnUse">
<stop stop-color="#CAEAE5"/>
<stop offset="1" stop-color="#CAEAE5"/>
</linearGradient>
<linearGradient id="paint3_linear_2662_11480" x1="0" y1="0" x2="110.791" y2="31.5107" gradientUnits="userSpaceOnUse">
<stop stop-color="#CAEAE5"/>
<stop offset="1" stop-color="#CAEAE5"/>
</linearGradient>
<linearGradient id="paint4_linear_2662_11480" x1="0" y1="0" x2="110.791" y2="31.5107" gradientUnits="userSpaceOnUse">
<stop stop-color="#CAEAE5"/>
<stop offset="1" stop-color="#CAEAE5"/>
</linearGradient>
<linearGradient id="paint5_linear_2662_11480" x1="0" y1="0" x2="110.791" y2="31.5107" gradientUnits="userSpaceOnUse">
<stop stop-color="#CAEAE5"/>
<stop offset="1" stop-color="#CAEAE5"/>
</linearGradient>
<linearGradient id="paint6_linear_2662_11480" x1="0" y1="0" x2="110.791" y2="31.5107" gradientUnits="userSpaceOnUse">
<stop stop-color="#CAEAE5"/>
<stop offset="1" stop-color="#CAEAE5"/>
</linearGradient>
<linearGradient id="paint7_linear_2662_11480" x1="0" y1="0" x2="110.791" y2="31.5107" gradientUnits="userSpaceOnUse">
<stop stop-color="#CAEAE5"/>
<stop offset="1" stop-color="#CAEAE5"/>
</linearGradient>
<linearGradient id="paint8_linear_2662_11480" x1="0" y1="0" x2="110.791" y2="31.5107" gradientUnits="userSpaceOnUse">
<stop stop-color="#CAEAE5"/>
<stop offset="1" stop-color="#CAEAE5"/>
</linearGradient>
<linearGradient id="paint9_linear_2662_11480" x1="0" y1="0" x2="110.791" y2="31.5107" gradientUnits="userSpaceOnUse">
<stop stop-color="#CAEAE5"/>
<stop offset="1" stop-color="#CAEAE5"/>
</linearGradient>
<linearGradient id="paint10_linear_2662_11480" x1="0" y1="0" x2="110.791" y2="31.5107" gradientUnits="userSpaceOnUse">
<stop stop-color="#CAEAE5"/>
<stop offset="1" stop-color="#CAEAE5"/>
</linearGradient>
<linearGradient id="paint11_linear_2662_11480" x1="0" y1="0" x2="110.791" y2="31.5107" gradientUnits="userSpaceOnUse">
<stop stop-color="#CAEAE5"/>
<stop offset="1" stop-color="#CAEAE5"/>
</linearGradient>
<linearGradient id="paint12_linear_2662_11480" x1="0" y1="0" x2="110.791" y2="31.5107" gradientUnits="userSpaceOnUse">
<stop stop-color="#CAEAE5"/>
<stop offset="1" stop-color="#CAEAE5"/>
</linearGradient>
<linearGradient id="paint13_linear_2662_11480" x1="0" y1="0" x2="110.791" y2="31.5107" gradientUnits="userSpaceOnUse">
<stop stop-color="#CAEAE5"/>
<stop offset="1" stop-color="#CAEAE5"/>
</linearGradient>
<linearGradient id="paint14_linear_2662_11480" x1="0" y1="0" x2="110.791" y2="31.5107" gradientUnits="userSpaceOnUse">
<stop stop-color="#CAEAE5"/>
<stop offset="1" stop-color="#CAEAE5"/>
</linearGradient>
<linearGradient id="paint15_linear_2662_11480" x1="0" y1="0" x2="110.791" y2="31.5107" gradientUnits="userSpaceOnUse">
<stop stop-color="#CAEAE5"/>
<stop offset="1" stop-color="#CAEAE5"/>
</linearGradient>
<linearGradient id="paint16_linear_2662_11480" x1="0" y1="0" x2="110.791" y2="31.5107" gradientUnits="userSpaceOnUse">
<stop stop-color="#CAEAE5"/>
<stop offset="1" stop-color="#CAEAE5"/>
</linearGradient>
<linearGradient id="paint17_linear_2662_11480" x1="0" y1="0" x2="110.791" y2="31.5107" gradientUnits="userSpaceOnUse">
<stop stop-color="#CAEAE5"/>
<stop offset="1" stop-color="#CAEAE5"/>
</linearGradient>
<linearGradient id="paint18_linear_2662_11480" x1="0" y1="0" x2="110.791" y2="31.5107" gradientUnits="userSpaceOnUse">
<stop stop-color="#CAEAE5"/>
<stop offset="1" stop-color="#CAEAE5"/>
</linearGradient>
<linearGradient id="paint19_linear_2662_11480" x1="0" y1="0" x2="110.791" y2="31.5107" gradientUnits="userSpaceOnUse">
<stop stop-color="#CAEAE5"/>
<stop offset="1" stop-color="#CAEAE5"/>
</linearGradient>
<linearGradient id="paint20_linear_2662_11480" x1="0" y1="0" x2="110.791" y2="31.5107" gradientUnits="userSpaceOnUse">
<stop stop-color="#CAEAE5"/>
<stop offset="1" stop-color="#CAEAE5"/>
</linearGradient>
<linearGradient id="paint21_linear_2662_11480" x1="0" y1="0" x2="110.791" y2="31.5107" gradientUnits="userSpaceOnUse">
<stop stop-color="#CAEAE5"/>
<stop offset="1" stop-color="#CAEAE5"/>
</linearGradient>
<linearGradient id="paint22_linear_2662_11480" x1="0" y1="0" x2="110.791" y2="31.5107" gradientUnits="userSpaceOnUse">
<stop stop-color="#CAEAE5"/>
<stop offset="1" stop-color="#CAEAE5"/>
</linearGradient>
<linearGradient id="paint23_linear_2662_11480" x1="0" y1="0" x2="110.791" y2="31.5107" gradientUnits="userSpaceOnUse">
<stop stop-color="#CAEAE5"/>
<stop offset="1" stop-color="#CAEAE5"/>
</linearGradient>
</defs>
</svg>
