<svg width="357" height="207" viewBox="0 0 357 207" fill="none" xmlns="http://www.w3.org/2000/svg">
<rect opacity="0.0416667" x="-0.249986" y="-0.19557" width="110.195" height="31.7227" transform="matrix(-0.999076 0.0429764 -0.198737 -0.980053 145.842 68.5547)" stroke="#CAEAE5" stroke-width="0.417404"/>
<rect opacity="0.0833333" x="-0.224289" y="-0.224577" width="110.195" height="31.7227" transform="matrix(-0.996867 -0.0791007 -0.0778175 -0.996968 152.321 79.4093)" stroke="#CAEAE5" stroke-width="0.417404"/>
<rect opacity="0.125" x="-0.195248" y="-0.250237" width="110.195" height="31.7227" transform="matrix(-0.979796 -0.199999 0.0442624 -0.99902 157.975 89.9768)" stroke="#CAEAE5" stroke-width="0.417404"/>
<rect opacity="0.166667" x="-0.163296" y="-0.272167" width="110.195" height="31.7227" transform="matrix(-0.948119 -0.317915 0.165682 -0.986179 162.843 100.16)" stroke="#CAEAE5" stroke-width="0.417404"/>
<rect opacity="0.208333" x="-0.12891" y="-0.290039" width="110.195" height="31.7227" transform="matrix(-0.902308 -0.431092 0.284632 -0.958637 166.979 109.867)" stroke="#CAEAE5" stroke-width="0.417404"/>
<rect opacity="0.25" x="-0.0926023" y="-0.303587" width="110.195" height="31.7227" transform="matrix(-0.843045 -0.537842 0.399339 -0.916803 170.441 119.011)" stroke="#CAEAE5" stroke-width="0.417404"/>
<rect opacity="0.291667" x="-0.0549141" y="-0.31261" width="110.195" height="31.7227" transform="matrix(-0.771215 -0.636575 0.508093 -0.861302 173.301 127.516)" stroke="#CAEAE5" stroke-width="0.417404"/>
<rect opacity="0.333333" x="-0.0164072" y="-0.316972" width="110.195" height="31.7227" transform="matrix(-0.687888 -0.725817 0.609272 -0.792961 175.64 135.311)" stroke="#CAEAE5" stroke-width="0.417404"/>
<rect opacity="0.375" x="0.0223442" y="-0.316609" width="110.195" height="31.7227" transform="matrix(-0.594305 -0.80424 0.701368 -0.712799 177.547 142.337)" stroke="#CAEAE5" stroke-width="0.417404"/>
<rect opacity="0.416667" x="0.0607626" y="-0.311526" width="110.195" height="31.7227" transform="matrix(-0.491863 -0.870672 0.783009 -0.622011 179.116 148.545)" stroke="#CAEAE5" stroke-width="0.417404"/>
<rect opacity="0.458333" x="0.0982751" y="-0.301799" width="110.195" height="31.7227" transform="matrix(-0.382089 -0.924126 0.852976 -0.52195 180.449 153.899)" stroke="#CAEAE5" stroke-width="0.417404"/>
<rect opacity="0.5" x="0.134323" y="-0.287572" width="110.195" height="31.7227" transform="matrix(-0.266618 -0.963802 0.910228 -0.414108 181.652 158.372)" stroke="#CAEAE5" stroke-width="0.417404"/>
<rect opacity="0.541667" x="0.168368" y="-0.269059" width="110.195" height="31.7227" transform="matrix(-0.147173 -0.989111 0.95391 -0.300092 182.831 161.954)" stroke="#CAEAE5" stroke-width="0.417404"/>
<rect opacity="0.583333" x="0.199903" y="-0.246535" width="110.195" height="31.7227" transform="matrix(-0.0255336 -0.999674 0.983372 -0.181603 184.097 164.647)" stroke="#CAEAE5" stroke-width="0.417404"/>
<rect opacity="0.625" x="0.228458" y="-0.220335" width="110.195" height="31.7227" transform="matrix(0.0964864 -0.995334 0.998174 -0.0604062 185.56 166.466)" stroke="#CAEAE5" stroke-width="0.417404"/>
<rect opacity="0.666667" x="0.253607" y="-0.190851" width="110.195" height="31.7227" transform="matrix(0.217068 -0.976157 0.998095 0.0616909 187.325 167.44)" stroke="#CAEAE5" stroke-width="0.417404"/>
<rect opacity="0.708333" x="0.274975" y="-0.158521" width="110.195" height="31.7227" transform="matrix(0.334413 -0.942427 0.983137 0.182868 189.495 167.609)" stroke="#CAEAE5" stroke-width="0.417404"/>
<rect opacity="0.75" x="0.292245" y="-0.123829" width="110.195" height="31.7227" transform="matrix(0.446774 -0.894647 0.953523 0.301319 192.167 167.029)" stroke="#CAEAE5" stroke-width="0.417404"/>
<rect opacity="0.791667" x="0.305157" y="-0.0872899" width="110.195" height="31.7227" transform="matrix(0.552474 -0.83353 0.909694 0.415279 195.432 165.767)" stroke="#CAEAE5" stroke-width="0.417404"/>
<rect opacity="0.833333" x="0.313521" y="-0.04945" width="110.195" height="31.7227" transform="matrix(0.649937 -0.759988 0.852304 0.523047 199.37 163.901)" stroke="#CAEAE5" stroke-width="0.417404"/>
<rect opacity="0.875" x="0.31721" y="-0.0108728" width="110.195" height="31.7227" transform="matrix(0.737712 -0.675116 0.782207 0.623018 204.051 161.516)" stroke="#CAEAE5" stroke-width="0.417404"/>
<rect opacity="0.916667" x="0.316171" y="0.0278664" width="110.195" height="31.7227" transform="matrix(0.814489 -0.580179 0.70045 0.713701 209.536 158.711)" stroke="#CAEAE5" stroke-width="0.417404"/>
<rect opacity="0.958333" x="0.310418" y="0.0661902" width="110.195" height="31.7227" transform="matrix(0.879124 -0.476593 0.608251 0.793745 215.87 155.587)" stroke="#CAEAE5" stroke-width="0.417404"/>
<rect x="0.300037" y="0.103527" width="110.195" height="31.7227" transform="matrix(0.930653 -0.365902 0.506984 0.861956 223.089 152.253)" stroke="#CAEAE5" stroke-width="0.417404"/>
<rect x="0.300037" y="0.103527" width="106.438" height="30.8879" transform="matrix(0.930653 -0.365902 0.506984 0.861956 232.386 117.078)" stroke="#CAEAE5" stroke-width="0.417404"/>
<g clip-path="url(#clip0_2662_11543)">
<path fill-rule="evenodd" clip-rule="evenodd" d="M283.976 98.8982L285.141 98.44L284.083 96.6412L308.362 87.0955L309.985 88.2292L311.927 87.4656L311.858 85.721L319.238 82.8192L320.65 83.5931L322.204 82.9822L322.346 81.5974L331.863 77.8555L336.307 85.411L236.862 124.51L234.746 120.912L237.468 114.969L279.81 98.3211L280.868 100.12L282.033 99.6619L280.975 97.863L282.917 97.0994L283.976 98.8982ZM282.176 98.2771L282.564 98.1243L282.141 97.4048L281.752 97.5575L282.176 98.2771Z" fill="#CAEAE5"/>
<path d="M234.293 119.736L232.718 117.058L236.253 115.668L234.293 119.736Z" stroke="#CAEAE5" stroke-width="0.417404"/>
</g>
<path fill-rule="evenodd" clip-rule="evenodd" d="M244.356 121.562L250.183 119.271L259.534 135.169L258.614 135.531L257.555 135.947L253.707 137.46L244.356 121.562ZM244.863 122.424L248.394 121.922L255.378 133.795L252.693 135.736L244.863 122.424Z" fill="#CAEAE5"/>
<path d="M247.99 122.86L245.371 123.287L252.228 134.944L254.283 133.56L247.99 122.86Z" fill="#CAEAE5"/>
<path d="M260.881 129.733L254.732 119.279L256.379 118.013L263.088 129.419L260.881 129.733Z" stroke="#CAEAE5" stroke-width="0.417404"/>
<rect width="80.0177" height="18.087" transform="matrix(0.930653 -0.365902 0.506984 0.861956 250.185 119.271)" fill="#CAEAE5"/>
<path d="M265.394 117.295L267.112 116.619L271.284 123.712L269.566 124.387L267.909 121.571L264.837 122.779L266.493 125.595L264.77 126.273L260.598 119.18L262.321 118.503L263.954 121.278L267.027 120.07L265.394 117.295ZM273.959 116.208L275.769 115.496L276.654 122.638C276.717 123.079 276.648 123.475 276.445 123.827C276.248 124.18 275.953 124.434 275.559 124.589C275.292 124.694 274.987 124.754 274.644 124.769C274.302 124.785 273.983 124.749 273.688 124.664L273.623 123.249C273.908 123.347 274.178 123.346 274.435 123.245C274.706 123.138 274.833 122.928 274.817 122.613L274.793 122.22L269.499 117.961L271.352 117.233L274.621 120.045L273.959 116.208ZM280.25 113.58C281.03 113.273 281.835 113.28 282.664 113.601C283.491 113.918 284.135 114.469 284.596 115.252C285.056 116.035 285.181 116.791 284.97 117.521C284.757 118.248 284.26 118.764 283.479 119.071C282.797 119.339 282.101 119.347 281.391 119.095L282.847 121.569L281.226 122.206L276.996 115.014L278.616 114.377L278.923 114.899C279.125 114.288 279.567 113.848 280.25 113.58ZM281.096 117.765C281.506 117.909 281.909 117.902 282.306 117.746C282.704 117.59 282.962 117.336 283.08 116.985C283.198 116.634 283.149 116.274 282.932 115.906C282.716 115.538 282.403 115.282 281.993 115.138C281.584 114.994 281.18 115 280.783 115.156C280.386 115.312 280.128 115.566 280.01 115.918C279.892 116.269 279.941 116.629 280.157 116.997C280.374 117.365 280.687 117.621 281.096 117.765ZM291.796 112.446C291.902 112.626 291.984 112.788 292.041 112.93L287.825 114.588C288.099 114.842 288.414 115.003 288.769 115.07C289.123 115.136 289.478 115.1 289.832 114.96C290.135 114.841 290.379 114.677 290.564 114.469C290.748 114.26 290.863 114.044 290.909 113.82L292.512 114.265C292.394 114.707 292.168 115.105 291.833 115.459C291.497 115.81 291.072 116.086 290.559 116.287C289.66 116.641 288.753 116.672 287.838 116.381C286.926 116.085 286.237 115.542 285.773 114.752C285.475 114.247 285.335 113.735 285.351 113.218C285.371 112.7 285.542 112.231 285.864 111.811C286.187 111.392 286.63 111.071 287.194 110.85C288.043 110.516 288.906 110.5 289.782 110.802C290.658 111.105 291.329 111.652 291.796 112.446ZM287.934 112.153C287.63 112.272 287.415 112.462 287.288 112.722C287.159 112.979 287.138 113.269 287.226 113.593L289.768 112.594C289.504 112.335 289.21 112.167 288.884 112.089C288.558 112.011 288.241 112.032 287.934 112.153ZM294.828 107.897L295.072 107.802L295.979 109.342L295.735 109.438C295.247 109.63 294.94 109.899 294.815 110.245C294.693 110.59 294.753 110.968 294.995 111.379L296.433 113.824L294.812 114.461L291.73 109.221L293.35 108.584L293.699 109.176C293.852 108.559 294.229 108.133 294.828 107.897ZM300.414 103.526L302.3 102.785L303.474 111.055L301.697 111.754L294.528 105.84L296.452 105.084L301.356 109.268L300.414 103.526ZM307.895 102.865L309.515 102.228L312.597 107.468L310.977 108.105L310.67 107.583C310.469 108.194 310.025 108.634 309.338 108.904C308.561 109.21 307.757 109.203 306.924 108.883C306.095 108.562 305.451 108.012 304.992 107.232C304.533 106.453 304.41 105.698 304.621 104.968C304.836 104.237 305.332 103.718 306.108 103.413C306.795 103.143 307.493 103.135 308.202 103.387L307.895 102.865ZM308.81 107.326C309.208 107.169 309.465 106.916 309.583 106.564C309.702 106.213 309.652 105.853 309.436 105.485C309.219 105.117 308.906 104.861 308.497 104.717C308.088 104.573 307.684 104.58 307.287 104.736C306.893 104.891 306.637 105.144 306.519 105.495C306.405 105.845 306.456 106.204 306.672 106.572C306.889 106.94 307.2 107.197 307.605 107.342C308.015 107.486 308.416 107.481 308.81 107.326ZM317.085 105.859C316.279 106.175 315.511 106.228 314.782 106.016C314.054 105.8 313.493 105.357 313.1 104.688L311.252 101.545L312.872 100.908L314.599 103.845C314.772 104.139 315.008 104.339 315.305 104.444C315.605 104.545 315.914 104.533 316.231 104.408C316.549 104.283 316.752 104.094 316.839 103.841C316.924 103.586 316.88 103.31 316.707 103.016L314.98 100.08L316.6 99.4425L318.449 102.585C318.842 103.254 318.915 103.888 318.668 104.488C318.422 105.084 317.894 105.54 317.085 105.859ZM321.441 103.991L317.086 96.5879L318.706 95.9509L323.061 103.354L321.441 103.991ZM326.193 97.3521L324.74 97.9232L325.871 99.8455C326.117 100.264 326.477 100.38 326.95 100.194C327.185 100.102 327.396 99.9423 327.583 99.7162L328.413 101.127C328.18 101.404 327.863 101.621 327.462 101.779C326.797 102.04 326.202 102.072 325.677 101.875C325.153 101.673 324.726 101.291 324.395 100.729L323.12 98.5602L322.264 98.8969L321.461 97.5316L322.317 97.195L321.552 95.895L323.173 95.2579L323.937 96.5579L325.39 95.9869L326.193 97.3521Z" fill="#091513"/>
<path fill-rule="evenodd" clip-rule="evenodd" d="M324.653 89.9927L336.307 85.4108L345.658 101.309L334.004 105.891L324.653 89.9927ZM336.814 86.2729L334.13 88.2143L341.113 100.087L344.644 99.5849L336.814 86.2729Z" fill="#CAEAE5"/>
<path d="M335.279 88.542L337.322 87.1364L344.178 98.7932L341.572 99.242L335.279 88.542Z" fill="#CAEAE5"/>
<path fill-rule="evenodd" clip-rule="evenodd" d="M261.996 141.354L349.076 107.117L345.478 101.001L246.033 140.1L249.631 146.216L259.407 142.372L259.501 141.449L261.055 140.838L261.996 141.354ZM269.567 136.606L271.509 135.842L273.132 136.976L269.636 138.35L269.567 136.606ZM342.014 108.122L346.287 106.442L344.382 103.204L342.014 108.122ZM335.533 111.334L323.685 115.992L323.474 115.633L335.322 110.974L335.533 111.334ZM322.908 116.298L322.132 116.603L321.92 116.244L322.697 115.938L322.908 116.298ZM320.578 117.214L321.355 116.909L321.143 116.549L320.366 116.854L320.578 117.214Z" fill="#CAEAE5"/>
<path d="M344.411 103.659L345.986 106.338L342.451 107.728L344.411 103.659Z" stroke="#CAEAE5" stroke-width="0.417404"/>
<defs>
<clipPath id="clip0_2662_11543">
<rect width="106.855" height="8.76548" fill="white" transform="matrix(0.930653 -0.365902 0.506984 0.861956 232.418 116.954)"/>
</clipPath>
</defs>
</svg>
