<svg width="358" height="175" viewBox="0 0 358 175" fill="none" xmlns="http://www.w3.org/2000/svg">
<mask id="mask0_41_2" style="mask-type:luminance" maskUnits="userSpaceOnUse" x="226" y="31" width="261" height="142">
<path d="M226.061 31H486.958V172.064H226.061V31Z" fill="white"/>
</mask>
<g mask="url(#mask0_41_2)">
<path d="M226.499 76.9227C243.657 59.4401 265.898 30.1917 270.102 31.0803C288.303 34.9236 293.191 50.5519 303.75 60.7294C307.831 64.4484 313.191 65.6064 317.874 68.7114C325.215 73.571 327.888 84.6109 336.703 87.8769C342.724 90.1142 349.648 89.1696 355.429 93.6286C370.843 107.133 373.166 124.364 397.044 133.805C403.782 136.436 404.763 134.443 413.101 141.234C445.982 168.425 430.05 169.573 486.927 171.704L486.92 171.915C469.498 172.075 450.027 172.361 440.213 167.493C430.601 162.78 415.789 145.121 405.638 139.151C401.622 136.847 400.121 138.295 390.559 133.623C367.965 122.315 361.711 96.6339 349.895 92.2291C344.411 90.1475 338.022 90.5358 332.949 87.0564C327.008 83.1992 324.243 75.1139 318.83 70.3768C315.809 67.5324 308.644 65.5364 303.937 62.2443C293.933 55.2593 287.035 36.6659 269.292 32.8961C271.909 32.3958 271.116 31.7223 264.875 37.8607C260.124 42.5226 228.243 77.7676 226.499 76.9227Z" fill="black"/>
</g>
<mask id="mask1_41_2" style="mask-type:luminance" maskUnits="userSpaceOnUse" x="0" y="64" width="214" height="113">
<path d="M0 64.5872H213.97V176.095H0V64.5872Z" fill="white"/>
</mask>
<g mask="url(#mask1_41_2)">
<path d="M0.0378418 175.81C8.78963 168.005 15.5752 158.337 24.5229 151.425C31.0758 146.364 35.8357 146.779 41.9513 143.817C48.6494 140.579 55.3317 129.464 58.1149 125.857C64.9809 116.997 71.5093 119.264 95.4451 133.904C99.465 136.358 99.1571 136.012 98.2107 135.961C117.009 127.145 105.098 113.785 119.601 103.45C126.927 98.4017 137.082 97.6723 142.498 92.8477C149.245 86.5467 158.836 64.4757 171.22 64.8815C179.137 65.1946 184.567 72.2076 188.755 77.7389C196.774 88.2995 201.201 93.7276 213.709 86.9315L213.917 87.0907C191.606 101.349 187.627 68.1754 171.323 66.9177C162.818 66.4296 153.881 84.0889 146.847 92.3141C141.182 98.8391 132.845 99.0787 124.3 103.174C105.925 112.753 119.843 127.001 98.4399 136.675C68.2818 117.488 64.4771 120.163 60.1021 126.511C58.9475 128.201 52.7935 138.811 47.2184 143.097C42.0842 147.283 34.6846 147.575 28.667 150.926C19.8103 156.451 1.72417 176.75 0.0378418 175.81Z" fill="black"/>
</g>
<path d="M381.893 172.349C364.407 167.443 352.043 157.503 336.009 157.713C327.446 157.82 315.241 160.697 308.303 160.227C298.897 159.408 284.096 149.388 277.02 144.163C254.04 127.182 257.911 122.13 246.86 99.0674C242.769 90.5343 237.328 83.1645 228.01 78.2839C221.758 75.0127 220.873 75.8226 223.014 75.3608C216.798 84.3103 196.122 115.525 178.24 130.377C170.216 137.064 165.084 138.588 159.084 139.886C147.283 142.421 145.717 148.905 136.836 159.277C122.757 175.743 111.149 169.482 99.9657 168.891C88.3398 168.06 67.4181 174.984 51.1251 175.983C51.0149 175.297 51.2668 176.476 66.0816 173.254C77.7828 170.703 87.32 167.934 97.0741 167.427C103.37 167.042 109.501 168.888 115.353 168.809C131 168.545 136.663 152.911 145.138 144.366C152.482 137.134 157.633 138.705 164.823 135.81C182.972 128.51 209.605 91.0923 221.595 74.9112C222.071 74.2675 221.789 74.3287 222.687 74.6751C253.142 86.4427 248.293 116.216 267.033 133.569C272.077 138.404 295.307 155.757 307.054 158.185C311.555 159.139 321.675 157.316 328.431 156.62C349.422 154.435 358.23 162.625 375.534 169.774C382.349 172.6 382.194 171.877 381.893 172.349Z" fill="black"/>
<path d="M179.328 169.188C194.965 162.774 203.101 151.702 220.615 153.396C235.616 155.339 238.533 158.285 250.894 154.353C253.35 153.585 255.601 152.901 258.351 152.745C268.725 152.005 300.174 164.196 312.722 168.497C312.004 169.71 275.141 157.923 266.284 155.813C261.551 154.676 259.326 154.344 255.986 154.879C251.006 155.698 246.069 158.042 238.546 157.027C231.004 156.107 227.46 154.841 220.718 154.389C205.667 153.443 194.776 165.658 179.463 169.377L179.328 169.188Z" fill="black"/>
<mask id="mask2_41_2" style="mask-type:luminance" maskUnits="userSpaceOnUse" x="107" y="28" width="51" height="24">
<path d="M107 28.4185H157.622V51.4403H107V28.4185Z" fill="white"/>
</mask>
<g mask="url(#mask2_41_2)">
<path d="M157.308 39.6724C157.229 39.5367 157.149 39.4035 157.053 39.2775C156.926 39.1121 156.8 38.9492 156.635 38.816C156.508 38.715 156.334 38.6599 156.18 38.623C156.079 38.6001 155.969 38.5886 155.865 38.5865C155.719 38.584 155.571 38.5865 155.427 38.5954C155.126 38.6187 154.83 38.6692 154.531 38.6968C154.297 38.7082 154.065 38.6968 153.831 38.6828C153.53 38.6599 153.227 38.637 152.926 38.6187C152.917 38.6162 152.901 38.6162 152.887 38.6141H152.864C152.639 38.6001 152.409 38.5865 152.182 38.5725C151.672 38.536 151.167 38.4715 150.664 38.3731C150.361 38.3065 150.072 38.203 149.773 38.125C149.619 38.0838 149.468 38.0423 149.311 38.0032C149.025 37.9298 148.744 37.8497 148.464 37.7576C148.195 37.6567 147.927 37.5557 147.656 37.4615C147.153 37.2847 146.574 37.1035 145.977 37.0068C145.417 36.9152 144.857 36.9173 144.292 36.9589C144.285 36.9589 144.202 36.9635 144.124 36.9703C143.913 36.9818 143.633 37.0323 143.352 37.0827C143.093 37.1311 142.831 37.1837 142.576 37.2482C142.085 37.3742 141.596 37.5074 141.1 37.6155C141.058 37.6244 140.987 37.6384 140.914 37.6545C140.884 37.6588 140.854 37.6635 140.822 37.6681C140.714 37.6728 140.608 37.6702 140.503 37.6635C140.487 37.6613 140.47 37.6588 140.454 37.6567C140.441 37.652 140.429 37.6473 140.415 37.6431C140.409 37.6384 140.402 37.6338 140.392 37.6291C140.392 37.6291 140.392 37.627 140.39 37.627C140.388 37.6223 140.384 37.6198 140.381 37.6155C140.374 37.6062 140.367 37.5994 140.36 37.5901C140.353 37.5807 140.349 37.5718 140.344 37.5625C140.335 37.5417 140.328 37.5213 140.319 37.5006C140.31 37.4709 140.301 37.4408 140.294 37.4089C140.289 37.3814 140.287 37.3538 140.287 37.3262C140.273 37.039 140.285 36.7523 140.303 36.4651C140.33 36.1393 140.36 35.7949 140.399 35.4504C140.431 35.1751 140.459 34.8994 140.512 34.6288C140.519 34.5965 140.526 34.5622 140.532 34.5299C140.585 34.2843 140.663 33.9628 140.684 33.6277C140.707 33.3248 140.709 32.9757 140.698 32.627C140.682 32.0141 140.631 31.3986 140.438 30.8157C140.342 30.5357 140.223 30.2668 140.096 30.0008C139.993 29.787 139.878 29.5669 139.729 29.3832C139.662 29.2984 139.596 29.2178 139.513 29.1491C139.451 29.096 139.391 29.0502 139.325 29.0091C139.13 28.8759 138.92 28.7448 138.702 28.6532C138.505 28.5683 138.308 28.5179 138.089 28.5017C137.947 28.495 137.814 28.5085 137.678 28.534C137.632 28.5429 137.586 28.5522 137.543 28.5615C137.419 28.5866 137.216 28.6349 137.019 28.6969C136.801 28.7681 136.599 28.8712 136.394 28.9722C136.094 29.1215 135.791 29.2755 135.492 29.4316C135.203 29.5762 134.851 29.7735 134.498 29.9618C134.355 30.0327 134.144 30.1294 133.926 30.2121C133.871 30.2303 133.767 30.26 133.66 30.2855C133.579 30.299 133.499 30.3084 133.416 30.313C133.189 30.3219 132.961 30.3313 132.734 30.3266C132.479 30.3219 132.22 30.3037 131.965 30.2901C131.721 30.2761 131.471 30.2829 131.228 30.2969C130.971 30.3152 130.709 30.3198 130.451 30.3406C130.061 30.375 129.673 30.4025 129.287 30.4895C128.908 30.5722 128.527 30.6689 128.157 30.7928C127.776 30.9213 127.416 31.0842 127.051 31.2518C126.835 31.3506 126.614 31.4584 126.419 31.5962C126.256 31.7065 126.116 31.844 125.967 31.9771C125.88 32.0484 125.76 32.1676 125.636 32.2872C125.407 32.5053 125.179 32.7301 124.979 32.9804C124.69 33.3503 124.424 33.7405 124.21 34.1605C124.003 34.569 123.813 34.9983 123.705 35.4437C123.641 35.6918 123.592 35.9395 123.567 36.1919C123.542 36.4146 123.532 36.6352 123.528 36.8579C123.524 37.0713 123.521 37.2847 123.514 37.4984C123.514 37.5328 123.512 37.5672 123.512 37.6015C123.399 37.3699 123.289 37.14 123.177 36.9105C123.131 36.821 123.087 36.7294 123.041 36.6373C122.965 36.4859 122.883 36.3162 122.763 36.1945C122.701 36.13 122.644 36.0821 122.57 36.0358C122.506 35.9947 122.428 35.9692 122.357 35.9395C122.21 35.8869 122.047 35.8432 121.886 35.836C121.806 35.8339 121.714 35.8318 121.636 35.8547C121.567 35.8729 121.5 35.8984 121.434 35.9213C121.36 35.9489 121.289 35.9879 121.216 36.0244C121.062 36.105 120.915 36.208 120.788 36.323C120.66 36.4401 120.545 36.5618 120.437 36.6971C120.361 36.7981 120.292 36.9058 120.221 37.0115C120.189 37.0552 120.157 37.101 120.122 37.1425C120.12 37.1447 120.12 37.1447 120.118 37.1472C120.086 37.1379 120.052 37.1264 120.019 37.1171C119.725 37.0093 119.443 36.8783 119.158 36.7455C119.03 36.6878 118.905 36.6284 118.781 36.5686C118.683 36.5228 118.588 36.4766 118.492 36.4308C118.43 36.4011 118.364 36.3642 118.297 36.3366C118.223 36.3069 118.136 36.2653 118.056 36.2471C117.962 36.2288 117.881 36.2106 117.783 36.2127C117.723 36.2127 117.665 36.2242 117.606 36.2356C117.472 36.2585 117.339 36.3022 117.22 36.3595C117.027 36.4537 116.841 36.5593 116.666 36.6831C116.23 36.9911 115.764 37.3033 115.495 37.7759C115.371 37.9943 115.36 38.2374 115.36 38.4809C115.36 38.6187 115.362 38.7541 115.367 38.8894C115.369 39.1464 115.383 39.406 115.399 39.6631C115.431 40.2621 115.466 40.8636 115.564 41.4536C115.62 41.7866 115.677 42.1149 115.739 42.4454C115.803 42.7784 115.872 43.1135 115.911 43.4507C115.913 43.5037 115.913 43.5563 115.913 43.6094C115.913 43.614 115.911 43.6162 115.911 43.6208C115.911 43.6255 115.909 43.6302 115.906 43.6344C115.872 43.7264 115.835 43.8181 115.796 43.9101C115.794 43.9148 115.792 43.9169 115.789 43.9216C115.768 43.9377 115.746 43.9538 115.723 43.9674C115.67 43.9996 115.62 44.0272 115.567 44.0569C115.544 44.0683 115.518 44.0777 115.493 44.0866C115.435 44.1027 115.376 44.1188 115.316 44.1303C115.176 44.1578 115.036 44.1833 114.894 44.1969C114.834 44.1994 114.777 44.1994 114.717 44.1969C114.689 44.1948 114.662 44.1901 114.634 44.1854C114.391 44.1282 114.154 44.0476 113.918 43.9674L113.851 43.9445H113.854C113.302 43.7472 112.754 43.5449 112.2 43.3523C112.111 43.3247 112.097 43.3179 112.083 43.3133C112.072 43.3107 112.062 43.3061 112.053 43.3039C112.028 43.2946 111.986 43.2789 111.945 43.2649C111.784 43.2077 111.55 43.1661 111.307 43.1364C111.128 43.1156 110.942 43.0995 110.76 43.0974C110.595 43.0927 110.427 43.0952 110.267 43.1296C110.168 43.1525 110.069 43.1822 109.973 43.2098C109.842 43.2488 109.713 43.2925 109.582 43.3336C109.206 43.4533 108.815 43.5636 108.459 43.7379C108.216 43.8571 107.991 43.9928 107.775 44.1604C107.688 44.2291 107.603 44.3004 107.52 44.3716C107.523 44.3716 107.495 44.3967 107.47 44.4196C107.412 44.4701 107.348 44.546 107.284 44.61C107.281 44.5965 107.293 44.5621 107.274 44.5642C107.19 44.5939 107.176 44.6491 107.185 44.711C107.173 44.7271 107.159 44.7343 107.148 44.75C107.079 44.8421 107.003 44.9821 107.008 45.1013C107.013 45.1865 107.058 45.2417 107.123 45.2875C107.173 45.324 107.224 45.3587 107.288 45.3676C107.343 45.3744 107.396 45.3541 107.442 45.3333C107.447 45.3312 107.447 45.324 107.442 45.3218C107.412 45.3083 107.382 45.2989 107.355 45.2875C107.352 45.2849 107.352 45.2849 107.35 45.2849H107.352C107.35 45.2828 107.346 45.2807 107.343 45.2807C107.334 45.2735 107.325 45.2667 107.316 45.2599L107.309 45.2506L107.307 45.2484C107.307 45.2438 107.304 45.2417 107.302 45.237C107.299 45.2323 107.299 45.2277 107.297 45.2255L107.295 45.2162C107.295 45.2141 107.295 45.2115 107.297 45.2069C107.307 45.2001 107.318 45.1912 107.33 45.184C107.355 45.1704 107.378 45.1564 107.403 45.1428C107.718 45.8682 108.395 46.015 109.05 46.3709C110.019 46.6831 110.386 47.5989 111.174 48.2509C112.54 49.2774 113.759 50.6616 115.371 51.2766C116.804 51.7059 117.962 50.4066 119.234 49.9727C119.962 51.0404 121.413 50.914 122.557 51.0701C123.487 51.1549 124.201 50.4482 125.016 50.1839C124.334 49.9383 123.305 50.4342 122.513 50.2734C121.833 50.1012 121.094 49.9913 120.46 49.688C119.649 48.6573 119.179 48.6276 118.06 49.2889C115.707 50.659 115.766 50.441 113.743 48.7582C112.907 48.0905 112.051 47.4428 111.348 46.6305C111.04 46.2881 110.763 45.889 110.363 45.6294C109.722 45.315 109.089 44.9524 108.356 44.8489C108.264 44.8192 108.17 44.789 108.078 44.7572C108.08 44.7547 108.085 44.7526 108.09 44.75C108.273 44.6605 108.455 44.5803 108.645 44.5091C108.847 44.4404 109.052 44.3852 109.261 44.3369C109.635 44.2681 110.005 44.1948 110.381 44.1511C110.444 44.1489 110.501 44.1489 110.563 44.1532C110.737 44.1718 110.912 44.2015 111.086 44.2312C111.201 44.2567 111.314 44.2817 111.426 44.3139C112.278 44.6172 113.091 45.019 113.943 45.315C114.078 45.3609 114.276 45.4389 114.48 45.4665C114.595 45.4801 114.708 45.4894 114.82 45.4894C115.055 45.4894 115.287 45.4571 115.521 45.4092C115.677 45.377 115.838 45.3473 115.987 45.2849C116.129 45.2255 116.265 45.1522 116.393 45.0694C116.621 44.9295 116.811 44.7458 116.924 44.5023C116.99 44.3691 117.034 44.2312 117.082 44.0912C117.137 43.9305 117.167 43.7561 117.16 43.5865C117.149 43.281 117.089 42.9871 117.022 42.6889C116.954 42.3741 116.876 42.0572 116.809 41.7383C116.775 41.5592 116.735 41.3756 116.696 41.1919C116.657 41.0014 116.623 40.7741 116.595 40.5514C116.568 40.3427 116.54 40.1314 116.517 39.9202C116.473 39.4815 116.434 39.048 116.398 38.6115C116.393 38.5059 116.389 38.4028 116.389 38.2993C116.391 38.2811 116.393 38.265 116.398 38.2467V38.2442C116.407 38.2285 116.416 38.2145 116.426 38.1984C116.448 38.1661 116.473 38.1364 116.499 38.1042C116.554 38.0469 116.611 37.9897 116.671 37.9345C116.912 37.7233 117.174 37.5349 117.44 37.3538C117.505 37.3101 117.571 37.2757 117.64 37.2388C117.663 37.2274 117.688 37.2159 117.714 37.2066C117.746 37.1951 117.778 37.1862 117.81 37.179C117.812 37.179 117.812 37.1769 117.815 37.1769C117.828 37.1816 117.842 37.1862 117.858 37.1905C118.187 37.3262 118.504 37.4912 118.827 37.6359C119.11 37.7602 119.392 37.8862 119.682 37.9871C119.769 38.0172 119.92 38.0792 120.074 38.0953C120.196 38.1067 120.311 38.0999 120.426 38.0516C120.522 38.01 120.619 37.9413 120.692 37.8679C120.885 37.6821 120.997 37.448 121.14 37.2227C121.179 37.1701 121.22 37.115 121.264 37.0619C121.303 37.0208 121.342 36.9818 121.381 36.9406C121.438 36.8944 121.493 36.8507 121.553 36.8096C121.592 36.7866 121.629 36.7637 121.67 36.7408C121.716 36.7179 121.762 36.6993 121.81 36.681C121.817 36.6789 121.824 36.6764 121.831 36.6742C121.838 36.6742 121.845 36.6742 121.852 36.6764C121.87 36.6789 121.888 36.681 121.907 36.6831C121.964 36.6946 122.019 36.7107 122.074 36.7268C122.1 36.7383 122.127 36.7476 122.153 36.7591C122.162 36.7726 122.173 36.7866 122.182 36.8002C122.221 36.8626 122.256 36.922 122.29 36.9864L122.295 36.9954C122.297 37 122.299 37.0047 122.302 37.0068C122.304 37.0115 122.311 37.0276 122.318 37.0416C122.318 37.039 122.32 37.0458 122.325 37.053C122.329 37.0619 122.334 37.0713 122.338 37.0806C122.348 37.101 122.366 37.1379 122.385 37.1748C122.387 37.1769 122.412 37.2295 122.437 37.28C122.58 37.565 122.72 37.8611 122.866 38.1547V38.1525C122.88 38.1801 122.894 38.2098 122.908 38.2374C122.979 38.3799 123.053 38.5292 123.129 38.6828C123.197 38.8207 123.257 38.9653 123.335 39.096C123.462 39.2979 123.67 39.4404 123.914 39.3717C124.029 39.3416 124.132 39.2588 124.192 39.1558C124.263 39.0366 124.281 38.8805 124.288 38.7426C124.313 38.4189 124.325 38.0881 124.332 37.7602C124.343 37.3237 124.334 36.8876 124.357 36.4537C124.373 36.2471 124.403 36.0405 124.44 35.836L124.442 35.8339C124.442 35.8246 124.444 35.8131 124.447 35.8042C124.483 35.6481 124.536 35.4712 124.593 35.299C124.679 35.0695 124.775 34.8489 124.881 34.6309L124.89 34.6127C124.89 34.6127 124.892 34.6105 124.892 34.608C125 34.404 125.122 34.2016 125.25 34.0065C125.395 33.7952 125.567 33.5683 125.756 33.3524C125.974 33.1182 126.249 32.8658 126.527 32.6202C126.63 32.5303 126.741 32.4366 126.856 32.347C126.95 32.2847 127.044 32.23 127.142 32.1791C127.464 32.0162 127.85 31.8486 128.242 31.7086C128.582 31.5962 128.929 31.5114 129.28 31.4355C129.542 31.385 129.808 31.3481 130.079 31.3277C130.357 31.3163 130.63 31.3023 130.906 31.3023C131.166 31.3023 131.425 31.3069 131.685 31.3205C131.907 31.3392 132.199 31.3896 132.493 31.4079C132.491 31.4079 132.493 31.4079 132.495 31.4079C132.516 31.4104 132.539 31.4104 132.562 31.4125C132.562 31.4125 132.599 31.4147 132.633 31.4193L132.734 31.4261C132.895 31.4355 133.129 31.4401 133.364 31.4448C133.559 31.4469 133.751 31.4355 133.944 31.4011C134.19 31.3574 134.431 31.2772 134.661 31.1805C135.15 30.9739 135.619 30.7122 136.092 30.4691L136.114 30.4598C136.142 30.4437 136.202 30.414 136.264 30.3839C136.287 30.3724 136.381 30.3245 136.477 30.2761C136.755 30.1383 137.06 29.9733 137.38 29.8562C137.527 29.8078 137.678 29.7688 137.827 29.7391C137.903 29.723 137.913 29.723 137.919 29.7204C137.94 29.7183 137.958 29.7137 137.979 29.7115C138.016 29.7115 138.053 29.7137 138.089 29.7162C138.112 29.7277 138.126 29.7298 138.14 29.7344C138.188 29.7552 138.234 29.7735 138.28 29.7964C138.422 29.8744 138.558 29.9546 138.693 30.042C138.702 30.0513 138.712 30.0581 138.721 30.0649C138.725 30.0674 138.73 30.0717 138.732 30.0763C138.755 30.1018 138.776 30.1268 138.794 30.1544C138.868 30.2693 138.932 30.3864 138.994 30.5056C139.099 30.7262 139.198 30.951 139.286 31.1831C139.323 31.2955 139.352 31.4125 139.38 31.5296C139.44 31.8164 139.469 32.1082 139.492 32.3996C139.504 32.8035 139.52 33.2056 139.497 33.6073C139.483 33.7333 139.467 33.8576 139.444 33.9815C139.43 34.0502 139.412 34.1189 139.398 34.188C139.295 34.6839 139.237 35.1845 139.192 35.6893C139.159 36.0384 139.125 36.3896 139.116 36.743C139.104 37.1332 139.079 37.5578 139.235 37.9252C139.306 38.0999 139.396 38.2743 139.531 38.4075C139.628 38.5038 139.734 38.5865 139.855 38.6506C140.071 38.7702 140.314 38.8113 140.56 38.816C140.663 38.8181 140.762 38.816 140.865 38.8092C140.987 38.7999 141.102 38.7791 141.219 38.7541C141.354 38.7244 141.488 38.6921 141.623 38.6578C142.163 38.5246 142.694 38.3591 143.235 38.2399C143.313 38.2238 143.403 38.2051 143.49 38.1869C143.685 38.1458 143.952 38.0953 144.223 38.0652C144.372 38.0563 144.522 38.0469 144.671 38.0334C144.925 38.0147 145.229 38.0126 145.534 38.0308C145.743 38.049 145.945 38.0792 146.152 38.1203C146.356 38.1733 146.629 38.2374 146.898 38.3133C147.141 38.3846 147.38 38.4648 147.619 38.5449C147.881 38.637 148.143 38.7333 148.407 38.8181C148.662 38.8987 148.933 38.9606 149.194 39.0179C149.624 39.1121 150.039 39.2614 150.471 39.3441C150.894 39.4243 151.321 39.4841 151.748 39.5163C152.104 39.5439 152.462 39.5528 152.82 39.571L152.853 39.5736H152.862C153.048 39.585 153.236 39.5918 153.427 39.6012C153.718 39.6173 154.017 39.6355 154.311 39.622C154.754 39.6033 155.183 39.4909 155.622 39.4404C155.727 39.4383 155.829 39.4383 155.934 39.4425C155.959 39.4451 155.985 39.4497 156.01 39.4519C156.015 39.454 156.045 39.4612 156.072 39.468C156.091 39.4773 156.109 39.4841 156.127 39.4909C156.134 39.4955 156.143 39.5002 156.15 39.5049C156.152 39.507 156.157 39.5091 156.159 39.5117C156.18 39.532 156.201 39.5528 156.219 39.5736C156.309 39.6813 156.391 39.7895 156.474 39.9019C156.504 39.9477 156.536 39.9935 156.566 40.0419C156.568 40.0512 156.6 40.1038 156.632 40.1564C156.639 40.1704 156.644 40.1866 156.651 40.2027C156.651 40.198 156.651 40.2001 156.651 40.2027C156.656 40.2162 156.662 40.2324 156.667 40.2464C156.697 40.3588 156.729 40.5102 156.765 40.6616C156.768 40.6756 156.773 40.6939 156.777 40.7147V40.7189C156.782 40.7304 156.784 40.7444 156.786 40.7579C156.789 40.7834 156.798 40.8339 156.807 40.8865C156.809 40.9509 156.807 41.015 156.804 41.0816C156.791 41.1987 156.775 41.3183 156.757 41.4375C156.738 41.5295 156.715 41.6191 156.687 41.7107C156.674 41.7429 156.66 41.7773 156.644 41.8116C156.635 41.8256 156.625 41.8418 156.616 41.8579C156.607 41.8714 156.598 41.8829 156.589 41.8944C156.586 41.8944 156.58 41.899 156.573 41.9058C156.568 41.9084 156.563 41.9126 156.559 41.9151C156.554 41.9173 156.55 41.9219 156.545 41.9245C156.538 41.9266 156.529 41.9313 156.522 41.9359C156.479 41.9495 156.432 41.961 156.389 41.9703C156.315 41.9817 156.245 41.9906 156.171 41.9953C155.888 42.0068 155.606 42.0254 155.324 42.0458C154.986 42.0645 154.596 42.0734 154.224 42.1654C153.868 42.2524 153.528 42.3996 153.197 42.5646C153.195 42.5646 153.192 42.5671 153.19 42.5671C153.186 42.5718 153.181 42.5739 153.176 42.576C153.124 42.6015 153.069 42.6291 153.013 42.6566C152.77 42.7805 152.508 42.9298 152.281 43.1181C152.175 43.203 152.088 43.3018 152.008 43.4096C151.953 43.4855 151.918 43.5839 151.881 43.6713C151.84 43.7744 151.794 43.8779 151.746 43.9835C151.746 43.9903 151.755 43.995 151.76 43.9903C151.84 43.8643 151.922 43.7426 152.005 43.6162L152.008 43.614C152.037 43.5678 152.07 43.5288 152.102 43.4876C152.102 43.4897 152.102 43.4897 152.099 43.4897C152.102 43.4897 152.102 43.4876 152.102 43.4876C152.104 43.4876 152.104 43.4876 152.104 43.4855V43.4876C152.122 43.4715 152.141 43.4554 152.159 43.4371C152.198 43.4049 152.242 43.3727 152.288 43.3409C152.341 43.3061 152.398 43.2743 152.458 43.2441C152.616 43.1686 152.786 43.0995 152.96 43.0354C153.282 42.9319 153.622 42.8263 153.969 42.7321C154.06 42.7139 154.155 42.6957 154.249 42.6774C154.306 42.6702 154.398 42.6587 154.49 42.6498C154.616 42.6473 154.781 42.6426 154.949 42.6473C155.211 42.652 155.475 42.666 155.739 42.666C156.01 42.666 156.292 42.6842 156.563 42.6312C156.745 42.5947 156.913 42.5396 157.059 42.4178C157.202 42.3029 157.303 42.1332 157.369 41.9635C157.422 41.8345 157.464 41.7018 157.496 41.5686C157.542 41.3849 157.583 41.1987 157.59 41.0108C157.601 40.797 157.567 40.5929 157.53 40.3838C157.484 40.1382 157.431 39.8951 157.308 39.6724Z" fill="black"/>
</g>
<path d="M144.876 47.0034C143.728 46.5237 142.912 45.484 141.686 45.0339C140.558 44.4922 138.735 43.3901 138.572 45.4929C138.538 46.4638 138.193 47.8276 137.098 48.0295C138.522 48.3235 138.921 46.6662 139.67 45.842C140.435 46.1012 141.218 46.3676 142.005 46.7417C142.297 46.905 142.584 47.084 142.873 47.2562C141.886 47.9171 141.482 49.1176 140.997 50.153C140.214 51.9321 138.219 52.7657 136.388 52.9722C135.309 53.259 134.655 54.2486 133.803 54.9235C133.288 55.3965 132.567 55.5182 131.908 55.6765C129.823 56.2275 129.582 55.7842 128.372 54.1222C127.846 53.2959 127.931 52.1985 127.341 51.3743C127.534 50.6307 126.712 50.2566 126.172 50.7223C125.609 50.5526 125.439 50.0199 125.228 49.5333C124.822 50.4402 125.265 51.6063 126.289 51.6937C126.833 52.5523 126.884 53.5966 127.4 54.4599C128.085 55.3252 128.774 56.3972 129.894 56.7047C131.236 56.8426 132.666 56.4201 133.883 55.8737C134.799 55.2633 135.415 54.2508 136.4 53.732C138.586 53.5508 140.944 52.582 141.775 50.3757C142.265 49.4094 142.451 48.2684 143.094 47.3848C143.576 47.6622 144.077 47.9036 144.648 47.9791C145.636 47.9858 146.74 47.915 147.627 47.4514C148.463 46.8817 149.271 46.315 150.125 45.766C148.371 46.1864 146.83 47.4514 144.876 47.0034Z" fill="black"/>
<path d="M130.116 42.1914C130.548 41.3859 131.167 40.6304 132.031 40.2724C132.481 40.1943 132.972 40.2978 133.436 40.2198C133.457 40.2011 133.391 40.2011 133.381 40.1969C131.331 39.1521 129.521 40.5799 128.479 42.3501C127.11 41.8953 125.523 41.4686 124.092 41.8012C123.608 42.0171 122.797 42.4603 122.862 43.0385C124.102 41.7346 126.954 43.1145 128.345 43.7639C129.338 44.1037 129.684 42.823 130.116 42.1914Z" fill="black"/>
<path d="M135 46.7969C135.876 46.6854 135.943 45.8035 135.027 45.7254C134.071 45.6219 133.727 46.7948 134.176 47.4909C134.179 47.4947 134.181 47.4964 134.186 47.4951C134.501 47.3132 134.666 46.9462 135 46.7969Z" fill="black"/>
<path d="M170.529 19.5197C169.966 19.1477 169.312 18.8953 168.628 18.9755C167.344 19.0764 165.966 18.9089 164.749 19.398C164.143 19.6572 163.553 20.05 163.396 20.7295C163.137 21.379 162.728 21.9898 162.306 22.5476C160.939 23.9203 158.436 23.9869 156.994 22.6876C155.952 21.7947 155.47 20.4194 154.427 19.5129C153.41 18.6544 152.055 18.5097 150.776 18.6242C149.728 18.6773 148.659 19.0879 147.582 18.8308C146.096 18.2293 144.619 17.5476 143.232 16.7328C143.28 16.726 143.331 16.726 143.375 16.7188C144.004 16.7349 144.617 16.5767 145.239 16.471C146.404 16.393 147.522 15.881 148.624 15.509C150.144 15.1073 151.21 13.9183 152.769 13.5416C153.701 13.2319 154.659 13.6014 155.596 13.6519C156.372 13.4958 157.148 13.195 157.786 12.7063C159.125 11.5122 160.673 10.5001 161.688 8.99167C163.155 6.9967 164.232 3.77834 167.078 3.62012C167.078 3.62012 167.078 3.62224 167.08 3.62224C167.096 3.65915 167.053 3.76477 167.089 3.76901C167.254 3.55098 166.981 3.45002 166.804 3.39063C162.919 3.20441 162.099 8.13311 159.502 10.1031C158.186 11.0829 157.252 12.6372 155.559 12.9838C154.813 12.9218 154.071 12.7131 153.304 12.7886C152.37 12.9082 151.462 13.3053 150.615 13.7117C149.931 14.1639 149.272 14.639 148.452 14.8252C147.161 15.2956 145.882 15.8051 144.534 16.0511C144.144 16.1635 143.767 16.2301 143.356 16.2416C143.142 16.2734 142.957 16.3722 142.773 16.4757C142.571 16.3472 142.364 16.1635 142.128 16.1724C141.804 16.2967 141.987 16.7213 142.034 16.9716C142.109 16.8545 142.061 16.6178 142.132 16.4846C142.998 17.7865 144.431 18.466 145.691 19.3178C148.287 21.7166 151.262 18.5254 153.85 20.4538C155.123 21.7739 155.862 23.6976 157.711 24.375C159.817 25.2383 162.738 24.5769 163.732 22.389C164.051 21.8613 164.251 21.2805 164.421 20.6926C164.579 20.4517 164.887 20.3507 165.123 20.2014C165.312 20.1098 165.436 20.0635 165.663 20.0131C166.818 19.8871 168.001 19.8111 169.156 19.8985C170.467 20.2612 170.97 21.7234 172.116 22.3109C172.621 22.5637 173.191 22.6418 173.746 22.5336C173.689 22.4789 173.551 22.4789 173.452 22.4326C171.982 22.0309 171.735 20.2816 170.529 19.5197Z" fill="black"/>
<path d="M219.908 12.2053C219.543 11.7255 218.842 11.8473 218.301 11.7166C217.095 11.5766 215.935 11.253 214.787 10.8648C214.13 10.6285 213.458 10.3986 212.814 10.0177C212.353 9.72374 212.132 9.19817 211.726 8.84481C209.781 7.26045 207.202 6.77391 204.77 6.50751C203.147 6.28481 201.519 6.53296 200.042 7.18961C199.438 6.77391 198.733 6.47782 198.056 6.2759C197.365 5.96836 196.52 6.51218 195.897 6.00018C194.978 5.11871 194.437 3.92503 193.518 3.03889C191.802 1.40447 189.355 0.892473 187.065 0.697344C186.287 0.621838 185.534 0.688436 184.753 0.800847C183.929 0.936165 182.84 0.961616 182.507 1.88636C181.791 0.116624 179.572 0.249821 177.965 0.0614792C176.27 -0.0301464 174.506 -0.11753 172.917 0.575601C172.21 0.913258 171.308 1.08294 170.782 1.68444C170.614 2.01065 170.488 2.35254 170.375 2.70166C170.586 2.42381 170.754 2.01531 171.016 1.7328C173.618 0.596386 176.502 0.82842 179.246 1.25516C179.237 1.25304 179.228 1.25049 179.221 1.24837C179.997 1.46428 181.063 1.4804 181.38 2.35254C181.708 3.44527 182.688 4.20499 183.341 2.86242C183.508 2.52265 183.529 2.05646 184.002 2.04967C184.895 1.8889 185.724 1.75104 186.666 1.78794C189.414 1.93471 192.379 2.7725 193.78 5.36431C194.692 6.80402 195.626 7.85305 197.472 7.37541C197.957 7.4488 198.442 7.59345 198.901 7.79112C198.882 7.80257 198.857 7.81148 198.839 7.82293C198.869 7.81869 198.905 7.80936 198.935 7.80469C199.558 8.07575 200.132 8.45456 200.563 8.99159C200.993 9.73095 201.351 10.5204 201.691 11.3009C201.691 11.3034 201.693 11.3056 201.696 11.3056C202.081 10.4907 201.696 9.55152 201.39 8.7621C201.176 8.24543 200.807 7.83905 200.386 7.4857C200.398 7.48316 200.412 7.47891 200.423 7.47637C202.635 7.01739 204.903 7.44668 207.115 7.80936C208.378 8.08254 209.613 8.55085 210.716 9.23041C211.209 9.52649 211.522 10.1051 211.93 10.5021C213.735 11.7853 216.041 12.2239 218.169 12.7427C217.224 13.4545 216.277 14.0993 215.086 14.3449C213.152 14.7581 210.619 14.2189 209.14 15.8554C208.741 16.3721 208.295 16.8655 207.765 17.2583C206.972 17.7198 205.668 18.3739 206.183 19.4874C206.453 20.2174 206.906 21.2686 206.3 21.9231C205.071 23.493 202.756 22.724 201.038 22.7011C199.323 22.4809 197.351 22.3477 195.72 23.1257C194.425 24.0279 194.168 25.8028 193.187 26.9778C191.66 28.8234 188.827 29.1564 186.852 27.8342C186.454 27.6828 186.101 27.9882 185.784 28.1787C184.998 28.5986 184.273 29.1679 183.361 29.2782C181.979 29.1658 180.511 28.9384 179.253 28.3369C177.972 26.9803 176.674 25.7888 175.39 24.3885C175.4 24.3724 175.411 24.3542 175.421 24.3355C175.423 24.338 175.448 24.3105 175.425 24.3105C175.26 24.3198 175.285 24.4988 175.306 24.618C175.287 26.4615 176.587 27.7036 177.71 29.0029C178.808 30.4328 180.847 30.3251 182.472 30.5728C184.112 30.8299 185.481 29.7558 186.654 28.7573C189.054 30.4396 192.643 29.6409 194.359 27.3383C195.04 26.4085 195.358 25.2564 196.131 24.3817C197.199 23.709 198.662 23.8765 199.881 23.9478C201.891 24.1611 204.001 24.6502 205.99 24.1382C206.821 23.8214 207.48 23.1028 207.932 22.3545C208.387 21.3123 208.052 20.1623 207.643 19.1247C208.461 18.6632 209.248 18.1397 209.811 17.3753C210.27 16.6453 210.78 16.2207 211.657 16.0438C214.769 15.7337 216.92 15.6489 219.357 13.3671C219.724 13.1033 220.204 12.6922 219.908 12.2053Z" fill="black"/>
<path d="M180.833 13.6135C181.474 13.8039 181.937 14.3274 182.528 14.626C182.757 14.7681 183.037 14.8831 183.168 15.1219C183.185 15.1219 183.175 15.1079 183.173 15.1032C182.888 14.4606 182.218 14.0198 181.772 13.4709C181.047 12.7825 179.88 12.7731 178.973 13.0718C178.284 13.2325 177.602 13.9762 176.975 14.0313C176.201 13.6296 175.707 12.796 174.94 12.3532C174.183 11.9905 173.205 11.9676 172.399 12.1559C172.29 12.2132 172.15 12.3142 172.141 12.4474C172.153 12.4703 172.157 12.4359 172.167 12.4266C172.385 12.181 172.748 12.3303 173.028 12.3943C173.531 12.5644 174.134 12.679 174.555 13.0349C174.814 13.2898 175.026 13.5172 175.301 13.795C177.641 16.5451 178.091 12.8465 180.833 13.6135Z" fill="black"/>
<path d="M190.189 10.1102C189.345 9.56982 188.294 10.344 188.573 11.3166C189.063 10.8941 189.678 10.5336 190.373 10.6197C190.309 10.6867 190.135 10.7198 190.104 10.7682C190.884 10.758 190.741 10.4288 190.189 10.1102Z" fill="black"/>
</svg>
