<svg width="272" height="249" viewBox="0 0 272 249" fill="none" xmlns="http://www.w3.org/2000/svg">
<path d="M265.157 98.8366L222.633 25.3816C213.569 9.72997 196.709 0 178.616 0H93.3516C75.2704 0 58.4096 9.71867 49.3351 25.3816L6.82156 98.8366C-2.28687 114.556 -2.28687 134.072 6.82156 149.792L49.3464 223.247C58.4209 238.898 75.2817 248.628 93.3629 248.628H178.627C196.72 248.628 213.581 238.91 222.644 223.247L265.169 149.792C274.277 134.072 274.266 114.556 265.157 98.8366ZM255.382 144.13L212.857 217.585C205.817 229.756 192.697 237.328 178.627 237.328H93.3629C79.3048 237.328 66.1845 229.767 59.1329 217.585L16.608 144.13C9.53374 131.903 9.53374 116.726 16.608 104.498L59.1329 31.0432C66.1845 18.8723 79.3048 11.3008 93.3629 11.3008H178.627C192.697 11.3008 205.817 18.861 212.857 31.0432L255.382 104.498C262.456 116.726 262.456 131.903 255.382 144.13ZM179.147 88.7563L143.595 124.309L179.147 159.861C181.351 162.064 181.351 165.647 179.147 167.85C178.04 168.958 176.593 169.5 175.147 169.5C173.7 169.5 172.254 168.947 171.146 167.85L135.594 132.298L100.042 167.85C98.9342 168.958 97.4877 169.5 96.0412 169.5C94.5947 169.5 93.1482 168.947 92.0407 167.85C89.8371 165.647 89.8371 162.064 92.0407 159.861L127.593 124.309L92.0407 88.7563C89.8371 86.5527 89.8371 82.9703 92.0407 80.7667C94.2444 78.563 97.8267 78.563 100.03 80.7667L135.583 116.319L171.135 80.7667C173.339 78.563 176.921 78.563 179.125 80.7667C181.328 82.9703 181.328 86.5527 179.125 88.7563H179.147Z" fill="#CAEAE5"/>
</svg>
