<svg width="13" height="15" viewBox="0 0 13 15" fill="none" xmlns="http://www.w3.org/2000/svg">
<path d="M9.2239 2.49286C8.48106 1.8633 7.71592 1.2102 6.94153 0.438282L6.50014 0L6.06682 0.438892C4.67275 1.83668 4.01411 3.98289 3.72811 5.27049C3.50921 4.93119 3.34677 4.55865 3.24713 4.16737L2.98528 3.1565L2.22388 3.87211C0.889796 5.12438 0.000245058 6.3668 0.000245058 8.35636C-0.025379 11.3091 1.96092 13.9007 4.81882 14.6433C5.23732 14.7451 5.66451 14.8073 6.09465 14.829C6.23596 14.8392 6.64063 14.8494 6.70998 14.8451C10.2162 14.7396 13.0029 11.8654 13 8.35758C13 5.69947 11.25 4.21377 9.2239 2.49286ZM6.62003 13.599C6.55522 13.6046 6.4963 13.6052 6.43073 13.6046C5.27317 13.5692 4.35233 12.6221 4.34951 11.464C4.34951 10.6795 4.77022 10.2885 5.72235 9.47807C5.96238 9.27392 6.22347 9.05181 6.49816 8.79752C6.73883 9.01591 6.97267 9.2139 7.18859 9.39762C8.14505 10.2093 8.64431 10.6702 8.64431 11.4621C8.64216 12.5982 7.75432 13.5354 6.62003 13.599ZM9.72575 12.5033L9.71337 12.512C9.82441 12.1737 9.88121 11.82 9.88164 11.464C9.88164 10.0627 8.96229 9.28191 7.98976 8.45598C7.64517 8.16398 7.28943 7.86207 6.93432 7.50693L6.4963 7.06952L6.05889 7.50693C5.658 7.90721 5.26576 8.24128 4.91993 8.53579C3.94984 9.3611 3.11154 10.0744 3.11154 11.464C3.11285 11.8353 3.17557 12.2038 3.29715 12.5547C1.99172 11.5523 1.22979 9.99732 1.23761 8.35142C1.22744 7.2658 1.64762 6.22029 2.40627 5.44367C2.53694 5.70877 2.69185 5.96123 2.86904 6.19783C3.1335 6.55471 3.58477 6.72028 4.0173 6.61915C4.45701 6.52125 4.79886 6.17529 4.89148 5.73445C5.15054 4.31252 5.71082 2.96249 6.53468 1.77495C7.18737 2.39362 7.8339 2.94113 8.41729 3.43671C10.355 5.08237 11.7581 6.27145 11.7581 8.35514C11.7612 9.97849 11.0101 11.5112 9.72517 12.5033H9.72575Z" fill="#C2BD2D"/>
</svg>
