<svg width="13" height="13" viewBox="0 0 13 13" fill="none" xmlns="http://www.w3.org/2000/svg">
<g clip-path="url(#clip0_2662_11792)">
<path d="M2.16667 12.9998L2.88871 11.5552L4.33333 10.8332L2.88871 10.1111L2.16667 8.6665L1.44463 10.1111L0 10.8332L1.44463 11.5552L2.16667 12.9998Z" fill="#2DC24E"/>
<path d="M11.5557 11.5552L13.0003 10.8332L11.5557 10.1111L10.8337 8.6665L10.1116 10.1111L8.66699 10.8332L10.1116 11.5552L10.8337 12.9998L11.5557 11.5552Z" fill="#2DC24E"/>
<path d="M7.22172 1.44463L6.49967 0L5.77763 1.44463L4.33301 2.16667L5.77763 2.88871L6.49967 4.33333L7.22172 2.88871L8.66634 2.16667L7.22172 1.44463Z" fill="#2DC24E"/>
<path d="M2.70866 7.58333C3.00781 7.58333 3.25033 7.34082 3.25033 7.04167C3.25033 6.74251 3.00781 6.5 2.70866 6.5C2.4095 6.5 2.16699 6.74251 2.16699 7.04167C2.16699 7.34082 2.4095 7.58333 2.70866 7.58333Z" fill="#2DC24E"/>
<path d="M0.541667 5.41683C0.840821 5.41683 1.08333 5.17432 1.08333 4.87516C1.08333 4.57601 0.840821 4.3335 0.541667 4.3335C0.242512 4.3335 0 4.57601 0 4.87516C0 5.17432 0.242512 5.41683 0.541667 5.41683Z" fill="#2DC24E"/>
<path d="M2.70866 3.24984C3.00781 3.24984 3.25033 3.00732 3.25033 2.70817C3.25033 2.40902 3.00781 2.1665 2.70866 2.1665C2.4095 2.1665 2.16699 2.40902 2.16699 2.70817C2.16699 3.00732 2.4095 3.24984 2.70866 3.24984Z" fill="#2DC24E"/>
<path d="M0.541667 1.08333C0.840821 1.08333 1.08333 0.840821 1.08333 0.541667C1.08333 0.242512 0.840821 0 0.541667 0C0.242512 0 0 0.242512 0 0.541667C0 0.840821 0.242512 1.08333 0.541667 1.08333Z" fill="#2DC24E"/>
<path d="M12.4587 7.58333C12.7578 7.58333 13.0003 7.34082 13.0003 7.04167C13.0003 6.74251 12.7578 6.5 12.4587 6.5C12.1595 6.5 11.917 6.74251 11.917 7.04167C11.917 7.34082 12.1595 7.58333 12.4587 7.58333Z" fill="#2DC24E"/>
<path d="M10.2917 5.41683C10.5908 5.41683 10.8333 5.17432 10.8333 4.87516C10.8333 4.57601 10.5908 4.3335 10.2917 4.3335C9.99251 4.3335 9.75 4.57601 9.75 4.87516C9.75 5.17432 9.99251 5.41683 10.2917 5.41683Z" fill="#2DC24E"/>
<path d="M12.4587 3.24984C12.7578 3.24984 13.0003 3.00732 13.0003 2.70817C13.0003 2.40902 12.7578 2.1665 12.4587 2.1665C12.1595 2.1665 11.917 2.40902 11.917 2.70817C11.917 3.00732 12.1595 3.24984 12.4587 3.24984Z" fill="#2DC24E"/>
<path d="M10.2917 1.08333C10.5908 1.08333 10.8333 0.840821 10.8333 0.541667C10.8333 0.242512 10.5908 0 10.2917 0C9.99251 0 9.75 0.242512 9.75 0.541667C9.75 0.840821 9.99251 1.08333 10.2917 1.08333Z" fill="#2DC24E"/>
<path d="M7.58366 12.9998C7.88281 12.9998 8.12533 12.7573 8.12533 12.4582C8.12533 12.159 7.88281 11.9165 7.58366 11.9165C7.2845 11.9165 7.04199 12.159 7.04199 12.4582C7.04199 12.7573 7.2845 12.9998 7.58366 12.9998Z" fill="#2DC24E"/>
<path d="M5.41667 10.8333C5.71582 10.8333 5.95833 10.5908 5.95833 10.2917C5.95833 9.99251 5.71582 9.75 5.41667 9.75C5.11751 9.75 4.875 9.99251 4.875 10.2917C4.875 10.5908 5.11751 10.8333 5.41667 10.8333Z" fill="#2DC24E"/>
<path d="M7.58366 8.66683C7.88281 8.66683 8.12533 8.42432 8.12533 8.12516C8.12533 7.82601 7.88281 7.5835 7.58366 7.5835C7.2845 7.5835 7.04199 7.82601 7.04199 8.12516C7.04199 8.42432 7.2845 8.66683 7.58366 8.66683Z" fill="#2DC24E"/>
<path d="M5.41667 6.49984C5.71582 6.49984 5.95833 6.25732 5.95833 5.95817C5.95833 5.65902 5.71582 5.4165 5.41667 5.4165C5.11751 5.4165 4.875 5.65902 4.875 5.95817C4.875 6.25732 5.11751 6.49984 5.41667 6.49984Z" fill="#2DC24E"/>
</g>
<defs>
<clipPath id="clip0_2662_11792">
<rect width="13" height="13" fill="white"/>
</clipPath>
</defs>
</svg>
