<svg width="15" height="13" viewBox="0 0 15 13" fill="none" xmlns="http://www.w3.org/2000/svg">
<path d="M14.6296 10.5857L8.8106 0.792381C8.51964 0.297143 8.00583 0 7.42393 0C6.84202 0 6.32822 0.297143 6.04345 0.792381L0.218214 10.5857C-0.0727381 11.0933 -0.0727381 11.6938 0.218214 12.1952C0.509167 12.6967 1.02917 13 1.60488 13H13.2492C13.8311 13 14.3511 12.6967 14.6358 12.1952C14.9206 11.6938 14.9206 11.0933 14.6296 10.5857ZM13.5649 11.5762C13.5339 11.6319 13.4411 11.7557 13.2492 11.7557H1.59869C1.40679 11.7557 1.31393 11.6257 1.28298 11.5762C1.25202 11.5267 1.19012 11.3781 1.28298 11.211L7.10821 1.41762C7.20107 1.25667 7.36202 1.2381 7.42393 1.2381C7.48583 1.2381 7.6406 1.25667 7.73964 1.42381L13.5587 11.2171C13.6577 11.3781 13.5896 11.5267 13.5587 11.5824L13.5649 11.5762ZM6.80488 4.33333H8.04298V8.04762H6.80488V4.33333ZM6.80488 9.28572H8.04298V10.5238H6.80488V9.28572Z" fill="#C22D30"/>
</svg>
