<svg width="36" height="36" viewBox="0 0 36 36" fill="none" xmlns="http://www.w3.org/2000/svg">
<circle cx="18.1441" cy="17.8559" r="17.8559" fill="#112220"/>
<g clip-path="url(#clip0_3483_22877)">
<path d="M22.786 25.4832L22.7853 25.4828C22.3264 25.0798 21.9428 24.5601 21.5781 23.9896C21.4048 23.7184 21.2372 23.4386 21.068 23.1558L21.0422 23.1126C20.8647 22.8161 20.685 22.5169 20.4973 22.2275C19.7487 21.0733 18.8446 20.0295 17.3156 19.8359C16.3538 19.7149 15.6022 19.9451 14.9839 20.3619C14.3728 20.7738 13.8985 21.3631 13.478 21.9461C13.3688 22.0971 13.264 22.2469 13.1613 22.3934C12.8605 22.8229 12.579 23.2248 12.2704 23.5509C11.8627 23.9815 11.4381 24.2456 10.9097 24.2456C9.62722 24.2456 8.83983 23.3212 8.36531 22.0672C7.89184 20.8164 7.75793 19.2991 7.75793 18.2625C7.75793 17.204 7.90731 15.9691 8.34104 15.0062C8.77174 14.0502 9.46555 13.3904 10.5614 13.3904C11.7657 13.3904 12.4364 14.2233 13.2106 15.1844C13.2623 15.2489 13.3147 15.3138 13.3676 15.379C14.1949 16.3993 15.16 17.4586 17.0029 17.3411H17.0039C18.8409 17.2149 19.7678 15.9891 20.505 14.628C20.6733 14.3171 20.8333 13.9961 20.9923 13.6776L21.0381 13.5857C21.2125 13.236 21.3867 12.8904 21.5724 12.5586C21.9444 11.8942 22.3561 11.2983 22.8914 10.8561C23.7862 10.1263 25.3431 10.1283 26.7058 11.2337C28.0621 12.3338 29.2169 14.5326 29.2169 18.1515C29.2169 21.7266 28.123 24.0502 26.7813 25.2268C25.4429 26.4006 23.8647 26.4391 22.786 25.4832Z" fill="url(#paint0_linear_3483_22877)" stroke="black" stroke-width="0.293559"/>
</g>
<defs>
<linearGradient id="paint0_linear_3483_22877" x1="17.0467" y1="26.3865" x2="17.2742" y2="10.1595" gradientUnits="userSpaceOnUse">
<stop stop-color="#97FCCB"/>
<stop offset="1" stop-color="#97FBFC"/>
</linearGradient>
<clipPath id="clip0_3483_22877">
<rect width="21.8381" height="21.8381" fill="white" transform="translate(7.56836 7.27997)"/>
</clipPath>
</defs>
</svg>
