<svg xmlns="http://www.w3.org/2000/svg" width="144" height="144" fill="none" viewBox="0 0 144 144">
  <path fill="url(#a)" stroke="#000" stroke-width="2.5" d="m100.345 120.044-.005-.003c-3.026-2.657-5.555-6.084-7.96-9.846-1.143-1.788-2.248-3.633-3.364-5.498l-.17-.285c-1.17-1.955-2.355-3.928-3.593-5.836-4.936-7.611-10.898-14.494-20.98-15.77h-.001c-6.342-.798-11.297.72-15.374 3.468-4.03 2.716-7.157 6.602-9.93 10.446-.72.996-1.411 1.984-2.088 2.95-1.984 2.832-3.84 5.482-5.875 7.632-2.688 2.84-5.488 4.581-8.972 4.581-8.457 0-13.649-6.095-16.778-14.364C2.133 89.271 1.25 79.266 1.25 72.431c0-6.98.985-15.123 3.845-21.472 2.84-6.304 7.415-10.655 14.641-10.655 7.941 0 12.364 5.492 17.469 11.83.341.425.686.853 1.035 1.283 5.455 6.728 11.819 13.713 23.971 12.938h.007c12.113-.832 18.225-8.915 23.086-17.89 1.11-2.05 2.165-4.167 3.213-6.267l.302-.606c1.15-2.306 2.299-4.585 3.523-6.773 2.453-4.381 5.168-8.31 8.698-11.226 5.9-4.812 16.166-4.799 25.152 2.49 8.943 7.254 16.558 21.753 16.558 45.616 0 23.574-7.213 38.896-16.06 46.654-8.826 7.74-19.232 7.994-26.345 1.691Z"/>
  <path stroke="#000" stroke-width="2.5" d="M11.5 42c2.333 1 8.9 2.4 16.5 0M5 49c6.5 2.5 17 4.5 30.5 0m-33 11c6.667 2.167 22.9 5.2 34.5 0 2.23-1 8.667 1.167 9.5 1.5M1 75.5c8.5 2.5 24.5 5.5 36 0 16.018-7.66 39.011.511 44.5 6 4.5 4.5 31 14 61 3.5"/>
  <path stroke="#000" stroke-width="2.5" d="M43.5 60c.833 6.167 2 20.9 0 30.5m17-24v16m13-19.5c-1.167 4.833-2.8 16.1 0 22.5m15-42.5c-2.833 11.167-6.8 38.9 0 60.5m23-82.5c-3.667 8.833-14 17-14 47.5 0 37.5 5 56 14 56M112 21c2.5 9.667 2 32.9 2 48.5 0 19.5 0 51.5-2 55.5"/>
  <path stroke="#000" stroke-width="2.5" d="M111.5 21c4 0 20 23 20 47 0 26.5-3 56.5-18 56.5"/>
  <path stroke="#000" stroke-width="2.5" d="M102 23c3.167 1.833 11.6 4.4 20 0m-25 4.5c4.833 2.167 17.8 5.2 31 0M91 37c6.333 3.333 24 8 44 0M87 50c5.333 4.167 23.4 10 53 0M75 61.5c.333 4.333 46 12.5 67.5 3.5m-56 31.5c10 4.167 34.6 10 53 0M91 108c6.5 3.667 24.4 8.8 44 0M3 90.5c5.667 3.167 22.2 7 43-3"/>
  <path stroke="#000" stroke-width="2.5" d="M19.5 40c-2.667 5.833-8 20.8-8 34 0 16.5 0 38 8.5 38"/>
  <path stroke="#000" stroke-width="2.5" d="M19.5 40.5c3.167 5 9.5 18.6 9.5 33 0 18-.5 38.5-8.5 38.5"/>
  <defs>
    <linearGradient id="a" x1="62.5" x2="64" y1="126" y2="19" gradientUnits="userSpaceOnUse">
      <stop stop-color="#97FCCB"/>
      <stop offset="1" stop-color="#97FBFC"/>
    </linearGradient>
  </defs>
</svg>
