<svg width="18" height="18" viewBox="0 0 18 18" fill="none" xmlns="http://www.w3.org/2000/svg">
<g clip-path="url(#clip0_2662_12632)">
<path d="M1.62695 5.47193V12.5279C1.62695 12.9815 1.86455 13.3919 2.26055 13.6223L8.37335 17.1503C8.76215 17.3735 9.24455 17.3735 9.63335 17.1503L15.7462 13.6223C16.135 13.3991 16.3798 12.9815 16.3798 12.5279V5.47193C16.3798 5.01833 16.1422 4.60793 15.7462 4.37753L9.63335 0.849529C9.24455 0.626329 8.76215 0.626329 8.37335 0.849529L2.26055 4.37753C1.87175 4.60073 1.63415 5.01833 1.63415 5.47193H1.62695Z" fill="#213147"/>
<path d="M10.3317 10.3682L9.46054 12.7586C9.43894 12.8234 9.43894 12.8954 9.46054 12.9674L10.9581 17.0786L12.6933 16.0778L10.6125 10.3682C10.5621 10.2386 10.3821 10.2386 10.3317 10.3682Z" fill="#12AAFF"/>
<path d="M12.0813 6.35062C12.0309 6.22102 11.8509 6.22102 11.8005 6.35062L10.9293 8.74102C10.9077 8.80582 10.9077 8.87782 10.9293 8.94982L13.3845 15.6818L15.1197 14.681L12.0813 6.35782V6.35062Z" fill="#12AAFF"/>
<path d="M9.00006 1.116C9.04326 1.116 9.08646 1.1304 9.12246 1.152L15.7321 4.968C15.8113 5.0112 15.8545 5.0976 15.8545 5.184V12.816C15.8545 12.9024 15.8041 12.9888 15.7321 13.032L9.12246 16.848C9.08646 16.8696 9.04326 16.884 9.00006 16.884C8.95686 16.884 8.91366 16.8696 8.87766 16.848L2.26806 13.032C2.18886 12.9888 2.14566 12.9024 2.14566 12.816V5.1768C2.14566 5.0904 2.19606 5.004 2.26806 4.9608L8.87766 1.1448C8.91366 1.1232 8.95686 1.1088 9.00006 1.1088V1.116ZM9.00006 0C8.76246 0 8.53206 0.0576 8.31606 0.18L1.70646 3.996C1.28166 4.2408 1.02246 4.6872 1.02246 5.1768V12.8088C1.02246 13.2984 1.28166 13.7448 1.70646 13.9896L8.31606 17.8056C8.52486 17.928 8.76246 17.9856 9.00006 17.9856C9.23766 17.9856 9.46806 17.928 9.68406 17.8056L16.2937 13.9896C16.7185 13.7448 16.9777 13.2984 16.9777 12.8088V5.1768C16.9777 4.6872 16.7185 4.2408 16.2937 3.996L9.67686 0.18C9.46806 0.0576 9.23046 0 8.99286 0H9.00006Z" fill="#9DCCED"/>
<path d="M4.62207 15.689L5.23407 14.0186L6.45807 15.0338L5.31327 16.085L4.62207 15.689Z" fill="#213147"/>
<path d="M8.4389 4.63659H6.7613C6.6389 4.63659 6.5237 4.71579 6.4805 4.83099L2.8877 14.6806L4.6229 15.6814L8.5829 4.83099C8.6189 4.73019 8.5469 4.62939 8.44609 4.62939L8.4389 4.63659Z" fill="white"/>
<path d="M11.3769 4.63659H9.69925C9.57685 4.63659 9.46165 4.71579 9.41845 4.83099L5.31445 16.0774L7.04965 17.0782L11.5137 4.83099C11.5497 4.73019 11.4777 4.62939 11.3769 4.62939V4.63659Z" fill="white"/>
</g>
<defs>
<clipPath id="clip0_2662_12632">
<rect width="18" height="18" fill="white"/>
</clipPath>
</defs>
</svg>
