<svg width="20" height="21" viewBox="0 0 20 21" fill="none" xmlns="http://www.w3.org/2000/svg">
<path d="M19.1667 18.8333H4.16667C3.50363 18.8333 2.86774 18.5699 2.3989 18.1011C1.93006 17.6323 1.66667 16.9964 1.66667 16.3333V1.33333C1.66667 1.11232 1.57887 0.900358 1.42259 0.744078C1.26631 0.587797 1.05435 0.5 0.833333 0.5C0.61232 0.5 0.400358 0.587797 0.244078 0.744078C0.0877974 0.900358 0 1.11232 0 1.33333L0 16.3333C0.00132321 17.438 0.440735 18.497 1.22185 19.2782C2.00296 20.0593 3.062 20.4987 4.16667 20.5H19.1667C19.3877 20.5 19.5996 20.4122 19.7559 20.2559C19.9122 20.0996 20 19.8877 20 19.6667C20 19.4457 19.9122 19.2337 19.7559 19.0774C19.5996 18.9211 19.3877 18.8333 19.1667 18.8333Z" fill="#CAEAE5"/>
<path d="M4.99935 17.1667C5.22036 17.1667 5.43232 17.079 5.5886 16.9227C5.74488 16.7664 5.83268 16.5544 5.83268 16.3334V10.5001C5.83268 10.2791 5.74488 10.0671 5.5886 9.91083C5.43232 9.75455 5.22036 9.66675 4.99935 9.66675C4.77834 9.66675 4.56637 9.75455 4.41009 9.91083C4.25381 10.0671 4.16602 10.2791 4.16602 10.5001V16.3334C4.16602 16.5544 4.25381 16.7664 4.41009 16.9227C4.56637 17.079 4.77834 17.1667 4.99935 17.1667Z" fill="#CAEAE5"/>
<path d="M8.33398 8.83333V16.3333C8.33398 16.5543 8.42178 16.7663 8.57806 16.9226C8.73434 17.0789 8.9463 17.1667 9.16732 17.1667C9.38833 17.1667 9.60029 17.0789 9.75657 16.9226C9.91285 16.7663 10.0007 16.5543 10.0007 16.3333V8.83333C10.0007 8.61232 9.91285 8.40036 9.75657 8.24408C9.60029 8.0878 9.38833 8 9.16732 8C8.9463 8 8.73434 8.0878 8.57806 8.24408C8.42178 8.40036 8.33398 8.61232 8.33398 8.83333Z" fill="#CAEAE5"/>
<path d="M12.5 11.3333V16.3333C12.5 16.5543 12.5878 16.7663 12.7441 16.9226C12.9004 17.0789 13.1123 17.1667 13.3333 17.1667C13.5543 17.1667 13.7663 17.0789 13.9226 16.9226C14.0789 16.7663 14.1667 16.5543 14.1667 16.3333V11.3333C14.1667 11.1123 14.0789 10.9004 13.9226 10.7441C13.7663 10.5878 13.5543 10.5 13.3333 10.5C13.1123 10.5 12.9004 10.5878 12.7441 10.7441C12.5878 10.9004 12.5 11.1123 12.5 11.3333Z" fill="#CAEAE5"/>
<path d="M16.666 8.00008V16.3334C16.666 16.5544 16.7538 16.7664 16.9101 16.9227C17.0664 17.079 17.2783 17.1667 17.4993 17.1667C17.7204 17.1667 17.9323 17.079 18.0886 16.9227C18.2449 16.7664 18.3327 16.5544 18.3327 16.3334V8.00008C18.3327 7.77907 18.2449 7.56711 18.0886 7.41083C17.9323 7.25455 17.7204 7.16675 17.4993 7.16675C17.2783 7.16675 17.0664 7.25455 16.9101 7.41083C16.7538 7.56711 16.666 7.77907 16.666 8.00008Z" fill="#CAEAE5"/>
<path d="M5.00015 8.00001C5.22114 7.99997 5.43307 7.91214 5.58931 7.75585L8.57765 4.76751C8.73648 4.6162 8.94744 4.5318 9.16681 4.5318C9.38619 4.5318 9.59715 4.6162 9.75598 4.76751L11.566 6.57751C12.0348 7.04619 12.6706 7.30948 13.3335 7.30948C13.9964 7.30948 14.6322 7.04619 15.101 6.57751L19.756 1.92251C19.9078 1.76535 19.9918 1.55484 19.9899 1.33635C19.988 1.11785 19.9003 0.908838 19.7458 0.754332C19.5913 0.599825 19.3823 0.512184 19.1638 0.510285C18.9453 0.508387 18.7348 0.592382 18.5776 0.74418L13.9226 5.39835C13.7664 5.55457 13.5545 5.64234 13.3335 5.64234C13.1125 5.64234 12.9006 5.55457 12.7443 5.39835L10.9343 3.58918C10.4655 3.1205 9.82972 2.85721 9.16681 2.85721C8.5039 2.85721 7.86813 3.1205 7.39931 3.58918L4.41098 6.57751C4.29447 6.69406 4.21513 6.84253 4.183 7.00415C4.15086 7.16578 4.16736 7.33331 4.23042 7.48556C4.29347 7.63781 4.40026 7.76794 4.53727 7.85952C4.67427 7.95109 4.83536 7.99998 5.00015 8.00001Z" fill="#CAEAE5"/>
</svg>
