<svg width="14" height="14" viewBox="0 0 14 14" fill="none" xmlns="http://www.w3.org/2000/svg">
<path fill-rule="evenodd" clip-rule="evenodd" d="M7 5.34924C6.08662 5.34924 5.34917 6.0867 5.34917 7.00008C5.34917 7.91345 6.08662 8.65091 7 8.65091C7.91338 8.65091 8.65083 7.91345 8.65083 7.00008C8.65083 6.0867 7.91338 5.34924 7 5.34924ZM4.47417 7.00008C4.47417 5.60345 5.60338 4.47424 7 4.47424C8.39663 4.47424 9.52583 5.60345 9.52583 7.00008C9.52583 8.3967 8.39663 9.52591 7 9.52591C5.60338 9.52591 4.47417 8.3967 4.47417 7.00008Z" fill="#E1E1E1"/>
<path fill-rule="evenodd" clip-rule="evenodd" d="M1.31687 5.24827C2.71157 3.05589 4.75535 1.73254 7 1.73254C9.24475 1.73254 11.2886 3.05601 12.6833 5.24856C13.0012 5.74693 13.1454 6.3853 13.1454 6.99713C13.1454 7.60895 13.0012 8.24733 12.6833 8.74569C11.2886 10.9382 9.24475 12.2617 7 12.2617C4.75525 12.2617 2.7114 10.9382 1.31669 8.74569C0.998786 8.24733 0.854584 7.60895 0.854584 6.99713C0.854584 6.38518 0.998841 5.74668 1.31687 5.24827ZM7 2.60754C5.12642 2.60754 3.33194 3.71074 2.05498 5.71819L2.05461 5.71877C1.84777 6.04282 1.72958 6.50669 1.72958 6.99713C1.72958 7.48757 1.84777 7.95144 2.05461 8.27549L2.05498 8.27606C3.33194 10.2835 5.12642 11.3867 7 11.3867C8.87358 11.3867 10.6681 10.2835 11.945 8.27606L11.9454 8.27549C12.1522 7.95144 12.2704 7.48757 12.2704 6.99713C12.2704 6.50669 12.1522 6.04282 11.9454 5.71877L11.945 5.71819C10.6681 3.71074 8.87358 2.60754 7 2.60754Z" fill="#E1E1E1"/>
</svg>
