<svg width="20" height="18" viewBox="0 0 20 18" fill="none" xmlns="http://www.w3.org/2000/svg">
<path d="M18.3333 5.775V14.1083H20V17.4417H11.2542C12.1375 17.4417 12.9392 17.1217 13.5808 16.6083H19.1675V14.9417H14.7783C14.8733 14.6758 14.9375 14.3975 14.9692 14.1083H15V5.775H10.4167V7.44167H11.2542C12.4008 7.44167 13.3333 8.37417 13.3333 9.52083V9.94167H12.5V9.52083C12.5 8.83417 11.9408 8.275 11.2542 8.275H8.74583C8.05917 8.275 7.5 8.83417 7.5 9.52083C7.5 10.0742 7.87167 10.5667 8.40333 10.7192L11.825 11.6967C12.7125 11.9508 13.3333 12.7725 13.3333 13.6958C13.3333 14.8425 12.4008 15.775 11.2542 15.775H10.4167V17.4417H9.58333V15.775H8.74583C7.59917 15.775 6.66667 14.8425 6.66667 13.6958V13.275H7.5V13.6958C7.5 14.3825 8.05917 14.9417 8.74583 14.9417H11.2542C11.9408 14.9417 12.5 14.3825 12.5 13.6958C12.5 13.1425 12.1283 12.65 11.5958 12.4975L8.175 11.52C7.2875 11.2658 6.66667 10.4442 6.66667 9.52083C6.66667 8.37417 7.59917 7.44167 8.74583 7.44167H9.58333V5.775H5V14.1083H5.03083C5.06333 14.3975 5.1275 14.6758 5.22167 14.9417H0.833333V16.6083H6.42C7.06083 17.1217 7.86333 17.4417 8.74667 17.4417H0V14.1083H1.66667V5.775H0V4.0325C0 3.1175 0.499167 2.27667 1.3025 1.8375L4.68417 0.000833511L5.30833 0.625L1.70167 2.56917C1.16583 2.86167 0.833333 3.4225 0.833333 4.0325V4.94167H19.1667V4.0325C19.1667 3.42167 18.8342 2.86083 18.2983 2.56917L14.6925 0.624167L15.3167 0L18.6975 1.8375C19.5017 2.275 20 3.11667 20 4.0325V5.775H18.3333ZM4.16667 5.775H2.5V14.1083H4.16667V5.775ZM17.5 5.775H15.8333V14.1083H17.5V5.775Z" fill="#425451"/>
</svg>
