<svg width="158" height="288" viewBox="0 0 158 288" fill="none" xmlns="http://www.w3.org/2000/svg">
<path d="M116.103 -177.07C120.028 -142.005 55.9338 -111.174 62.285 -54.4322C68.6362 2.30982 188.089 13.4663 194.78 73.2367C198.704 108.302 134.61 139.133 140.961 195.875C147.312 252.617 266.766 263.773 273.456 323.543" stroke="url(#paint0_linear_354_352)" stroke-opacity="0.5" stroke-width="0.516064" stroke-linecap="round" stroke-linejoin="round"/>
<path d="M171.232 -190.876C175.157 -155.81 111.062 -124.98 117.413 -68.2379C123.765 -11.4958 243.218 -0.339357 249.908 59.431C253.833 94.4963 189.738 125.327 196.09 182.069C202.441 238.811 321.894 249.967 328.584 309.738" stroke="url(#paint1_linear_354_352)" stroke-opacity="0.5" stroke-width="0.516064" stroke-linecap="round" stroke-linejoin="round"/>
<path d="M221.738 -211.482C225.663 -176.417 161.569 -145.587 167.92 -88.8445C174.271 -32.1025 293.724 -20.946 300.414 38.8244C304.339 73.8897 240.245 104.72 246.596 161.462C252.947 218.204 372.4 229.361 379.09 289.131" stroke="url(#paint2_linear_354_352)" stroke-opacity="0.5" stroke-width="0.516064" stroke-linecap="round" stroke-linejoin="round"/>
<path d="M111.623 -174.794C115.548 -139.729 51.4536 -108.898 57.8048 -52.1563C64.156 4.5857 183.609 15.7422 190.299 75.5126C194.224 110.578 130.13 141.408 136.481 198.15C142.832 254.892 262.285 266.049 268.975 325.819" stroke="url(#paint3_linear_354_352)" stroke-opacity="0.5" stroke-width="0.516064" stroke-linecap="round" stroke-linejoin="round"/>
<path d="M166.752 -188.6C170.676 -153.535 106.582 -122.704 112.933 -65.962C119.284 -9.21997 238.737 1.93652 245.428 61.7069C249.353 96.7722 185.258 127.603 191.609 184.345C197.96 241.087 317.414 252.243 324.104 312.014" stroke="url(#paint4_linear_354_352)" stroke-opacity="0.5" stroke-width="0.516064" stroke-linecap="round" stroke-linejoin="round"/>
<path d="M217.258 -209.207C221.182 -174.141 157.088 -143.311 163.439 -86.5687C169.79 -29.8267 289.243 -18.6702 295.934 41.1002C299.859 76.1655 235.764 106.996 242.115 163.738C248.466 220.48 367.92 231.637 374.61 291.407" stroke="url(#paint5_linear_354_352)" stroke-opacity="0.5" stroke-width="0.516064" stroke-linecap="round" stroke-linejoin="round"/>
<path d="M107.143 -172.519C111.068 -137.453 46.9733 -106.623 53.3244 -49.8807C59.6756 6.86133 179.129 18.0178 185.819 77.7882C189.744 112.854 125.649 143.684 132.001 200.426C138.352 257.168 257.805 268.325 264.495 328.095" stroke="url(#paint6_linear_354_352)" stroke-opacity="0.5" stroke-width="0.516064" stroke-linecap="round" stroke-linejoin="round"/>
<path d="M162.272 -186.324C166.197 -151.259 102.102 -120.428 108.454 -63.6861C114.805 -6.94409 234.258 4.2124 240.948 63.9828C244.873 99.0481 180.779 129.879 187.13 186.621C193.481 243.363 312.934 254.519 319.624 314.29" stroke="url(#paint7_linear_354_352)" stroke-opacity="0.5" stroke-width="0.516064" stroke-linecap="round" stroke-linejoin="round"/>
<path d="M212.778 -206.931C216.703 -171.865 152.608 -141.035 158.96 -84.2928C165.311 -27.5508 284.764 -16.3943 291.454 43.3761C295.379 78.4414 231.285 109.272 237.636 166.014C243.987 222.756 363.44 233.912 370.13 293.683" stroke="url(#paint8_linear_354_352)" stroke-opacity="0.5" stroke-width="0.516064" stroke-linecap="round" stroke-linejoin="round"/>
<path d="M102.595 -170.733C106.52 -135.668 42.4253 -104.837 48.7765 -48.0953C55.1277 8.6467 174.581 19.8032 181.271 79.5736C185.196 114.639 121.101 145.469 127.453 202.211C133.804 258.953 253.257 270.11 259.947 329.88" stroke="url(#paint9_linear_354_352)" stroke-opacity="0.5" stroke-width="0.516064" stroke-linecap="round" stroke-linejoin="round"/>
<path d="M153.101 -191.34C157.026 -156.275 92.9315 -125.444 99.2827 -68.702C105.634 -11.96 225.087 -0.803469 231.777 58.9669C235.702 94.0322 171.608 124.863 177.959 181.605C184.31 238.347 303.763 249.503 310.453 309.274" stroke="url(#paint10_linear_354_352)" stroke-opacity="0.5" stroke-width="0.516064" stroke-linecap="round" stroke-linejoin="round"/>
<path d="M208.229 -205.145C212.154 -170.08 148.06 -139.25 154.411 -82.5077C160.762 -25.7656 280.215 -14.6091 286.906 45.1613C290.83 80.2266 226.736 111.057 233.087 167.799C239.438 224.541 358.892 235.698 365.582 295.468" stroke="url(#paint11_linear_354_352)" stroke-opacity="0.5" stroke-width="0.516064" stroke-linecap="round" stroke-linejoin="round"/>
<path d="M98.0463 -168.947C101.971 -133.882 37.8767 -103.052 44.2279 -46.3097C50.5791 10.4324 170.032 21.5889 176.722 81.3593C180.647 116.425 116.553 147.255 122.904 203.997C129.255 260.739 248.708 271.896 255.399 331.666" stroke="url(#paint12_linear_354_352)" stroke-opacity="0.5" stroke-width="0.516064" stroke-linecap="round" stroke-linejoin="round"/>
<path d="M148.553 -189.554C152.477 -154.488 88.383 -123.658 94.7342 -66.9159C101.085 -10.1738 220.539 0.982663 227.229 60.7531C231.154 95.8184 167.059 126.649 173.41 183.391C179.761 240.133 299.215 251.289 305.905 311.06" stroke="url(#paint13_linear_354_352)" stroke-opacity="0.5" stroke-width="0.516064" stroke-linecap="round" stroke-linejoin="round"/>
<path d="M203.681 -203.36C207.606 -168.294 143.511 -137.464 149.862 -80.7218C156.214 -23.9797 275.667 -12.8232 282.357 46.9472C286.282 82.0125 222.187 112.843 228.539 169.585C234.89 226.327 354.343 237.484 361.033 297.254" stroke="url(#paint14_linear_354_352)" stroke-opacity="0.5" stroke-width="0.516064" stroke-linecap="round" stroke-linejoin="round"/>
<path d="M93.6346 -166.182C97.5595 -131.116 33.465 -100.286 39.8161 -43.5438C46.1673 13.1982 165.621 24.3547 172.311 84.1251C176.236 119.19 112.141 150.021 118.492 206.763C124.843 263.505 244.297 274.661 250.987 334.432" stroke="url(#paint15_linear_354_352)" stroke-opacity="0.5" stroke-width="0.516064" stroke-linecap="round" stroke-linejoin="round"/>
<path d="M144.141 -186.788C148.065 -151.723 83.9709 -120.892 90.3221 -64.1502C96.6733 -7.4082 216.127 3.74829 222.817 63.5187C226.742 98.584 162.647 129.414 168.998 186.157C175.349 242.899 294.803 254.055 301.493 313.825" stroke="url(#paint16_linear_354_352)" stroke-opacity="0.5" stroke-width="0.516064" stroke-linecap="round" stroke-linejoin="round"/>
<path d="M199.27 -200.594C203.194 -165.529 139.1 -134.698 145.451 -77.9564C151.802 -21.2144 271.256 -10.0579 277.946 49.7125C281.871 84.7778 217.776 115.608 224.127 172.35C230.478 229.092 349.932 240.249 356.622 300.019" stroke="url(#paint17_linear_354_352)" stroke-opacity="0.5" stroke-width="0.516064" stroke-linecap="round" stroke-linejoin="round"/>
<path d="M89.086 -164.396C93.0109 -129.33 28.9164 -98.4999 35.2676 -41.7579C41.6188 14.9841 161.072 26.1406 167.762 85.911C171.687 120.976 107.593 151.807 113.944 208.549C120.295 265.291 239.748 276.447 246.438 336.218" stroke="url(#paint18_linear_354_352)" stroke-opacity="0.5" stroke-width="0.516064" stroke-linecap="round" stroke-linejoin="round"/>
<path d="M139.592 -185.002C143.517 -149.937 79.4229 -119.107 85.7741 -62.3646C92.1253 -5.62256 211.578 5.53393 218.269 65.3043C222.193 100.37 158.099 131.2 164.45 187.942C170.801 244.684 290.255 255.841 296.945 315.611" stroke="url(#paint19_linear_354_352)" stroke-opacity="0.5" stroke-width="0.516064" stroke-linecap="round" stroke-linejoin="round"/>
<path d="M194.721 -198.808C198.645 -163.742 134.551 -132.912 140.902 -76.1698C147.253 -19.4277 266.706 -8.27124 273.397 51.4992C277.322 86.5645 213.227 117.395 219.578 174.137C225.929 230.879 345.383 242.036 352.073 301.806" stroke="url(#paint20_linear_354_352)" stroke-opacity="0.5" stroke-width="0.516064" stroke-linecap="round" stroke-linejoin="round"/>
<path d="M84.5374 -162.61C88.4623 -127.545 24.3679 -96.7143 30.719 -39.9723C37.0702 16.7697 156.523 27.9262 163.214 87.6966C167.138 122.762 103.044 153.592 109.395 210.334C115.746 267.077 235.199 278.233 241.89 338.003" stroke="url(#paint21_linear_354_352)" stroke-opacity="0.5" stroke-width="0.516064" stroke-linecap="round" stroke-linejoin="round"/>
<path d="M135.044 -183.216C138.969 -148.151 74.874 -117.32 81.2252 -60.5785C87.5764 -3.83642 207.03 7.32007 213.72 67.0905C217.645 102.156 153.55 132.986 159.901 189.728C166.253 246.47 285.706 257.627 292.396 317.397" stroke="url(#paint22_linear_354_352)" stroke-opacity="0.5" stroke-width="0.516064" stroke-linecap="round" stroke-linejoin="round"/>
<path d="M190.172 -197.023C194.097 -161.958 130.002 -131.127 136.354 -74.3853C142.705 -17.6433 262.158 -6.48682 268.848 53.2836C272.773 88.3489 208.678 119.179 215.03 175.921C221.381 232.663 340.834 243.82 347.524 303.59" stroke="url(#paint23_linear_354_352)" stroke-opacity="0.5" stroke-width="0.516064" stroke-linecap="round" stroke-linejoin="round"/>
<path d="M79.9886 -160.824C83.9135 -125.759 19.819 -94.9281 26.1702 -38.1861C32.5214 18.5559 151.975 29.7124 158.665 89.4828C162.59 124.548 98.4951 155.379 104.846 212.121C111.197 268.863 230.651 280.019 237.341 339.79" stroke="url(#paint24_linear_354_352)" stroke-opacity="0.5" stroke-width="0.516064" stroke-linecap="round" stroke-linejoin="round"/>
<path d="M130.495 -181.431C134.42 -146.366 70.3255 -115.536 76.6767 -58.7935C83.0278 -2.05151 202.481 9.10498 209.171 68.8754C213.096 103.941 149.002 134.771 155.353 191.513C161.704 248.255 281.157 259.412 287.847 319.182" stroke="url(#paint25_linear_354_352)" stroke-opacity="0.5" stroke-width="0.516064" stroke-linecap="round" stroke-linejoin="round"/>
<path d="M185.623 -195.237C189.548 -160.171 125.454 -129.341 131.805 -72.5987C138.156 -15.8567 257.609 -4.7002 264.299 55.0702C268.224 90.1355 204.13 120.966 210.481 177.708C216.832 234.45 336.285 245.607 342.975 305.377" stroke="url(#paint26_linear_354_352)" stroke-opacity="0.5" stroke-width="0.516064" stroke-linecap="round" stroke-linejoin="round"/>
<path d="M75.3722 -159.529C79.2971 -124.463 15.2026 -93.633 21.5538 -36.891C27.905 19.8511 147.358 31.0076 154.048 90.778C157.973 125.843 93.8788 156.674 100.23 213.416C106.581 270.158 226.034 281.314 232.724 341.085" stroke="url(#paint27_linear_354_352)" stroke-opacity="0.5" stroke-width="0.516064" stroke-linecap="round" stroke-linejoin="round"/>
<path d="M125.878 -180.136C129.803 -145.07 65.7081 -114.24 72.0593 -57.4979C78.4105 -0.755855 197.864 10.4006 204.554 70.171C208.479 105.236 144.384 136.067 150.735 192.809C157.087 249.551 276.54 260.707 283.23 320.478" stroke="url(#paint28_linear_354_352)" stroke-opacity="0.5" stroke-width="0.516064" stroke-linecap="round" stroke-linejoin="round"/>
<path d="M181.006 -193.941C184.931 -158.876 120.837 -128.045 127.188 -71.3031C133.539 -14.561 252.992 -3.40454 259.682 56.3659C263.607 91.4312 199.513 122.262 205.864 179.004C212.215 235.746 331.668 246.902 338.359 306.673" stroke="url(#paint29_linear_354_352)" stroke-opacity="0.5" stroke-width="0.516064" stroke-linecap="round" stroke-linejoin="round"/>
<path d="M70.8229 -157.744C74.7478 -122.679 10.6533 -91.8481 17.0045 -35.106C23.3557 21.636 142.809 32.7925 149.499 92.5629C153.424 127.628 89.3294 158.459 95.6806 215.201C102.032 271.943 221.485 283.099 228.175 342.87" stroke="url(#paint30_linear_354_352)" stroke-opacity="0.5" stroke-width="0.516064" stroke-linecap="round" stroke-linejoin="round"/>
<path d="M121.329 -178.35C125.254 -143.284 61.1598 -112.454 67.511 -55.7118C73.8622 1.03028 193.315 12.1868 200.006 71.9572C203.93 107.022 139.836 137.853 146.187 194.595C152.538 251.337 271.991 262.494 278.682 322.264" stroke="url(#paint31_linear_354_352)" stroke-opacity="0.5" stroke-width="0.516064" stroke-linecap="round" stroke-linejoin="round"/>
<path d="M176.458 -192.156C180.383 -157.09 116.288 -126.26 122.64 -69.5179C128.991 -12.7759 248.444 -1.61942 255.134 58.151C259.059 93.2163 194.964 124.047 201.316 180.789C207.667 237.531 327.12 248.687 333.81 308.458" stroke="url(#paint32_linear_354_352)" stroke-opacity="0.5" stroke-width="0.516064" stroke-linecap="round" stroke-linejoin="round"/>
<defs>
<linearGradient id="paint0_linear_354_352" x1="77.6813" y1="83.1194" x2="244.455" y2="64.4522" gradientUnits="userSpaceOnUse">
<stop stop-color="#0E1010"/>
<stop offset="0.19" stop-color="#3E4545" stop-opacity="0.4"/>
<stop offset="0.295" stop-color="#4D5656"/>
<stop offset="0.395" stop-color="#5C6666" stop-opacity="0.5"/>
<stop offset="0.59" stop-color="#1B1E1E"/>
<stop offset="1" stop-color="#030404"/>
</linearGradient>
<linearGradient id="paint1_linear_354_352" x1="132.81" y1="69.3137" x2="299.584" y2="50.6465" gradientUnits="userSpaceOnUse">
<stop stop-color="#0E1010"/>
<stop offset="0.19" stop-color="#3E4545" stop-opacity="0.4"/>
<stop offset="0.295" stop-color="#4D5656"/>
<stop offset="0.395" stop-color="#5C6666" stop-opacity="0.5"/>
<stop offset="0.59" stop-color="#1B1E1E"/>
<stop offset="1" stop-color="#030404"/>
</linearGradient>
<linearGradient id="paint2_linear_354_352" x1="183.316" y1="48.7071" x2="350.09" y2="30.0399" gradientUnits="userSpaceOnUse">
<stop stop-color="#0E1010"/>
<stop offset="0.19" stop-color="#3E4545" stop-opacity="0.4"/>
<stop offset="0.295" stop-color="#4D5656"/>
<stop offset="0.395" stop-color="#5C6666" stop-opacity="0.5"/>
<stop offset="0.59" stop-color="#1B1E1E"/>
<stop offset="1" stop-color="#030404"/>
</linearGradient>
<linearGradient id="paint3_linear_354_352" x1="73.2011" y1="85.3953" x2="239.975" y2="66.7281" gradientUnits="userSpaceOnUse">
<stop stop-color="#0E1010"/>
<stop offset="0.19" stop-color="#3E4545" stop-opacity="0.4"/>
<stop offset="0.295" stop-color="#4D5656"/>
<stop offset="0.395" stop-color="#5C6666" stop-opacity="0.5"/>
<stop offset="0.59" stop-color="#1B1E1E"/>
<stop offset="1" stop-color="#030404"/>
</linearGradient>
<linearGradient id="paint4_linear_354_352" x1="128.329" y1="71.5896" x2="295.103" y2="52.9224" gradientUnits="userSpaceOnUse">
<stop stop-color="#0E1010"/>
<stop offset="0.19" stop-color="#3E4545" stop-opacity="0.4"/>
<stop offset="0.295" stop-color="#4D5656"/>
<stop offset="0.395" stop-color="#5C6666" stop-opacity="0.5"/>
<stop offset="0.59" stop-color="#1B1E1E"/>
<stop offset="1" stop-color="#030404"/>
</linearGradient>
<linearGradient id="paint5_linear_354_352" x1="178.835" y1="50.9829" x2="345.609" y2="32.3157" gradientUnits="userSpaceOnUse">
<stop stop-color="#0E1010"/>
<stop offset="0.19" stop-color="#3E4545" stop-opacity="0.4"/>
<stop offset="0.295" stop-color="#4D5656"/>
<stop offset="0.395" stop-color="#5C6666" stop-opacity="0.5"/>
<stop offset="0.59" stop-color="#1B1E1E"/>
<stop offset="1" stop-color="#030404"/>
</linearGradient>
<linearGradient id="paint6_linear_354_352" x1="68.7207" y1="87.6709" x2="235.495" y2="69.0037" gradientUnits="userSpaceOnUse">
<stop stop-color="#0E1010"/>
<stop offset="0.19" stop-color="#3E4545" stop-opacity="0.4"/>
<stop offset="0.295" stop-color="#4D5656"/>
<stop offset="0.395" stop-color="#5C6666" stop-opacity="0.5"/>
<stop offset="0.59" stop-color="#1B1E1E"/>
<stop offset="1" stop-color="#030404"/>
</linearGradient>
<linearGradient id="paint7_linear_354_352" x1="123.85" y1="73.8655" x2="290.624" y2="55.1983" gradientUnits="userSpaceOnUse">
<stop stop-color="#0E1010"/>
<stop offset="0.19" stop-color="#3E4545" stop-opacity="0.4"/>
<stop offset="0.295" stop-color="#4D5656"/>
<stop offset="0.395" stop-color="#5C6666" stop-opacity="0.5"/>
<stop offset="0.59" stop-color="#1B1E1E"/>
<stop offset="1" stop-color="#030404"/>
</linearGradient>
<linearGradient id="paint8_linear_354_352" x1="174.356" y1="53.2588" x2="341.13" y2="34.5916" gradientUnits="userSpaceOnUse">
<stop stop-color="#0E1010"/>
<stop offset="0.19" stop-color="#3E4545" stop-opacity="0.4"/>
<stop offset="0.295" stop-color="#4D5656"/>
<stop offset="0.395" stop-color="#5C6666" stop-opacity="0.5"/>
<stop offset="0.59" stop-color="#1B1E1E"/>
<stop offset="1" stop-color="#030404"/>
</linearGradient>
<linearGradient id="paint9_linear_354_352" x1="64.1728" y1="89.4563" x2="230.947" y2="70.7891" gradientUnits="userSpaceOnUse">
<stop stop-color="#0E1010"/>
<stop offset="0.19" stop-color="#3E4545" stop-opacity="0.4"/>
<stop offset="0.295" stop-color="#4D5656"/>
<stop offset="0.395" stop-color="#5C6666" stop-opacity="0.5"/>
<stop offset="0.59" stop-color="#1B1E1E"/>
<stop offset="1" stop-color="#030404"/>
</linearGradient>
<linearGradient id="paint10_linear_354_352" x1="114.679" y1="68.8496" x2="281.453" y2="50.1824" gradientUnits="userSpaceOnUse">
<stop stop-color="#0E1010"/>
<stop offset="0.19" stop-color="#3E4545" stop-opacity="0.4"/>
<stop offset="0.295" stop-color="#4D5656"/>
<stop offset="0.395" stop-color="#5C6666" stop-opacity="0.5"/>
<stop offset="0.59" stop-color="#1B1E1E"/>
<stop offset="1" stop-color="#030404"/>
</linearGradient>
<linearGradient id="paint11_linear_354_352" x1="169.807" y1="55.044" x2="336.581" y2="36.3768" gradientUnits="userSpaceOnUse">
<stop stop-color="#0E1010"/>
<stop offset="0.19" stop-color="#3E4545" stop-opacity="0.4"/>
<stop offset="0.295" stop-color="#4D5656"/>
<stop offset="0.395" stop-color="#5C6666" stop-opacity="0.5"/>
<stop offset="0.59" stop-color="#1B1E1E"/>
<stop offset="1" stop-color="#030404"/>
</linearGradient>
<linearGradient id="paint12_linear_354_352" x1="59.6242" y1="91.242" x2="226.398" y2="72.5748" gradientUnits="userSpaceOnUse">
<stop stop-color="#0E1010"/>
<stop offset="0.19" stop-color="#3E4545" stop-opacity="0.4"/>
<stop offset="0.295" stop-color="#4D5656"/>
<stop offset="0.395" stop-color="#5C6666" stop-opacity="0.5"/>
<stop offset="0.59" stop-color="#1B1E1E"/>
<stop offset="1" stop-color="#030404"/>
</linearGradient>
<linearGradient id="paint13_linear_354_352" x1="110.13" y1="70.6358" x2="276.904" y2="51.9686" gradientUnits="userSpaceOnUse">
<stop stop-color="#0E1010"/>
<stop offset="0.19" stop-color="#3E4545" stop-opacity="0.4"/>
<stop offset="0.295" stop-color="#4D5656"/>
<stop offset="0.395" stop-color="#5C6666" stop-opacity="0.5"/>
<stop offset="0.59" stop-color="#1B1E1E"/>
<stop offset="1" stop-color="#030404"/>
</linearGradient>
<linearGradient id="paint14_linear_354_352" x1="165.259" y1="56.8298" x2="332.033" y2="38.1627" gradientUnits="userSpaceOnUse">
<stop stop-color="#0E1010"/>
<stop offset="0.19" stop-color="#3E4545" stop-opacity="0.4"/>
<stop offset="0.295" stop-color="#4D5656"/>
<stop offset="0.395" stop-color="#5C6666" stop-opacity="0.5"/>
<stop offset="0.59" stop-color="#1B1E1E"/>
<stop offset="1" stop-color="#030404"/>
</linearGradient>
<linearGradient id="paint15_linear_354_352" x1="55.2124" y1="94.0078" x2="221.986" y2="75.3406" gradientUnits="userSpaceOnUse">
<stop stop-color="#0E1010"/>
<stop offset="0.19" stop-color="#3E4545" stop-opacity="0.4"/>
<stop offset="0.295" stop-color="#4D5656"/>
<stop offset="0.395" stop-color="#5C6666" stop-opacity="0.5"/>
<stop offset="0.59" stop-color="#1B1E1E"/>
<stop offset="1" stop-color="#030404"/>
</linearGradient>
<linearGradient id="paint16_linear_354_352" x1="105.718" y1="73.4014" x2="272.492" y2="54.7342" gradientUnits="userSpaceOnUse">
<stop stop-color="#0E1010"/>
<stop offset="0.19" stop-color="#3E4545" stop-opacity="0.4"/>
<stop offset="0.295" stop-color="#4D5656"/>
<stop offset="0.395" stop-color="#5C6666" stop-opacity="0.5"/>
<stop offset="0.59" stop-color="#1B1E1E"/>
<stop offset="1" stop-color="#030404"/>
</linearGradient>
<linearGradient id="paint17_linear_354_352" x1="160.847" y1="59.5952" x2="327.621" y2="40.928" gradientUnits="userSpaceOnUse">
<stop stop-color="#0E1010"/>
<stop offset="0.19" stop-color="#3E4545" stop-opacity="0.4"/>
<stop offset="0.295" stop-color="#4D5656"/>
<stop offset="0.395" stop-color="#5C6666" stop-opacity="0.5"/>
<stop offset="0.59" stop-color="#1B1E1E"/>
<stop offset="1" stop-color="#030404"/>
</linearGradient>
<linearGradient id="paint18_linear_354_352" x1="50.6639" y1="95.7937" x2="217.438" y2="77.1265" gradientUnits="userSpaceOnUse">
<stop stop-color="#0E1010"/>
<stop offset="0.19" stop-color="#3E4545" stop-opacity="0.4"/>
<stop offset="0.295" stop-color="#4D5656"/>
<stop offset="0.395" stop-color="#5C6666" stop-opacity="0.5"/>
<stop offset="0.59" stop-color="#1B1E1E"/>
<stop offset="1" stop-color="#030404"/>
</linearGradient>
<linearGradient id="paint19_linear_354_352" x1="101.17" y1="75.187" x2="267.944" y2="56.5198" gradientUnits="userSpaceOnUse">
<stop stop-color="#0E1010"/>
<stop offset="0.19" stop-color="#3E4545" stop-opacity="0.4"/>
<stop offset="0.295" stop-color="#4D5656"/>
<stop offset="0.395" stop-color="#5C6666" stop-opacity="0.5"/>
<stop offset="0.59" stop-color="#1B1E1E"/>
<stop offset="1" stop-color="#030404"/>
</linearGradient>
<linearGradient id="paint20_linear_354_352" x1="156.298" y1="61.3818" x2="323.072" y2="42.7147" gradientUnits="userSpaceOnUse">
<stop stop-color="#0E1010"/>
<stop offset="0.19" stop-color="#3E4545" stop-opacity="0.4"/>
<stop offset="0.295" stop-color="#4D5656"/>
<stop offset="0.395" stop-color="#5C6666" stop-opacity="0.5"/>
<stop offset="0.59" stop-color="#1B1E1E"/>
<stop offset="1" stop-color="#030404"/>
</linearGradient>
<linearGradient id="paint21_linear_354_352" x1="46.1153" y1="97.5793" x2="212.889" y2="78.9121" gradientUnits="userSpaceOnUse">
<stop stop-color="#0E1010"/>
<stop offset="0.19" stop-color="#3E4545" stop-opacity="0.4"/>
<stop offset="0.295" stop-color="#4D5656"/>
<stop offset="0.395" stop-color="#5C6666" stop-opacity="0.5"/>
<stop offset="0.59" stop-color="#1B1E1E"/>
<stop offset="1" stop-color="#030404"/>
</linearGradient>
<linearGradient id="paint22_linear_354_352" x1="96.6215" y1="76.9732" x2="263.396" y2="58.306" gradientUnits="userSpaceOnUse">
<stop stop-color="#0E1010"/>
<stop offset="0.19" stop-color="#3E4545" stop-opacity="0.4"/>
<stop offset="0.295" stop-color="#4D5656"/>
<stop offset="0.395" stop-color="#5C6666" stop-opacity="0.5"/>
<stop offset="0.59" stop-color="#1B1E1E"/>
<stop offset="1" stop-color="#030404"/>
</linearGradient>
<linearGradient id="paint23_linear_354_352" x1="151.75" y1="63.1663" x2="318.524" y2="44.4991" gradientUnits="userSpaceOnUse">
<stop stop-color="#0E1010"/>
<stop offset="0.19" stop-color="#3E4545" stop-opacity="0.4"/>
<stop offset="0.295" stop-color="#4D5656"/>
<stop offset="0.395" stop-color="#5C6666" stop-opacity="0.5"/>
<stop offset="0.59" stop-color="#1B1E1E"/>
<stop offset="1" stop-color="#030404"/>
</linearGradient>
<linearGradient id="paint24_linear_354_352" x1="41.5665" y1="99.3655" x2="208.34" y2="80.6983" gradientUnits="userSpaceOnUse">
<stop stop-color="#0E1010"/>
<stop offset="0.19" stop-color="#3E4545" stop-opacity="0.4"/>
<stop offset="0.295" stop-color="#4D5656"/>
<stop offset="0.395" stop-color="#5C6666" stop-opacity="0.5"/>
<stop offset="0.59" stop-color="#1B1E1E"/>
<stop offset="1" stop-color="#030404"/>
</linearGradient>
<linearGradient id="paint25_linear_354_352" x1="92.0729" y1="78.7581" x2="258.847" y2="60.0909" gradientUnits="userSpaceOnUse">
<stop stop-color="#0E1010"/>
<stop offset="0.19" stop-color="#3E4545" stop-opacity="0.4"/>
<stop offset="0.295" stop-color="#4D5656"/>
<stop offset="0.395" stop-color="#5C6666" stop-opacity="0.5"/>
<stop offset="0.59" stop-color="#1B1E1E"/>
<stop offset="1" stop-color="#030404"/>
</linearGradient>
<linearGradient id="paint26_linear_354_352" x1="147.201" y1="64.9529" x2="313.975" y2="46.2857" gradientUnits="userSpaceOnUse">
<stop stop-color="#0E1010"/>
<stop offset="0.19" stop-color="#3E4545" stop-opacity="0.4"/>
<stop offset="0.295" stop-color="#4D5656"/>
<stop offset="0.395" stop-color="#5C6666" stop-opacity="0.5"/>
<stop offset="0.59" stop-color="#1B1E1E"/>
<stop offset="1" stop-color="#030404"/>
</linearGradient>
<linearGradient id="paint27_linear_354_352" x1="36.9501" y1="100.661" x2="203.724" y2="81.9935" gradientUnits="userSpaceOnUse">
<stop stop-color="#0E1010"/>
<stop offset="0.19" stop-color="#3E4545" stop-opacity="0.4"/>
<stop offset="0.295" stop-color="#4D5656"/>
<stop offset="0.395" stop-color="#5C6666" stop-opacity="0.5"/>
<stop offset="0.59" stop-color="#1B1E1E"/>
<stop offset="1" stop-color="#030404"/>
</linearGradient>
<linearGradient id="paint28_linear_354_352" x1="87.4556" y1="80.0537" x2="254.23" y2="61.3865" gradientUnits="userSpaceOnUse">
<stop stop-color="#0E1010"/>
<stop offset="0.19" stop-color="#3E4545" stop-opacity="0.4"/>
<stop offset="0.295" stop-color="#4D5656"/>
<stop offset="0.395" stop-color="#5C6666" stop-opacity="0.5"/>
<stop offset="0.59" stop-color="#1B1E1E"/>
<stop offset="1" stop-color="#030404"/>
</linearGradient>
<linearGradient id="paint29_linear_354_352" x1="142.584" y1="66.2485" x2="309.358" y2="47.5814" gradientUnits="userSpaceOnUse">
<stop stop-color="#0E1010"/>
<stop offset="0.19" stop-color="#3E4545" stop-opacity="0.4"/>
<stop offset="0.295" stop-color="#4D5656"/>
<stop offset="0.395" stop-color="#5C6666" stop-opacity="0.5"/>
<stop offset="0.59" stop-color="#1B1E1E"/>
<stop offset="1" stop-color="#030404"/>
</linearGradient>
<linearGradient id="paint30_linear_354_352" x1="32.4008" y1="102.446" x2="199.175" y2="83.7784" gradientUnits="userSpaceOnUse">
<stop stop-color="#0E1010"/>
<stop offset="0.19" stop-color="#3E4545" stop-opacity="0.4"/>
<stop offset="0.295" stop-color="#4D5656"/>
<stop offset="0.395" stop-color="#5C6666" stop-opacity="0.5"/>
<stop offset="0.59" stop-color="#1B1E1E"/>
<stop offset="1" stop-color="#030404"/>
</linearGradient>
<linearGradient id="paint31_linear_354_352" x1="82.9073" y1="81.8399" x2="249.681" y2="63.1727" gradientUnits="userSpaceOnUse">
<stop stop-color="#0E1010"/>
<stop offset="0.19" stop-color="#3E4545" stop-opacity="0.4"/>
<stop offset="0.295" stop-color="#4D5656"/>
<stop offset="0.395" stop-color="#5C6666" stop-opacity="0.5"/>
<stop offset="0.59" stop-color="#1B1E1E"/>
<stop offset="1" stop-color="#030404"/>
</linearGradient>
<linearGradient id="paint32_linear_354_352" x1="138.036" y1="68.0337" x2="304.81" y2="49.3665" gradientUnits="userSpaceOnUse">
<stop stop-color="#0E1010"/>
<stop offset="0.19" stop-color="#3E4545" stop-opacity="0.4"/>
<stop offset="0.295" stop-color="#4D5656"/>
<stop offset="0.395" stop-color="#5C6666" stop-opacity="0.5"/>
<stop offset="0.59" stop-color="#1B1E1E"/>
<stop offset="1" stop-color="#030404"/>
</linearGradient>
</defs>
</svg>
