<svg width="54" height="54" viewBox="0 0 54 54" fill="none" xmlns="http://www.w3.org/2000/svg">
<g filter="url(#filter0_d_354_344)">
<mask id="path-1-inside-1_354_344" fill="white">
<path d="M4.67688 7.94464C4.67688 5.14698 6.94484 2.87903 9.7425 2.87903L44.9352 2.87903C47.7329 2.87903 50.0009 5.14699 50.0009 7.94465V29.2736C50.0009 41.2005 39.4253 50.8691 27.3389 50.8691C15.2525 50.8691 4.67688 41.2005 4.67688 29.2736V7.94464Z"/>
</mask>
<path d="M4.67688 7.94464C4.67688 5.14698 6.94484 2.87903 9.7425 2.87903L44.9352 2.87903C47.7329 2.87903 50.0009 5.14699 50.0009 7.94465V29.2736C50.0009 41.2005 39.4253 50.8691 27.3389 50.8691C15.2525 50.8691 4.67688 41.2005 4.67688 29.2736V7.94464Z" fill="url(#paint0_linear_354_344)"/>
<path d="M44.6686 7.94465V29.2736H55.3331V7.94465H44.6686ZM10.0091 29.2736V7.94464H-0.655353V29.2736H10.0091ZM27.3389 45.5369C17.8852 45.5369 10.0091 37.9528 10.0091 29.2736H-0.655353C-0.655353 44.4481 12.6197 56.2014 27.3389 56.2014V45.5369ZM44.6686 29.2736C44.6686 37.9528 36.7925 45.5369 27.3389 45.5369V56.2014C42.058 56.2014 55.3331 44.4481 55.3331 29.2736H44.6686ZM9.7425 8.21126L44.9352 8.21126L44.9352 -2.4532L9.7425 -2.4532L9.7425 8.21126ZM10.0091 7.94464C10.0091 8.0919 9.88974 8.21126 9.7425 8.21126L9.7425 -2.4532C3.99993 -2.4532 -0.655353 2.20206 -0.655353 7.94464H10.0091ZM55.3331 7.94465C55.3331 2.20207 50.6778 -2.4532 44.9352 -2.4532L44.9352 8.21126C44.788 8.21126 44.6686 8.0919 44.6686 7.94465H55.3331Z" fill="white" fill-opacity="0.4" mask="url(#path-1-inside-1_354_344)"/>
</g>
<path d="M26.8714 18.373C27.2091 17.7176 28.1462 17.7176 28.484 18.373L30.6301 22.5367C30.7165 22.7044 30.8531 22.841 31.0208 22.9274L35.1845 25.0735C35.8399 25.4113 35.8399 26.3483 35.1845 26.6861L31.0208 28.8322C30.8531 28.9186 30.7165 29.0552 30.6301 29.2229L28.484 33.3866C28.1462 34.042 27.2091 34.042 26.8714 33.3866L24.7253 29.2229C24.6388 29.0552 24.5023 28.9186 24.3346 28.8322L20.1708 26.6861C19.5155 26.3483 19.5155 25.4113 20.1708 25.0735L24.3346 22.9274C24.5023 22.841 24.6388 22.7044 24.7253 22.5367L26.8714 18.373Z" fill="url(#paint1_angular_354_344)"/>
<path d="M26.8714 18.373C27.2091 17.7176 28.1462 17.7176 28.484 18.373L30.6301 22.5367C30.7165 22.7044 30.8531 22.841 31.0208 22.9274L35.1845 25.0735C35.8399 25.4113 35.8399 26.3483 35.1845 26.6861L31.0208 28.8322C30.8531 28.9186 30.7165 29.0552 30.6301 29.2229L28.484 33.3866C28.1462 34.042 27.2091 34.042 26.8714 33.3866L24.7253 29.2229C24.6388 29.0552 24.5023 28.9186 24.3346 28.8322L20.1708 26.6861C19.5155 26.3483 19.5155 25.4113 20.1708 25.0735L24.3346 22.9274C24.5023 22.841 24.6388 22.7044 24.7253 22.5367L26.8714 18.373Z" fill="url(#paint2_angular_354_344)" fill-opacity="0.5"/>
<path d="M31.7526 21.8049L29.6689 17.7623C28.8347 16.1438 26.5206 16.1438 25.6864 17.7623L23.6028 21.8049L19.5601 23.8886C17.9417 24.7228 17.9416 27.0369 19.5601 27.8711L23.6028 29.9547L25.6864 33.9974C26.5206 35.6158 28.8347 35.6158 29.6689 33.9974L31.7526 29.9547L35.7952 27.8711C37.4137 27.0369 37.4137 24.7228 35.7952 23.8886L31.7526 21.8049Z" stroke="black" stroke-opacity="0.16" stroke-width="2.66612"/>
<path fill-rule="evenodd" clip-rule="evenodd" d="M6.12976 36.7721L40.0229 2.87903L44.9356 2.87903C47.7333 2.87903 50.0013 5.14698 50.0013 7.94465V15.5234L17.082 48.4427C12.1331 45.9816 8.15258 41.8218 6.12976 36.7721Z" fill="white" fill-opacity="0.32"/>
<defs>
<filter id="filter0_d_354_344" x="4.67688" y="2.87903" width="45.324" height="50.5229" filterUnits="userSpaceOnUse" color-interpolation-filters="sRGB">
<feFlood flood-opacity="0" result="BackgroundImageFix"/>
<feColorMatrix in="SourceAlpha" type="matrix" values="0 0 0 0 0 0 0 0 0 0 0 0 0 0 0 0 0 0 127 0" result="hardAlpha"/>
<feOffset dy="2.53281"/>
<feComposite in2="hardAlpha" operator="out"/>
<feColorMatrix type="matrix" values="0 0 0 0 0.24 0 0 0 0 0.118652 0 0 0 0 0 0 0 0 1 0"/>
<feBlend mode="normal" in2="BackgroundImageFix" result="effect1_dropShadow_354_344"/>
<feBlend mode="normal" in="SourceGraphic" in2="effect1_dropShadow_354_344" result="shape"/>
</filter>
<linearGradient id="paint0_linear_354_344" x1="27.3386" y1="60.5486" x2="27.3386" y2="3.47894" gradientUnits="userSpaceOnUse">
<stop stop-color="#8C4500"/>
<stop offset="1" stop-color="#D1A66E"/>
</linearGradient>
<radialGradient id="paint1_angular_354_344" cx="0" cy="0" r="1" gradientUnits="userSpaceOnUse" gradientTransform="translate(27.6777 25.8798) rotate(90) scale(7.99835)">
<stop stop-color="white"/>
<stop offset="1" stop-color="#E0E0E0"/>
</radialGradient>
<radialGradient id="paint2_angular_354_344" cx="0" cy="0" r="1" gradientUnits="userSpaceOnUse" gradientTransform="translate(27.6777 25.8798) rotate(-180) scale(7.99835)">
<stop stop-color="white"/>
<stop offset="1" stop-color="#E0E0E0"/>
</radialGradient>
</defs>
</svg>
