<svg width="134" height="132" viewBox="0 0 134 132" fill="none" xmlns="http://www.w3.org/2000/svg">
<g clip-path="url(#clip0_354_759)">
<path d="M45.8351 7.94238C56.6128 6.78098 68.5838 20.8541 62.3122 31.0014C51.3439 48.7442 28.6878 30.4398 34.5943 16.8956C36.0546 13.5531 42.0864 8.34588 45.8351 7.94238ZM56.1061 12.9315C55.0327 12.0918 52.281 10.5542 50.9788 10.1507C50.1233 9.88896 43.7919 8.6076 45.4156 10.5324C46.2819 11.552 50.4394 12.9097 51.7852 13.7003C55.5721 15.925 58.7379 20.696 60.3888 24.7146C64.8459 22.4081 58.6616 14.9163 56.1006 12.9315H56.1061ZM40.904 13.395C35.8911 14.4255 34.9975 20.0417 35.7331 24.3165C37.0081 31.743 48.1345 40.0527 55.3977 35.5325C65.5597 29.2075 53.774 10.7559 40.904 13.395Z" fill="#CAEAE5" fill-opacity="0.05"/>
<path d="M116.664 111.52C121.867 110.817 126.221 113.706 129.343 117.632C137.745 128.199 124.859 143.598 112.757 141.864C108.709 141.28 102.339 134.595 101.674 130.61C100.317 122.463 108.725 112.6 116.669 111.525L116.664 111.52ZM116.653 113.145C108.507 114.535 97.7511 128.614 105.924 135.075C115.296 142.485 131.942 126.902 125.769 116.853C123.84 113.717 120.195 112.54 116.653 113.145ZM126.946 134.083C129.076 131.351 132.65 124.672 128.793 122.283C128.417 124.841 127.452 127.518 126.166 129.748C125.529 130.849 121.339 135.724 120.456 136.308C118.723 137.453 114.032 138.178 111.896 138.914C112.637 139.874 113.117 140.19 114.348 140.31C118.527 140.719 124.488 137.229 126.94 134.083H126.946Z" fill="#CAEAE5" fill-opacity="0.05"/>
<path d="M1.91801 124.083C7.01262 118.854 23.3699 118.985 28.6988 123.903C31.4667 126.455 31.5539 133.532 28.993 136.182C23.457 141.918 3.75425 142.033 0.599409 134.023C-0.463102 131.329 -0.179766 126.226 1.91256 124.077L1.91801 124.083ZM13.0608 121.88C-2.4846 123.216 -0.871761 133.178 13.4531 134.246C17.6323 134.557 30.1154 133.047 28.8786 127.022C27.9196 122.354 16.8259 121.553 13.0608 121.874V121.88ZM27.5491 135.01C28.3718 134.132 30.0228 134.186 28.1484 132.621C21.4791 136.351 13.6111 136.547 6.39146 134.235C4.94753 133.772 3.9722 132.392 2.27763 132.632C2.87155 134.514 3.43277 135.544 5.16004 136.558C10.4072 139.634 23.3535 139.492 27.5491 135.015V135.01Z" fill="#CAEAE5" fill-opacity="0.05"/>
<path d="M136.034 41.0832C139.712 40.5434 143.276 43.4606 145.139 46.4323C148.474 51.7431 141.32 60.8217 137.217 64.0823C134.356 66.3561 128.548 69.6876 124.968 68.259C123.954 67.8555 119.099 63.2263 118.849 62.3811C116.538 54.5784 128.798 42.1411 136.034 41.0832ZM136.04 42.7081C133.62 43.068 129.632 45.8761 127.747 47.5119C124.663 50.1891 116.86 59.4912 121.47 63.03C126.15 66.6232 136.11 57.3811 138.579 53.4443C141.112 49.4094 143.69 41.5631 136.04 42.7081ZM139.107 59.6984C141.423 57.0321 145.052 52.7954 144.354 48.875C143.553 44.3821 141.074 51.9775 140.426 53.1171C136.792 59.5349 133.255 61.7977 126.918 64.7094C126.482 64.9111 125.365 64.8184 125.823 65.7617C126.848 67.8828 129.812 66.5578 131.337 65.8108C134.786 64.1314 136.541 62.6537 139.107 59.6984Z" fill="#CAEAE5" fill-opacity="0.05"/>
<path d="M109.052 19.5728C106.246 19.2292 102.535 21.214 102.105 17.6971C101.086 9.42546 102.742 -0.52008 102.045 -8.97706C102.541 -11.6761 109.177 -11.6761 109.673 -8.97706L109.052 19.5728ZM108.038 -9.24424H103.679V-5.42742C104.486 -5.55828 107.853 -5.23658 108.044 -5.42742C109.046 -6.45251 106.97 -7.22133 106.943 -7.33583C106.649 -8.78077 108.474 -7.44488 108.038 -9.23879V-9.24424ZM108.044 -4.3369H103.679V-2.70657H108.044V-4.3369ZM108.044 -1.6106H103.679V0.0197277H108.044V-1.6106ZM108.044 1.1157H103.679V2.74603H108.044V1.1157ZM108.044 3.842H103.679V5.47233H108.044V3.842ZM108.044 6.5683H103.679V8.19863H108.044V6.5683ZM103.679 9.28915V17.4681C110.016 18.3677 107.118 13.2641 108.038 9.2946H103.679V9.28915Z" fill="#CAEAE5" fill-opacity="0.05"/>
<path d="M74.1961 88.5699C68.9762 94.1752 63.7072 99.7205 58.0405 104.89C56.2969 106.127 52.1449 101.716 52.45 100.326C53.0167 97.7521 69.8044 83.3136 72.5342 80.0475C73.7112 79.1315 77.5744 83.1282 77.7596 83.8534C78.2446 85.7564 75.166 87.523 74.1907 88.5645L74.1961 88.5699ZM74.7737 85.3311C75.2041 84.9276 75.7871 84.7586 76.1795 84.2951L73.1935 81.3071L54.0901 100.931L57.6645 103.652C56.5966 101.105 57.5664 102.55 58.7107 101.7C60.2418 100.56 60.8738 98.4282 61.0428 98.2919C64.3938 95.6856 67.4233 92.9429 70.1368 90.2384C72.0765 88.3028 72.9483 87.0487 74.7791 85.3311H74.7737Z" fill="#CAEAE5" fill-opacity="0.05"/>
<path d="M108.485 124.214C108.044 124.099 107.455 123.925 107.014 123.783C106.676 123.679 106.622 123.248 106.889 122.823L108.91 119.584C109.036 119.383 109.215 119.203 109.417 119.099L110.441 118.521C110.665 118.396 110.883 118.357 111.057 118.417L112.13 118.805C112.419 118.908 112.49 119.274 112.299 119.661L110.746 122.85C110.485 123.396 110.757 123.81 111.28 123.657C111.607 123.565 111.902 123.488 111.994 123.494C112.239 123.499 115.89 121.067 116.168 120.969C116.348 120.904 117.525 120.877 118.342 120.86C118.762 120.849 118.887 121.286 118.609 121.765L116.98 124.541C116.844 124.775 116.8 125.004 116.865 125.173L116.909 125.282C117.007 125.539 117.334 125.582 117.694 125.386L119.296 124.492C119.296 124.492 122.314 122.72 122.532 122.638C122.734 122.567 124.75 122.72 125.082 122.747C125.115 122.747 125.142 122.752 125.169 122.763C125.475 122.85 125.485 123.265 125.197 123.674L122.576 127.398C122.347 127.725 121.976 127.954 121.688 127.96L119.584 127.97C119.426 127.97 119.236 128.041 119.056 128.167L115.847 130.413C115.759 130.473 115.672 130.517 115.59 130.555L113.738 131.264C113.574 131.324 113.422 131.335 113.307 131.291L113.03 131.193C112.763 131.1 112.724 130.768 112.931 130.419L114.893 127.076C114.942 126.989 114.98 126.902 115.007 126.82L115.089 126.525C115.204 126.117 114.964 125.855 114.561 125.948L114.25 126.018C114.217 126.024 114.185 126.035 114.147 126.046C113.858 126.149 112.474 126.662 112.267 126.913C112.049 127.18 109.613 128.641 109.33 128.81C109.308 128.821 109.292 128.837 109.27 128.848L108.502 129.366C108.24 129.546 107.962 129.601 107.771 129.508L107.069 129.17C106.829 129.055 106.785 128.739 106.96 128.401L108.692 125.048C108.899 124.65 108.818 124.279 108.496 124.203L108.485 124.214Z" fill="#CAEAE5" fill-opacity="0.05"/>
<path d="M8.0261 127.812C7.55751 127.834 6.92545 127.845 6.45141 127.851C6.09724 127.856 5.83025 127.66 5.86294 127.409L6.06454 125.62C6.07544 125.517 6.14628 125.408 6.26615 125.331L6.86007 124.917C6.99084 124.83 7.15975 124.775 7.33411 124.77L8.45111 124.743C8.75624 124.737 9.00688 124.873 9.03958 125.07L9.3665 126.76C9.42644 127.065 9.91683 127.218 10.3255 127.054C10.5761 126.951 10.8104 126.864 10.9085 126.853C11.1483 126.815 13.1207 125.042 13.3223 124.95C13.4531 124.89 14.5428 124.661 15.3111 124.503C15.7089 124.421 16.123 124.584 16.172 124.852L16.4826 126.46C16.5099 126.602 16.6352 126.727 16.8259 126.798L16.9512 126.847C17.2454 126.962 17.616 126.924 17.8394 126.755L18.8365 126.002C18.8365 126.002 20.6073 124.579 20.7653 124.497C20.9179 124.426 23.1683 124.099 23.5442 124.045C23.5824 124.045 23.6151 124.034 23.6532 124.034C24.0564 124.012 24.4269 124.203 24.4705 124.454L24.901 126.869C24.9391 127.093 24.7321 127.294 24.3942 127.354L21.9968 127.769C21.817 127.801 21.6644 127.872 21.5718 127.981L19.8554 129.906C19.8064 129.955 19.7464 130.004 19.681 130.037L18.1608 130.817C18.0301 130.882 17.8611 130.92 17.6977 130.915L17.3054 130.904C16.9349 130.893 16.6243 130.691 16.5807 130.44L16.172 128.161C16.1611 128.107 16.1393 128.052 16.1012 128.003L15.9759 127.834C15.8015 127.6 15.3711 127.507 15.0223 127.627L14.7553 127.72C14.7281 127.731 14.7009 127.741 14.6682 127.752C14.4502 127.861 13.3823 128.374 13.3387 128.548C13.2951 128.728 11.7694 129.972 11.5842 130.119C11.5733 130.13 11.5624 130.141 11.546 130.152L11.0938 130.582C10.9412 130.735 10.6851 130.811 10.429 130.789L9.50272 130.708C9.19214 130.68 8.95785 130.506 8.9306 130.282L8.67996 128.194C8.65271 127.96 8.37483 127.791 8.03155 127.801L8.0261 127.812Z" fill="#CAEAE5" fill-opacity="0.05"/>
<path d="M125.567 53.2534C125.289 53.2207 124.935 53.1607 124.668 53.1117C124.467 53.0735 124.559 52.7409 124.864 52.3756L127.218 49.562C127.365 49.3875 127.545 49.2185 127.719 49.104L128.618 48.4824C128.815 48.3461 128.984 48.2807 129.093 48.3025L129.774 48.4224C129.959 48.4551 129.904 48.7278 129.654 49.0713L127.583 51.8576C127.229 52.3319 127.305 52.6264 127.736 52.4301C128.003 52.3101 128.243 52.2065 128.313 52.1956C128.493 52.1684 132.002 49.6111 132.247 49.4857C132.411 49.3984 133.359 49.1803 134.024 49.0222C134.372 48.9404 134.351 49.2839 133.98 49.731L131.844 52.3374C131.664 52.5555 131.561 52.7572 131.566 52.8936V52.9808C131.572 53.188 131.822 53.1771 132.171 52.9535L133.757 51.9448C133.757 51.9448 136.846 49.9164 137.059 49.8074C137.255 49.7092 139.015 49.4857 139.309 49.4475C139.336 49.4475 139.363 49.4475 139.385 49.4475C139.636 49.4693 139.527 49.8401 139.146 50.2599L135.691 54.0222C135.391 54.3494 134.999 54.6111 134.748 54.6493L132.956 54.9437C132.825 54.9655 132.645 55.0528 132.454 55.1836L129.174 57.5392C129.087 57.5991 129.005 57.6482 128.929 57.6864L127.278 58.4934C127.136 58.5643 127.017 58.5861 126.94 58.5643L126.76 58.5097C126.592 58.4552 126.662 58.1771 126.924 57.8554L129.441 54.7802C129.507 54.6984 129.561 54.622 129.605 54.5457L129.757 54.2894C129.964 53.9295 129.861 53.7387 129.523 53.875L129.261 53.9786C129.261 53.9786 129.207 54.0004 129.174 54.0168C128.924 54.1422 127.725 54.7474 127.491 54.9819C127.251 55.2273 125.033 56.7213 124.777 56.8903C124.761 56.9012 124.744 56.9176 124.723 56.9285L124.02 57.4356C123.78 57.6101 123.567 57.6809 123.464 57.6264L123.083 57.4192C122.957 57.3483 123.017 57.0975 123.246 56.8085L125.464 53.9132C125.725 53.5697 125.78 53.2861 125.578 53.2643L125.567 53.2752V53.2534Z" fill="#CAEAE5" fill-opacity="0.05"/>
<path d="M42.9963 30.358C42.6585 30.6633 42.1844 31.0668 41.8303 31.3667C41.5633 31.5957 41.1274 31.5576 40.8713 31.2904L38.9206 29.2838C38.8008 29.1639 38.7299 29.0003 38.7299 28.8422L38.7081 28.0079C38.7081 27.828 38.779 27.659 38.9206 27.5445L39.8033 26.8084C40.0431 26.6121 40.4081 26.6121 40.6751 26.8084L42.871 28.4496C43.2524 28.7331 43.7973 28.5968 43.9281 28.177C44.0098 27.9152 44.0915 27.6808 44.1515 27.6099C44.2877 27.4245 43.8736 24.2838 43.9281 24.0548C43.9608 23.9076 44.5601 22.9915 44.9797 22.3481C45.1976 22.0155 45.6935 21.9664 46.0149 22.25L47.9111 23.8967C48.0746 24.0384 48.2871 24.1039 48.4941 24.0712L48.6304 24.0493C48.9518 24.0057 49.1861 23.7494 49.1807 23.4386L49.1643 22.0319C49.1643 22.0319 49.0499 19.371 49.088 19.1856C49.1262 19.0111 50.4557 17.3535 50.6736 17.0755C50.6954 17.0482 50.7172 17.0264 50.7445 17.0046C51.0169 16.7592 51.4637 16.7865 51.7362 17.0646L54.2154 19.66C54.4388 19.8945 54.466 20.2271 54.2916 20.4724L53.0275 22.2336C52.9349 22.3645 52.8967 22.5335 52.924 22.6971L53.4416 25.6415C53.4525 25.7178 53.4525 25.7996 53.4416 25.8705L53.1038 27.479C53.0711 27.6208 52.9948 27.7408 52.8804 27.828L52.608 28.0297C52.3519 28.226 51.9705 28.2042 51.7144 27.9807L49.3332 25.9032C49.2733 25.8487 49.2025 25.8051 49.1316 25.7778L48.8755 25.6688C48.5214 25.5215 48.1182 25.6688 47.9874 26.0014L47.8839 26.2576C47.8839 26.2576 47.8621 26.3122 47.8566 26.3394C47.8021 26.5793 47.546 27.7353 47.6877 27.937C47.8348 28.1497 47.9602 30.2708 47.9711 30.5161C47.9711 30.5325 47.9711 30.5488 47.9711 30.5652L48.0691 31.2413C48.1073 31.4758 48.0037 31.6939 47.8021 31.8248L47.072 32.2882C46.8214 32.4463 46.4835 32.4191 46.2438 32.2282L43.8954 30.3362C43.6229 30.1126 43.2252 30.1126 42.98 30.3362V30.3471L42.9963 30.358Z" fill="#CAEAE5" fill-opacity="0.05"/>
<path d="M57.8334 103.401C57.8334 103.401 55.4359 99.5025 55.1199 99.2953C54.8039 99.0881 55.5395 98.6355 55.5395 98.6355C55.5395 98.6355 57.9751 102.463 58.6671 102.256C59.359 102.049 57.8334 103.407 57.8334 103.407V103.401Z" fill="#CAEAE5" fill-opacity="0.05"/>
<path d="M60.9664 99.5406C60.9664 99.5406 59.2991 96.1982 58.46 95.7129C57.6209 95.2276 59.1901 94.8787 59.1901 94.8787C59.1901 94.8787 61.0318 98.2211 61.8328 98.3956C62.6338 98.5701 60.961 99.5461 60.961 99.5461L60.9664 99.5406Z" fill="#CAEAE5" fill-opacity="0.05"/>
<path d="M74.0435 86.5907C74.0435 86.5907 71.6787 82.9374 71.2973 82.8338C70.9159 82.7302 71.9566 82.2395 71.9566 82.2395C71.9566 82.2395 73.8364 85.1621 74.3922 85.7891C74.948 86.4162 74.0435 86.5907 74.0435 86.5907Z" fill="#CAEAE5" fill-opacity="0.05"/>
<path d="M129.654 62.9263C129.654 62.9263 131.741 65.0856 131.534 66.0561C131.326 67.0267 132.858 65.3582 132.858 65.3582C132.858 65.3582 130.978 63.9678 130.493 62.6428C130.008 61.3178 129.659 62.9209 129.659 62.9209L129.654 62.9263Z" fill="#CAEAE5" fill-opacity="0.05"/>
<path d="M56.5148 97.5886L59.6424 101.28L60.0619 100.86L56.7218 97.2451L56.5148 97.5886Z" fill="#CAEAE5" fill-opacity="0.05"/>
<path d="M58.1494 21.7865C58.1494 21.7865 61.2116 18.8148 61.0264 18.2587C60.8411 17.7025 61.5821 19.2783 61.5821 19.2783C61.5821 19.2783 59.8222 21.8792 58.9831 22.25C58.144 22.6207 58.1494 21.7865 58.1494 21.7865Z" fill="#CAEAE5" fill-opacity="0.05"/>
<path d="M59.261 23.8313C59.261 23.8313 61.8601 21.3231 62.1379 20.6742C62.4158 20.0254 62.5085 21.3231 62.5085 21.3231L59.3536 24.5728L59.261 23.8313Z" fill="#CAEAE5" fill-opacity="0.05"/>
<path d="M48.7829 12.6915C48.7829 12.6915 50.4503 10.3687 50.4503 9.62718C50.4503 8.88563 51.006 9.53449 51.006 9.53449C51.006 9.53449 49.8945 12.7842 49.1535 13.0623C48.4124 13.3404 48.7829 12.6915 48.7829 12.6915Z" fill="#CAEAE5" fill-opacity="0.05"/>
<path d="M27.451 132.605C27.451 132.605 27.6363 134.737 27.451 135.67C27.2658 136.602 28.192 135.206 28.192 135.206L28.0068 131.864L27.451 132.605Z" fill="#CAEAE5" fill-opacity="0.05"/>
<path d="M132.345 61.5088C132.345 61.5088 134.291 64.2024 134.291 64.6658C134.291 65.1293 135.032 64.295 135.032 64.295C135.032 64.295 132.803 61.5088 132.803 60.9526C132.803 60.3964 132.34 61.5088 132.34 61.5088H132.345Z" fill="#CAEAE5" fill-opacity="0.05"/>
</g>
<defs>
<clipPath id="clip0_354_759">
<rect width="146" height="153" fill="white" transform="translate(0 -11)"/>
</clipPath>
</defs>
</svg>
