<svg width="17" height="17" viewBox="0 0 17 17" fill="none" xmlns="http://www.w3.org/2000/svg">
<circle cx="8.11249" cy="8.88641" r="8.11249" fill="#F5FEFD"/>
<g clip-path="url(#clip0_693_535)">
<path d="M10.2209 12.3519L10.2206 12.3517C10.0121 12.1686 9.83783 11.9325 9.67213 11.6733C9.59337 11.5501 9.51724 11.423 9.44034 11.2945L9.42863 11.2748C9.34802 11.1401 9.26637 11.0042 9.18107 10.8727C8.84097 10.3483 8.43019 9.87407 7.73553 9.78615C7.29856 9.73117 6.95709 9.83576 6.67618 10.0251C6.39851 10.2122 6.18305 10.48 5.99199 10.7448C5.94238 10.8135 5.89477 10.8815 5.84813 10.9481C5.71143 11.1432 5.58355 11.3258 5.44333 11.4739C5.25813 11.6696 5.06521 11.7896 4.82516 11.7896C4.24246 11.7896 3.88473 11.3696 3.66914 10.7999C3.45403 10.2316 3.39319 9.54224 3.39319 9.07131C3.39319 8.59038 3.46106 8.02932 3.65811 7.59187C3.85379 7.15751 4.16901 6.85773 4.66689 6.85773C5.21403 6.85773 5.51878 7.23613 5.87052 7.67282C5.89402 7.70211 5.91779 7.7316 5.94183 7.76122C6.31769 8.22479 6.75617 8.70606 7.59346 8.65266H7.59394C8.42853 8.59534 8.84966 8.03841 9.18458 7.42003C9.26106 7.27878 9.33375 7.13292 9.40596 6.98823L9.42677 6.94647C9.50601 6.78759 9.58517 6.63056 9.66951 6.47981C9.83852 6.17795 10.0256 5.90724 10.2688 5.70632C10.6753 5.37477 11.3827 5.37567 12.0018 5.87789C12.618 6.37769 13.1427 7.37669 13.1427 9.02087C13.1427 10.6451 12.6457 11.7008 12.0361 12.2354C11.428 12.7687 10.711 12.7862 10.2209 12.3519Z" fill="url(#paint0_linear_693_535)" stroke="black" stroke-width="0.257404"/>
<path d="M4.09968 6.97461C4.26043 7.04351 4.7129 7.13997 5.23654 6.97461M3.65182 7.45692C4.09968 7.62917 4.82314 7.76697 5.7533 7.45692M3.47957 8.21483C3.93893 8.36413 5.0574 8.57311 5.85665 8.21483C6.0103 8.14592 6.45382 8.29523 6.51121 8.31818M3.37622 9.28279C3.96188 9.45504 5.06429 9.66174 5.85665 9.28279C6.96031 8.75501 8.54454 9.318 8.92274 9.69619C9.2328 10.0062 11.0587 10.6608 13.1257 9.93735" stroke="black" stroke-width="0.257404"/>
<path d="M6.30444 8.21491C6.36184 8.63982 6.44225 9.65493 6.30444 10.3164M7.47576 8.66276V9.76518M8.37147 8.42161C8.29106 8.75461 8.17855 9.53091 8.37147 9.97188M9.40498 7.04359C9.20979 7.81301 8.93646 9.72383 9.40498 11.2121M10.9897 5.52777C10.737 6.13637 10.0251 6.69909 10.0251 8.80056C10.0251 11.3843 10.3696 12.659 10.9897 12.659M11.0242 5.52777C11.1964 6.19384 11.162 7.79461 11.162 8.86946C11.162 10.213 11.162 12.4179 11.0242 12.6935" stroke="black" stroke-width="0.257404"/>
<path d="M10.9896 5.52777C11.2652 5.52777 12.3676 7.11249 12.3676 8.76611C12.3676 10.592 12.1609 12.659 11.1274 12.659" stroke="black" stroke-width="0.257404"/>
<path d="M10.3351 5.66559C10.5533 5.79188 11.1344 5.96875 11.7131 5.66559M9.9906 5.97564C10.3236 6.12495 11.217 6.33393 12.1265 5.97564M9.57719 6.6302C10.0135 6.85985 11.2308 7.18141 12.6088 6.6302M9.30159 7.52591C9.66904 7.81302 10.9139 8.21492 12.9533 7.52591M8.47478 8.31827C8.49772 8.61682 11.6442 9.17953 13.1256 8.55943M9.26714 10.7298C9.95615 11.0169 11.6511 11.4188 12.9189 10.7298M9.57719 11.5222C10.025 11.7748 11.2584 12.1285 12.6088 11.5222M3.51392 10.3164C3.90438 10.5346 5.04352 10.7987 6.47665 10.1097" stroke="black" stroke-width="0.257404"/>
<path d="M4.65057 6.83716C4.46681 7.23906 4.09937 8.2703 4.09937 9.17979C4.09937 10.3167 4.09937 11.798 4.68502 11.798" stroke="black" stroke-width="0.257404"/>
<path d="M4.65076 6.87122C4.86897 7.21572 5.30532 8.15277 5.30532 9.14494C5.30532 10.3852 5.27086 11.7976 4.71966 11.7976" stroke="black" stroke-width="0.257404"/>
</g>
<defs>
<linearGradient id="paint0_linear_693_535" x1="7.61337" y1="12.7623" x2="7.71672" y2="5.38986" gradientUnits="userSpaceOnUse">
<stop stop-color="#97FCCB"/>
<stop offset="1" stop-color="#97FBFC"/>
</linearGradient>
<clipPath id="clip0_693_535">
<rect width="9.92173" height="9.92173" fill="white" transform="translate(3.30725 4.08099)"/>
</clipPath>
</defs>
</svg>
