<svg width="22" height="23" viewBox="0 0 22 23" fill="none" xmlns="http://www.w3.org/2000/svg">
<path d="M16.0812 8.1162C17.3266 8.1162 18.3362 7.1066 18.3362 5.8612C18.3362 4.6158 17.3266 3.6062 16.0812 3.6062C14.8358 3.6062 13.8262 4.6158 13.8262 5.8612C13.8262 7.1066 14.8358 8.1162 16.0812 8.1162Z" stroke="#CAEAE5" stroke-width="1.5" stroke-miterlimit="10" stroke-linecap="round" stroke-linejoin="round"/>
<path d="M5.92542 8.1162C7.17082 8.1162 8.18041 7.1066 8.18041 5.8612C8.18041 4.6158 7.17082 3.6062 5.92542 3.6062C4.68001 3.6062 3.67041 4.6158 3.67041 5.8612C3.67041 7.1066 4.68001 8.1162 5.92542 8.1162Z" stroke="#CAEAE5" stroke-width="1.5" stroke-miterlimit="10" stroke-linecap="round" stroke-linejoin="round"/>
<path d="M16.0812 19.3928C17.3266 19.3928 18.3362 18.3832 18.3362 17.1378C18.3362 15.8924 17.3266 14.8828 16.0812 14.8828C14.8358 14.8828 13.8262 15.8924 13.8262 17.1378C13.8262 18.3832 14.8358 19.3928 16.0812 19.3928Z" stroke="#CAEAE5" stroke-width="1.5" stroke-miterlimit="10" stroke-linecap="round" stroke-linejoin="round"/>
<path d="M5.92542 19.3928C7.17082 19.3928 8.18041 18.3832 8.18041 17.1378C8.18041 15.8924 7.17082 14.8828 5.92542 14.8828C4.68001 14.8828 3.67041 15.8924 3.67041 17.1378C3.67041 18.3832 4.68001 19.3928 5.92542 19.3928Z" stroke="#CAEAE5" stroke-width="1.5" stroke-miterlimit="10" stroke-linecap="round" stroke-linejoin="round"/>
</svg>
