<svg width="20" height="20" viewBox="0 0 20 20" fill="none" xmlns="http://www.w3.org/2000/svg">
<path d="M9.11583 5.4675L6.96833 3.32L7.5575 2.73083L9.58333 4.75583V0H10.4167V4.75583L12.4583 2.71417L13.0475 3.30333L10.8833 5.46667C10.64 5.71 10.32 5.83167 9.99917 5.83167C9.67833 5.83167 9.35917 5.71 9.115 5.46667L9.11583 5.4675ZM18.3333 8.33333V16.6667H20V20H11.2542C12.1375 20 12.9392 19.68 13.5808 19.1667H19.1675V17.5H14.7783C14.8733 17.2342 14.9375 16.9558 14.9692 16.6667H15V8.33333H10.4167V10H11.2542C12.4008 10 13.3333 10.9325 13.3333 12.0792V12.5H12.5V12.0792C12.5 11.3925 11.9408 10.8333 11.2542 10.8333H8.74583C8.05917 10.8333 7.5 11.3925 7.5 12.0792C7.5 12.6325 7.87167 13.125 8.40333 13.2775L11.825 14.255C12.7125 14.5092 13.3333 15.3308 13.3333 16.2542C13.3333 17.4008 12.4008 18.3333 11.2542 18.3333H10.4167V20H9.58333V18.3333H8.74583C7.59917 18.3333 6.66667 17.4008 6.66667 16.2542V15.8333H7.5V16.2542C7.5 16.9408 8.05917 17.5 8.74583 17.5H11.2542C11.9408 17.5 12.5 16.9408 12.5 16.2542C12.5 15.7008 12.1283 15.2083 11.5958 15.0558L8.175 14.0783C7.2875 13.8242 6.66667 13.0025 6.66667 12.0792C6.66667 10.9325 7.59917 10 8.74583 10H9.58333V8.33333H5V16.6667H5.03083C5.06333 16.9558 5.1275 17.2342 5.22167 17.5H0.833333V19.1667H6.42C7.06083 19.68 7.86333 20 8.74667 20H0V16.6667H1.66667V8.33333H0V6.59083C0 5.67583 0.499167 4.835 1.3025 4.39583L4.68417 2.55917L5.30833 3.18333L1.70167 5.1275C1.16583 5.42 0.833333 5.98083 0.833333 6.59083V7.5H19.1667V6.59083C19.1667 5.98 18.8342 5.41917 18.2983 5.1275L14.6925 3.1825L15.3167 2.55833L18.6975 4.39583C19.5017 4.83333 20 5.675 20 6.59083V8.33333H18.3333ZM4.16667 8.33333H2.5V16.6667H4.16667V8.33333ZM17.5 8.33333H15.8333V16.6667H17.5V8.33333Z" fill="#425451"/>
</svg>
