<svg width="198" height="508" viewBox="0 0 198 508" fill="none" xmlns="http://www.w3.org/2000/svg">
<path d="M200.502 -235.749C207.25 -175.46 97.05 -122.452 107.97 -24.8928C118.89 72.6663 324.271 91.8482 335.774 194.614C342.522 254.903 232.321 307.912 243.241 405.471C254.161 503.03 459.542 522.212 471.045 624.978" stroke="url(#paint0_linear_354_2219)" stroke-opacity="0.5" stroke-width="0.887291" stroke-linecap="round" stroke-linejoin="round"/>
<path d="M295.288 -259.484C302.036 -199.195 191.836 -146.187 202.755 -48.6276C213.675 48.9315 419.057 68.1133 430.559 170.879C437.307 231.169 327.107 284.177 338.027 381.736C348.947 479.295 554.328 498.477 565.831 601.243" stroke="url(#paint1_linear_354_2219)" stroke-opacity="0.5" stroke-width="0.887291" stroke-linecap="round" stroke-linejoin="round"/>
<path d="M192.799 -231.837C199.547 -171.548 89.3464 -118.54 100.266 -20.9807C111.186 76.5784 316.567 95.7603 328.07 198.526C334.818 258.815 224.618 311.824 235.538 409.383C246.457 506.942 451.839 526.124 463.341 628.89" stroke="url(#paint2_linear_354_2219)" stroke-opacity="0.5" stroke-width="0.887291" stroke-linecap="round" stroke-linejoin="round"/>
<path d="M287.584 -255.572C294.333 -195.283 184.132 -142.275 195.052 -44.7155C205.972 52.8436 411.353 72.0254 422.856 174.791C429.604 235.081 319.403 288.089 330.323 385.648C341.243 483.207 546.624 502.389 558.127 605.155" stroke="url(#paint3_linear_354_2219)" stroke-opacity="0.5" stroke-width="0.887291" stroke-linecap="round" stroke-linejoin="round"/>
<path d="M185.099 -227.925C191.847 -167.635 81.6466 -114.627 92.5665 -17.0681C103.486 80.491 308.868 99.6729 320.37 202.439C327.118 262.728 216.918 315.736 227.838 413.295C238.758 510.855 444.139 530.036 455.642 632.802" stroke="url(#paint4_linear_354_2219)" stroke-opacity="0.5" stroke-width="0.887291" stroke-linecap="round" stroke-linejoin="round"/>
<path d="M279.885 -251.66C286.633 -191.371 176.432 -138.362 187.352 -40.8034C198.272 56.7557 403.653 75.9375 415.156 178.703C421.904 238.993 311.704 292.001 322.624 389.56C333.543 487.119 538.925 506.301 550.427 609.067" stroke="url(#paint5_linear_354_2219)" stroke-opacity="0.5" stroke-width="0.887291" stroke-linecap="round" stroke-linejoin="round"/>
<path d="M177.278 -224.852C184.026 -164.563 73.8254 -111.555 84.7452 -13.9958C95.6651 83.5633 301.046 102.745 312.549 205.511C319.297 265.8 209.097 318.809 220.017 416.368C230.936 513.927 436.318 533.109 447.82 635.875" stroke="url(#paint6_linear_354_2219)" stroke-opacity="0.5" stroke-width="0.887291" stroke-linecap="round" stroke-linejoin="round"/>
<path d="M264.115 -260.284C270.863 -199.994 160.662 -146.986 171.582 -49.4269C182.502 48.1321 387.883 67.314 399.386 170.08C406.134 230.369 295.934 283.377 306.854 380.937C317.773 478.496 523.155 497.677 534.657 600.443" stroke="url(#paint7_linear_354_2219)" stroke-opacity="0.5" stroke-width="0.887291" stroke-linecap="round" stroke-linejoin="round"/>
<path d="M169.457 -221.783C176.205 -161.494 66.0046 -108.486 76.9244 -10.9265C87.8443 86.6326 293.225 105.814 304.728 208.58C311.476 268.87 201.276 321.878 212.196 419.437C223.116 516.996 428.497 536.178 440 638.944" stroke="url(#paint8_linear_354_2219)" stroke-opacity="0.5" stroke-width="0.887291" stroke-linecap="round" stroke-linejoin="round"/>
<path d="M256.294 -257.214C263.042 -196.925 152.842 -143.917 163.761 -46.3576C174.681 51.2015 380.062 70.3833 391.565 173.149C398.313 233.439 288.113 286.447 299.033 384.006C309.953 481.565 515.334 500.747 526.836 603.513" stroke="url(#paint9_linear_354_2219)" stroke-opacity="0.5" stroke-width="0.887291" stroke-linecap="round" stroke-linejoin="round"/>
<path d="M161.871 -217.028C168.619 -156.738 58.4186 -103.73 69.3385 -6.17108C80.2584 91.388 285.64 110.57 297.142 213.336C303.89 273.625 193.69 326.633 204.61 424.192C215.53 521.751 420.911 540.933 432.414 643.699" stroke="url(#paint10_linear_354_2219)" stroke-opacity="0.5" stroke-width="0.887291" stroke-linecap="round" stroke-linejoin="round"/>
<path d="M248.708 -252.459C255.456 -192.17 145.256 -139.162 156.175 -41.6027C167.095 55.9564 372.476 75.1382 383.979 177.904C390.727 238.193 280.527 291.202 291.447 388.761C302.367 486.32 507.748 505.502 519.25 608.268" stroke="url(#paint11_linear_354_2219)" stroke-opacity="0.5" stroke-width="0.887291" stroke-linecap="round" stroke-linejoin="round"/>
<path d="M154.05 -213.958C160.798 -153.669 50.5974 -100.661 61.5173 -3.10175C72.4372 94.4573 277.818 113.639 289.321 216.405C296.069 276.694 185.869 329.703 196.789 427.262C207.708 524.821 413.09 544.003 424.592 646.769" stroke="url(#paint12_linear_354_2219)" stroke-opacity="0.5" stroke-width="0.887291" stroke-linecap="round" stroke-linejoin="round"/>
<path d="M240.89 -249.387C247.638 -189.097 137.438 -136.089 148.358 -38.53C159.277 59.0291 364.659 78.211 376.161 180.977C382.91 241.266 272.709 294.274 283.629 391.834C294.549 489.393 499.93 508.574 511.433 611.34" stroke="url(#paint13_linear_354_2219)" stroke-opacity="0.5" stroke-width="0.887291" stroke-linecap="round" stroke-linejoin="round"/>
<path d="M146.232 -210.89C152.981 -150.6 42.7801 -97.592 53.7 -0.0329089C64.6198 97.5262 270.001 116.708 281.504 219.474C288.252 279.763 178.051 332.771 188.971 430.331C199.891 527.89 405.272 547.072 416.775 649.837" stroke="url(#paint14_linear_354_2219)" stroke-opacity="0.5" stroke-width="0.887291" stroke-linecap="round" stroke-linejoin="round"/>
<path d="M233.069 -246.317C239.817 -186.028 129.617 -133.02 140.537 -35.4606C151.457 62.0984 356.838 81.2803 368.34 184.046C375.089 244.336 264.888 297.344 275.808 394.903C286.728 492.462 492.109 511.644 503.612 614.41" stroke="url(#paint15_linear_354_2219)" stroke-opacity="0.5" stroke-width="0.887291" stroke-linecap="round" stroke-linejoin="round"/>
<path d="M138.411 -207.817C145.16 -147.527 34.9592 -94.5192 45.8791 3.03985C56.799 100.599 262.18 119.781 273.683 222.547C280.431 282.836 170.231 335.844 181.15 433.403C192.07 530.962 397.451 550.144 408.954 652.91" stroke="url(#paint16_linear_354_2219)" stroke-opacity="0.5" stroke-width="0.887291" stroke-linecap="round" stroke-linejoin="round"/>
<path d="M225.248 -243.248C231.997 -182.959 121.796 -129.95 132.716 -32.3913C143.636 65.1678 349.017 84.3496 360.52 187.116C367.268 247.405 257.067 300.413 267.987 397.972C278.907 495.531 484.288 514.713 495.791 617.479" stroke="url(#paint17_linear_354_2219)" stroke-opacity="0.5" stroke-width="0.887291" stroke-linecap="round" stroke-linejoin="round"/>
<path d="M130.472 -205.59C137.221 -145.301 27.0202 -92.2927 37.9401 5.26642C48.86 102.826 254.241 122.007 265.744 224.773C272.492 285.063 162.292 338.071 173.211 435.63C184.131 533.189 389.512 552.371 401.015 655.137" stroke="url(#paint18_linear_354_2219)" stroke-opacity="0.5" stroke-width="0.887291" stroke-linecap="round" stroke-linejoin="round"/>
<path d="M217.309 -241.021C224.058 -180.732 113.857 -127.724 124.777 -30.1647C135.697 67.3943 341.078 86.5762 352.581 189.342C359.329 249.631 249.128 302.64 260.048 400.199C270.968 497.758 476.349 516.94 487.852 619.706" stroke="url(#paint19_linear_354_2219)" stroke-opacity="0.5" stroke-width="0.887291" stroke-linecap="round" stroke-linejoin="round"/>
<path d="M312.095 -264.757C318.843 -204.467 208.643 -151.459 219.563 -53.9001C230.483 43.659 435.864 62.8408 447.366 165.607C454.115 225.896 343.914 278.904 354.834 376.463C365.754 474.022 571.135 493.204 582.638 595.97" stroke="url(#paint20_linear_354_2219)" stroke-opacity="0.5" stroke-width="0.887291" stroke-linecap="round" stroke-linejoin="round"/>
<path d="M122.652 -202.521C129.4 -142.232 19.1994 -89.2233 30.1192 8.33575C41.0391 105.895 246.42 125.077 257.923 227.843C264.671 288.132 154.471 341.14 165.391 438.699C176.31 536.258 381.692 555.44 393.194 658.206" stroke="url(#paint21_linear_354_2219)" stroke-opacity="0.5" stroke-width="0.887291" stroke-linecap="round" stroke-linejoin="round"/>
<path d="M209.489 -237.949C216.237 -177.659 106.036 -124.651 116.956 -27.092C127.876 70.4671 333.257 89.6489 344.76 192.415C351.508 252.704 241.308 305.712 252.228 403.272C263.147 500.831 468.529 520.012 480.031 622.778" stroke="url(#paint22_linear_354_2219)" stroke-opacity="0.5" stroke-width="0.887291" stroke-linecap="round" stroke-linejoin="round"/>
<path d="M304.274 -261.687C311.022 -201.398 200.822 -148.39 211.742 -50.8307C222.662 46.7283 428.043 65.9102 439.546 168.676C446.294 228.965 336.093 281.974 347.013 379.533C357.933 477.092 563.314 496.274 574.817 599.04" stroke="url(#paint23_linear_354_2219)" stroke-opacity="0.5" stroke-width="0.887291" stroke-linecap="round" stroke-linejoin="round"/>
<defs>
<linearGradient id="paint0_linear_354_2219" x1="134.441" y1="211.606" x2="421.183" y2="179.511" gradientUnits="userSpaceOnUse">
<stop stop-color="#3593F1"/>
<stop offset="0.19" stop-color="#3593F1" stop-opacity="0.4"/>
<stop offset="0.295" stop-color="#3593F1"/>
<stop offset="0.395" stop-color="#3593F1" stop-opacity="0.5"/>
<stop offset="0.59" stop-color="#1B1E1E"/>
<stop offset="1" stop-color="#3593F1"/>
</linearGradient>
<linearGradient id="paint1_linear_354_2219" x1="229.227" y1="187.871" x2="515.969" y2="155.776" gradientUnits="userSpaceOnUse">
<stop stop-color="#3593F1"/>
<stop offset="0.19" stop-color="#3593F1" stop-opacity="0.4"/>
<stop offset="0.295" stop-color="#3593F1"/>
<stop offset="0.395" stop-color="#3593F1" stop-opacity="0.5"/>
<stop offset="0.59" stop-color="#1B1E1E"/>
<stop offset="1" stop-color="#3593F1"/>
</linearGradient>
<linearGradient id="paint2_linear_354_2219" x1="126.738" y1="215.518" x2="413.48" y2="183.423" gradientUnits="userSpaceOnUse">
<stop stop-color="#3593F1"/>
<stop offset="0.19" stop-color="#3593F1" stop-opacity="0.4"/>
<stop offset="0.295" stop-color="#3593F1"/>
<stop offset="0.395" stop-color="#3593F1" stop-opacity="0.5"/>
<stop offset="0.59" stop-color="#1B1E1E"/>
<stop offset="1" stop-color="#3593F1"/>
</linearGradient>
<linearGradient id="paint3_linear_354_2219" x1="221.523" y1="191.783" x2="508.265" y2="159.688" gradientUnits="userSpaceOnUse">
<stop stop-color="#3593F1"/>
<stop offset="0.19" stop-color="#3593F1" stop-opacity="0.4"/>
<stop offset="0.295" stop-color="#3593F1"/>
<stop offset="0.395" stop-color="#3593F1" stop-opacity="0.5"/>
<stop offset="0.59" stop-color="#1B1E1E"/>
<stop offset="1" stop-color="#3593F1"/>
</linearGradient>
<linearGradient id="paint4_linear_354_2219" x1="119.038" y1="219.431" x2="405.78" y2="187.335" gradientUnits="userSpaceOnUse">
<stop stop-color="#3593F1"/>
<stop offset="0.19" stop-color="#3593F1" stop-opacity="0.4"/>
<stop offset="0.295" stop-color="#3593F1"/>
<stop offset="0.395" stop-color="#3593F1" stop-opacity="0.5"/>
<stop offset="0.59" stop-color="#1B1E1E"/>
<stop offset="1" stop-color="#3593F1"/>
</linearGradient>
<linearGradient id="paint5_linear_354_2219" x1="213.824" y1="195.695" x2="500.566" y2="163.6" gradientUnits="userSpaceOnUse">
<stop stop-color="#3593F1"/>
<stop offset="0.19" stop-color="#3593F1" stop-opacity="0.4"/>
<stop offset="0.295" stop-color="#3593F1"/>
<stop offset="0.395" stop-color="#3593F1" stop-opacity="0.5"/>
<stop offset="0.59" stop-color="#1B1E1E"/>
<stop offset="1" stop-color="#3593F1"/>
</linearGradient>
<linearGradient id="paint6_linear_354_2219" x1="111.217" y1="222.503" x2="397.959" y2="190.407" gradientUnits="userSpaceOnUse">
<stop stop-color="#3593F1"/>
<stop offset="0.19" stop-color="#3593F1" stop-opacity="0.4"/>
<stop offset="0.295" stop-color="#3593F1"/>
<stop offset="0.395" stop-color="#3593F1" stop-opacity="0.5"/>
<stop offset="0.59" stop-color="#1B1E1E"/>
<stop offset="1" stop-color="#3593F1"/>
</linearGradient>
<linearGradient id="paint7_linear_354_2219" x1="198.054" y1="187.072" x2="484.796" y2="154.976" gradientUnits="userSpaceOnUse">
<stop stop-color="#3593F1"/>
<stop offset="0.19" stop-color="#3593F1" stop-opacity="0.4"/>
<stop offset="0.295" stop-color="#3593F1"/>
<stop offset="0.395" stop-color="#3593F1" stop-opacity="0.5"/>
<stop offset="0.59" stop-color="#1B1E1E"/>
<stop offset="1" stop-color="#3593F1"/>
</linearGradient>
<linearGradient id="paint8_linear_354_2219" x1="103.396" y1="225.572" x2="390.138" y2="193.477" gradientUnits="userSpaceOnUse">
<stop stop-color="#3593F1"/>
<stop offset="0.19" stop-color="#3593F1" stop-opacity="0.4"/>
<stop offset="0.295" stop-color="#3593F1"/>
<stop offset="0.395" stop-color="#3593F1" stop-opacity="0.5"/>
<stop offset="0.59" stop-color="#1B1E1E"/>
<stop offset="1" stop-color="#3593F1"/>
</linearGradient>
<linearGradient id="paint9_linear_354_2219" x1="190.233" y1="190.141" x2="476.975" y2="158.046" gradientUnits="userSpaceOnUse">
<stop stop-color="#3593F1"/>
<stop offset="0.19" stop-color="#3593F1" stop-opacity="0.4"/>
<stop offset="0.295" stop-color="#3593F1"/>
<stop offset="0.395" stop-color="#3593F1" stop-opacity="0.5"/>
<stop offset="0.59" stop-color="#1B1E1E"/>
<stop offset="1" stop-color="#3593F1"/>
</linearGradient>
<linearGradient id="paint10_linear_354_2219" x1="95.81" y1="230.328" x2="382.552" y2="198.232" gradientUnits="userSpaceOnUse">
<stop stop-color="#3593F1"/>
<stop offset="0.19" stop-color="#3593F1" stop-opacity="0.4"/>
<stop offset="0.295" stop-color="#3593F1"/>
<stop offset="0.395" stop-color="#3593F1" stop-opacity="0.5"/>
<stop offset="0.59" stop-color="#1B1E1E"/>
<stop offset="1" stop-color="#3593F1"/>
</linearGradient>
<linearGradient id="paint11_linear_354_2219" x1="182.647" y1="194.896" x2="469.389" y2="162.801" gradientUnits="userSpaceOnUse">
<stop stop-color="#3593F1"/>
<stop offset="0.19" stop-color="#3593F1" stop-opacity="0.4"/>
<stop offset="0.295" stop-color="#3593F1"/>
<stop offset="0.395" stop-color="#3593F1" stop-opacity="0.5"/>
<stop offset="0.59" stop-color="#1B1E1E"/>
<stop offset="1" stop-color="#3593F1"/>
</linearGradient>
<linearGradient id="paint12_linear_354_2219" x1="87.9888" y1="233.397" x2="374.731" y2="201.302" gradientUnits="userSpaceOnUse">
<stop stop-color="#3593F1"/>
<stop offset="0.19" stop-color="#3593F1" stop-opacity="0.4"/>
<stop offset="0.295" stop-color="#3593F1"/>
<stop offset="0.395" stop-color="#3593F1" stop-opacity="0.5"/>
<stop offset="0.59" stop-color="#1B1E1E"/>
<stop offset="1" stop-color="#3593F1"/>
</linearGradient>
<linearGradient id="paint13_linear_354_2219" x1="174.829" y1="197.969" x2="461.571" y2="165.873" gradientUnits="userSpaceOnUse">
<stop stop-color="#3593F1"/>
<stop offset="0.19" stop-color="#3593F1" stop-opacity="0.4"/>
<stop offset="0.295" stop-color="#3593F1"/>
<stop offset="0.395" stop-color="#3593F1" stop-opacity="0.5"/>
<stop offset="0.59" stop-color="#1B1E1E"/>
<stop offset="1" stop-color="#3593F1"/>
</linearGradient>
<linearGradient id="paint14_linear_354_2219" x1="80.1715" y1="236.466" x2="366.913" y2="204.37" gradientUnits="userSpaceOnUse">
<stop stop-color="#3593F1"/>
<stop offset="0.19" stop-color="#3593F1" stop-opacity="0.4"/>
<stop offset="0.295" stop-color="#3593F1"/>
<stop offset="0.395" stop-color="#3593F1" stop-opacity="0.5"/>
<stop offset="0.59" stop-color="#1B1E1E"/>
<stop offset="1" stop-color="#3593F1"/>
</linearGradient>
<linearGradient id="paint15_linear_354_2219" x1="167.008" y1="201.038" x2="453.75" y2="168.943" gradientUnits="userSpaceOnUse">
<stop stop-color="#3593F1"/>
<stop offset="0.19" stop-color="#3593F1" stop-opacity="0.4"/>
<stop offset="0.295" stop-color="#3593F1"/>
<stop offset="0.395" stop-color="#3593F1" stop-opacity="0.5"/>
<stop offset="0.59" stop-color="#1B1E1E"/>
<stop offset="1" stop-color="#3593F1"/>
</linearGradient>
<linearGradient id="paint16_linear_354_2219" x1="72.3506" y1="239.538" x2="359.093" y2="207.443" gradientUnits="userSpaceOnUse">
<stop stop-color="#3593F1"/>
<stop offset="0.19" stop-color="#3593F1" stop-opacity="0.4"/>
<stop offset="0.295" stop-color="#3593F1"/>
<stop offset="0.395" stop-color="#3593F1" stop-opacity="0.5"/>
<stop offset="0.59" stop-color="#1B1E1E"/>
<stop offset="1" stop-color="#3593F1"/>
</linearGradient>
<linearGradient id="paint17_linear_354_2219" x1="159.188" y1="204.107" x2="445.929" y2="172.012" gradientUnits="userSpaceOnUse">
<stop stop-color="#3593F1"/>
<stop offset="0.19" stop-color="#3593F1" stop-opacity="0.4"/>
<stop offset="0.295" stop-color="#3593F1"/>
<stop offset="0.395" stop-color="#3593F1" stop-opacity="0.5"/>
<stop offset="0.59" stop-color="#1B1E1E"/>
<stop offset="1" stop-color="#3593F1"/>
</linearGradient>
<linearGradient id="paint18_linear_354_2219" x1="64.4116" y1="241.765" x2="351.154" y2="209.67" gradientUnits="userSpaceOnUse">
<stop stop-color="#3593F1"/>
<stop offset="0.19" stop-color="#3593F1" stop-opacity="0.4"/>
<stop offset="0.295" stop-color="#3593F1"/>
<stop offset="0.395" stop-color="#3593F1" stop-opacity="0.5"/>
<stop offset="0.59" stop-color="#1B1E1E"/>
<stop offset="1" stop-color="#3593F1"/>
</linearGradient>
<linearGradient id="paint19_linear_354_2219" x1="151.248" y1="206.334" x2="437.99" y2="174.239" gradientUnits="userSpaceOnUse">
<stop stop-color="#3593F1"/>
<stop offset="0.19" stop-color="#3593F1" stop-opacity="0.4"/>
<stop offset="0.295" stop-color="#3593F1"/>
<stop offset="0.395" stop-color="#3593F1" stop-opacity="0.5"/>
<stop offset="0.59" stop-color="#1B1E1E"/>
<stop offset="1" stop-color="#3593F1"/>
</linearGradient>
<linearGradient id="paint20_linear_354_2219" x1="246.034" y1="182.598" x2="532.776" y2="150.503" gradientUnits="userSpaceOnUse">
<stop stop-color="#3593F1"/>
<stop offset="0.19" stop-color="#3593F1" stop-opacity="0.4"/>
<stop offset="0.295" stop-color="#3593F1"/>
<stop offset="0.395" stop-color="#3593F1" stop-opacity="0.5"/>
<stop offset="0.59" stop-color="#1B1E1E"/>
<stop offset="1" stop-color="#3593F1"/>
</linearGradient>
<linearGradient id="paint21_linear_354_2219" x1="56.5908" y1="244.834" x2="343.333" y2="212.739" gradientUnits="userSpaceOnUse">
<stop stop-color="#3593F1"/>
<stop offset="0.19" stop-color="#3593F1" stop-opacity="0.4"/>
<stop offset="0.295" stop-color="#3593F1"/>
<stop offset="0.395" stop-color="#3593F1" stop-opacity="0.5"/>
<stop offset="0.59" stop-color="#1B1E1E"/>
<stop offset="1" stop-color="#3593F1"/>
</linearGradient>
<linearGradient id="paint22_linear_354_2219" x1="143.428" y1="209.407" x2="430.17" y2="177.311" gradientUnits="userSpaceOnUse">
<stop stop-color="#3593F1"/>
<stop offset="0.19" stop-color="#3593F1" stop-opacity="0.4"/>
<stop offset="0.295" stop-color="#3593F1"/>
<stop offset="0.395" stop-color="#3593F1" stop-opacity="0.5"/>
<stop offset="0.59" stop-color="#1B1E1E"/>
<stop offset="1" stop-color="#3593F1"/>
</linearGradient>
<linearGradient id="paint23_linear_354_2219" x1="238.213" y1="185.668" x2="524.955" y2="153.572" gradientUnits="userSpaceOnUse">
<stop stop-color="#3593F1"/>
<stop offset="0.19" stop-color="#3593F1" stop-opacity="0.4"/>
<stop offset="0.295" stop-color="#3593F1"/>
<stop offset="0.395" stop-color="#3593F1" stop-opacity="0.5"/>
<stop offset="0.59" stop-color="#1B1E1E"/>
<stop offset="1" stop-color="#3593F1"/>
</linearGradient>
</defs>
</svg>
