<svg width="134" height="155" viewBox="0 0 134 155" fill="none" xmlns="http://www.w3.org/2000/svg">
<g filter="url(#filter0_d_354_2292)">
<path d="M79.8941 145.384C71.9152 150.057 62.0848 150.057 54.1058 145.384L12.8942 121.243C4.91523 116.57 0 107.932 0 98.5847V50.3042C0 40.9567 4.91522 32.3193 12.8942 27.6455L54.1058 3.50531C62.0848 -1.16844 71.9152 -1.16844 79.8941 3.50531L121.106 27.6455C129.085 32.3193 134 40.9567 134 50.3042V98.5847C134 107.932 129.085 116.57 121.106 121.243L79.8941 145.384Z" fill="url(#paint0_linear_354_2292)"/>
<path d="M76.9998 140.442C70.8084 144.069 63.1916 144.069 57.0002 140.442L15.7885 116.302L12.8942 121.243L15.7885 116.302C9.58728 112.67 5.7265 105.926 5.7265 98.5847V50.3042C5.7265 42.9624 9.58727 36.2192 15.7885 32.5867L57.0002 8.44651C63.1916 4.81983 70.8084 4.81982 76.9998 8.44651L118.211 32.5867C124.413 36.2192 128.273 42.9624 128.273 50.3042V98.5847C128.273 105.926 124.413 112.67 118.211 116.302L76.9998 140.442Z" stroke="white" stroke-opacity="0.4" stroke-width="11.453"/>
</g>
<path d="M64.7513 54.9701C65.6945 53.1402 68.311 53.1402 69.2542 54.9701L75.2466 66.5962C75.4879 67.0645 75.8693 67.4458 76.3376 67.6872L87.9636 73.6796C89.7936 74.6228 89.7936 77.2392 87.9636 78.1824L76.3376 84.1748C75.8693 84.4161 75.4879 84.7975 75.2466 85.2658L69.2542 96.8919C68.311 98.7218 65.6945 98.7218 64.7513 96.8919L58.759 85.2658C58.5176 84.7975 58.1363 84.4161 57.668 84.1748L46.0419 78.1824C44.2119 77.2392 44.2119 74.6228 46.0419 73.6796L57.668 67.6872C58.1363 67.4458 58.5176 67.0645 58.759 66.5962L64.7513 54.9701Z" fill="url(#paint1_angular_354_2292)"/>
<path d="M64.7513 54.9701C65.6945 53.1402 68.311 53.1402 69.2542 54.9701L75.2466 66.5962C75.4879 67.0645 75.8693 67.4458 76.3376 67.6872L87.9636 73.6796C89.7936 74.6228 89.7936 77.2392 87.9636 78.1824L76.3376 84.1748C75.8693 84.4161 75.4879 84.7975 75.2466 85.2658L69.2542 96.8919C68.311 98.7218 65.6945 98.7218 64.7513 96.8919L58.759 85.2658C58.5176 84.7975 58.1363 84.4161 57.668 84.1748L46.0419 78.1824C44.2119 77.2392 44.2119 74.6228 46.0419 73.6796L57.668 67.6872C58.1363 67.4458 58.5176 67.0645 58.759 66.5962L64.7513 54.9701Z" fill="url(#paint2_angular_354_2292)" fill-opacity="0.5"/>
<path d="M71.7993 53.6583C69.7899 49.7598 64.2157 49.7598 62.2063 53.6583L56.2623 65.1905L44.7301 71.1345C40.8316 73.1439 40.8315 78.7181 44.7301 80.7275L56.2623 86.6715L62.2063 98.2037C64.2157 102.102 69.7899 102.102 71.7993 98.2037L77.7432 86.6715L89.2754 80.7275C93.174 78.7181 93.174 73.1439 89.2754 71.1345L77.7432 65.1905L71.7993 53.6583ZM56.3562 65.1421L56.3557 65.1424L56.3562 65.1421ZM77.6493 65.1421C77.6496 65.1422 77.6498 65.1424 77.65 65.1425L77.6493 65.1421Z" stroke="black" stroke-opacity="0.16" stroke-width="5.7265"/>
<path fill-rule="evenodd" clip-rule="evenodd" d="M1.76562 108.091L96.5768 13.2803L121.112 27.6518C126.264 30.6698 130.139 35.3405 132.237 40.7879L37.4154 135.61L12.9 121.25C7.74073 118.228 3.86243 113.548 1.76562 108.091Z" fill="white" fill-opacity="0.32"/>
<defs>
<filter id="filter0_d_354_2292" x="0" y="0" width="134" height="154.615" filterUnits="userSpaceOnUse" color-interpolation-filters="sRGB">
<feFlood flood-opacity="0" result="BackgroundImageFix"/>
<feColorMatrix in="SourceAlpha" type="matrix" values="0 0 0 0 0 0 0 0 0 0 0 0 0 0 0 0 0 0 127 0" result="hardAlpha"/>
<feOffset dy="5.7265"/>
<feComposite in2="hardAlpha" operator="out"/>
<feColorMatrix type="matrix" values="0 0 0 0 0.0201802 0 0 0 0 0.16 0 0 0 0 0.29982 0 0 0 1 0"/>
<feBlend mode="normal" in2="BackgroundImageFix" result="effect1_dropShadow_354_2292"/>
<feBlend mode="normal" in="SourceGraphic" in2="effect1_dropShadow_354_2292" result="shape"/>
</filter>
<linearGradient id="paint0_linear_354_2292" x1="67.0018" y1="152.936" x2="67.0018" y2="-4.04767" gradientUnits="userSpaceOnUse">
<stop stop-color="#0078F0"/>
<stop offset="1" stop-color="#CFE3F7"/>
</linearGradient>
<radialGradient id="paint1_angular_354_2292" cx="0" cy="0" r="1" gradientUnits="userSpaceOnUse" gradientTransform="translate(67.0028 75.931) rotate(90) scale(22.3333 22.3333)">
<stop stop-color="white"/>
<stop offset="1" stop-color="#E0E0E0"/>
</radialGradient>
<radialGradient id="paint2_angular_354_2292" cx="0" cy="0" r="1" gradientUnits="userSpaceOnUse" gradientTransform="translate(67.0028 75.931) rotate(-180) scale(22.3333 22.3333)">
<stop stop-color="white"/>
<stop offset="1" stop-color="#E0E0E0"/>
</radialGradient>
</defs>
</svg>
