<svg width="16" height="16" viewBox="0 0 16 16" fill="none" xmlns="http://www.w3.org/2000/svg">
<path d="M15.3679 1.60727V6.84907H16V1.47643C16 0.953707 15.5746 0.52832 15.0518 0.52832H9.67898V1.1604H14.921L5.97866 10.1017L6.42555 10.5486L15.3679 1.60727ZM7.15057 3.05662C8.32123 3.05662 9.41856 3.37708 10.3598 3.93394L9.89642 4.39662C9.08165 3.94595 8.1455 3.6887 7.15057 3.6887C4.01345 3.6887 1.46166 6.24102 1.46166 9.37738C1.46166 12.5137 4.01345 15.0661 7.15057 15.0661C10.2877 15.0661 12.8395 12.5137 12.8395 9.37738C12.8395 8.38249 12.5822 7.44639 12.1315 6.63164L12.5949 6.16833C13.1517 7.10949 13.4722 8.20677 13.4722 9.37738C13.4722 12.8626 10.6366 15.6981 7.15121 15.6981C3.6658 15.6981 0.830188 12.8626 0.830188 9.37738C0.830188 5.89211 3.66517 3.05662 7.15057 3.05662Z" fill="#CAEAE5"/>
</svg>
