<svg width="134" height="142" viewBox="0 0 134 142" fill="none" xmlns="http://www.w3.org/2000/svg">
<g filter="url(#filter0_d_354_2378)">
<path d="M2.81728 49.5549C0.0149249 28.9038 -1.38626 18.5782 1.92295 11.9845C4.80945 6.23309 9.87738 2.04007 15.8681 0.446798C22.7362 -1.3798 31.9354 2.49395 50.3339 10.2414L54.0334 11.7993C58.8223 13.8159 61.2168 14.8242 63.689 15.2234C65.8812 15.5774 68.1118 15.5774 70.304 15.2234C72.7762 14.8242 75.1707 13.8159 79.9596 11.7993L83.6591 10.2415C102.058 2.49395 111.257 -1.3798 118.125 0.446798C124.116 2.04007 129.184 6.23309 132.07 11.9845C135.379 18.5782 133.978 28.9038 131.176 49.5549L127.215 78.7429C126.46 84.3036 126.083 87.084 125.131 89.6107C124.287 91.851 123.114 93.9374 121.654 95.7935C120.007 97.8869 117.873 99.5721 113.604 102.942L87.9391 123.206C80.429 129.136 76.674 132.101 72.5499 133.244C68.9097 134.252 65.0834 134.252 61.4431 133.244C57.319 132.101 53.564 129.136 46.054 123.206L20.389 102.942C16.1204 99.5721 13.9861 97.8869 12.3392 95.7935C10.8791 93.9374 9.70558 91.851 8.86176 89.6107C7.91 87.084 7.53271 84.3036 6.77811 78.7429L2.81728 49.5549Z" fill="url(#paint0_linear_354_2378)"/>
<path d="M125.767 15.1479L131.438 12.3017L125.767 15.1479C126.587 16.7815 127.141 19.5092 126.87 25.1606C126.602 30.7674 125.606 38.1503 124.187 48.6066L120.226 77.7946C119.428 83.6759 119.136 85.5192 118.531 87.1248C117.938 88.6992 117.119 90.1519 116.111 91.433C115.1 92.7182 113.761 93.8329 109.234 97.4073L83.5688 117.671C79.735 120.698 77.1475 122.736 75.0124 124.186C72.9478 125.588 71.6989 126.161 70.6665 126.447C68.2586 127.114 65.7344 127.114 63.3265 126.447C62.2941 126.161 61.0452 125.588 58.9806 124.186C56.8455 122.736 54.258 120.698 50.4242 117.671L24.7593 97.4073L20.389 102.942L24.7593 97.4073C20.2322 93.8329 18.8931 92.7182 17.8821 91.433L12.4353 95.7179L17.8821 91.433C16.8743 90.1519 16.0546 88.6992 15.4615 87.1248C14.8568 85.5192 14.5646 83.6759 13.7665 77.7946L9.80568 48.6065C8.38676 38.1502 7.39136 30.7674 7.12264 25.1606C6.85179 19.5092 7.4063 16.7815 8.22613 15.1479C10.2466 11.1221 13.7235 8.31478 17.6808 7.26233C19.1392 6.87445 21.5707 6.88791 26.6703 8.48424C31.7307 10.0683 38.2637 12.811 47.5969 16.7411L51.2964 18.299C51.523 18.3944 51.7466 18.4887 51.9673 18.5818C56.1041 20.3262 59.2412 21.649 62.5647 22.1857C65.5016 22.6599 68.4914 22.6599 71.4283 22.1857C74.7518 21.649 77.8889 20.3262 82.0257 18.5817C82.2465 18.4887 82.47 18.3944 82.6966 18.299L86.3961 16.7411C95.7293 12.811 102.262 10.0683 107.323 8.48425C112.422 6.88791 114.854 6.87445 116.312 7.26233C120.269 8.31478 123.746 11.1221 125.767 15.1479Z" stroke="white" stroke-opacity="0.4" stroke-width="14.1049" stroke-linecap="round" stroke-linejoin="round"/>
</g>
<path d="M64.8716 47.1523C65.7651 45.4186 68.2438 45.4186 69.1373 47.1523L74.8139 58.1665C75.0426 58.6101 75.4039 58.9714 75.8475 59.2L86.8611 64.877C88.5946 65.7706 88.5946 68.2493 86.8611 69.1429L75.8475 74.8199C75.4039 75.0485 75.0426 75.4098 74.8139 75.8534L69.1373 86.8676C68.2438 88.6013 65.7651 88.6013 64.8716 86.8676L59.1949 75.8534C58.9663 75.4098 58.605 75.0485 58.1614 74.8199L47.1478 69.1429C45.4143 68.2493 45.4143 65.7706 47.1478 64.877L58.1614 59.2C58.605 58.9714 58.9663 58.6101 59.1949 58.1665L64.8716 47.1523Z" fill="url(#paint1_angular_354_2378)"/>
<path d="M64.8716 47.1523C65.7651 45.4186 68.2438 45.4186 69.1373 47.1523L74.8139 58.1665C75.0426 58.6101 75.4039 58.9714 75.8475 59.2L86.8611 64.877C88.5946 65.7706 88.5946 68.2493 86.8611 69.1429L75.8475 74.8199C75.4039 75.0485 75.0426 75.4098 74.8139 75.8534L69.1373 86.8676C68.2438 88.6013 65.7651 88.6013 64.8716 86.8676L59.1949 75.8534C58.9663 75.4098 58.605 75.0485 58.1614 74.8199L47.1478 69.1429C45.4143 68.2493 45.4143 65.7706 47.1478 64.877L58.1614 59.2C58.605 58.9714 58.9663 58.6101 59.1949 58.1665L64.8716 47.1523Z" fill="url(#paint2_angular_354_2378)" fill-opacity="0.5"/>
<path d="M72.2717 45.5368C70.0651 41.2555 63.9438 41.2555 61.7372 45.5368L56.2256 56.2308L45.5322 61.7427C41.2512 63.9493 41.2512 70.0706 45.5322 72.2772L56.2256 77.7891L61.7372 88.4831C63.9438 92.7644 70.0651 92.7644 72.2717 88.4831L77.7833 77.7891L88.4767 72.2772C92.7577 70.0706 92.7577 63.9493 88.4767 61.7427L77.7833 56.2308L72.2717 45.5368ZM77.4631 77.9542L77.4648 77.9533C77.4642 77.9536 77.4636 77.9539 77.4631 77.9542L76.9468 76.9527L77.4631 77.9542Z" stroke="black" stroke-opacity="0.16" stroke-width="7.05245" stroke-linecap="round"/>
<path fill-rule="evenodd" clip-rule="evenodd" d="M10.6855 93.3792L100.779 3.28044C108.607 0.396408 113.827 -0.698054 118.132 0.446798C124.123 2.04007 129.191 6.23309 132.077 11.9845C134.145 16.1058 134.374 21.685 133.57 30.3322L43.0655 120.841L20.396 102.942L20.396 102.942C16.1274 99.5721 13.9931 97.8869 12.3462 95.7935C11.7427 95.0263 11.1881 94.2197 10.6855 93.3792Z" fill="white" fill-opacity="0.32"/>
<defs>
<filter id="filter0_d_354_2378" x="0" y="0" width="133.993" height="141.052" filterUnits="userSpaceOnUse" color-interpolation-filters="sRGB">
<feFlood flood-opacity="0" result="BackgroundImageFix"/>
<feColorMatrix in="SourceAlpha" type="matrix" values="0 0 0 0 0 0 0 0 0 0 0 0 0 0 0 0 0 0 127 0" result="hardAlpha"/>
<feOffset dy="7.05245"/>
<feComposite in2="hardAlpha" operator="out"/>
<feColorMatrix type="matrix" values="0 0 0 0 0.32 0 0 0 0 0.0326882 0 0 0 0 0 0 0 0 1 0"/>
<feBlend mode="normal" in2="BackgroundImageFix" result="effect1_dropShadow_354_2378"/>
<feBlend mode="normal" in="SourceGraphic" in2="effect1_dropShadow_354_2378" result="shape"/>
</filter>
<linearGradient id="paint0_linear_354_2378" x1="66.9992" y1="-16.5241" x2="66.9992" y2="155.678" gradientUnits="userSpaceOnUse">
<stop stop-color="#FF8D80"/>
<stop offset="1" stop-color="#FF2B14"/>
</linearGradient>
<radialGradient id="paint1_angular_354_2378" cx="0" cy="0" r="1" gradientUnits="userSpaceOnUse" gradientTransform="translate(67.0044 67.01) rotate(90) scale(21.1579 21.1568)">
<stop stop-color="white"/>
<stop offset="1" stop-color="#E0E0E0"/>
</radialGradient>
<radialGradient id="paint2_angular_354_2378" cx="0" cy="0" r="1" gradientUnits="userSpaceOnUse" gradientTransform="translate(67.0044 67.01) rotate(-180) scale(21.1568 21.1579)">
<stop stop-color="white"/>
<stop offset="1" stop-color="#E0E0E0"/>
</radialGradient>
</defs>
</svg>
