<svg fill="#d0ece4" height="800px" width="800px" version="1.1" id="Capa_1" xmlns="http://www.w3.org/2000/svg" xmlns:xlink="http://www.w3.org/1999/xlink" viewBox="0 0 297 297" xml:space="preserve">
<g>
	<path d="M253.02,297c4.473,0,8.443-2.861,9.857-7.103l20.459-61.384c1.056-3.169,0.525-6.65-1.428-9.36   c-1.954-2.709-5.089-4.314-8.43-4.314H218.53V102.7C218.53,46.071,172.459,0,115.829,0C59.201,0,13.13,46.071,13.13,102.7   c0,5.737,4.652,10.39,10.39,10.39h41.959c5.738,0,10.39-4.652,10.39-10.39c0-22.035,17.927-39.962,39.961-39.962   S155.79,80.665,155.79,102.7v112.138H99.285c-3.34,0-6.476,1.605-8.428,4.314c-1.954,2.71-2.484,6.193-1.428,9.36l20.461,61.384   c1.413,4.242,5.384,7.103,9.856,7.103H253.02z M150.277,276.221h-23.041L113.7,235.617h36.577V276.221z M197.75,276.221h-21.18   V102.7c0-33.493-27.248-60.742-60.741-60.742c-29.952,0-54.909,21.79-59.852,50.353H34.565c5.12-40.285,39.611-71.53,81.264-71.53   c45.171,0,81.921,36.749,81.921,81.92V276.221z M245.531,276.221h-23.043v-40.604h36.577L245.531,276.221z" fill="#d0ece4"/>
	<path d="M54.082,139.818c-4.008-3.797-10.286-3.797-14.294,0.002c-6.254,5.926-26.658,26.519-26.658,42.663   c0,18.642,15.165,33.806,33.805,33.806c18.642,0,33.807-15.164,33.807-33.805C80.741,166.339,60.335,145.746,54.082,139.818z    M46.935,195.51c-7.182,0-13.024-5.844-13.024-13.026c0-3.374,5.638-11.874,13.02-20.173c7.317,8.254,13.031,16.852,13.031,20.174   C59.961,189.666,54.117,195.51,46.935,195.51z" fill="#d0ece4"/>
</g>
</svg>