<svg width="14" height="16" viewBox="0 0 14 16" fill="none" xmlns="http://www.w3.org/2000/svg">
<path d="M13.0254 9.25754L12.7332 9.08418C12.7993 8.72145 12.8323 8.35873 12.8323 8.00067C12.8323 7.64261 12.7993 7.27988 12.7332 6.91715L13.0254 6.74379C13.9547 6.1937 14.2761 4.96883 13.7415 4.01267C13.4829 3.54926 13.0643 3.2172 12.5628 3.07851C12.0612 2.93916 11.537 3.00917 11.0873 3.27521L10.7957 3.44791C10.2507 2.96716 9.62281 2.5951 8.94435 2.34839V2.00033C8.94435 0.897483 8.07215 0 7.00036 0C5.92858 0 5.05637 0.897483 5.05637 2.00033V2.34839C4.37792 2.5951 3.75001 2.96783 3.20505 3.44791L2.91345 3.27521C2.46439 3.00984 1.9408 2.93916 1.43796 3.07851C0.937057 3.2172 0.518451 3.54926 0.2599 4.012C0.000701637 4.47475 -0.067338 5.01417 0.0680933 5.53025C0.202877 6.04567 0.525579 6.47641 0.975937 6.74312L1.26818 6.91582C1.20209 7.27855 1.16904 7.64127 1.16904 8C1.16904 8.35873 1.20209 8.72145 1.26818 9.08418L0.975937 9.25688C0.525579 9.52359 0.203525 9.95433 0.0680933 10.4697C-0.067338 10.9858 0.000701617 11.5253 0.259252 11.9873C0.517803 12.4507 0.936409 12.7828 1.43796 12.9215C1.9408 13.0615 2.46439 12.9908 2.91345 12.7248L3.20505 12.5521C3.75001 13.0328 4.37792 13.4049 5.05637 13.6516V13.9997C5.05637 15.1025 5.92858 16 7.00036 16C8.07215 16 8.94435 15.1025 8.94435 13.9997V13.6516C9.62281 13.4049 10.2507 13.0322 10.7957 12.5521L11.0873 12.7248C11.5376 12.9908 12.0612 13.0615 12.5628 12.9215C13.0637 12.7828 13.4823 12.4507 13.7415 11.9873C14.2761 11.0312 13.9547 9.8063 13.0254 9.25621V9.25754ZM11.3692 6.76179C11.48 7.17786 11.5363 7.5946 11.5363 8.00067C11.5363 8.40673 11.48 8.82347 11.3692 9.23954C11.2908 9.53159 11.4152 9.84231 11.6711 9.99433L12.3794 10.4137C12.6891 10.5964 12.796 11.0052 12.6185 11.3239C12.5323 11.4779 12.3923 11.5886 12.2252 11.6353C12.0586 11.6813 11.883 11.6586 11.7333 11.5693L11.027 11.1512C10.7704 11.0005 10.4471 11.0465 10.241 11.2632C9.66558 11.8686 8.93723 12.3014 8.13501 12.5148C7.84924 12.5901 7.64901 12.8561 7.64901 13.1602V14.0017C7.64901 14.3697 7.35806 14.6684 7.00101 14.6684C6.64397 14.6684 6.35301 14.3697 6.35301 14.0017V13.1602C6.35301 12.8561 6.15278 12.5908 5.86702 12.5148C5.06544 12.3014 4.3371 11.8686 3.76038 11.2632C3.63532 11.1312 3.46684 11.0625 3.29706 11.0625C3.1869 11.0625 3.07545 11.0918 2.97436 11.1512L2.26804 11.5693C2.11771 11.6586 1.9434 11.6813 1.77621 11.6353C1.60903 11.5893 1.46971 11.4786 1.38353 11.3232C1.29734 11.1692 1.27466 10.9898 1.31938 10.8178C1.36474 10.6458 1.4723 10.5017 1.62199 10.4137L2.33025 9.99433C2.58621 9.84231 2.70998 9.53226 2.63157 9.23887C2.52076 8.8248 2.46439 8.40807 2.46439 8.00067C2.46439 7.59327 2.52076 7.17653 2.63157 6.76246C2.70998 6.46974 2.58621 6.15903 2.33025 6.007L1.62199 5.5876C1.4723 5.49892 1.36474 5.35489 1.31938 5.18353C1.27466 5.0115 1.29734 4.83281 1.38353 4.67745C1.46971 4.52342 1.60903 4.41274 1.77621 4.36606C1.94275 4.31939 2.11771 4.34206 2.26804 4.43207L2.97436 4.85014C3.23097 5.0015 3.55496 4.95549 3.76038 4.73812C4.3371 4.13269 5.06544 3.69995 5.86702 3.48658C6.15278 3.41124 6.35301 3.14519 6.35301 2.84114V1.99967C6.35301 1.63161 6.64397 1.33289 7.00101 1.33289C7.35806 1.33289 7.64901 1.63161 7.64901 1.99967V2.84114C7.64901 3.14519 7.84924 3.41057 8.13501 3.48658C8.93723 3.69995 9.66558 4.13269 10.241 4.73812C10.4477 4.95483 10.7711 5.00083 11.027 4.85014L11.7333 4.43207C11.883 4.34206 12.058 4.31939 12.2252 4.36606C12.3923 4.41207 12.5323 4.52275 12.6185 4.67745C12.796 4.99683 12.6891 5.4049 12.3794 5.5876L11.6711 6.007C11.4152 6.15903 11.2914 6.46908 11.3692 6.76179ZM5.68299 6.66711C5.45619 6.66711 5.2417 6.71178 5.03499 6.7758V5.33356C5.03499 4.96549 5.32529 4.66678 5.68299 4.66678C6.04068 4.66678 6.33098 4.96549 6.33098 5.33356V6.7758C6.12427 6.71178 5.90978 6.66711 5.68299 6.66711ZM6.97898 9.00083C6.97898 9.49292 6.71654 9.91832 6.33098 10.1497V10.6678C6.33098 11.0358 6.04068 11.3346 5.68299 11.3346C5.32529 11.3346 5.03499 11.0358 5.03499 10.6678V10.1497C4.64943 9.91899 4.38699 9.49358 4.38699 9.00083C4.38699 8.26404 4.96695 7.66728 5.68299 7.66728C6.39902 7.66728 6.97898 8.26404 6.97898 9.00083ZM9.57097 7.0005C9.57097 7.73729 8.99101 8.33405 8.27497 8.33405C7.55894 8.33405 6.97898 7.73729 6.97898 7.0005C6.97898 6.50842 7.24142 6.08301 7.62698 5.85164V5.33356C7.62698 4.96549 7.91728 4.66678 8.27497 4.66678C8.63267 4.66678 8.92297 4.96549 8.92297 5.33356V5.85164C9.30853 6.08235 9.57097 6.50775 9.57097 7.0005ZM8.27497 9.33422C8.50177 9.33422 8.71626 9.28955 8.92297 9.22554V10.6678C8.92297 11.0358 8.63267 11.3346 8.27497 11.3346C7.91728 11.3346 7.62698 11.0358 7.62698 10.6678V9.22554C7.83369 9.28955 8.04817 9.33422 8.27497 9.33422Z" fill="#797979"/>
</svg>
