<svg width="134" height="138" viewBox="0 0 134 138" fill="none" xmlns="http://www.w3.org/2000/svg">
<g filter="url(#filter0_d_354_2134)">
<path d="M81.7074 129.07C72.9376 135.643 61.0624 135.643 52.2926 129.07L10.316 97.6067C1.54623 91.0333 -2.12341 79.3817 1.22636 68.7457L17.26 17.837C20.6097 7.20107 30.217 0 41.0571 0H92.9429C103.783 0 113.39 7.20108 116.74 17.837L132.774 68.7457C136.123 79.3817 132.454 91.0333 123.684 97.6067L81.7074 129.07Z" fill="url(#paint0_linear_354_2134)"/>
<path d="M79.7376 126.442C72.1352 132.14 61.8648 132.14 54.2624 126.442L12.2859 94.9786C4.65767 89.2609 1.41809 79.0702 4.35903 69.7324L20.3926 18.8237C23.3287 9.50121 31.7067 3.28436 41.0571 3.28436H92.9429C102.293 3.28436 110.671 9.50122 113.607 18.8237L129.641 69.7324C132.582 79.0702 129.342 89.2609 121.714 94.9786L79.7376 126.442Z" stroke="white" stroke-opacity="0.4" stroke-width="6.56872"/>
</g>
<path d="M64.8658 45.7294C65.7593 43.9958 68.2381 43.9958 69.1317 45.7294L74.8086 56.7436C75.0373 57.1872 75.3986 57.5485 75.8422 57.7772L86.8564 63.4542C88.59 64.3477 88.59 66.8265 86.8564 67.72L75.8422 73.397C75.3986 73.6257 75.0373 73.9869 74.8086 74.4306L69.1317 85.4448C68.2381 87.1784 65.7593 87.1784 64.8658 85.4448L59.1888 74.4306C58.9602 73.9869 58.5989 73.6257 58.1552 73.397L47.141 67.72C45.4074 66.8265 45.4074 64.3477 47.141 63.4542L58.1552 57.7772C58.5989 57.5485 58.9602 57.1872 59.1888 56.7436L64.8658 45.7294Z" fill="url(#paint1_angular_354_2134)"/>
<path d="M64.8658 45.7294C65.7593 43.9958 68.2381 43.9958 69.1317 45.7294L74.8086 56.7436C75.0373 57.1872 75.3986 57.5485 75.8422 57.7772L86.8564 63.4542C88.59 64.3477 88.59 66.8265 86.8564 67.72L75.8422 73.397C75.3986 73.6257 75.0373 73.9869 74.8086 74.4306L69.1317 85.4448C68.2381 87.1784 65.7593 87.1784 64.8658 85.4448L59.1888 74.4306C58.9602 73.9869 58.5989 73.6257 58.1552 73.397L47.141 67.72C45.4074 66.8265 45.4074 64.3477 47.141 63.4542L58.1552 57.7772C58.5989 57.5485 58.9602 57.1872 59.1888 56.7436L64.8658 45.7294Z" fill="url(#paint2_angular_354_2134)" fill-opacity="0.5"/>
<path d="M46.3887 61.9945L47.109 63.392L46.3887 61.9945C43.4686 63.4995 43.4686 67.6747 46.3887 69.1797L57.4029 74.8567C57.5429 74.9289 57.6569 75.0429 57.7291 75.1829L63.4061 86.1971C64.9111 89.1172 69.0863 89.1172 70.5913 86.1971L76.2683 75.1829C76.3405 75.0429 76.4545 74.9289 76.5946 74.8567L87.6087 69.1797C90.5288 67.6747 90.5288 63.4995 87.6087 61.9945L76.5946 56.3175C76.4545 56.2453 76.3405 56.1313 76.2683 55.9913L70.5913 44.9771C69.0863 42.057 64.9111 42.057 63.4061 44.9771L64.8354 45.7137L63.4061 44.9771L57.7291 55.9913C57.6569 56.1313 57.5429 56.2453 57.4029 56.3175L46.3887 61.9945Z" stroke="black" stroke-opacity="0.16" stroke-width="3.28436"/>
<path fill-rule="evenodd" clip-rule="evenodd" d="M11.7 98.6409L106.335 4.00586C111.147 7.15038 114.898 11.9716 116.745 17.8378L125.272 44.9123L45.9052 124.279L11.7 98.6409Z" fill="white" fill-opacity="0.32"/>
<defs>
<filter id="filter0_d_354_2134" x="0" y="0" width="134" height="137.284" filterUnits="userSpaceOnUse" color-interpolation-filters="sRGB">
<feFlood flood-opacity="0" result="BackgroundImageFix"/>
<feColorMatrix in="SourceAlpha" type="matrix" values="0 0 0 0 0 0 0 0 0 0 0 0 0 0 0 0 0 0 127 0" result="hardAlpha"/>
<feOffset dy="3.28436"/>
<feComposite in2="hardAlpha" operator="out"/>
<feColorMatrix type="matrix" values="0 0 0 0 0.0192593 0 0 0 0 0.300741 0 0 0 0 0.0474074 0 0 0 1 0"/>
<feBlend mode="normal" in2="BackgroundImageFix" result="effect1_dropShadow_354_2134"/>
<feBlend mode="normal" in="SourceGraphic" in2="effect1_dropShadow_354_2134" result="shape"/>
</filter>
<linearGradient id="paint0_linear_354_2134" x1="67.0017" y1="140.094" x2="67.0017" y2="-14.7903" gradientUnits="userSpaceOnUse">
<stop stop-color="#2DC24E"/>
<stop offset="1" stop-color="#CFF7D2"/>
</linearGradient>
<radialGradient id="paint1_angular_354_2134" cx="0" cy="0" r="1" gradientUnits="userSpaceOnUse" gradientTransform="translate(66.9987 65.5871) rotate(90) scale(21.1579)">
<stop stop-color="white"/>
<stop offset="1" stop-color="#E0E0E0"/>
</radialGradient>
<radialGradient id="paint2_angular_354_2134" cx="0" cy="0" r="1" gradientUnits="userSpaceOnUse" gradientTransform="translate(66.9987 65.5871) rotate(-180) scale(21.1579)">
<stop stop-color="white"/>
<stop offset="1" stop-color="#E0E0E0"/>
</radialGradient>
</defs>
</svg>
