<svg width="22" height="21" viewBox="0 0 22 21" fill="none" xmlns="http://www.w3.org/2000/svg">
<path d="M17.3635 0.5H4.63627C2.12718 0.5 0.0908203 2.53636 0.0908203 5.04545V14.1364C0.0908203 16 1.21809 17.6 2.81809 18.3V19.5909C2.81809 20.0909 3.22718 20.5 3.72718 20.5C4.22718 20.5 4.63627 20.0909 4.63627 19.5909V18.6818H17.3635V19.5909C17.3635 20.0909 17.7726 20.5 18.2726 20.5C18.7726 20.5 19.1817 20.0909 19.1817 19.5909V18.3C20.7817 17.6 21.909 15.9909 21.909 14.1364V5.04545C21.909 2.53636 19.8726 0.5 17.3635 0.5ZM20.0908 14.1364C20.0908 15.6364 18.8635 16.8636 17.3635 16.8636H4.63627C3.13628 16.8636 1.909 15.6364 1.909 14.1364H2.81809C3.31809 14.1364 3.72718 13.7273 3.72718 13.2273C3.72718 12.7273 3.31809 12.3182 2.81809 12.3182H1.909V6.86364H2.81809C3.31809 6.86364 3.72718 6.45455 3.72718 5.95455C3.72718 5.45455 3.31809 5.04545 2.81809 5.04545H1.909C1.909 3.54545 3.13628 2.31818 4.63627 2.31818H17.3635C18.8635 2.31818 20.0908 3.54545 20.0908 5.04545V14.1364ZM11.909 4.13636C8.89991 4.13636 6.45446 6.58182 6.45446 9.59091C6.45446 12.6 8.89991 15.0455 11.909 15.0455C14.9181 15.0455 17.3635 12.6 17.3635 9.59091C17.3635 6.58182 14.9181 4.13636 11.909 4.13636ZM11.909 13.2273C9.89991 13.2273 8.27264 11.6 8.27264 9.59091C8.27264 7.58182 9.89991 5.95455 11.909 5.95455C13.5999 5.95455 15.0272 7.11818 15.4272 8.68182H12.8181C12.3181 8.68182 11.909 9.09091 11.909 9.59091C11.909 10.0909 12.3181 10.5 12.8181 10.5H15.4272C15.0181 12.0636 13.5999 13.2273 11.909 13.2273Z" fill="#CAEAE5"/>
</svg>
