<svg width="20" height="21" viewBox="0 0 20 21" fill="none" xmlns="http://www.w3.org/2000/svg">
<path d="M9.99984 2.13491C11.1095 2.13855 12.2074 2.36222 13.23 2.79298C14.2526 3.22374 15.1796 3.85302 15.9574 4.64443H13.3459C13.124 4.64443 12.9112 4.73256 12.7544 4.88943C12.5975 5.04631 12.5094 5.25908 12.5094 5.48093C12.5094 5.70279 12.5975 5.91556 12.7544 6.07243C12.9112 6.22931 13.124 6.31744 13.3459 6.31744H16.8115C17.2234 6.31722 17.6184 6.15349 17.9097 5.86222C18.2009 5.57095 18.3647 5.17596 18.3649 4.76405V1.29841C18.3649 1.07655 18.2768 0.863783 18.1199 0.706908C17.963 0.550032 17.7502 0.461901 17.5284 0.461901C17.3065 0.461901 17.0938 0.550032 16.9369 0.706908C16.78 0.863783 16.6919 1.07655 16.6919 1.29841V3.03666C15.3093 1.79149 13.6073 0.955782 11.7767 0.623136C9.94598 0.290491 8.05883 0.47404 6.32656 1.15323C4.5943 1.83242 3.0853 2.98043 1.96856 4.4687C0.851823 5.95697 0.171438 7.72673 0.00360037 9.57981C-0.00720445 9.6963 0.00637404 9.81376 0.0434707 9.92471C0.0805673 10.0357 0.140369 10.1377 0.219064 10.2242C0.29776 10.3108 0.393625 10.38 0.50055 10.4275C0.607475 10.475 0.723117 10.4997 0.840106 10.5C1.0447 10.5026 1.24291 10.4287 1.39593 10.2929C1.54895 10.157 1.64576 9.96898 1.66741 9.76551C1.85363 7.68324 2.81173 5.74586 4.3535 4.33395C5.89526 2.92204 7.90926 2.13767 9.99984 2.13491Z" fill="#CAEAE5"/>
<path d="M19.1604 10.4999C18.9558 10.4973 18.7576 10.5712 18.6046 10.707C18.4515 10.8429 18.3547 11.0309 18.3331 11.2344C18.1948 12.8265 17.6027 14.3455 16.6272 15.6112C15.6516 16.8769 14.3334 17.8362 12.829 18.3753C11.3246 18.9144 9.69717 19.0106 8.13972 18.6526C6.58228 18.2946 5.16021 17.4974 4.04223 16.3555H6.6538C6.87565 16.3555 7.08842 16.2674 7.2453 16.1105C7.40217 15.9536 7.4903 15.7408 7.4903 15.519C7.4903 15.2971 7.40217 15.0844 7.2453 14.9275C7.08842 14.7706 6.87565 14.6825 6.6538 14.6825H3.18816C2.98413 14.6824 2.78208 14.7225 2.59357 14.8005C2.40505 14.8785 2.23377 14.9929 2.0895 15.1372C1.94523 15.2815 1.83081 15.4528 1.75279 15.6413C1.67476 15.8298 1.63466 16.0318 1.63477 16.2359V19.7015C1.63477 19.9234 1.7229 20.1361 1.87977 20.293C2.03665 20.4499 2.24942 20.538 2.47127 20.538C2.69313 20.538 2.90589 20.4499 3.06277 20.293C3.21964 20.1361 3.30778 19.9234 3.30778 19.7015V17.9632C4.69038 19.2084 6.39232 20.0441 8.223 20.3768C10.0537 20.7094 11.9408 20.5259 13.6731 19.8467C15.4054 19.1675 16.9144 18.0195 18.0311 16.5312C19.1478 15.0429 19.8282 13.2732 19.9961 11.4201C20.0069 11.3036 19.9933 11.1861 19.9562 11.0752C19.9191 10.9642 19.8593 10.8622 19.7806 10.7757C19.7019 10.6891 19.606 10.6199 19.4991 10.5724C19.3922 10.5249 19.2774 10.5003 19.1604 10.4999Z" fill="#CAEAE5"/>
</svg>
