<svg width="20" height="21" viewBox="0 0 20 21" fill="none" xmlns="http://www.w3.org/2000/svg">
<path d="M19.9995 19.6667C19.9995 19.8877 19.9117 20.0997 19.7554 20.2559C19.5992 20.4122 19.3872 20.5 19.1662 20.5H0.834599C0.613606 20.5 0.401664 20.4122 0.245398 20.2559C0.0891321 20.0997 0.00134282 19.8877 0.00134282 19.6667C0.00134282 19.4457 0.0891321 19.2338 0.245398 19.0775C0.401664 18.9212 0.613606 18.8334 0.834599 18.8334H19.1662C19.3872 18.8334 19.5992 18.9212 19.7554 19.0775C19.9117 19.2338 19.9995 19.4457 19.9995 19.6667ZM0.24382 7.62748C0.0642723 7.29444 -0.0189098 6.91795 0.00360964 6.54026C0.026129 6.16257 0.153459 5.79863 0.371309 5.48928C0.727324 4.96691 1.2041 4.53815 1.76118 4.23936L8.01143 0.986236C8.62576 0.666782 9.308 0.5 10.0004 0.5C10.6928 0.5 11.3751 0.666782 11.9894 0.986236L18.2388 4.24186C18.7959 4.54065 19.2727 4.96941 19.6287 5.49178C19.8465 5.80113 19.9739 6.16507 19.9964 6.54276C20.0189 6.92045 19.9357 7.29694 19.7562 7.62998C19.5629 7.99565 19.273 8.30128 18.918 8.51358C18.563 8.72589 18.1566 8.83674 17.743 8.83407H17.4997V15.5003H18.333C18.554 15.5003 18.7659 15.5881 18.9222 15.7444C19.0784 15.9006 19.1662 16.1126 19.1662 16.3336C19.1662 16.5546 19.0784 16.7665 18.9222 16.9228C18.7659 17.0791 18.554 17.1669 18.333 17.1669H1.66786C1.44686 17.1669 1.23492 17.0791 1.07865 16.9228C0.922388 16.7665 0.834599 16.5546 0.834599 16.3336C0.834599 16.1126 0.922388 15.9006 1.07865 15.7444C1.23492 15.5881 1.44686 15.5003 1.66786 15.5003H2.50111V8.83407H2.2578C1.8438 8.83666 1.43705 8.7255 1.0819 8.51273C0.726752 8.29996 0.436851 7.99374 0.24382 7.62748ZM4.16762 15.5003H6.66739V8.83407H4.16762V15.5003ZM8.3339 8.83407V15.5003H11.6669V8.83407H8.3339ZM15.8332 8.83407H13.3334V15.5003H15.8332V8.83407ZM1.72035 6.85503C1.77263 6.95142 1.85043 7.03157 1.94523 7.08669C2.04003 7.1418 2.14817 7.16977 2.2578 7.16751H17.743C17.8527 7.16977 17.9608 7.1418 18.0556 7.08669C18.1504 7.03157 18.2282 6.95142 18.2805 6.85503C18.3186 6.79134 18.337 6.71781 18.3334 6.64369C18.3299 6.56957 18.3045 6.49814 18.2605 6.43839C18.0586 6.13834 17.7873 5.89138 17.4697 5.71844L11.2203 2.46281C10.8437 2.26734 10.4256 2.16531 10.0013 2.16531C9.57693 2.16531 9.15882 2.26734 8.7822 2.46281L2.53278 5.71844C2.21529 5.89193 1.9441 6.13912 1.74201 6.43922C1.69793 6.49873 1.67236 6.56991 1.6685 6.64386C1.66465 6.71782 1.68268 6.79127 1.72035 6.85503Z" fill="#CAEAE5"/>
</svg>
