<svg width="18" height="22" viewBox="0 0 18 22" fill="none" xmlns="http://www.w3.org/2000/svg">
<path d="M15.2999 7.58157V6.29998C15.2999 4.62912 14.6362 3.0267 13.4547 1.84522C12.2733 0.663746 10.6708 0 8.99997 0C7.32911 0 5.72669 0.663746 4.54521 1.84522C3.36374 3.0267 2.69999 4.62912 2.69999 6.29998V7.58157C1.89842 7.93141 1.21616 8.50724 0.736647 9.23866C0.257134 9.97008 0.00115053 10.8254 0 11.7V17.0999C0.00142907 18.293 0.475992 19.4367 1.31959 20.2803C2.16319 21.1239 3.30695 21.5985 4.49998 21.5999H13.5C14.693 21.5985 15.8367 21.1239 16.6803 20.2803C17.5239 19.4367 17.9985 18.293 17.9999 17.0999V11.7C17.9988 10.8254 17.7428 9.97008 17.2633 9.23866C16.7838 8.50724 16.1015 7.93141 15.2999 7.58157ZM4.49998 6.29998C4.49998 5.10651 4.97409 3.96192 5.818 3.11801C6.66191 2.2741 7.8065 1.79999 8.99997 1.79999C10.1934 1.79999 11.338 2.2741 12.1819 3.11801C13.0259 3.96192 13.5 5.10651 13.5 6.29998V7.19998H4.49998V6.29998ZM16.1999 17.0999C16.1999 17.816 15.9155 18.5028 15.4091 19.0091C14.9028 19.5155 14.216 19.7999 13.5 19.7999H4.49998C3.7839 19.7999 3.09715 19.5155 2.5908 19.0091C2.08446 18.5028 1.79999 17.816 1.79999 17.0999V11.7C1.79999 10.9839 2.08446 10.2971 2.5908 9.79078C3.09715 9.28443 3.7839 8.99997 4.49998 8.99997H13.5C14.216 8.99997 14.9028 9.28443 15.4091 9.79078C15.9155 10.2971 16.1999 10.9839 16.1999 11.7V17.0999Z" fill="#4F4F4F"/>
<path d="M9.00009 12.5999C8.7614 12.5999 8.53248 12.6947 8.3637 12.8635C8.19492 13.0322 8.1001 13.2612 8.1001 13.4999V15.2998C8.1001 15.5385 8.19492 15.7675 8.3637 15.9362C8.53248 16.105 8.7614 16.1998 9.00009 16.1998C9.23879 16.1998 9.46771 16.105 9.63649 15.9362C9.80527 15.7675 9.90009 15.5385 9.90009 15.2998V13.4999C9.90009 13.2612 9.80527 13.0322 9.63649 12.8635C9.46771 12.6947 9.23879 12.5999 9.00009 12.5999Z" fill="#4F4F4F"/>
</svg>
