<svg width="148" height="28" viewBox="0 0 148 28" fill="none" xmlns="http://www.w3.org/2000/svg">
<path d="M60.4005 8.18H63.2693V20.5H60.4005V15.5544H55.1733V20.5H52.2869V8.18H55.1733V12.9496H60.4005V8.18ZM71.6202 11.8056H74.6122L69.1914 24.2664H66.2522L67.9418 20.3768L64.5626 11.8056H67.537L68.5402 14.5512L69.4906 17.3848L70.5114 14.5512L71.6202 11.8056ZM81.1453 11.6296C81.9549 11.6296 82.6765 11.8232 83.3101 12.2104C83.9437 12.5859 84.4365 13.1197 84.7885 13.812C85.1405 14.4925 85.3165 15.2728 85.3165 16.1528C85.3165 17.0328 85.1405 17.8189 84.7885 18.5112C84.4365 19.1917 83.9437 19.7256 83.3101 20.1128C82.6765 20.4883 81.9549 20.676 81.1453 20.676C80.0658 20.676 79.1682 20.3357 78.4525 19.6552V24.2664H75.6893V11.8056H78.0829L78.2589 12.8264C78.9863 12.0285 79.9485 11.6296 81.1453 11.6296ZM80.4941 18.3528C81.1042 18.3528 81.6029 18.1533 81.9901 17.7544C82.3773 17.3437 82.5709 16.8099 82.5709 16.1528C82.5709 15.4957 82.3773 14.9677 81.9901 14.5688C81.6029 14.1581 81.1042 13.9528 80.4941 13.9528C79.8839 13.9528 79.3853 14.1581 78.9981 14.5688C78.6226 14.9795 78.4349 15.5075 78.4349 16.1528C78.4349 16.7981 78.6226 17.3261 78.9981 17.7368C79.3853 18.1475 79.8839 18.3528 80.4941 18.3528ZM91.0671 11.612C92.0175 11.612 92.8389 11.7939 93.5311 12.1576C94.2234 12.5096 94.7514 13.0141 95.1151 13.6712C95.4906 14.3165 95.6783 15.0733 95.6783 15.9416C95.6783 16.2232 95.649 16.5693 95.5903 16.98H89.2015C89.2837 17.4259 89.5242 17.7896 89.9231 18.0712C90.3221 18.3411 90.8325 18.476 91.4543 18.476C91.8885 18.476 92.3109 18.4115 92.7215 18.2824C93.1322 18.1533 93.4842 17.9715 93.7775 17.7368L95.2207 19.2856C94.7279 19.7432 94.1413 20.0952 93.4607 20.3416C92.7919 20.588 92.0762 20.7112 91.3135 20.7112C90.3045 20.7112 89.4303 20.5293 88.6911 20.1656C87.9519 19.7901 87.3829 19.2621 86.9839 18.5816C86.585 17.9011 86.3855 17.0973 86.3855 16.1704C86.3855 15.2787 86.5791 14.4867 86.9663 13.7944C87.3653 13.1021 87.9167 12.5683 88.6207 12.1928C89.3247 11.8056 90.1402 11.612 91.0671 11.612ZM91.1551 13.7944C90.6037 13.7944 90.1519 13.9352 89.7999 14.2168C89.4597 14.4984 89.2661 14.8915 89.2191 15.396H93.0559C93.0207 14.8915 92.833 14.4984 92.4927 14.2168C92.1642 13.9352 91.7183 13.7944 91.1551 13.7944ZM102.154 11.612C102.553 11.612 102.951 11.6883 103.35 11.8408C103.749 11.9816 104.095 12.1928 104.389 12.4744L103.227 14.4984C102.981 14.3459 102.752 14.2344 102.541 14.164C102.33 14.0936 102.107 14.0584 101.872 14.0584C101.285 14.0584 100.822 14.2461 100.482 14.6216C100.141 14.9971 99.9712 15.5485 99.9712 16.276V20.5H97.208V11.8056H99.6192L99.8304 12.8968C100.394 12.0403 101.168 11.612 102.154 11.612ZM105.585 8.18H108.472V17.8952H114.667V20.5H105.585V8.18ZM120.062 11.612C121.013 11.612 121.834 11.7939 122.526 12.1576C123.219 12.5096 123.747 13.0141 124.11 13.6712C124.486 14.3165 124.674 15.0733 124.674 15.9416C124.674 16.2232 124.644 16.5693 124.586 16.98H118.197C118.279 17.4259 118.52 17.7896 118.918 18.0712C119.317 18.3411 119.828 18.476 120.45 18.476C120.884 18.476 121.306 18.4115 121.717 18.2824C122.128 18.1533 122.48 17.9715 122.773 17.7368L124.216 19.2856C123.723 19.7432 123.137 20.0952 122.456 20.3416C121.787 20.588 121.072 20.7112 120.309 20.7112C119.3 20.7112 118.426 20.5293 117.686 20.1656C116.947 19.7901 116.378 19.2621 115.979 18.5816C115.58 17.9011 115.381 17.0973 115.381 16.1704C115.381 15.2787 115.574 14.4867 115.962 13.7944C116.361 13.1021 116.912 12.5683 117.616 12.1928C118.32 11.8056 119.136 11.612 120.062 11.612ZM120.15 13.7944C119.599 13.7944 119.147 13.9352 118.795 14.2168C118.455 14.4984 118.261 14.8915 118.214 15.396H122.051C122.016 14.8915 121.828 14.4984 121.488 14.2168C121.16 13.9352 120.714 13.7944 120.15 13.7944ZM131.571 11.612C132.651 11.612 133.507 11.964 134.141 12.668C134.786 13.372 135.109 14.3459 135.109 15.5896V20.5H132.346V15.748C132.346 15.1848 132.205 14.7448 131.923 14.428C131.642 14.1112 131.255 13.9528 130.762 13.9528C130.222 13.9528 129.788 14.1347 129.459 14.4984C129.131 14.8621 128.967 15.3373 128.967 15.924V20.5H126.203V11.8056H128.597L128.773 12.8264C129.113 12.4392 129.518 12.14 129.987 11.9288C130.468 11.7176 130.996 11.612 131.571 11.612ZM146.2 8.18V20.5H143.806L143.63 19.4616C142.891 20.2712 141.929 20.676 140.744 20.676C139.934 20.676 139.213 20.4883 138.579 20.1128C137.957 19.7256 137.47 19.1917 137.118 18.5112C136.766 17.8189 136.59 17.0328 136.59 16.1528C136.59 15.2728 136.766 14.4925 137.118 13.812C137.47 13.1197 137.957 12.5859 138.579 12.2104C139.213 11.8232 139.934 11.6296 140.744 11.6296C141.812 11.6296 142.709 11.964 143.437 12.6328V8.18H146.2ZM141.395 18.3528C142.005 18.3528 142.504 18.1533 142.891 17.7544C143.278 17.3437 143.472 16.8099 143.472 16.1528C143.472 15.4957 143.278 14.9677 142.891 14.5688C142.504 14.1581 142.005 13.9528 141.395 13.9528C140.785 13.9528 140.286 14.1581 139.899 14.5688C139.524 14.9795 139.336 15.5075 139.336 16.1528C139.336 16.7981 139.524 17.3261 139.899 17.7368C140.286 18.1475 140.785 18.3528 141.395 18.3528Z" fill="#CAEAE5"/>
<path d="M32.9977 10.2729C32.9977 11.4026 32.9685 12.5324 32.9977 13.6621C33.0269 14.3139 32.7784 14.5167 32.1498 14.4733C31.5211 14.4298 30.8925 14.4733 30.2492 14.4733C29.4159 14.4733 28.758 14.7919 28.217 15.4147C26.4042 17.457 24.5913 19.4848 22.7639 21.5126C22.2668 22.063 21.6089 22.3526 20.834 22.3816C18.4364 22.4395 18.1732 22.2657 18.2463 19.8758C18.2902 18.3405 18.2463 16.7907 18.261 15.2554C18.261 14.6471 18.0417 14.4298 17.4422 14.4733C16.6382 14.5167 16.0095 14.8209 15.4832 15.4147C13.7288 17.3991 11.9452 19.3834 10.1762 21.3532C9.32826 22.2947 7.5154 22.7727 6.36044 22.3381C5.79027 22.1209 5.51249 21.6864 5.52711 21.0491C5.55635 19.1661 5.52711 17.2977 5.52711 15.4147C5.52711 14.5312 5.49787 14.4877 4.56221 14.4877C3.29029 14.4877 2.03298 14.4588 0.775679 14.4877C0.161648 14.5022 -0.01379 14.285 0.000829815 13.6911C0.0446892 12.2427 0.000830707 10.8088 0.0154505 9.36036C0.0300703 7.52088 1.49205 6.07246 3.33414 6.05798C4.13823 6.05798 4.94232 6.10143 5.74641 6.04349C6.36044 6.00004 6.46278 6.24627 6.46278 6.78218C6.43354 8.70857 6.46278 10.635 6.46278 12.5614C6.46278 12.9235 6.46278 13.2856 6.81365 13.5318C7.26687 13.8649 7.61774 13.7056 7.954 13.329C9.4306 11.6778 10.9949 10.0846 12.3692 8.34647C14.0797 6.21731 16.3311 5.8552 18.8311 6.04349C19.299 6.08694 19.1674 6.44905 19.182 6.69528C19.182 8.54925 19.182 10.4032 19.182 12.2572C19.182 12.4745 19.182 12.6917 19.1966 12.909C19.2405 13.2711 19.4013 13.5608 19.7668 13.6766C20.1177 13.778 20.4101 13.6621 20.6732 13.3725C22.2083 11.6344 23.7872 9.93973 25.3077 8.18715C26.5796 6.72425 28.1147 5.95659 30.0737 6.04349C30.8194 6.07246 31.5796 6.07246 32.3398 6.04349C32.8223 6.02901 32.9831 6.20282 32.9831 6.66631C32.9685 7.8685 32.9831 9.07068 32.9831 10.2729H32.9977Z" fill="#CAEAE5"/>
</svg>
