<svg width="33" height="18" viewBox="0 0 33 18" fill="none" xmlns="http://www.w3.org/2000/svg">
<path d="M32.9977 5.02286C32.9977 6.15262 32.9685 7.28239 32.9977 8.41215C33.0269 9.06394 32.7784 9.26671 32.1498 9.22326C31.5211 9.17981 30.8925 9.22326 30.2492 9.22326C29.4159 9.22326 28.758 9.54191 28.217 10.1647C26.4042 12.207 24.5913 14.2348 22.7639 16.2626C22.2668 16.813 21.6089 17.1026 20.834 17.1316C18.4364 17.1895 18.1732 17.0157 18.2463 14.6258C18.2902 13.0905 18.2463 11.5407 18.261 10.0054C18.261 9.39707 18.0417 9.17981 17.4422 9.22326C16.6382 9.26671 16.0095 9.57088 15.4832 10.1647C13.7288 12.1491 11.9452 14.1334 10.1762 16.1032C9.32826 17.0447 7.5154 17.5227 6.36044 17.0881C5.79027 16.8709 5.51249 16.4364 5.52711 15.7991C5.55635 13.9161 5.52711 12.0477 5.52711 10.1647C5.52711 9.2812 5.49787 9.23775 4.56221 9.23775C3.29029 9.23775 2.03298 9.20878 0.775679 9.23775C0.161648 9.25223 -0.01379 9.03497 0.000829815 8.44112C0.0446892 6.99271 0.000830707 5.55878 0.0154505 4.11036C0.0300703 2.27088 1.49205 0.822461 3.33414 0.807977C4.13823 0.807977 4.94232 0.851429 5.74641 0.793492C6.36044 0.75004 6.46278 0.996271 6.46278 1.53218C6.43354 3.45857 6.46278 5.38496 6.46278 7.31135C6.46278 7.67346 6.46278 8.03556 6.81365 8.28179C7.26687 8.61493 7.61774 8.4556 7.954 8.07902C9.4306 6.42782 10.9949 4.83457 12.3692 3.09647C14.0797 0.967305 16.3311 0.605198 18.8311 0.793492C19.299 0.836944 19.1674 1.19905 19.182 1.44528C19.182 3.29925 19.182 5.15322 19.182 7.00719C19.182 7.22445 19.182 7.44171 19.1966 7.65898C19.2405 8.02108 19.4013 8.31076 19.7668 8.42663C20.1177 8.52802 20.4101 8.41215 20.6732 8.12247C22.2083 6.38437 23.7872 4.68973 25.3077 2.93715C26.5796 1.47425 28.1147 0.706587 30.0737 0.793492C30.8194 0.82246 31.5796 0.82246 32.3398 0.793492C32.8223 0.779008 32.9831 0.95282 32.9831 1.41631C32.9685 2.6185 32.9831 3.82068 32.9831 5.02286H32.9977Z" fill="#CAEAE5"/>
</svg>
