<svg width="89" height="89" viewBox="0 0 89 89" fill="none" xmlns="http://www.w3.org/2000/svg">
<path d="M66.287 75.7216C66.9276 76.6364 68.192 76.8626 69.0736 76.1771C75.2597 71.3676 79.9277 64.8536 82.4882 57.4173C85.2686 49.3424 85.4213 40.5946 82.9244 32.4277C80.4275 24.2607 75.4092 17.0938 68.5888 11.9543C61.7683 6.81467 53.4959 3.96624 44.957 3.81719C36.4182 3.66815 28.0514 6.22615 21.0557 11.1246C14.06 16.023 8.79467 23.0104 6.01427 31.0852C3.23388 39.1601 3.08119 47.9079 5.57808 56.0748C7.87753 63.596 12.3154 70.2689 18.3298 75.2914C19.187 76.0072 20.4585 75.8252 21.1306 74.9334C21.8027 74.0415 21.6203 72.7779 20.7672 72.0574C15.4328 67.5523 11.4951 61.5968 9.4454 54.8925C7.19819 47.5422 7.33562 39.6692 9.83797 32.4018C12.3403 25.1344 17.0791 18.8458 23.3752 14.4372C29.6713 10.0287 37.2015 7.72646 44.8864 7.8606C52.5714 7.99474 60.0166 10.5583 66.155 15.184C72.2934 19.8096 76.8099 26.2598 79.0571 33.61C81.3043 40.9603 81.1669 48.8333 78.6645 56.1007C76.3821 62.7294 72.239 68.5438 66.7506 72.86C65.8728 73.5504 65.6465 74.8068 66.287 75.7216Z" fill="#CAEAE5" fill-opacity="0.3"/>
<path d="M24.0734 76.7964C22.3394 79.5931 18.6347 80.4834 16.0961 78.3897C10.9229 74.1233 6.76594 68.719 3.96886 62.5676C0.346167 54.6006 -0.832667 45.7382 0.58143 37.1012C1.99553 28.4642 5.93904 20.4404 11.9133 14.0446C16.526 9.10645 22.1894 5.30998 28.453 2.91604C31.5268 1.74126 34.7541 3.76653 35.5056 6.97017C36.2572 10.1738 34.2351 13.3311 31.2234 14.6569C27.2353 16.4125 23.6238 18.9647 20.6215 22.1789C16.2561 26.8524 13.3745 32.7154 12.3412 39.0265C11.3079 45.3377 12.1693 51.8135 14.8164 57.6351C16.637 61.639 19.246 65.2096 22.466 68.1454C24.8976 70.3624 25.8073 73.9996 24.0734 76.7964Z" fill="url(#paint0_linear_354_436)"/>
<g filter="url(#filter0_d_354_436)">
<path d="M47.3397 55.6167C45.4952 57.4611 42.5048 57.4611 40.6603 55.6167L32.3834 47.3397C30.5389 45.4952 30.5389 42.5048 32.3834 40.6603L40.6603 32.3834C42.5048 30.5389 45.4952 30.5389 47.3397 32.3834L55.6167 40.6603C57.4611 42.5048 57.4611 45.4952 55.6167 47.3397L47.3397 55.6167Z" fill="url(#paint1_linear_354_436)"/>
<path d="M46.4205 54.6974C45.0837 56.0342 42.9163 56.0342 41.5795 54.6974L33.3026 46.4205C31.9658 45.0837 31.9658 42.9163 33.3026 41.5795L41.5795 33.3026C42.9163 31.9658 45.0837 31.9658 46.4205 33.3026L54.6974 41.5795C56.0342 42.9163 56.0342 45.0837 54.6974 46.4205L46.4205 54.6974Z" stroke="white" stroke-opacity="0.4" stroke-width="2.6"/>
</g>
<path d="M43.6068 40.5997C43.7715 40.2801 44.2284 40.2801 44.3931 40.5997L45.4396 42.6299C45.4817 42.7117 45.5483 42.7782 45.6301 42.8204L47.6603 43.8668C47.9799 44.0315 47.9799 44.4884 47.6603 44.6531L45.6301 45.6996C45.5483 45.7417 45.4817 45.8083 45.4396 45.8901L44.3931 47.9203C44.2284 48.2399 43.7715 48.2399 43.6068 47.9203L42.5604 45.8901C42.5182 45.8083 42.4516 45.7417 42.3699 45.6996L40.3396 44.6531C40.0201 44.4884 40.0201 44.0315 40.3396 43.8668L42.3699 42.8204C42.4516 42.7782 42.5182 42.7117 42.5604 42.6299L43.6068 40.5997Z" fill="url(#paint2_angular_354_436)"/>
<path d="M43.6068 40.5997C43.7715 40.2801 44.2284 40.2801 44.3931 40.5997L45.4396 42.6299C45.4817 42.7117 45.5483 42.7782 45.6301 42.8204L47.6603 43.8668C47.9799 44.0315 47.9799 44.4884 47.6603 44.6531L45.6301 45.6996C45.5483 45.7417 45.4817 45.8083 45.4396 45.8901L44.3931 47.9203C44.2284 48.2399 43.7715 48.2399 43.6068 47.9203L42.5604 45.8901C42.5182 45.8083 42.4516 45.7417 42.3699 45.6996L40.3396 44.6531C40.0201 44.4884 40.0201 44.0315 40.3396 43.8668L42.3699 42.8204C42.4516 42.7782 42.5182 42.7117 42.5604 42.6299L43.6068 40.5997Z" fill="url(#paint3_angular_354_436)" fill-opacity="0.5"/>
<path d="M44.9709 40.3019C44.5642 39.5127 43.4358 39.5127 43.029 40.3019L42.013 42.2731L40.0418 43.2891C39.2527 43.6958 39.2527 44.8242 40.0418 45.2309L42.013 46.2469L43.029 48.2181C43.4358 49.0073 44.5642 49.0073 44.9709 48.2181L45.9869 46.2469L47.9581 45.2309C48.7473 44.8242 48.7473 43.6958 47.9581 43.2891L45.9869 42.2731L44.9709 40.3019Z" stroke="black" stroke-opacity="0.16" stroke-width="1.3"/>
<path fill-rule="evenodd" clip-rule="evenodd" d="M33.7641 48.7204L48.7205 33.764L54.2359 39.2795L39.2795 54.2358L33.7641 48.7204Z" fill="url(#paint4_linear_354_436)" fill-opacity="0.32"/>
<defs>
<filter id="filter0_d_354_436" x="31" y="31" width="26" height="27.3" filterUnits="userSpaceOnUse" color-interpolation-filters="sRGB">
<feFlood flood-opacity="0" result="BackgroundImageFix"/>
<feColorMatrix in="SourceAlpha" type="matrix" values="0 0 0 0 0 0 0 0 0 0 0 0 0 0 0 0 0 0 127 0" result="hardAlpha"/>
<feOffset dy="1.3"/>
<feComposite in2="hardAlpha" operator="out"/>
<feColorMatrix type="matrix" values="0 0 0 0 0.117138 0 0 0 0 0.176258 0 0 0 0 0.202862 0 0 0 1 0"/>
<feBlend mode="normal" in2="BackgroundImageFix" result="effect1_dropShadow_354_436"/>
<feBlend mode="normal" in="SourceGraphic" in2="effect1_dropShadow_354_436" result="shape"/>
</filter>
<linearGradient id="paint0_linear_354_436" x1="36.5" y1="6" x2="14" y2="76" gradientUnits="userSpaceOnUse">
<stop stop-color="#A16322"/>
<stop offset="1" stop-color="#D7B68E"/>
</linearGradient>
<linearGradient id="paint1_linear_354_436" x1="43.9999" y1="58.9564" x2="43.9999" y2="29.0437" gradientUnits="userSpaceOnUse">
<stop stop-color="#8AA8B5"/>
<stop offset="1" stop-color="#DCE5E8"/>
</linearGradient>
<radialGradient id="paint2_angular_354_436" cx="0" cy="0" r="1" gradientUnits="userSpaceOnUse" gradientTransform="translate(44 44.26) rotate(90) scale(3.9)">
<stop stop-color="white"/>
<stop offset="1" stop-color="#E0E0E0"/>
</radialGradient>
<radialGradient id="paint3_angular_354_436" cx="0" cy="0" r="1" gradientUnits="userSpaceOnUse" gradientTransform="translate(44 44.26) rotate(-180) scale(3.9)">
<stop stop-color="white"/>
<stop offset="1" stop-color="#E0E0E0"/>
</radialGradient>
<linearGradient id="paint4_linear_354_436" x1="51.2286" y1="31.8338" x2="31.2146" y2="55.1372" gradientUnits="userSpaceOnUse">
<stop offset="0.125287" stop-color="white" stop-opacity="0"/>
<stop offset="0.195" stop-color="white"/>
<stop offset="0.375692" stop-color="white"/>
<stop offset="0.495" stop-color="white"/>
<stop offset="0.929467" stop-color="white" stop-opacity="0"/>
</linearGradient>
</defs>
</svg>
