<svg width="51" height="51" viewBox="0 0 51 51" fill="none" xmlns="http://www.w3.org/2000/svg">
<path d="M38.1981 43.6349C38.5672 44.162 39.2959 44.2924 39.8039 43.8974C43.3687 41.1258 46.0587 37.3721 47.5342 33.0869C49.1364 28.4337 49.2244 23.3927 47.7856 18.6864C46.3467 13.9801 43.4549 9.85013 39.5245 6.8884C35.5942 3.92667 30.8271 2.28524 25.9065 2.19935C20.9859 2.11346 16.1645 3.58753 12.1332 6.41029C8.10186 9.23304 5.06766 13.2596 3.46543 17.9128C1.86321 22.566 1.77522 27.607 3.21408 32.3133C4.53915 36.6474 7.09649 40.4927 10.5624 43.387C11.0563 43.7995 11.7891 43.6946 12.1764 43.1807C12.5636 42.6667 12.4586 41.9386 11.9669 41.5233C8.89293 38.9272 6.62382 35.4953 5.44265 31.6319C4.14768 27.3963 4.22687 22.8594 5.66887 18.6715C7.11088 14.4836 9.84166 10.8597 13.4698 8.31924C17.098 5.77876 21.4373 4.4521 25.8659 4.5294C30.2944 4.6067 34.5847 6.08399 38.122 8.74954C41.6594 11.4151 44.262 15.1321 45.557 19.3677C46.852 23.6034 46.7728 28.1403 45.3308 32.3282C44.0155 36.148 41.628 39.4986 38.4653 41.9859C37.9594 42.3837 37.829 43.1077 38.1981 43.6349Z" fill="#CAEAE5" fill-opacity="0.3"/>
<path d="M13.8725 44.2546C12.8733 45.8662 10.7384 46.3792 9.27552 45.1728C6.29441 42.7142 3.89893 39.5999 2.28709 36.0551C0.199482 31.4641 -0.479831 26.357 0.335054 21.3799C1.14994 16.4027 3.42242 11.779 6.86513 8.09334C9.52325 5.24767 12.7868 3.05992 16.3963 1.68039C18.1676 1.00342 20.0274 2.1705 20.4604 4.01662C20.8935 5.86275 19.7282 7.68214 17.9927 8.44614C15.6946 9.45783 13.6134 10.9286 11.8833 12.7808C9.36769 15.4739 7.70716 18.8525 7.11172 22.4894C6.51627 26.1262 7.01266 29.858 8.53809 33.2127C9.58721 35.52 11.0907 37.5776 12.9462 39.2694C14.3475 40.5469 14.8717 42.6429 13.8725 44.2546Z" fill="url(#paint0_linear_354_2868)"/>
<g filter="url(#filter0_d_354_2868)">
<path d="M26.9986 32.2943C26.018 33.0293 24.6903 33.0293 23.7097 32.2943L19.0162 28.7763C18.0357 28.0413 17.6254 26.7386 17.9999 25.5493L19.7927 19.8572C20.1672 18.668 21.2414 17.8628 22.4534 17.8628H28.2549C29.4669 17.8628 30.5411 18.668 30.9157 19.8572L32.7084 25.5493C33.0829 26.7386 32.6726 28.0413 31.6921 28.7763L26.9986 32.2943Z" fill="url(#paint1_linear_354_2868)"/>
<path d="M26.6089 31.7744C25.8593 32.3363 24.849 32.3363 24.0994 31.7744L19.4059 28.2564C18.6512 27.6907 18.326 26.677 18.6196 25.7445L20.4124 20.0523C20.7051 19.123 21.5361 18.5125 22.4534 18.5125H28.2549C29.1722 18.5125 30.0032 19.123 30.2959 20.0523L32.0887 25.7445C32.3824 26.677 32.0571 27.6907 31.3024 28.2564L26.6089 31.7744Z" stroke="white" stroke-opacity="0.4" stroke-width="1.29943"/>
</g>
<path d="M25.1156 22.9759C25.2155 22.7821 25.4927 22.7821 25.5926 22.9759L26.2273 24.2075C26.2529 24.2571 26.2933 24.2975 26.3429 24.323L27.5744 24.9578C27.7682 25.0577 27.7682 25.3348 27.5744 25.4347L26.3429 26.0695C26.2933 26.0951 26.2529 26.1355 26.2273 26.1851L25.5926 27.4166C25.4927 27.6104 25.2155 27.6104 25.1156 27.4166L24.4809 26.1851C24.4553 26.1355 24.4149 26.0951 24.3653 26.0695L23.1338 25.4347C22.9399 25.3348 22.9399 25.0577 23.1338 24.9578L24.3653 24.323C24.4149 24.2975 24.4553 24.2571 24.4809 24.2075L25.1156 22.9759Z" fill="url(#paint2_angular_354_2868)"/>
<path d="M25.1156 22.9759C25.2155 22.7821 25.4927 22.7821 25.5926 22.9759L26.2273 24.2075C26.2529 24.2571 26.2933 24.2975 26.3429 24.323L27.5744 24.9578C27.7682 25.0577 27.7682 25.3348 27.5744 25.4347L26.3429 26.0695C26.2933 26.0951 26.2529 26.1355 26.2273 26.1851L25.5926 27.4166C25.4927 27.6104 25.2155 27.6104 25.1156 27.4166L24.4809 26.1851C24.4553 26.1355 24.4149 26.0951 24.3653 26.0695L23.1338 25.4347C22.9399 25.3348 22.9399 25.0577 23.1338 24.9578L24.3653 24.323C24.4149 24.2975 24.4553 24.2571 24.4809 24.2075L25.1156 22.9759Z" fill="url(#paint3_angular_354_2868)" fill-opacity="0.5"/>
<path d="M25.8813 22.8271C25.6605 22.3986 25.0477 22.3986 24.8269 22.8271L24.2004 24.0426L22.985 24.669C22.5564 24.8899 22.5564 25.5026 22.985 25.7235L24.2004 26.35L24.8269 27.5654C25.0477 27.9939 25.6605 27.9939 25.8813 27.5654L26.5078 26.35L27.7232 25.7235C28.1518 25.5026 28.1518 24.8899 27.7232 24.669L26.5078 24.0426L25.8813 22.8271Z" stroke="black" stroke-opacity="0.16" stroke-width="0.649713"/>
<path fill-rule="evenodd" clip-rule="evenodd" d="M19.1711 28.8923L29.7524 18.311C30.2904 18.6626 30.7098 19.2017 30.9164 19.8576L31.8698 22.8848L22.9957 31.759L19.1711 28.8923Z" fill="white" fill-opacity="0.32"/>
<defs>
<filter id="filter0_d_354_2868" x="17.8628" y="17.8628" width="14.9827" height="15.6326" filterUnits="userSpaceOnUse" color-interpolation-filters="sRGB">
<feFlood flood-opacity="0" result="BackgroundImageFix"/>
<feColorMatrix in="SourceAlpha" type="matrix" values="0 0 0 0 0 0 0 0 0 0 0 0 0 0 0 0 0 0 127 0" result="hardAlpha"/>
<feOffset dy="0.649713"/>
<feComposite in2="hardAlpha" operator="out"/>
<feColorMatrix type="matrix" values="0 0 0 0 0.0192593 0 0 0 0 0.300741 0 0 0 0 0.0474074 0 0 0 1 0"/>
<feBlend mode="normal" in2="BackgroundImageFix" result="effect1_dropShadow_354_2868"/>
<feBlend mode="normal" in="SourceGraphic" in2="effect1_dropShadow_354_2868" result="shape"/>
</filter>
<linearGradient id="paint0_linear_354_2868" x1="21.0334" y1="3.45755" x2="8.06762" y2="43.7956" gradientUnits="userSpaceOnUse">
<stop stop-color="#CBD8DE"/>
<stop offset="1" stop-color="#9DB6C0"/>
</linearGradient>
<linearGradient id="paint1_linear_354_2868" x1="25.3543" y1="33.5269" x2="25.3543" y2="16.2091" gradientUnits="userSpaceOnUse">
<stop stop-color="#2DC24E"/>
<stop offset="1" stop-color="#CFF7D2"/>
</linearGradient>
<radialGradient id="paint2_angular_354_2868" cx="0" cy="0" r="1" gradientUnits="userSpaceOnUse" gradientTransform="translate(25.3541 25.1963) rotate(90) scale(2.36569)">
<stop stop-color="white"/>
<stop offset="1" stop-color="#E0E0E0"/>
</radialGradient>
<radialGradient id="paint3_angular_354_2868" cx="0" cy="0" r="1" gradientUnits="userSpaceOnUse" gradientTransform="translate(25.3541 25.1963) rotate(-180) scale(2.36569)">
<stop stop-color="white"/>
<stop offset="1" stop-color="#E0E0E0"/>
</radialGradient>
</defs>
</svg>
