<svg width="51" height="51" viewBox="0 0 51 51" fill="none" xmlns="http://www.w3.org/2000/svg">
<path d="M38.1982 43.6349C38.5673 44.162 39.2959 44.2924 39.804 43.8974C43.3688 41.1258 46.0587 37.3721 47.5343 33.0869C49.1365 28.4337 49.2245 23.3927 47.7856 18.6864C46.3468 13.9801 43.4549 9.85013 39.5246 6.8884C35.5942 3.92667 30.8272 2.28524 25.9066 2.19935C20.986 2.11346 16.1646 3.58753 12.1332 6.41029C8.10193 9.23304 5.06772 13.2596 3.4655 17.9128C1.86327 22.566 1.77528 27.607 3.21414 32.3133C4.53921 36.6474 7.09655 40.4927 10.5624 43.387C11.0564 43.7995 11.7891 43.6946 12.1764 43.1807C12.5637 42.6667 12.4586 41.9386 11.967 41.5233C8.89299 38.9272 6.62388 35.4953 5.44271 31.6319C4.14774 27.3963 4.22693 22.8594 5.66893 18.6715C7.11094 14.4836 9.84172 10.8597 13.4699 8.31924C17.0981 5.77876 21.4374 4.4521 25.8659 4.5294C30.2944 4.6067 34.5848 6.08399 38.1221 8.74954C41.6594 11.4151 44.2621 15.1321 45.557 19.3677C46.852 23.6034 46.7728 28.1403 45.3308 32.3282C44.0155 36.148 41.628 39.4986 38.4653 41.9859C37.9595 42.3837 37.8291 43.1077 38.1982 43.6349Z" fill="#CAEAE5" fill-opacity="0.3"/>
<path d="M13.8725 44.2546C12.8733 45.8662 10.7384 46.3792 9.27552 45.1728C6.29441 42.7142 3.89893 39.5999 2.28709 36.0551C0.199482 31.4641 -0.479831 26.357 0.335054 21.3799C1.14994 16.4027 3.42242 11.779 6.86513 8.09334C9.52325 5.24767 12.7868 3.05992 16.3963 1.68039C18.1676 1.00342 20.0274 2.1705 20.4604 4.01662C20.8935 5.86275 19.7282 7.68214 17.9927 8.44614C15.6946 9.45783 13.6134 10.9286 11.8833 12.7808C9.36769 15.4739 7.70716 18.8525 7.11172 22.4894C6.51627 26.1262 7.01266 29.858 8.53809 33.2127C9.58721 35.52 11.0907 37.5776 12.9462 39.2694C14.3475 40.5469 14.8717 42.6429 13.8725 44.2546Z" fill="url(#paint0_linear_1_753)"/>
<defs>
<linearGradient id="paint0_linear_1_753" x1="21.0334" y1="3.45755" x2="8.06762" y2="43.7956" gradientUnits="userSpaceOnUse">
<stop stop-color="#C2F0C9"/>
<stop offset="1" stop-color="#51CE6B"/>
</linearGradient>
</defs>
</svg>
