<svg width="134" height="138" viewBox="0 0 134 138" fill="none" xmlns="http://www.w3.org/2000/svg">
<g filter="url(#filter0_d_354_2049)">
<path d="M84.151 126.778C74.6518 136.277 59.2506 136.277 49.7514 126.778L7.12439 84.151C-2.3748 74.6518 -2.3748 59.2506 7.12439 49.7514L49.7514 7.12439C59.2506 -2.3748 74.6518 -2.3748 84.151 7.12439L126.778 49.7514C136.277 59.2506 136.277 74.6518 126.778 84.151L84.151 126.778Z" fill="url(#paint0_linear_354_2049)"/>
<path d="M81.3986 124.026C73.4195 132.005 60.4828 132.005 52.5038 124.026L9.87678 81.3986C1.8977 73.4195 1.8977 60.4828 9.87678 52.5038L52.5038 9.87678C60.4828 1.8977 73.4195 1.8977 81.3986 9.87678L124.026 52.5038C132.005 60.4828 132.005 73.4195 124.026 81.3986L81.3986 124.026Z" stroke="white" stroke-opacity="0.4" stroke-width="7.78493"/>
</g>
<path d="M64.9321 49.434C65.7804 47.7883 68.1335 47.7883 68.9817 49.434L74.3709 59.8899C74.588 60.311 74.931 60.654 75.3521 60.8711L85.808 66.2602C87.4537 67.1085 87.4537 69.4616 85.808 70.3099L75.3521 75.6991C74.931 75.9161 74.588 76.2591 74.3709 76.6802L68.9817 87.1361C68.1335 88.7818 65.7804 88.7818 64.9321 87.1361L59.5429 76.6802C59.3259 76.2591 58.9829 75.9161 58.5618 75.6991L48.1059 70.3099C46.4601 69.4616 46.4601 67.1085 48.1059 66.2602L58.5618 60.8711C58.9829 60.654 59.3259 60.311 59.5429 59.8899L64.9321 49.434Z" fill="url(#paint1_angular_354_2049)"/>
<path d="M64.9321 49.434C65.7804 47.7883 68.1335 47.7883 68.9817 49.434L74.3709 59.8899C74.588 60.311 74.931 60.654 75.3521 60.8711L85.808 66.2602C87.4537 67.1085 87.4537 69.4616 85.808 70.3099L75.3521 75.6991C74.931 75.9161 74.588 76.2591 74.3709 76.6802L68.9817 87.1361C68.1335 88.7818 65.7804 88.7818 64.9321 87.1361L59.5429 76.6802C59.3259 76.2591 58.9829 75.9161 58.5618 75.6991L48.1059 70.3099C46.4601 69.4616 46.4601 67.1085 48.1059 66.2602L58.5618 60.8711C58.9829 60.654 59.3259 60.311 59.5429 59.8899L64.9321 49.434Z" fill="url(#paint2_angular_354_2049)" fill-opacity="0.5"/>
<path d="M70.7117 48.5424C69.1387 45.4905 64.7752 45.4905 63.2022 48.5424L57.813 58.9982C57.7814 59.0595 57.7314 59.1095 57.6701 59.1411L47.2142 64.5303C44.1624 66.1033 44.1624 70.4668 47.2142 72.0398L57.6701 77.429C57.7314 77.4606 57.7814 77.5106 57.813 77.5719L63.2022 88.0278C64.7752 91.0796 69.1387 91.0796 70.7117 88.0278L76.1009 77.5719C76.1325 77.5106 76.1825 77.4606 76.2438 77.429L86.6996 72.0398C89.7515 70.4668 89.7515 66.1033 86.6996 64.5303L76.2438 59.1411C76.1825 59.1095 76.1325 59.0595 76.1009 58.9982L70.7117 48.5424Z" stroke="black" stroke-opacity="0.16" stroke-width="3.89247"/>
<path fill-rule="evenodd" clip-rule="evenodd" d="M14.2488 91.2692L91.2754 14.2427L119.68 42.6477L42.6538 119.674L14.2488 91.2692Z" fill="url(#paint3_linear_354_2049)" fill-opacity="0.32"/>
<defs>
<filter id="filter0_d_354_2049" x="0" y="0" width="133.902" height="137.795" filterUnits="userSpaceOnUse" color-interpolation-filters="sRGB">
<feFlood flood-opacity="0" result="BackgroundImageFix"/>
<feColorMatrix in="SourceAlpha" type="matrix" values="0 0 0 0 0 0 0 0 0 0 0 0 0 0 0 0 0 0 127 0" result="hardAlpha"/>
<feOffset dy="3.89247"/>
<feComposite in2="hardAlpha" operator="out"/>
<feColorMatrix type="matrix" values="0 0 0 0 0.117138 0 0 0 0 0.176258 0 0 0 0 0.202862 0 0 0 1 0"/>
<feBlend mode="normal" in2="BackgroundImageFix" result="effect1_dropShadow_354_2049"/>
<feBlend mode="normal" in="SourceGraphic" in2="effect1_dropShadow_354_2049" result="shape"/>
</filter>
<linearGradient id="paint0_linear_354_2049" x1="66.9509" y1="143.978" x2="66.9509" y2="-10.0752" gradientUnits="userSpaceOnUse">
<stop stop-color="#8AA8B5"/>
<stop offset="1" stop-color="#DCE5E8"/>
</linearGradient>
<radialGradient id="paint1_angular_354_2049" cx="0" cy="0" r="1" gradientUnits="userSpaceOnUse" gradientTransform="translate(66.9569 68.2851) rotate(90) scale(20.0854)">
<stop stop-color="white"/>
<stop offset="1" stop-color="#E0E0E0"/>
</radialGradient>
<radialGradient id="paint2_angular_354_2049" cx="0" cy="0" r="1" gradientUnits="userSpaceOnUse" gradientTransform="translate(66.9569 68.2851) rotate(-180) scale(20.0854)">
<stop stop-color="white"/>
<stop offset="1" stop-color="#E0E0E0"/>
</radialGradient>
<linearGradient id="paint3_linear_354_2049" x1="104.193" y1="4.30189" x2="1.11838" y2="124.316" gradientUnits="userSpaceOnUse">
<stop offset="0.125287" stop-color="white" stop-opacity="0"/>
<stop offset="0.195" stop-color="white"/>
<stop offset="0.375692" stop-color="white"/>
<stop offset="0.495" stop-color="white"/>
<stop offset="0.929467" stop-color="white" stop-opacity="0"/>
</linearGradient>
</defs>
</svg>
