<svg width="19" height="20" viewBox="0 0 19 20" fill="none" xmlns="http://www.w3.org/2000/svg">
<g filter="url(#filter0_d_354_3578)">
<path fill-rule="evenodd" clip-rule="evenodd" d="M4.8623 6.97461H9.93452V16.6061C9.93452 16.8418 9.68652 16.995 9.47573 16.8896L7.39841 15.851L5.32109 16.8896C5.11031 16.995 4.8623 16.8418 4.8623 16.6061V6.97461Z" fill="#7F45F6"/>
</g>
<g filter="url(#filter1_d_354_3578)">
<path fill-rule="evenodd" clip-rule="evenodd" d="M6.13037 7.92554H11.2026V17.557C11.2026 17.7927 10.9546 17.946 10.7438 17.8406L8.66648 16.8019L6.58916 17.8406C6.37837 17.946 6.13037 17.7927 6.13037 17.557V7.92554Z" fill="#50E2C2"/>
</g>
<g filter="url(#filter2_d_354_3578)">
<path fill-rule="evenodd" clip-rule="evenodd" d="M9.93451 6.97461H15.0067V16.6061C15.0067 16.8418 14.7587 16.995 14.5479 16.8896L12.4706 15.851L10.3933 16.8896C10.1825 16.995 9.93451 16.8418 9.93451 16.6061V6.97461Z" fill="#7F45F6"/>
</g>
<g filter="url(#filter3_d_354_3578)">
<path fill-rule="evenodd" clip-rule="evenodd" d="M8.66644 7.92554H13.7387V17.557C13.7387 17.7927 13.4907 17.946 13.2799 17.8406L11.2026 16.8019L9.12523 17.8406C8.91445 17.946 8.66644 17.7927 8.66644 17.557V7.92554Z" fill="#50E2C2"/>
</g>
<g filter="url(#filter4_d_354_3578)">
<path fill-rule="evenodd" clip-rule="evenodd" d="M7.3988 8.55933H12.471V18.1908C12.471 18.4265 12.223 18.5798 12.0122 18.4744L9.93491 17.4357L7.85759 18.4744C7.64681 18.5798 7.3988 18.4265 7.3988 18.1908V8.55933Z" fill="white"/>
</g>
<mask id="mask0_354_3578" style="mask-type:luminance" maskUnits="userSpaceOnUse" x="7" y="8" width="6" height="11">
<path fill-rule="evenodd" clip-rule="evenodd" d="M7.3988 8.55933H12.471V18.1908C12.471 18.4265 12.223 18.5798 12.0122 18.4744L9.93491 17.4357L7.85759 18.4744C7.64681 18.5798 7.3988 18.4265 7.3988 18.1908V8.55933Z" fill="white"/>
</mask>
<g mask="url(#mask0_354_3578)">
<rect x="8.66687" y="8.55933" width="2.53611" height="10.1444" fill="#F55462"/>
</g>
<path style="mix-blend-mode:multiply" opacity="0.1" fill-rule="evenodd" clip-rule="evenodd" d="M9.29957 2.10934C9.69191 1.88282 10.1753 1.88282 10.5676 2.10934L15.614 5.02288C16.0064 5.2494 16.2481 5.66802 16.2481 6.12105V11.9481C16.2481 12.4012 16.0064 12.8198 15.614 13.0463L10.5676 15.9598C10.1753 16.1864 9.69191 16.1864 9.29957 15.9598L4.25317 13.0463C3.86083 12.8198 3.61914 12.4012 3.61914 11.9481L3.61914 6.12105C3.61914 5.66802 3.86083 5.2494 4.25317 5.02288L9.29957 2.10934Z" fill="black"/>
<path fill-rule="evenodd" clip-rule="evenodd" d="M6.38914 8.91433L4.80407 8.28031V7.96329L3.21588 7.30155C3.07859 7.24434 2.93172 7.35975 2.95482 7.50668L3.17718 8.92036C3.19393 9.02681 3.2636 9.11747 3.36215 9.16104L6.38914 10.4994V8.91433Z" fill="url(#paint0_linear_354_3578)" stroke="url(#paint1_linear_354_3578)" stroke-width="0.317013" stroke-linecap="round" stroke-linejoin="round"/>
<path fill-rule="evenodd" clip-rule="evenodd" d="M5.75516 7.32937L4.1701 6.69534V6.37833L2.58191 5.71659C2.44462 5.65938 2.29774 5.77479 2.32085 5.92172L2.54321 7.3354C2.55995 7.44185 2.62962 7.53251 2.72818 7.57608L5.75516 8.91444V7.32937Z" fill="url(#paint2_linear_354_3578)" stroke="url(#paint3_linear_354_3578)" stroke-width="0.317013" stroke-linecap="round" stroke-linejoin="round"/>
<path fill-rule="evenodd" clip-rule="evenodd" d="M5.12113 5.74417L3.53606 5.11014V4.79313L1.94787 4.13138C1.81058 4.07418 1.66371 4.18959 1.68682 4.33651L1.90918 5.75019C1.92592 5.85664 1.99559 5.9473 2.09415 5.99088L5.12113 7.32923V5.74417Z" fill="url(#paint4_linear_354_3578)" stroke="url(#paint5_linear_354_3578)" stroke-width="0.317013" stroke-linecap="round" stroke-linejoin="round"/>
<path fill-rule="evenodd" clip-rule="evenodd" d="M4.48715 4.15886L2.90208 3.52483V3.20782L1.31389 2.54607C1.1766 2.48887 1.02973 2.60428 1.05284 2.7512L1.27519 4.16489C1.29194 4.27134 1.36161 4.36199 1.46016 4.40557L4.48715 5.74392V4.15886Z" fill="url(#paint6_linear_354_3578)" stroke="url(#paint7_linear_354_3578)" stroke-width="0.317013" stroke-linecap="round" stroke-linejoin="round"/>
<mask id="mask1_354_3578" style="mask-type:luminance" maskUnits="userSpaceOnUse" x="0" y="2" width="7" height="9">
<path fill-rule="evenodd" clip-rule="evenodd" d="M1.75885 4.79463C1.73181 4.62271 1.61929 4.47629 1.46011 4.40591C1.36156 4.36234 1.29189 4.27168 1.27514 4.16523L1.05279 2.75155C1.04733 2.71683 1.05159 2.68128 1.06511 2.64884C1.10551 2.55187 1.21687 2.50602 1.31384 2.54642L2.75685 3.14767C2.84476 3.1843 2.90203 3.27021 2.90203 3.36545C2.90203 3.46192 2.96076 3.54867 3.05034 3.5845L4.08854 3.99978C4.32926 4.09607 4.4871 4.32921 4.4871 4.58846V5.14923C4.4871 5.35544 4.61265 5.54088 4.80411 5.61747C4.99558 5.69405 5.12113 5.87949 5.12113 6.08571V6.7343C5.12113 6.94051 5.24667 7.12595 5.43814 7.20254C5.6296 7.27912 5.75515 7.46456 5.75515 7.67077V8.31936C5.75515 8.52558 5.8807 8.71102 6.07217 8.7876C6.26363 8.86419 6.38918 9.04963 6.38918 9.25584V9.52591C6.38918 9.9842 5.91791 10.2911 5.49876 10.1058L3.36219 9.16112C3.26364 9.11754 3.19397 9.02689 3.17722 8.92044L3.02691 7.96477C2.99987 7.79284 2.88734 7.64643 2.72817 7.57605C2.62961 7.53247 2.55994 7.44182 2.5432 7.33537L2.39288 6.3797C2.36584 6.20778 2.25331 6.06136 2.09414 5.99098C1.99558 5.94741 1.92591 5.85675 1.90917 5.7503L1.75885 4.79463Z" fill="white" stroke="white" stroke-width="0.317013"/>
</mask>
<g mask="url(#mask1_354_3578)">
<g opacity="0.1">
<path fill-rule="evenodd" clip-rule="evenodd" d="M8.98298 0.529721C9.57149 0.189947 10.2966 0.189947 10.8851 0.529721L15.8617 3.40299C16.4502 3.74276 16.8127 4.37069 16.8127 5.05024V10.7968C16.8127 11.4763 16.4502 12.1042 15.8617 12.444L10.8851 15.3173C10.2966 15.6571 9.57149 15.6571 8.98298 15.3173L4.00634 12.444C3.41783 12.1042 3.0553 11.4763 3.0553 10.7968L3.0553 5.05024C3.0553 4.37069 3.41783 3.74276 4.00634 3.40299L8.98298 0.529721Z" fill="black" style="mix-blend-mode:multiply"/>
</g>
</g>
<path fill-rule="evenodd" clip-rule="evenodd" d="M13.4797 8.91531L15.0648 8.28128V7.96427L16.653 7.30252C16.7902 7.24532 16.9371 7.36073 16.914 7.50765L16.6917 8.92134C16.6749 9.02779 16.6052 9.11844 16.5067 9.16202L13.4797 10.5004V8.91531Z" fill="url(#paint8_linear_354_3578)" stroke="url(#paint9_linear_354_3578)" stroke-width="0.317013" stroke-linecap="round" stroke-linejoin="round"/>
<path fill-rule="evenodd" clip-rule="evenodd" d="M14.1137 7.33035L15.6988 6.69632V6.37931L17.287 5.71756C17.4243 5.66036 17.5712 5.77577 17.548 5.92269L17.3257 7.33638C17.3089 7.44283 17.2393 7.53348 17.1407 7.57706L14.1137 8.91542V7.33035Z" fill="url(#paint10_linear_354_3578)" stroke="url(#paint11_linear_354_3578)" stroke-width="0.317013" stroke-linecap="round" stroke-linejoin="round"/>
<path fill-rule="evenodd" clip-rule="evenodd" d="M14.7478 5.74514L16.3328 5.11112V4.7941L17.921 4.13236C18.0583 4.07515 18.2052 4.19056 18.1821 4.33749L17.9597 5.75117C17.943 5.85762 17.8733 5.94828 17.7748 5.99185L14.7478 7.33021V5.74514Z" fill="url(#paint12_linear_354_3578)" stroke="url(#paint13_linear_354_3578)" stroke-width="0.317013" stroke-linecap="round" stroke-linejoin="round"/>
<path fill-rule="evenodd" clip-rule="evenodd" d="M15.3818 4.16018L16.9669 3.52615V3.20914L18.5551 2.5474C18.6923 2.49019 18.8392 2.6056 18.8161 2.75253L18.5938 4.16621C18.577 4.27266 18.5073 4.36332 18.4088 4.40689L15.3818 5.74525V4.16018Z" fill="url(#paint14_linear_354_3578)" stroke="url(#paint15_linear_354_3578)" stroke-width="0.317013" stroke-linecap="round" stroke-linejoin="round"/>
<mask id="mask2_354_3578" style="mask-type:luminance" maskUnits="userSpaceOnUse" x="13" y="2" width="6" height="9">
<path fill-rule="evenodd" clip-rule="evenodd" d="M18.11 4.79561C18.1371 4.62368 18.2496 4.47727 18.4088 4.40689C18.5073 4.36332 18.577 4.27266 18.5938 4.16621L18.8161 2.75253C18.8216 2.71781 18.8173 2.68226 18.8038 2.64982C18.7634 2.55285 18.652 2.50699 18.5551 2.5474L17.1121 3.14865C17.0241 3.18528 16.9669 3.27118 16.9669 3.36643C16.9669 3.4629 16.9081 3.54965 16.8186 3.58548L15.7804 4.00076C15.5396 4.09705 15.3818 4.33018 15.3818 4.58944V5.1502C15.3818 5.35642 15.2563 5.54186 15.0648 5.61844C14.8733 5.69503 14.7478 5.88047 14.7478 6.08668V6.73527C14.7478 6.94149 14.6222 7.12693 14.4308 7.20351C14.2393 7.2801 14.1137 7.46554 14.1137 7.67175V8.32034C14.1137 8.52655 13.9882 8.71199 13.7967 8.78858C13.6053 8.86517 13.4797 9.0506 13.4797 9.25682V9.52689C13.4797 9.98518 13.951 10.2921 14.3701 10.1068L16.5067 9.16209C16.6053 9.11852 16.6749 9.02786 16.6917 8.92141L16.842 7.96575C16.869 7.79382 16.9816 7.6474 17.1407 7.57703C17.2393 7.53345 17.309 7.4428 17.3257 7.33635L17.476 6.38068C17.5031 6.20875 17.6156 6.06234 17.7748 5.99196C17.8733 5.94838 17.943 5.85773 17.9597 5.75128L18.11 4.79561Z" fill="white" stroke="white" stroke-width="0.317013"/>
</mask>
<g mask="url(#mask2_354_3578)">
<g opacity="0.1">
<path fill-rule="evenodd" clip-rule="evenodd" d="M10.8849 0.53143C10.2964 0.191656 9.57136 0.191656 8.98286 0.53143L4.00621 3.4047C3.41771 3.74447 3.05517 4.3724 3.05517 5.05195V10.7985C3.05517 11.478 3.41771 12.106 4.00622 12.4457L8.98286 15.319C9.57136 15.6588 10.2964 15.6588 10.8849 15.319L15.8616 12.4457C16.4501 12.106 16.8126 11.478 16.8126 10.7985L16.8126 5.05195C16.8126 4.3724 16.4501 3.74447 15.8616 3.4047L10.8849 0.53143Z" fill="black" style="mix-blend-mode:multiply"/>
</g>
</g>
<path fill-rule="evenodd" clip-rule="evenodd" d="M4.2278 9.82666L3.11 10.3856C3.01602 10.4325 2.95143 10.5231 2.93754 10.6272L2.69352 12.4573C2.67271 12.6134 2.83972 12.7257 2.97643 12.6476L4.86182 11.5702L4.2278 9.82666Z" fill="url(#paint16_linear_354_3578)" stroke="url(#paint17_linear_354_3578)" stroke-width="0.317013" stroke-linecap="round" stroke-linejoin="round"/>
<path fill-rule="evenodd" clip-rule="evenodd" d="M15.6403 9.82666L16.7581 10.3856C16.8521 10.4325 16.9167 10.5231 16.9306 10.6272L17.1746 12.4573C17.1954 12.6134 17.0284 12.7257 16.8917 12.6476L15.0063 11.5702L15.6403 9.82666Z" fill="url(#paint18_linear_354_3578)" stroke="url(#paint19_linear_354_3578)" stroke-width="0.317013" stroke-linecap="round" stroke-linejoin="round"/>
<path d="M12.5435 1.60149C12.6855 1.68156 12.6287 1.89807 12.4657 1.89807H7.40314C7.24001 1.89807 7.18326 1.68134 7.32546 1.60139L9.86045 0.176171C9.90875 0.149017 9.96772 0.149054 10.016 0.176269L12.5435 1.60149Z" fill="url(#paint20_linear_354_3578)" stroke="url(#paint21_linear_354_3578)" stroke-width="0.317013" stroke-linecap="round" stroke-linejoin="round"/>
<g filter="url(#filter5_i_354_3578)">
<path fill-rule="evenodd" clip-rule="evenodd" d="M15.6406 12.3732C15.6406 12.4864 15.5802 12.5911 15.4821 12.6477L10.8854 15.3016C10.2969 15.6414 9.57186 15.6414 8.98335 15.3016L4.38666 12.6477C4.28857 12.5911 4.22815 12.4864 4.22815 12.3732V11.1364C4.22815 10.892 4.49296 10.7396 4.7043 10.8622L9.04321 13.3807C9.59428 13.7005 10.2745 13.7005 10.8256 13.3807L15.1645 10.8622C15.3758 10.7396 15.6406 10.892 15.6406 11.1364V12.3732Z" fill="url(#paint22_linear_354_3578)"/>
</g>
<path d="M15.4821 12.3732C15.4821 12.4298 15.4519 12.4821 15.4029 12.5105L10.8062 15.1644C10.2667 15.4758 9.60207 15.4758 9.0626 15.1644L4.46591 12.5105C4.41687 12.4821 4.38666 12.4298 4.38666 12.3732V11.1364C4.38666 11.0142 4.51906 10.938 4.62473 10.9993L8.96364 13.5177C9.56392 13.8662 10.3049 13.8662 10.9051 13.5177L15.2441 10.9993C15.3497 10.938 15.4821 11.0142 15.4821 11.1364V12.3732Z" stroke="url(#paint23_linear_354_3578)" stroke-width="0.317013" stroke-linecap="round" stroke-linejoin="round"/>
<mask id="path-26-inside-1_354_3578" fill="white">
<path fill-rule="evenodd" clip-rule="evenodd" d="M8.66744 1.17667C8.66753 1.17986 8.66758 1.18306 8.66758 1.18628V2.36681C8.66758 2.40746 8.65979 2.44707 8.64521 2.48378C8.62179 2.54296 8.58074 2.59463 8.52625 2.63095L6.18141 4.19384C6.17787 4.19621 6.17431 4.19849 6.17075 4.20069L5.35544 4.74411C5.14477 4.88453 4.86261 4.73351 4.86261 4.48032V3.03561C4.86261 2.92285 4.92251 2.81857 5.01991 2.76176L7.28411 1.44126L8.08668 0.237671C8.26068 -0.0232755 8.66744 0.0999061 8.66744 0.413546V1.17667Z"/>
</mask>
<path fill-rule="evenodd" clip-rule="evenodd" d="M8.66744 1.17667C8.66753 1.17986 8.66758 1.18306 8.66758 1.18628V2.36681C8.66758 2.40746 8.65979 2.44707 8.64521 2.48378C8.62179 2.54296 8.58074 2.59463 8.52625 2.63095L6.18141 4.19384C6.17787 4.19621 6.17431 4.19849 6.17075 4.20069L5.35544 4.74411C5.14477 4.88453 4.86261 4.73351 4.86261 4.48032V3.03561C4.86261 2.92285 4.92251 2.81857 5.01991 2.76176L7.28411 1.44126L8.08668 0.237671C8.26068 -0.0232755 8.66744 0.0999061 8.66744 0.413546V1.17667Z" fill="url(#paint24_linear_354_3578)"/>
<path d="M8.66744 1.17667H8.3503L8.35056 1.18574L8.66744 1.17667ZM8.64521 2.48378L8.35058 2.36679L8.35044 2.36714L8.64521 2.48378ZM8.52625 2.63095L8.70207 2.89474L8.70207 2.89474L8.52625 2.63095ZM6.18141 4.19384L6.35723 4.45763L6.35724 4.45763L6.18141 4.19384ZM6.17075 4.20069L6.0039 3.93092L5.99493 3.9369L6.17075 4.20069ZM5.35544 4.74411L5.17962 4.48032H5.17962L5.35544 4.74411ZM5.01991 2.76176L4.86021 2.48792H4.86021L5.01991 2.76176ZM7.28411 1.44126L7.44382 1.71511C7.48551 1.6908 7.52109 1.65729 7.54786 1.61714L7.28411 1.44126ZM8.08668 0.237671L7.82292 0.061798V0.0617981L8.08668 0.237671ZM8.35056 1.18574C8.35056 1.1859 8.35057 1.18608 8.35057 1.18628H8.98459C8.98459 1.18004 8.9845 1.17381 8.98433 1.16759L8.35056 1.18574ZM8.35057 1.18628V2.36681H8.98459V1.18628H8.35057ZM8.35057 2.36681L8.35058 2.36679L8.93985 2.60077C8.96901 2.52733 8.98459 2.44805 8.98459 2.36681H8.35057ZM8.35044 2.36714L8.35043 2.36716L8.70207 2.89474C8.81108 2.82208 8.89318 2.71871 8.93999 2.60043L8.35044 2.36714ZM8.35043 2.36716L6.00559 3.93005L6.35724 4.45763L8.70207 2.89474L8.35043 2.36716ZM6.00559 3.93005C6.00502 3.93043 6.00449 3.93077 6.004 3.93108L6.3375 4.47031C6.34413 4.4662 6.35071 4.46198 6.35723 4.45763L6.00559 3.93005ZM5.99493 3.9369L5.17962 4.48032L5.53127 5.0079L6.34657 4.46448L5.99493 3.9369ZM5.17962 4.48032H5.17962H4.5456C4.5456 4.98669 5.10992 5.28874 5.53127 5.0079L5.17962 4.48032ZM5.17962 4.48032V3.03561H4.5456V4.48032H5.17962ZM5.17962 3.03561L5.17962 3.03561L4.86021 2.48792C4.66539 2.60154 4.5456 2.81008 4.5456 3.03561H5.17962ZM5.17962 3.03561L7.44382 1.71511L7.1244 1.16742L4.86021 2.48792L5.17962 3.03561ZM7.54786 1.61714L8.35043 0.413545L7.82292 0.0617981L7.02036 1.26539L7.54786 1.61714ZM8.35043 0.413545L8.35043 0.413546H8.98446C8.98446 -0.21373 8.17093 -0.460098 7.82292 0.061798L8.35043 0.413545ZM8.35043 0.413546V1.17667H8.98446V0.413546H8.35043Z" fill="url(#paint25_linear_354_3578)" mask="url(#path-26-inside-1_354_3578)"/>
<mask id="path-28-inside-2_354_3578" fill="white">
<path fill-rule="evenodd" clip-rule="evenodd" d="M11.3435 2.63095C11.2553 2.57216 11.2023 2.47317 11.2023 2.36716V0.413546C11.2023 0.0999061 11.609 -0.0232755 11.783 0.237671L12.5854 1.44097L14.8501 2.76176C14.9475 2.81857 15.0074 2.92285 15.0074 3.03561V4.48032C15.0074 4.73351 14.7253 4.88453 14.5146 4.74411L13.7026 4.20293C13.6978 4.20004 13.6931 4.19702 13.6883 4.19384L11.3435 2.63095Z"/>
</mask>
<path fill-rule="evenodd" clip-rule="evenodd" d="M11.3435 2.63095C11.2553 2.57216 11.2023 2.47317 11.2023 2.36716V0.413546C11.2023 0.0999061 11.609 -0.0232755 11.783 0.237671L12.5854 1.44097L14.8501 2.76176C14.9475 2.81857 15.0074 2.92285 15.0074 3.03561V4.48032C15.0074 4.73351 14.7253 4.88453 14.5146 4.74411L13.7026 4.20293C13.6978 4.20004 13.6931 4.19702 13.6883 4.19384L11.3435 2.63095Z" fill="url(#paint26_linear_354_3578)"/>
<path d="M11.3435 2.63095L11.5193 2.36716H11.5193L11.3435 2.63095ZM11.783 0.237671L11.5193 0.413545L11.783 0.237671ZM12.5854 1.44097L12.3217 1.61684C12.3484 1.65699 12.384 1.6905 12.4257 1.71481L12.5854 1.44097ZM14.8501 2.76176L15.0098 2.48792H15.0098L14.8501 2.76176ZM14.5146 4.74411L14.6904 4.48032H14.6904L14.5146 4.74411ZM13.7026 4.20293L13.8784 3.93914C13.8744 3.93645 13.8703 3.93386 13.8662 3.93136L13.7026 4.20293ZM13.6883 4.19384L13.8641 3.93005L13.8641 3.93005L13.6883 4.19384ZM10.8853 2.36716C10.8853 2.57917 10.9912 2.77715 11.1676 2.89474L11.5193 2.36716L11.5193 2.36716H10.8853ZM10.8853 0.413546V2.36716H11.5193V0.413546H10.8853ZM12.0468 0.0617981C11.6988 -0.460098 10.8853 -0.21373 10.8853 0.413546H11.5193L11.5193 0.413545L12.0468 0.0617981ZM12.8492 1.26509L12.0468 0.0617981L11.5193 0.413545L12.3217 1.61684L12.8492 1.26509ZM15.0098 2.48792L12.7451 1.16712L12.4257 1.71481L14.6904 3.03561L15.0098 2.48792ZM15.3244 3.03561C15.3244 2.81008 15.2046 2.60154 15.0098 2.48792L14.6904 3.03561L14.6904 3.03561H15.3244ZM15.3244 4.48032V3.03561H14.6904V4.48032H15.3244ZM14.3388 5.0079C14.7601 5.28874 15.3244 4.98669 15.3244 4.48032H14.6904H14.6904L14.3388 5.0079ZM13.5268 4.46672L14.3388 5.0079L14.6904 4.48032L13.8784 3.93914L13.5268 4.46672ZM13.5125 4.45763C13.5212 4.46347 13.5301 4.46909 13.5391 4.47449L13.8662 3.93136C13.8656 3.931 13.8649 3.93056 13.8641 3.93005L13.5125 4.45763ZM11.1676 2.89474L13.5125 4.45763L13.8641 3.93005L11.5193 2.36716L11.1676 2.89474Z" fill="url(#paint27_linear_354_3578)" mask="url(#path-28-inside-2_354_3578)"/>
<path fill-rule="evenodd" clip-rule="evenodd" d="M9.29986 0.998869C9.6922 0.772353 10.1756 0.772352 10.5679 0.998868L15.6143 3.91241C16.0067 4.13893 16.2483 4.55755 16.2483 5.01058V10.8377C16.2483 11.2907 16.0067 11.7093 15.6143 11.9358L10.5679 14.8494C10.1756 15.0759 9.6922 15.0759 9.29986 14.8494L4.25346 11.9358C3.86112 11.7093 3.61943 11.2907 3.61943 10.8377V5.01058C3.61943 4.55755 3.86112 4.13893 4.25346 3.91241L9.29986 0.998869Z" fill="url(#paint28_linear_354_3578)" stroke="#FFF04D" stroke-opacity="0.4" stroke-width="0.317013"/>
<mask id="mask3_354_3578" style="mask-type:luminance" maskUnits="userSpaceOnUse" x="3" y="0" width="14" height="16">
<path fill-rule="evenodd" clip-rule="evenodd" d="M9.29986 0.998869C9.6922 0.772353 10.1756 0.772352 10.5679 0.998868L15.6143 3.91241C16.0067 4.13893 16.2483 4.55755 16.2483 5.01058V10.8377C16.2483 11.2907 16.0067 11.7093 15.6143 11.9358L10.5679 14.8494C10.1756 15.0759 9.6922 15.0759 9.29986 14.8494L4.25346 11.9358C3.86112 11.7093 3.61943 11.2907 3.61943 10.8377V5.01058C3.61943 4.55755 3.86112 4.13893 4.25346 3.91241L9.29986 0.998869Z" fill="white"/>
</mask>
<g mask="url(#mask3_354_3578)">
<g style="mix-blend-mode:multiply" opacity="0.4">
<path d="M9.93395 7.92422L11.836 0.315918H8.03187L9.93395 7.92422L5.89904 1.19937L3.20909 3.88932L9.93395 7.92422L2.32562 6.02216V9.82632L9.93395 7.92422L3.20909 11.9592L5.89904 14.6491L9.93395 7.92422L8.03187 15.5326H11.836L9.93395 7.92422L13.9689 14.6491L16.6588 11.9592L9.93395 7.92422L17.5423 9.82632V6.02216L9.93395 7.92422L16.6588 3.88932L13.9689 1.19937L9.93395 7.92422Z" fill="#FFD640"/>
</g>
<g filter="url(#filter6_di_354_3578)">
<path fill-rule="evenodd" clip-rule="evenodd" d="M14.9017 4.49855L10.4146 1.90485C10.1171 1.73289 9.75053 1.73289 9.45303 1.90485L4.96588 4.49855C4.66838 4.67051 4.48512 4.98831 4.48512 5.33224V7.20278L4.12138 7.74902C4.05052 7.85543 4.05052 7.99401 4.12138 8.10042L4.48512 8.64667V10.5196C4.48512 10.8636 4.66838 11.1814 4.96588 11.3533L9.45303 13.947C9.75053 14.119 10.1171 14.119 10.4146 13.947L14.9017 11.3533C15.1992 11.1814 15.3825 10.8636 15.3825 10.5196V8.64687L15.7463 8.10042C15.8172 7.99401 15.8172 7.85544 15.7463 7.74902L15.3825 7.20257V5.33224C15.3825 4.98831 15.1992 4.67051 14.9017 4.49855ZM4.80554 8.6469V10.5195C4.80554 10.7488 4.92771 10.9606 5.12605 11.0753L9.61319 13.669C9.81153 13.7836 10.0559 13.7836 10.2542 13.669L14.7414 11.0753C14.9397 10.9606 15.0619 10.7488 15.0619 10.5195V8.64642L14.6983 8.10042C14.6274 7.99401 14.6274 7.85543 14.6983 7.74902L15.0619 7.20302V5.33208C15.0619 5.1028 14.9397 4.89093 14.7414 4.77629L10.2542 2.18259C10.0559 2.06795 9.81153 2.06795 9.61319 2.18259L5.12605 4.77629C4.92771 4.89093 4.80554 5.1028 4.80554 5.33208V7.20254L5.16943 7.74902C5.24029 7.85544 5.24029 7.99401 5.16943 8.10042L4.80554 8.6469Z" fill="#676763"/>
</g>
<mask id="mask4_354_3578" style="mask-type:luminance" maskUnits="userSpaceOnUse" x="4" y="1" width="12" height="14">
<path fill-rule="evenodd" clip-rule="evenodd" d="M14.9017 4.49855L10.4146 1.90485C10.1171 1.73289 9.75053 1.73289 9.45303 1.90485L4.96588 4.49855C4.66838 4.67051 4.48512 4.98831 4.48512 5.33224V7.20278L4.12138 7.74902C4.05052 7.85543 4.05052 7.99401 4.12138 8.10042L4.48512 8.64667V10.5196C4.48512 10.8636 4.66838 11.1814 4.96588 11.3533L9.45303 13.947C9.75053 14.119 10.1171 14.119 10.4146 13.947L14.9017 11.3533C15.1992 11.1814 15.3825 10.8636 15.3825 10.5196V8.64687L15.7463 8.10042C15.8172 7.99401 15.8172 7.85544 15.7463 7.74902L15.3825 7.20257V5.33224C15.3825 4.98831 15.1992 4.67051 14.9017 4.49855ZM4.80554 8.6469V10.5195C4.80554 10.7488 4.92771 10.9606 5.12605 11.0753L9.61319 13.669C9.81153 13.7836 10.0559 13.7836 10.2542 13.669L14.7414 11.0753C14.9397 10.9606 15.0619 10.7488 15.0619 10.5195V8.64642L14.6983 8.10042C14.6274 7.99401 14.6274 7.85543 14.6983 7.74902L15.0619 7.20302V5.33208C15.0619 5.1028 14.9397 4.89093 14.7414 4.77629L10.2542 2.18259C10.0559 2.06795 9.81153 2.06795 9.61319 2.18259L5.12605 4.77629C4.92771 4.89093 4.80554 5.1028 4.80554 5.33208V7.20254L5.16943 7.74902C5.24029 7.85544 5.24029 7.99401 5.16943 8.10042L4.80554 8.6469Z" fill="white"/>
</mask>
<g mask="url(#mask4_354_3578)">
<g style="mix-blend-mode:multiply" opacity="0.4">
<path fill-rule="evenodd" clip-rule="evenodd" d="M9.93389 7.92497L2.32556 6.02289V9.82705L9.93389 7.92497ZM9.93389 7.92497L11.836 0.31665H8.0318L9.93389 7.92497ZM9.93389 7.92497L17.5422 9.82705V6.02289L9.93389 7.92497ZM9.93389 7.92497L13.9688 1.2001L16.6588 3.89005L9.93389 7.92497ZM9.93389 7.92497L16.6588 11.9599L13.9688 14.6498L9.93389 7.92497ZM9.93389 7.92497L5.89896 14.6498L3.20901 11.9599L9.93389 7.92497ZM9.93389 7.92497L11.836 15.5333H8.0318L9.93389 7.92497Z" fill="#5A5951"/>
<path d="M5.89896 1.2001L3.20901 3.89005L9.93389 7.92497L5.89896 1.2001Z" fill="#5A5951"/>
</g>
</g>
<path d="M10.4886 1.13644C10.1453 0.938243 9.72237 0.938243 9.37907 1.13644L4.33267 4.04999C3.98937 4.24819 3.77789 4.61448 3.77789 5.01088L3.77789 10.838C3.77789 11.2344 3.98937 11.6007 4.33267 11.7989L9.37907 14.7124C9.72237 14.9106 10.1453 14.9106 10.4886 14.7124L15.535 11.7989C15.8783 11.6007 16.0898 11.2344 16.0898 10.838V5.01088C16.0898 4.61448 15.8783 4.24819 15.535 4.04999L10.4886 1.13644Z" stroke="#FAB90A" stroke-width="0.317013"/>
<path opacity="0.4" d="M10.4888 14.7123C11.0823 14.3696 11.5028 14.1268 11.7504 13.9839" stroke="white" stroke-width="0.317013" stroke-linecap="round"/>
<path d="M16.0898 10.838V5.01088C16.0898 4.61448 15.8783 4.24819 15.535 4.04999L10.4886 1.13644C10.1453 0.938243 9.72237 0.938243 9.37907 1.13644L4.33267 4.04999C3.98937 4.24819 3.77789 4.61448 3.77789 5.01088L3.77789 10.838" stroke="#FAC81C" stroke-width="0.317013" stroke-linecap="round"/>
<path opacity="0.6" d="M16.0898 5.01088C16.0898 4.61448 15.8783 4.24819 15.535 4.04999L10.4886 1.13644C10.1453 0.938243 9.72237 0.938243 9.37907 1.13644L4.33267 4.04999C3.98937 4.24819 3.77789 4.61448 3.77789 5.01088" stroke="#FFE56A" stroke-width="0.317013" stroke-linecap="round"/>
<path opacity="0.6" d="M10.4888 1.13644C10.1455 0.938243 9.72258 0.938243 9.37928 1.13644C9.37928 1.13644 7.69715 2.10763 6.85608 2.59322" stroke="white" stroke-width="0.317013" stroke-linecap="round"/>
<path d="M9.37922 1.13623C9.37922 1.13623 8.48896 1.65022 8.11761 1.86462" stroke="white" stroke-width="0.317013" stroke-linecap="round"/>
</g>
<g filter="url(#filter7_d_354_3578)">
<path fill-rule="evenodd" clip-rule="evenodd" d="M9.61751 3.03459C9.81368 2.92133 10.0554 2.92133 10.2515 3.03459L14.0102 5.20464C14.2063 5.3179 14.3272 5.52721 14.3272 5.75373V10.0938C14.3272 10.3203 14.2063 10.5297 14.0102 10.6429L10.2515 12.813C10.0554 12.9262 9.81368 12.9262 9.61751 12.813L5.85887 10.6429C5.6627 10.5297 5.54185 10.3203 5.54185 10.0938V5.75373C5.54185 5.52721 5.6627 5.3179 5.85887 5.20464L9.61751 3.03459Z" fill="url(#paint29_linear_354_3578)"/>
<path d="M10.3308 2.89732C10.0856 2.75575 9.78346 2.75575 9.53825 2.89732L5.77961 5.06737C5.5344 5.20894 5.38335 5.47058 5.38335 5.75373V10.0938C5.38335 10.377 5.5344 10.6386 5.77961 10.7802L9.53825 12.9502C9.78346 13.0918 10.0856 13.0918 10.3308 12.9502L14.0894 10.7802C14.3346 10.6386 14.4857 10.377 14.4857 10.0938V5.75373C14.4857 5.47058 14.3346 5.20894 14.0894 5.06737L10.3308 2.89732Z" stroke="#F5900D" stroke-opacity="0.1" stroke-width="0.317013" style="mix-blend-mode:multiply"/>
</g>
<mask id="mask5_354_3578" style="mask-type:luminance" maskUnits="userSpaceOnUse" x="5" y="2" width="10" height="11">
<path fill-rule="evenodd" clip-rule="evenodd" d="M9.61751 3.03459C9.81368 2.92133 10.0554 2.92133 10.2515 3.03459L14.0102 5.20464C14.2063 5.3179 14.3272 5.52721 14.3272 5.75373V10.0938C14.3272 10.3203 14.2063 10.5297 14.0102 10.6429L10.2515 12.813C10.0554 12.9262 9.81368 12.9262 9.61751 12.813L5.85887 10.6429C5.6627 10.5297 5.54185 10.3203 5.54185 10.0938V5.75373C5.54185 5.52721 5.6627 5.3179 5.85887 5.20464L9.61751 3.03459Z" fill="white"/>
</mask>
<g mask="url(#mask5_354_3578)">
<g style="mix-blend-mode:multiply" opacity="0.3">
<path fill-rule="evenodd" clip-rule="evenodd" d="M9.93452 7.92378L4.8623 9.19183V6.65572L9.93452 7.92378ZM9.93452 7.92378L11.2026 2.85156H8.66647L9.93452 7.92378ZM9.93452 7.92378L15.0067 6.65572V9.19183L9.93452 7.92378ZM9.93452 7.92378L12.6245 3.44053L14.4178 5.23383L9.93452 7.92378ZM9.93452 7.92378L12.6245 12.407L14.4178 10.6137L9.93452 7.92378ZM9.93452 7.92378L8.66647 12.996H11.2026L9.93452 7.92378ZM9.93452 7.92378L7.24457 12.407L5.45127 10.6137L9.93452 7.92378Z" fill="#FFD640"/>
<path d="M7.24457 3.44053L5.45127 5.23383L9.93452 7.92378L7.24457 3.44053Z" fill="#FFD640"/>
</g>
<path opacity="0.4" d="M13.9305 5.34265L10.1719 3.17259C10.0247 3.08765 9.84348 3.08765 9.69635 3.17259C9.2543 3.42781 8.94108 3.60865 8.75669 3.71511C8.37295 3.93666 8.05973 4.1175 7.81703 4.25762C7.3994 4.49874 6.77296 4.86041 5.93771 5.34265" stroke="white" stroke-width="0.317013" stroke-linecap="round"/>
<path d="M9.69644 3.17261C9.25438 3.42783 8.94116 3.60866 8.75677 3.71512" stroke="white" stroke-width="0.317013" stroke-linecap="round"/>
<path opacity="0.4" d="M13.9305 10.4957L10.1719 12.6658C10.0247 12.7507 9.84348 12.7507 9.69635 12.6658" stroke="white" stroke-width="0.317013" stroke-linecap="round"/>
</g>
<g filter="url(#filter8_d_354_3578)">
<mask id="path-49-outside-3_354_3578" maskUnits="userSpaceOnUse" x="6.08008" y="4.95898" width="8" height="7" fill="black">
<rect fill="white" x="6.08008" y="4.95898" width="8" height="7"/>
<path fill-rule="evenodd" clip-rule="evenodd" d="M7.08023 7.60597L8.03112 5.95898H11.8353L12.7862 7.60597H12.7863L12.7862 7.60607L12.7863 7.60623H12.7861L9.9332 10.4591L7.08034 7.60623H7.08008L7.08018 7.60607L7.08008 7.60597H7.08023Z"/>
</mask>
<path fill-rule="evenodd" clip-rule="evenodd" d="M7.08023 7.60597L8.03112 5.95898H11.8353L12.7862 7.60597H12.7863L12.7862 7.60607L12.7863 7.60623H12.7861L9.9332 10.4591L7.08034 7.60623H7.08008L7.08018 7.60607L7.08008 7.60597H7.08023Z" fill="white"/>
<path d="M8.03112 5.95898V5.32496C7.8046 5.32496 7.59529 5.4458 7.48204 5.64197L8.03112 5.95898ZM7.08023 7.60597V8.24C7.30675 8.24 7.51606 8.11915 7.62932 7.92298L7.08023 7.60597ZM11.8353 5.95898L12.3844 5.64197C12.2711 5.4458 12.0618 5.32496 11.8353 5.32496V5.95898ZM12.7862 7.60597L12.2371 7.92298C12.3503 8.11915 12.5597 8.24 12.7862 8.24V7.60597ZM12.7863 7.60597L13.2341 8.05484C13.4157 7.87363 13.4703 7.6008 13.3722 7.36369C13.2742 7.12658 13.0429 6.97194 12.7863 6.97194V7.60597ZM12.7862 7.60607L12.3384 7.15719C12.1349 7.36023 12.0935 7.6748 12.2375 7.92363L12.7862 7.60607ZM12.7863 7.60623V8.24026C13.013 8.24026 13.2223 8.1193 13.3356 7.92297C13.4488 7.72665 13.4486 7.48482 13.3351 7.28867L12.7863 7.60623ZM12.7861 7.60623V6.97221C12.6179 6.97221 12.4566 7.03901 12.3377 7.15791L12.7861 7.60623ZM9.9332 10.4591L9.48487 10.9074C9.60378 11.0263 9.76504 11.0931 9.9332 11.0931C10.1014 11.0931 10.2626 11.0263 10.3815 10.9074L9.9332 10.4591ZM7.08034 7.60623L7.52867 7.15791C7.40977 7.03901 7.2485 6.97221 7.08034 6.97221V7.60623ZM7.08008 7.60623L6.53099 7.28923C6.41774 7.4854 6.41774 7.72709 6.531 7.92325C6.64426 8.11942 6.85356 8.24026 7.08008 8.24026V7.60623ZM7.08018 7.60607L7.62927 7.92307C7.77274 7.67454 7.73141 7.36063 7.52848 7.15772L7.08018 7.60607ZM7.08008 7.60597V6.97194C6.82363 6.97194 6.59244 7.12642 6.49431 7.36335C6.39618 7.60027 6.45043 7.87299 6.63177 8.05431L7.08008 7.60597ZM7.48204 5.64197L6.53115 7.28895L7.62932 7.92298L8.5802 6.276L7.48204 5.64197ZM11.8353 5.32496H8.03112V6.59301H11.8353V5.32496ZM13.3353 7.28895L12.3844 5.64197L11.2862 6.276L12.2371 7.92298L13.3353 7.28895ZM12.7862 8.24H12.7863V6.97194H12.7862V8.24ZM12.3385 7.1571L12.3384 7.15719L13.234 8.05494L13.2341 8.05484L12.3385 7.1571ZM13.3351 7.28867L13.335 7.2885L12.2375 7.92363L12.2376 7.9238L13.3351 7.28867ZM12.7861 8.24026H12.7863V6.97221H12.7861V8.24026ZM12.3377 7.15791L9.48487 10.0108L10.3815 10.9074L13.2344 8.05456L12.3377 7.15791ZM10.3815 10.0108L7.52867 7.15791L6.63202 8.05456L9.48487 10.9074L10.3815 10.0108ZM7.08008 8.24026H7.08034V6.97221H7.08008V8.24026ZM6.53109 7.28906L6.53099 7.28923L7.62917 7.92324L7.62927 7.92307L6.53109 7.28906ZM7.52848 7.15772L7.52838 7.15763L6.63177 8.05431L6.63187 8.05441L7.52848 7.15772ZM7.08008 8.24H7.08023V6.97194H7.08008V8.24Z" fill="white" mask="url(#path-49-outside-3_354_3578)"/>
</g>
<path fill-rule="evenodd" clip-rule="evenodd" d="M9.93338 10.4598L12.7865 7.60669H7.08026L9.93338 10.4598Z" fill="url(#paint30_linear_354_3578)"/>
<path fill-rule="evenodd" clip-rule="evenodd" d="M9.9334 10.4598L8.98236 7.60669H10.8844L9.9334 10.4598Z" fill="url(#paint31_linear_354_3578)"/>
<path d="M8.0313 5.95972L7.08026 7.60697H12.7865L11.8355 5.95972H8.0313Z" fill="url(#paint32_linear_354_3578)"/>
<path d="M8.0313 5.95972L8.98234 7.60697H7.08026L8.0313 5.95972Z" fill="url(#paint33_linear_354_3578)"/>
<path d="M9.9334 5.95972L10.8844 7.60697H8.98236L9.9334 5.95972Z" fill="url(#paint34_linear_354_3578)"/>
<path d="M11.8355 5.95972L12.7865 7.60697H10.8845L11.8355 5.95972Z" fill="url(#paint35_linear_354_3578)"/>
<g filter="url(#filter9_d_354_3578)">
<path fill-rule="evenodd" clip-rule="evenodd" d="M13.3934 5.9522L13.2288 5.88726C13.1281 5.84755 13.0787 5.73373 13.1184 5.63304C13.1383 5.58253 13.1783 5.54255 13.2288 5.52263L13.3934 5.4577C13.5833 5.38282 13.7336 5.23253 13.8085 5.04267L13.8734 4.87804C13.9131 4.77735 14.0269 4.72791 14.1276 4.76763C14.1781 4.78755 14.2181 4.82753 14.238 4.87804L14.303 5.04267C14.3778 5.23253 14.5281 5.38282 14.718 5.4577L14.8826 5.52263C14.9833 5.56234 15.0327 5.67616 14.993 5.77685C14.9731 5.82736 14.9331 5.86734 14.8826 5.88726L14.718 5.9522C14.5281 6.02707 14.3778 6.17736 14.303 6.36722L14.238 6.53185C14.1983 6.63255 14.0845 6.68198 13.9838 6.64227C13.9333 6.62235 13.8933 6.58236 13.8734 6.53185L13.8085 6.36722C13.7336 6.17736 13.5833 6.02707 13.3934 5.9522Z" fill="white"/>
</g>
<g filter="url(#filter10_d_354_3578)">
<path fill-rule="evenodd" clip-rule="evenodd" d="M6.95692 10.9419L6.84716 10.8986C6.78003 10.8722 6.74708 10.7963 6.77355 10.7292C6.78683 10.6955 6.81349 10.6688 6.84716 10.6555L6.95692 10.6123C7.08349 10.5623 7.18368 10.4622 7.2336 10.3356L7.27689 10.2258C7.30336 10.1587 7.37924 10.1257 7.44637 10.1522C7.48004 10.1655 7.5067 10.1921 7.51998 10.2258L7.56326 10.3356C7.61318 10.4622 7.71337 10.5623 7.83995 10.6123L7.9497 10.6555C8.01683 10.682 8.04979 10.7579 8.02331 10.825C8.01003 10.8587 7.98338 10.8854 7.9497 10.8986L7.83995 10.9419C7.71337 10.9918 7.61318 11.092 7.56326 11.2186L7.51998 11.3284C7.4935 11.3955 7.41762 11.4284 7.35049 11.402C7.31682 11.3887 7.29017 11.362 7.27689 11.3284L7.2336 11.2186C7.18368 11.092 7.08349 10.9918 6.95692 10.9419Z" fill="white"/>
</g>
<g filter="url(#filter11_d_354_3578)">
<path fill-rule="evenodd" clip-rule="evenodd" d="M5.10294 6.38651L4.96575 6.3324C4.88184 6.29931 4.84064 6.20446 4.87374 6.12055C4.89034 6.07846 4.92366 6.04514 4.96575 6.02854L5.10294 5.97443C5.26116 5.91203 5.3864 5.78679 5.4488 5.62858L5.50291 5.49138C5.536 5.40747 5.63085 5.36628 5.71476 5.39937C5.75685 5.41597 5.79017 5.44929 5.80677 5.49138L5.86088 5.62858C5.92328 5.78679 6.04852 5.91203 6.20673 5.97443L6.34393 6.02854C6.42784 6.06164 6.46903 6.15648 6.43594 6.24039C6.41934 6.28249 6.38602 6.3158 6.34393 6.3324L6.20673 6.38651C6.04852 6.44891 5.92328 6.57415 5.86088 6.73237L5.80677 6.86956C5.77368 6.95347 5.67883 6.99467 5.59492 6.96157C5.55283 6.94497 5.51951 6.91165 5.50291 6.86956L5.4488 6.73237C5.3864 6.57415 5.26116 6.44891 5.10294 6.38651Z" fill="white"/>
</g>
<g filter="url(#filter12_d_354_3578)">
<path fill-rule="evenodd" clip-rule="evenodd" d="M13.2491 11.0593L13.1667 11.0269C13.1164 11.007 13.0917 10.9501 13.1115 10.8998C13.1215 10.8745 13.1415 10.8545 13.1667 10.8446L13.2491 10.8121C13.344 10.7747 13.4191 10.6995 13.4566 10.6046L13.489 10.5223C13.5089 10.4719 13.5658 10.4472 13.6161 10.4671C13.6414 10.477 13.6614 10.497 13.6714 10.5223L13.7038 10.6046C13.7413 10.6995 13.8164 10.7747 13.9113 10.8121L13.9936 10.8446C14.044 10.8644 14.0687 10.9213 14.0489 10.9717C14.0389 10.9969 14.0189 11.0169 13.9936 11.0269L13.9113 11.0593C13.8164 11.0968 13.7413 11.1719 13.7038 11.2669L13.6714 11.3492C13.6515 11.3995 13.5946 11.4242 13.5442 11.4044C13.519 11.3944 13.499 11.3744 13.489 11.3492L13.4566 11.2669C13.4191 11.1719 13.344 11.0968 13.2491 11.0593Z" fill="white"/>
</g>
<g filter="url(#filter13_d_354_3578)">
<path fill-rule="evenodd" clip-rule="evenodd" d="M11.9329 7.68947L11.878 7.66783C11.8444 7.65459 11.8279 7.61665 11.8412 7.58308C11.8478 7.56625 11.8611 7.55292 11.878 7.54628L11.9329 7.52464C11.9962 7.49968 12.0462 7.44958 12.0712 7.3863L12.0928 7.33142C12.1061 7.29785 12.144 7.28137 12.1776 7.29461C12.1944 7.30125 12.2078 7.31458 12.2144 7.33142L12.236 7.3863C12.261 7.44958 12.3111 7.49968 12.3744 7.52464L12.4293 7.54628C12.4628 7.55952 12.4793 7.59746 12.4661 7.63102C12.4594 7.64786 12.4461 7.66118 12.4293 7.66783L12.3744 7.68947C12.3111 7.71443 12.261 7.76452 12.236 7.82781L12.2144 7.88269C12.2012 7.91625 12.1632 7.93273 12.1297 7.91949C12.1128 7.91285 12.0995 7.89953 12.0928 7.88269L12.0712 7.82781C12.0462 7.76452 11.9962 7.71443 11.9329 7.68947Z" fill="white"/>
</g>
<defs>
<filter id="filter0_d_354_3578" x="4.22828" y="6.97461" width="6.34026" height="11.217" filterUnits="userSpaceOnUse" color-interpolation-filters="sRGB">
<feFlood flood-opacity="0" result="BackgroundImageFix"/>
<feColorMatrix in="SourceAlpha" type="matrix" values="0 0 0 0 0 0 0 0 0 0 0 0 0 0 0 0 0 0 127 0" result="hardAlpha"/>
<feOffset dy="0.634027"/>
<feGaussianBlur stdDeviation="0.317013"/>
<feColorMatrix type="matrix" values="0 0 0 0 0.61352 0 0 0 0 0.61352 0 0 0 0 0.61352 0 0 0 0.2 0"/>
<feBlend mode="darken" in2="BackgroundImageFix" result="effect1_dropShadow_354_3578"/>
<feBlend mode="normal" in="SourceGraphic" in2="effect1_dropShadow_354_3578" result="shape"/>
</filter>
<filter id="filter1_d_354_3578" x="5.49634" y="7.92554" width="6.34026" height="11.217" filterUnits="userSpaceOnUse" color-interpolation-filters="sRGB">
<feFlood flood-opacity="0" result="BackgroundImageFix"/>
<feColorMatrix in="SourceAlpha" type="matrix" values="0 0 0 0 0 0 0 0 0 0 0 0 0 0 0 0 0 0 127 0" result="hardAlpha"/>
<feOffset dy="0.634027"/>
<feGaussianBlur stdDeviation="0.317013"/>
<feColorMatrix type="matrix" values="0 0 0 0 0.61352 0 0 0 0 0.61352 0 0 0 0 0.61352 0 0 0 0.2 0"/>
<feBlend mode="darken" in2="BackgroundImageFix" result="effect1_dropShadow_354_3578"/>
<feBlend mode="normal" in="SourceGraphic" in2="effect1_dropShadow_354_3578" result="shape"/>
</filter>
<filter id="filter2_d_354_3578" x="9.30048" y="6.97461" width="6.34026" height="11.217" filterUnits="userSpaceOnUse" color-interpolation-filters="sRGB">
<feFlood flood-opacity="0" result="BackgroundImageFix"/>
<feColorMatrix in="SourceAlpha" type="matrix" values="0 0 0 0 0 0 0 0 0 0 0 0 0 0 0 0 0 0 127 0" result="hardAlpha"/>
<feOffset dy="0.634027"/>
<feGaussianBlur stdDeviation="0.317013"/>
<feColorMatrix type="matrix" values="0 0 0 0 0.61352 0 0 0 0 0.61352 0 0 0 0 0.61352 0 0 0 0.2 0"/>
<feBlend mode="darken" in2="BackgroundImageFix" result="effect1_dropShadow_354_3578"/>
<feBlend mode="normal" in="SourceGraphic" in2="effect1_dropShadow_354_3578" result="shape"/>
</filter>
<filter id="filter3_d_354_3578" x="8.03242" y="7.92554" width="6.34026" height="11.217" filterUnits="userSpaceOnUse" color-interpolation-filters="sRGB">
<feFlood flood-opacity="0" result="BackgroundImageFix"/>
<feColorMatrix in="SourceAlpha" type="matrix" values="0 0 0 0 0 0 0 0 0 0 0 0 0 0 0 0 0 0 127 0" result="hardAlpha"/>
<feOffset dy="0.634027"/>
<feGaussianBlur stdDeviation="0.317013"/>
<feColorMatrix type="matrix" values="0 0 0 0 0.61352 0 0 0 0 0.61352 0 0 0 0 0.61352 0 0 0 0.2 0"/>
<feBlend mode="darken" in2="BackgroundImageFix" result="effect1_dropShadow_354_3578"/>
<feBlend mode="normal" in="SourceGraphic" in2="effect1_dropShadow_354_3578" result="shape"/>
</filter>
<filter id="filter4_d_354_3578" x="6.76478" y="8.55933" width="6.34026" height="11.217" filterUnits="userSpaceOnUse" color-interpolation-filters="sRGB">
<feFlood flood-opacity="0" result="BackgroundImageFix"/>
<feColorMatrix in="SourceAlpha" type="matrix" values="0 0 0 0 0 0 0 0 0 0 0 0 0 0 0 0 0 0 127 0" result="hardAlpha"/>
<feOffset dy="0.634027"/>
<feGaussianBlur stdDeviation="0.317013"/>
<feColorMatrix type="matrix" values="0 0 0 0 0.61352 0 0 0 0 0.61352 0 0 0 0 0.61352 0 0 0 0.2 0"/>
<feBlend mode="darken" in2="BackgroundImageFix" result="effect1_dropShadow_354_3578"/>
<feBlend mode="normal" in="SourceGraphic" in2="effect1_dropShadow_354_3578" result="shape"/>
</filter>
<filter id="filter5_i_354_3578" x="4.22815" y="10.8188" width="11.4125" height="5.05456" filterUnits="userSpaceOnUse" color-interpolation-filters="sRGB">
<feFlood flood-opacity="0" result="BackgroundImageFix"/>
<feBlend mode="normal" in="SourceGraphic" in2="BackgroundImageFix" result="shape"/>
<feColorMatrix in="SourceAlpha" type="matrix" values="0 0 0 0 0 0 0 0 0 0 0 0 0 0 0 0 0 0 127 0" result="hardAlpha"/>
<feOffset dy="0.317013"/>
<feGaussianBlur stdDeviation="0.158507"/>
<feComposite in2="hardAlpha" operator="arithmetic" k2="-1" k3="1"/>
<feColorMatrix type="matrix" values="0 0 0 0 0.929412 0 0 0 0 0.568627 0 0 0 0 0 0 0 0 0.5 0"/>
<feBlend mode="normal" in2="shape" result="effect1_innerShadow_354_3578"/>
</filter>
<filter id="filter6_di_354_3578" x="3.75122" y="1.58567" width="12.3653" height="12.9341" filterUnits="userSpaceOnUse" color-interpolation-filters="sRGB">
<feFlood flood-opacity="0" result="BackgroundImageFix"/>
<feColorMatrix in="SourceAlpha" type="matrix" values="0 0 0 0 0 0 0 0 0 0 0 0 0 0 0 0 0 0 127 0" result="hardAlpha"/>
<feOffset dy="0.126805"/>
<feGaussianBlur stdDeviation="0.158507"/>
<feColorMatrix type="matrix" values="0 0 0 0 1 0 0 0 0 0.909804 0 0 0 0 0.556863 0 0 0 0.4 0"/>
<feBlend mode="normal" in2="BackgroundImageFix" result="effect1_dropShadow_354_3578"/>
<feBlend mode="normal" in="SourceGraphic" in2="effect1_dropShadow_354_3578" result="shape"/>
<feColorMatrix in="SourceAlpha" type="matrix" values="0 0 0 0 0 0 0 0 0 0 0 0 0 0 0 0 0 0 127 0" result="hardAlpha"/>
<feOffset dy="0.317013"/>
<feGaussianBlur stdDeviation="0.158507"/>
<feComposite in2="hardAlpha" operator="arithmetic" k2="-1" k3="1"/>
<feColorMatrix type="matrix" values="0 0 0 0 0.31048 0 0 0 0 0.31048 0 0 0 0 0.279572 0 0 0 1 0"/>
<feBlend mode="normal" in2="shape" result="effect2_innerShadow_354_3578"/>
</filter>
<filter id="filter7_d_354_3578" x="4.59083" y="2.31555" width="10.6874" height="11.8503" filterUnits="userSpaceOnUse" color-interpolation-filters="sRGB">
<feFlood flood-opacity="0" result="BackgroundImageFix"/>
<feColorMatrix in="SourceAlpha" type="matrix" values="0 0 0 0 0 0 0 0 0 0 0 0 0 0 0 0 0 0 127 0" result="hardAlpha"/>
<feOffset dy="0.317013"/>
<feGaussianBlur stdDeviation="0.317013"/>
<feColorMatrix type="matrix" values="0 0 0 0 0.927721 0 0 0 0 0.665867 0 0 0 0 0.0535899 0 0 0 0.4 0"/>
<feBlend mode="normal" in2="BackgroundImageFix" result="effect1_dropShadow_354_3578"/>
<feBlend mode="normal" in="SourceGraphic" in2="effect1_dropShadow_354_3578" result="shape"/>
</filter>
<filter id="filter8_d_354_3578" x="5.81202" y="5.00794" width="8.24236" height="7.03612" filterUnits="userSpaceOnUse" color-interpolation-filters="sRGB">
<feFlood flood-opacity="0" result="BackgroundImageFix"/>
<feColorMatrix in="SourceAlpha" type="matrix" values="0 0 0 0 0 0 0 0 0 0 0 0 0 0 0 0 0 0 127 0" result="hardAlpha"/>
<feOffset dy="0.317013"/>
<feGaussianBlur stdDeviation="0.317013"/>
<feColorMatrix type="matrix" values="0 0 0 0 0.996078 0 0 0 0 0.733333 0 0 0 0 0.105882 0 0 0 1 0"/>
<feBlend mode="normal" in2="BackgroundImageFix" result="effect1_dropShadow_354_3578"/>
<feBlend mode="normal" in="SourceGraphic" in2="effect1_dropShadow_354_3578" result="shape"/>
</filter>
<filter id="filter9_d_354_3578" x="12.4706" y="4.11988" width="3.17015" height="3.17015" filterUnits="userSpaceOnUse" color-interpolation-filters="sRGB">
<feFlood flood-opacity="0" result="BackgroundImageFix"/>
<feColorMatrix in="SourceAlpha" type="matrix" values="0 0 0 0 0 0 0 0 0 0 0 0 0 0 0 0 0 0 127 0" result="hardAlpha"/>
<feOffset/>
<feGaussianBlur stdDeviation="0.317013"/>
<feColorMatrix type="matrix" values="0 0 0 0 1 0 0 0 0 0.94902 0 0 0 0 0.305882 0 0 0 1 0"/>
<feBlend mode="normal" in2="BackgroundImageFix" result="effect1_dropShadow_354_3578"/>
<feBlend mode="normal" in="SourceGraphic" in2="effect1_dropShadow_354_3578" result="shape"/>
</filter>
<filter id="filter10_d_354_3578" x="6.13038" y="9.50904" width="2.53612" height="2.53612" filterUnits="userSpaceOnUse" color-interpolation-filters="sRGB">
<feFlood flood-opacity="0" result="BackgroundImageFix"/>
<feColorMatrix in="SourceAlpha" type="matrix" values="0 0 0 0 0 0 0 0 0 0 0 0 0 0 0 0 0 0 127 0" result="hardAlpha"/>
<feOffset/>
<feGaussianBlur stdDeviation="0.317013"/>
<feColorMatrix type="matrix" values="0 0 0 0 1 0 0 0 0 0.94902 0 0 0 0 0.305882 0 0 0 1 0"/>
<feBlend mode="normal" in2="BackgroundImageFix" result="effect1_dropShadow_354_3578"/>
<feBlend mode="normal" in="SourceGraphic" in2="effect1_dropShadow_354_3578" result="shape"/>
</filter>
<filter id="filter11_d_354_3578" x="4.22828" y="4.75391" width="2.85314" height="2.85301" filterUnits="userSpaceOnUse" color-interpolation-filters="sRGB">
<feFlood flood-opacity="0" result="BackgroundImageFix"/>
<feColorMatrix in="SourceAlpha" type="matrix" values="0 0 0 0 0 0 0 0 0 0 0 0 0 0 0 0 0 0 127 0" result="hardAlpha"/>
<feOffset/>
<feGaussianBlur stdDeviation="0.317013"/>
<feColorMatrix type="matrix" values="0 0 0 0 1 0 0 0 0 0.94902 0 0 0 0 0.305882 0 0 0 1 0"/>
<feBlend mode="normal" in2="BackgroundImageFix" result="effect1_dropShadow_354_3578"/>
<feBlend mode="normal" in="SourceGraphic" in2="effect1_dropShadow_354_3578" result="shape"/>
</filter>
<filter id="filter12_d_354_3578" x="12.4706" y="9.82618" width="2.2191" height="2.21898" filterUnits="userSpaceOnUse" color-interpolation-filters="sRGB">
<feFlood flood-opacity="0" result="BackgroundImageFix"/>
<feColorMatrix in="SourceAlpha" type="matrix" values="0 0 0 0 0 0 0 0 0 0 0 0 0 0 0 0 0 0 127 0" result="hardAlpha"/>
<feOffset/>
<feGaussianBlur stdDeviation="0.317013"/>
<feColorMatrix type="matrix" values="0 0 0 0 1 0 0 0 0 0.94902 0 0 0 0 0.305882 0 0 0 1 0"/>
<feBlend mode="normal" in2="BackgroundImageFix" result="effect1_dropShadow_354_3578"/>
<feBlend mode="normal" in="SourceGraphic" in2="effect1_dropShadow_354_3578" result="shape"/>
</filter>
<filter id="filter13_d_354_3578" x="11.2026" y="6.65601" width="1.90209" height="1.90209" filterUnits="userSpaceOnUse" color-interpolation-filters="sRGB">
<feFlood flood-opacity="0" result="BackgroundImageFix"/>
<feColorMatrix in="SourceAlpha" type="matrix" values="0 0 0 0 0 0 0 0 0 0 0 0 0 0 0 0 0 0 127 0" result="hardAlpha"/>
<feOffset/>
<feGaussianBlur stdDeviation="0.317013"/>
<feColorMatrix type="matrix" values="0 0 0 0 1 0 0 0 0 0.94902 0 0 0 0 0.305882 0 0 0 1 0"/>
<feBlend mode="normal" in2="BackgroundImageFix" result="effect1_dropShadow_354_3578"/>
<feBlend mode="normal" in="SourceGraphic" in2="effect1_dropShadow_354_3578" result="shape"/>
</filter>
<linearGradient id="paint0_linear_354_3578" x1="0.425387" y1="2.56218" x2="0.425387" y2="10.4994" gradientUnits="userSpaceOnUse">
<stop stop-color="#75756F"/>
<stop offset="1" stop-color="#3A342A"/>
</linearGradient>
<linearGradient id="paint1_linear_354_3578" x1="2.95251" y1="7.28687" x2="2.95251" y2="10.4994" gradientUnits="userSpaceOnUse">
<stop stop-color="#FFDF6B"/>
<stop offset="1" stop-color="#F8A60A"/>
</linearGradient>
<linearGradient id="paint2_linear_354_3578" x1="-0.2205" y1="2.52798" x2="-0.2205" y2="10.4875" gradientUnits="userSpaceOnUse">
<stop stop-color="#75756F"/>
<stop offset="1" stop-color="#3A342A"/>
</linearGradient>
<linearGradient id="paint3_linear_354_3578" x1="2.31854" y1="5.7019" x2="2.31854" y2="8.91444" gradientUnits="userSpaceOnUse">
<stop stop-color="#FFDF6B"/>
<stop offset="1" stop-color="#F8A60A"/>
</linearGradient>
<linearGradient id="paint4_linear_354_3578" x1="-0.87337" y1="2.51695" x2="-0.87337" y2="10.5117" gradientUnits="userSpaceOnUse">
<stop stop-color="#75756F"/>
<stop offset="1" stop-color="#3A342A"/>
</linearGradient>
<linearGradient id="paint5_linear_354_3578" x1="1.68451" y1="4.1167" x2="1.68451" y2="7.32923" gradientUnits="userSpaceOnUse">
<stop stop-color="#FFDF6B"/>
<stop offset="1" stop-color="#F8A60A"/>
</linearGradient>
<linearGradient id="paint6_linear_354_3578" x1="-1.49852" y1="2.53139" x2="-1.49852" y2="10.5096" gradientUnits="userSpaceOnUse">
<stop stop-color="#75756F"/>
<stop offset="1" stop-color="#3A342A"/>
</linearGradient>
<linearGradient id="paint7_linear_354_3578" x1="1.05054" y1="2.53139" x2="1.05054" y2="5.74392" gradientUnits="userSpaceOnUse">
<stop stop-color="#FFDF6B"/>
<stop offset="1" stop-color="#F8A60A"/>
</linearGradient>
<linearGradient id="paint8_linear_354_3578" x1="19.4434" y1="2.56315" x2="19.4434" y2="10.5004" gradientUnits="userSpaceOnUse">
<stop stop-color="#75756F"/>
<stop offset="1" stop-color="#3A342A"/>
</linearGradient>
<linearGradient id="paint9_linear_354_3578" x1="16.9163" y1="7.28784" x2="16.9163" y2="10.5004" gradientUnits="userSpaceOnUse">
<stop stop-color="#FFDF6B"/>
<stop offset="1" stop-color="#F8A60A"/>
</linearGradient>
<linearGradient id="paint10_linear_354_3578" x1="20.0894" y1="2.52895" x2="20.0894" y2="10.4885" gradientUnits="userSpaceOnUse">
<stop stop-color="#75756F"/>
<stop offset="1" stop-color="#3A342A"/>
</linearGradient>
<linearGradient id="paint11_linear_354_3578" x1="17.5504" y1="5.70288" x2="17.5504" y2="8.91542" gradientUnits="userSpaceOnUse">
<stop stop-color="#FFDF6B"/>
<stop offset="1" stop-color="#F8A60A"/>
</linearGradient>
<linearGradient id="paint12_linear_354_3578" x1="20.7423" y1="2.51793" x2="20.7423" y2="10.5126" gradientUnits="userSpaceOnUse">
<stop stop-color="#75756F"/>
<stop offset="1" stop-color="#3A342A"/>
</linearGradient>
<linearGradient id="paint13_linear_354_3578" x1="18.1844" y1="4.11768" x2="18.1844" y2="7.33021" gradientUnits="userSpaceOnUse">
<stop stop-color="#FFDF6B"/>
<stop offset="1" stop-color="#F8A60A"/>
</linearGradient>
<linearGradient id="paint14_linear_354_3578" x1="21.3675" y1="2.53271" x2="21.3675" y2="10.5109" gradientUnits="userSpaceOnUse">
<stop stop-color="#75756F"/>
<stop offset="1" stop-color="#3A342A"/>
</linearGradient>
<linearGradient id="paint15_linear_354_3578" x1="18.8184" y1="2.53271" x2="18.8184" y2="5.74525" gradientUnits="userSpaceOnUse">
<stop stop-color="#FFDF6B"/>
<stop offset="1" stop-color="#F8A60A"/>
</linearGradient>
<linearGradient id="paint16_linear_354_3578" x1="2.69183" y1="9.82666" x2="2.69183" y2="12.6727" gradientUnits="userSpaceOnUse">
<stop stop-color="#75756F"/>
<stop offset="1" stop-color="#3A342A"/>
</linearGradient>
<linearGradient id="paint17_linear_354_3578" x1="2.69183" y1="9.82666" x2="2.69183" y2="12.6727" gradientUnits="userSpaceOnUse">
<stop stop-color="#FFDF6B"/>
<stop offset="1" stop-color="#F8A60A"/>
</linearGradient>
<linearGradient id="paint18_linear_354_3578" x1="17.2254" y1="9.82666" x2="17.2254" y2="12.8383" gradientUnits="userSpaceOnUse">
<stop stop-color="#75756F"/>
<stop offset="1" stop-color="#3A342A"/>
</linearGradient>
<linearGradient id="paint19_linear_354_3578" x1="17.2254" y1="9.82666" x2="17.2254" y2="12.8383" gradientUnits="userSpaceOnUse">
<stop stop-color="#FFDF6B"/>
<stop offset="1" stop-color="#F8A60A"/>
</linearGradient>
<linearGradient id="paint20_linear_354_3578" x1="7.0813" y1="0" x2="7.0813" y2="2.05657" gradientUnits="userSpaceOnUse">
<stop stop-color="#75756F"/>
<stop offset="1" stop-color="#3A342A"/>
</linearGradient>
<linearGradient id="paint21_linear_354_3578" x1="7.0813" y1="0" x2="7.0813" y2="2.05657" gradientUnits="userSpaceOnUse">
<stop stop-color="#FFDF6B"/>
<stop offset="1" stop-color="#F8A60A"/>
</linearGradient>
<linearGradient id="paint22_linear_354_3578" x1="4.22815" y1="10.8193" x2="4.22815" y2="15.5565" gradientUnits="userSpaceOnUse">
<stop stop-color="#F39C05"/>
<stop offset="1" stop-color="#F59100"/>
</linearGradient>
<linearGradient id="paint23_linear_354_3578" x1="4.22815" y1="10.8193" x2="4.22815" y2="15.5565" gradientUnits="userSpaceOnUse">
<stop stop-color="#FFBA45"/>
<stop offset="1" stop-color="#F59100"/>
</linearGradient>
<linearGradient id="paint24_linear_354_3578" x1="4.86261" y1="0.0959473" x2="4.86261" y2="4.79787" gradientUnits="userSpaceOnUse">
<stop stop-color="#75756F"/>
<stop offset="1" stop-color="#3A342A"/>
</linearGradient>
<linearGradient id="paint25_linear_354_3578" x1="4.86261" y1="0.0959473" x2="4.86261" y2="4.79787" gradientUnits="userSpaceOnUse">
<stop stop-color="#FFDF6B"/>
<stop offset="1" stop-color="#F8A60A"/>
</linearGradient>
<linearGradient id="paint26_linear_354_3578" x1="11.2023" y1="0.0959473" x2="11.2023" y2="4.79787" gradientUnits="userSpaceOnUse">
<stop stop-color="#75756F"/>
<stop offset="1" stop-color="#3A342A"/>
</linearGradient>
<linearGradient id="paint27_linear_354_3578" x1="11.2023" y1="0.0959473" x2="11.2023" y2="4.79787" gradientUnits="userSpaceOnUse">
<stop stop-color="#FFDF6B"/>
<stop offset="1" stop-color="#F8A60A"/>
</linearGradient>
<linearGradient id="paint28_linear_354_3578" x1="2.64258" y1="0.632812" x2="2.64258" y2="15.2154" gradientUnits="userSpaceOnUse">
<stop stop-color="#FDE046"/>
<stop offset="1" stop-color="#F9B800"/>
</linearGradient>
<linearGradient id="paint29_linear_354_3578" x1="4.8623" y1="2.85156" x2="4.8623" y2="12.996" gradientUnits="userSpaceOnUse">
<stop stop-color="#FFF550"/>
<stop offset="1" stop-color="#FFD541"/>
</linearGradient>
<linearGradient id="paint30_linear_354_3578" x1="9.93338" y1="10.4598" x2="9.93338" y2="7.60669" gradientUnits="userSpaceOnUse">
<stop stop-color="#878787"/>
<stop offset="1" stop-color="#1F1F1F"/>
</linearGradient>
<linearGradient id="paint31_linear_354_3578" x1="10.8844" y1="10.4598" x2="10.8844" y2="7.60669" gradientUnits="userSpaceOnUse">
<stop stop-color="#878787"/>
<stop offset="1" stop-color="#4E4E4E"/>
</linearGradient>
<linearGradient id="paint32_linear_354_3578" x1="12.7865" y1="7.60697" x2="12.7865" y2="5.95972" gradientUnits="userSpaceOnUse">
<stop stop-color="white"/>
<stop offset="1" stop-color="#A8A8A8"/>
</linearGradient>
<linearGradient id="paint33_linear_354_3578" x1="7.71429" y1="7.60697" x2="7.71429" y2="6.23426" gradientUnits="userSpaceOnUse">
<stop stop-color="#818181"/>
<stop offset="1" stop-color="#A0A0A0"/>
</linearGradient>
<linearGradient id="paint34_linear_354_3578" x1="9.61639" y1="7.60697" x2="9.61639" y2="6.23426" gradientUnits="userSpaceOnUse">
<stop stop-color="#818181"/>
<stop offset="1" stop-color="#A0A0A0"/>
</linearGradient>
<linearGradient id="paint35_linear_354_3578" x1="11.5185" y1="7.60697" x2="11.5185" y2="6.23426" gradientUnits="userSpaceOnUse">
<stop stop-color="#818181"/>
<stop offset="1" stop-color="#A0A0A0"/>
</linearGradient>
</defs>
</svg>
