<svg width="92" height="18" viewBox="0 0 92 18" fill="none" xmlns="http://www.w3.org/2000/svg">
<path fill-rule="evenodd" clip-rule="evenodd" d="M54.2307 13.0897C53.6705 12.8579 53.2229 12.5149 52.8877 12.0607C52.5525 11.6065 52.3758 11.0595 52.3574 10.4199H54.8643C54.901 10.7814 55.025 11.0572 55.2362 11.2472C55.4474 11.4373 55.7228 11.5323 56.0626 11.5323C56.4115 11.5323 56.687 11.4512 56.889 11.289C57.091 11.1267 57.192 10.9019 57.192 10.6145C57.192 10.3735 57.1117 10.1742 56.951 10.0166C56.7903 9.85903 56.5929 9.72925 56.3587 9.62728C56.1246 9.52531 55.7917 9.40943 55.3601 9.27965C54.7357 9.08497 54.2261 8.8903 53.8312 8.69563C53.4364 8.50095 53.0966 8.21358 52.812 7.8335C52.5273 7.45343 52.385 6.95748 52.385 6.34564C52.385 5.43717 52.7109 4.72569 53.3629 4.21119C54.0149 3.6967 54.8643 3.43945 55.9111 3.43945C56.9763 3.43945 57.8348 3.6967 58.4868 4.21119C59.1388 4.72569 59.4877 5.4418 59.5336 6.35955H56.9854C56.9671 6.04436 56.8523 5.79639 56.6411 5.61562C56.4299 5.43485 56.159 5.34447 55.8284 5.34447C55.5438 5.34447 55.3142 5.42095 55.1397 5.57391C54.9653 5.72686 54.878 5.94703 54.878 6.2344C54.878 6.54959 55.025 6.79525 55.3188 6.97138C55.6126 7.14751 56.0718 7.33755 56.6962 7.54149C57.3206 7.75471 57.8279 7.95865 58.2182 8.15332C58.6085 8.348 58.9459 8.63074 59.2306 9.00154C59.5152 9.37235 59.6576 9.84976 59.6576 10.4338C59.6576 10.99 59.5175 11.4952 59.2375 11.9494C58.9574 12.4037 58.5511 12.7652 58.0185 13.0341C57.4859 13.3029 56.8569 13.4373 56.1315 13.4373C55.4244 13.4373 54.7908 13.3214 54.2307 13.0897ZM65.3875 11.3237V13.34H64.1892C63.3352 13.34 62.6695 13.1291 62.192 12.7073C61.7145 12.2855 61.4757 11.5972 61.4757 10.6424V7.5554H60.5391V5.58086H61.4757V3.68975H63.831V5.58086H65.3737V7.5554H63.831V10.6702C63.831 10.9019 63.8861 11.0688 63.9963 11.1708C64.1065 11.2727 64.2902 11.3237 64.5473 11.3237H65.3875ZM68.1629 12.9645C67.5615 12.6401 67.0886 12.1766 66.7442 11.574C66.3999 10.9714 66.2277 10.2669 66.2277 9.46042C66.2277 8.66318 66.4022 7.96097 66.7511 7.35377C67.1 6.74658 67.5775 6.28076 68.1836 5.9563C68.7896 5.63184 69.4691 5.46962 70.2221 5.46962C70.9751 5.46962 71.6546 5.63184 72.2606 5.9563C72.8667 6.28076 73.3442 6.74658 73.6931 7.35377C74.0421 7.96097 74.2165 8.66318 74.2165 9.46042C74.2165 10.2577 74.0398 10.9599 73.6862 11.5671C73.3327 12.1743 72.8506 12.6401 72.24 12.9645C71.6293 13.289 70.9475 13.4512 70.1946 13.4512C69.4416 13.4512 68.7644 13.289 68.1629 12.9645ZM71.3447 10.8927C71.6615 10.5589 71.8199 10.0815 71.8199 9.46042C71.8199 8.83931 71.6661 8.3619 71.3585 8.02818C71.0508 7.69445 70.6721 7.52759 70.2221 7.52759C69.763 7.52759 69.3819 7.69213 69.0789 8.02122C68.7759 8.35032 68.6243 8.83004 68.6243 9.46042C68.6243 10.0815 68.7736 10.5589 69.072 10.8927C69.3704 11.2264 69.7446 11.3932 70.1946 11.3932C70.6445 11.3932 71.0279 11.2264 71.3447 10.8927ZM82.3087 6.38041C82.8459 6.96907 83.1144 7.77788 83.1144 8.80687V13.34H80.7729V9.12669C80.7729 8.60756 80.6397 8.20431 80.3734 7.91694C80.1072 7.62956 79.749 7.48587 79.2991 7.48587C78.8491 7.48587 78.491 7.62956 78.2247 7.91694C77.9584 8.20431 77.8253 8.60756 77.8253 9.12669V13.34H75.47V5.58086H77.8253V6.60984C78.064 6.26685 78.3854 5.9957 78.7895 5.79639C79.1935 5.59708 79.648 5.49743 80.1531 5.49743C81.053 5.49743 81.7715 5.79175 82.3087 6.38041ZM91.9573 10.0305H86.6268C86.6635 10.5126 86.8173 10.8811 87.0882 11.136C87.3591 11.3909 87.692 11.5184 88.0868 11.5184C88.6745 11.5184 89.0831 11.2681 89.3127 10.7675H91.8195C91.691 11.2774 91.4591 11.7362 91.1239 12.1441C90.7888 12.552 90.3687 12.8718 89.8636 13.1036C89.3586 13.3353 88.7939 13.4512 88.1694 13.4512C87.4165 13.4512 86.7462 13.289 86.1585 12.9645C85.5708 12.6401 85.1117 12.1766 84.7811 11.574C84.4505 10.9714 84.2852 10.2669 84.2852 9.46042C84.2852 8.65391 84.4482 7.94938 84.7742 7.34682C85.1002 6.74426 85.557 6.28076 86.1447 5.9563C86.7324 5.63184 87.4073 5.46962 88.1694 5.46962C88.9132 5.46962 89.5744 5.62721 90.1529 5.94239C90.7314 6.25758 91.1836 6.70718 91.5096 7.2912C91.8356 7.87522 91.9986 8.55657 91.9986 9.33527C91.9986 9.55775 91.9848 9.7895 91.9573 10.0305ZM89.5882 8.70953C89.5882 8.30165 89.4504 7.97719 89.1749 7.73617C88.8995 7.49514 88.5551 7.37463 88.1419 7.37463C87.747 7.37463 87.4142 7.49051 87.1433 7.72226C86.8724 7.95402 86.7048 8.2831 86.6406 8.70953H89.5882Z" fill="#CAEAE5"/>
<path fill-rule="evenodd" clip-rule="evenodd" d="M30.6297 13.316L28.6221 9.63878H28.0583V13.316H25.707V3.57483H29.6534C30.4143 3.57483 31.0628 3.70897 31.5991 3.97724C32.1353 4.24552 32.5364 4.61324 32.8022 5.08041C33.0681 5.54758 33.201 6.06794 33.201 6.64149C33.201 7.28906 33.0199 7.86723 32.6579 8.37603C32.2958 8.88484 31.7618 9.24562 31.0559 9.45839L33.2835 13.316H30.6297ZM28.0583 7.95974H29.5159C29.9467 7.95974 30.2699 7.85336 30.4853 7.64059C30.7007 7.42782 30.8084 7.12717 30.8084 6.73863C30.8084 6.36859 30.7007 6.07719 30.4853 5.86442C30.2699 5.65165 29.9467 5.54527 29.5159 5.54527H28.0583V7.95974Z" fill="#CAEAE5"/>
<path fill-rule="evenodd" clip-rule="evenodd" d="M41.9009 10.0302H36.5715C36.6083 10.5123 36.762 10.8808 37.0329 11.1358C37.3037 11.3907 37.6365 11.5182 38.0313 11.5182C38.6188 11.5182 39.0274 11.2679 39.2569 10.7673H41.7632C41.6347 11.2772 41.4029 11.7361 41.0678 12.144C40.7327 12.5519 40.3127 12.8718 39.8077 13.1036C39.3028 13.3353 38.7382 13.4512 38.1139 13.4512C37.3611 13.4512 36.6909 13.289 36.1033 12.9645C35.5158 12.64 35.0567 12.1765 34.7262 11.5738C34.3957 10.9712 34.2305 10.2666 34.2305 9.46005C34.2305 8.65346 34.3934 7.94887 34.7193 7.34625C35.0453 6.74363 35.502 6.28009 36.0896 5.9556C36.6771 5.63111 37.3519 5.46887 38.1139 5.46887C38.8575 5.46887 39.5185 5.62648 40.0969 5.94169C40.6753 6.25691 41.1274 6.70655 41.4534 7.29063C41.7793 7.87471 41.9422 8.55612 41.9422 9.33489C41.9422 9.55739 41.9285 9.78917 41.9009 10.0302ZM39.5323 8.70909C39.5323 8.30117 39.3946 7.97669 39.1192 7.73564C38.8438 7.49459 38.4995 7.37407 38.0863 7.37407C37.6916 7.37407 37.3588 7.48995 37.088 7.72173C36.8171 7.95351 36.6496 8.28263 36.5853 8.70909H39.5323Z" fill="#CAEAE5"/>
<path fill-rule="evenodd" clip-rule="evenodd" d="M43.1999 7.28122C43.4985 6.68554 43.9051 6.22733 44.4196 5.90658C44.9341 5.58583 45.5084 5.42545 46.1423 5.42545C46.6477 5.42545 47.1094 5.53084 47.5274 5.74162C47.9455 5.9524 48.274 6.23649 48.5129 6.5939V3.03357H50.8696V13.2059H48.5129V12.1062C48.2924 12.4728 47.9777 12.7661 47.5688 12.986C47.1599 13.2059 46.6844 13.3159 46.1423 13.3159C45.5084 13.3159 44.9341 13.1533 44.4196 12.8279C43.9051 12.5026 43.4985 12.0398 43.1999 11.4395C42.9013 10.8393 42.752 10.1451 42.752 9.35694C42.752 8.56881 42.9013 7.87691 43.1999 7.28122ZM48.0236 7.98229C47.6974 7.64321 47.3 7.47368 46.8314 7.47368C46.3629 7.47368 45.9655 7.64092 45.6393 7.97542C45.3131 8.30992 45.15 8.77042 45.15 9.35694C45.15 9.94346 45.3131 10.4085 45.6393 10.7522C45.9655 11.0959 46.3629 11.2677 46.8314 11.2677C47.3 11.2677 47.6974 11.0982 48.0236 10.7591C48.3498 10.42 48.5129 9.9572 48.5129 9.37069C48.5129 8.78417 48.3498 8.32137 48.0236 7.98229Z" fill="#CAEAE5"/>
<path fill-rule="evenodd" clip-rule="evenodd" d="M16.1399 8.13407L13.6259 3.97661L14.928 1.84578L18.7304 8.13407H16.1399ZM7.58253 13.9769H12.6651L13.9338 16.0566H6.3366L7.58253 13.9769ZM12.6632 3.41399H7.57641L6.33305 1.32944H13.937L12.6632 3.41399ZM12.6594 12.8583H7.57499L5.05771 8.69547L7.57499 4.53261H12.6594L15.1766 8.69547L12.6594 12.8583ZM5.34568 1.85026L6.61125 3.97198L4.09524 8.13275H1.54683L5.34568 1.85026ZM1.54567 9.25137H4.09109L6.61424 13.4239L5.34745 15.5386L1.54567 9.25137ZM14.9264 15.543L13.6268 13.4128L16.1424 9.25269H18.73L14.9264 15.543ZM15.4048 0.479742C15.3038 0.312763 15.1234 0.210815 14.929 0.210815H5.34745C5.15296 0.210815 4.97259 0.312763 4.87168 0.479742L0.0809487 8.40259C-0.0269492 8.58101 -0.0269998 8.80494 0.0808981 8.98336L4.87168 16.9062C4.97259 17.0732 5.15296 17.1752 5.34745 17.1752H14.929C15.1234 17.1752 15.3038 17.0732 15.4048 16.9062L20.1956 8.98336C20.3035 8.80494 20.3035 8.58101 20.1956 8.40259L15.4048 0.479742Z" fill="#CAEAE5"/>
<path fill-rule="evenodd" clip-rule="evenodd" d="M13.0001 9.5667C12.7404 9.4015 12.3964 9.47894 12.2319 9.73994L11.2466 11.3029C11.0821 11.5639 11.1593 11.9094 11.419 12.0747C11.5114 12.1335 11.6145 12.1616 11.7164 12.1616C11.9008 12.1616 12.0812 12.0696 12.1872 11.9015L13.1725 10.3385C13.3371 10.0776 13.2598 9.73201 13.0001 9.5667Z" fill="#CAEAE5"/>
<path fill-rule="evenodd" clip-rule="evenodd" d="M13.81 8.12748C13.5451 7.97088 13.2037 8.05971 13.0478 8.32599L12.9754 8.4498C12.8195 8.71603 12.908 9.05884 13.173 9.21545C13.2616 9.26787 13.3588 9.29278 13.4547 9.29278C13.6455 9.29278 13.8313 9.19414 13.9351 9.01694L14.0075 8.89318C14.1634 8.6269 14.075 8.28414 13.81 8.12748Z" fill="#CAEAE5"/>
</svg>
