<svg width="133" height="140" viewBox="0 0 133 140" fill="none" xmlns="http://www.w3.org/2000/svg">
<path d="M26.0217 35C18.0533 35 11.5652 41.545 11.5652 49.5833C11.5652 57.6217 18.0533 64.1667 26.0217 64.1667C33.9902 64.1667 40.4783 57.6217 40.4783 49.5833C40.4783 41.545 33.9902 35 26.0217 35ZM26.0217 58.3333C21.2395 58.3333 17.3478 54.4075 17.3478 49.5833C17.3478 44.7592 21.2395 40.8333 26.0217 40.8333C30.804 40.8333 34.6957 44.7592 34.6957 49.5833C34.6957 54.4075 30.804 58.3333 26.0217 58.3333ZM34.6957 113.75C34.6957 115.36 33.4003 116.667 31.8043 116.667H20.2391C19.2503 116.667 18.302 116.509 17.3478 116.369V137.083C17.3478 138.693 16.0525 140 14.4565 140C12.8605 140 11.5652 138.693 11.5652 137.083V114.619C4.7533 111.329 0 104.364 0 96.25V90.4167C0 79.1583 9.0787 70 20.2391 70H26.0217C27.6177 70 28.913 71.3067 28.913 72.9167C28.913 74.5267 27.6177 75.8333 26.0217 75.8333H20.2391C12.2707 75.8333 5.78261 82.3783 5.78261 90.4167V96.25C5.78261 104.288 12.2707 110.833 20.2391 110.833H31.8043C33.4003 110.833 34.6957 112.14 34.6957 113.75ZM66.5 17.5C58.5316 17.5 52.0435 24.045 52.0435 32.0833C52.0435 40.1217 58.5316 46.6667 66.5 46.6667C74.4684 46.6667 80.9565 40.1217 80.9565 32.0833C80.9565 24.045 74.4684 17.5 66.5 17.5ZM66.5 40.8333C61.7178 40.8333 57.8261 36.9075 57.8261 32.0833C57.8261 27.2592 61.7178 23.3333 66.5 23.3333C71.2822 23.3333 75.1739 27.2592 75.1739 32.0833C75.1739 36.9075 71.2822 40.8333 66.5 40.8333ZM75.1739 107.917C75.1739 109.527 73.8786 110.833 72.2826 110.833H60.7174C59.7286 110.833 58.7802 110.676 57.8261 110.536V137.083C57.8261 138.693 56.5308 140 54.9348 140C53.3388 140 52.0435 138.693 52.0435 137.083V108.786C45.2316 105.496 40.4783 98.5308 40.4783 90.4167V72.9167C40.4783 61.6583 49.557 52.5 60.7174 52.5H66.5C68.096 52.5 69.3913 53.8067 69.3913 55.4167C69.3913 57.0267 68.096 58.3333 66.5 58.3333H60.7174C52.749 58.3333 46.2609 64.8783 46.2609 72.9167V90.4167C46.2609 98.455 52.749 105 60.7174 105H72.2826C73.8786 105 75.1739 106.307 75.1739 107.917ZM106.978 29.1667C114.947 29.1667 121.435 22.6217 121.435 14.5833C121.435 6.545 114.947 0 106.978 0C99.0098 0 92.5217 6.545 92.5217 14.5833C92.5217 22.6217 99.0098 29.1667 106.978 29.1667ZM106.978 5.83333C111.76 5.83333 115.652 9.75917 115.652 14.5833C115.652 19.4075 111.76 23.3333 106.978 23.3333C102.196 23.3333 98.3043 19.4075 98.3043 14.5833C98.3043 9.75917 102.196 5.83333 106.978 5.83333ZM112.761 35H101.196C90.0352 35 80.9565 44.1583 80.9565 55.4167V84.5833C80.9565 92.6975 85.7098 99.6625 92.5217 102.953V137.083C92.5217 138.693 93.817 140 95.413 140C97.009 140 98.3043 138.693 98.3043 137.083V104.702C99.2585 104.842 100.207 105 101.196 105H112.761C113.75 105 114.698 104.842 115.652 104.702V137.083C115.652 138.693 116.947 140 118.543 140C120.139 140 121.435 138.693 121.435 137.083V102.953C128.247 99.6625 133 92.6975 133 84.5833V55.4167C133 44.1583 123.921 35 112.761 35ZM127.217 84.5833C127.217 92.6217 120.729 99.1667 112.761 99.1667H101.196C93.2272 99.1667 86.7391 92.6217 86.7391 84.5833V55.4167C86.7391 47.3783 93.2272 40.8333 101.196 40.8333H112.761C120.729 40.8333 127.217 47.3783 127.217 55.4167V84.5833Z" fill="#CAEAE5"/>
</svg>
