<svg width="15" height="15" viewBox="0 0 15 15" fill="none" xmlns="http://www.w3.org/2000/svg">
<circle cx="7.5" cy="7.5" r="7.5" fill="#F5FEFD"/>
<g clip-path="url(#clip0_1_370)">
<path d="M9.44938 10.7042L9.44906 10.704C9.2563 10.5347 9.09521 10.3164 8.94201 10.0768C8.86921 9.9629 8.79882 9.84538 8.72773 9.72658L8.7169 9.70842C8.64237 9.58389 8.56689 9.45821 8.48803 9.33668C8.17361 8.85186 7.79384 8.41342 7.15163 8.33214C6.74765 8.28131 6.43196 8.37801 6.17226 8.55305C5.91555 8.72606 5.71636 8.97359 5.53973 9.21845C5.49386 9.2819 5.44985 9.34483 5.40672 9.40636C5.28034 9.58676 5.16212 9.75556 5.03249 9.89251C4.86127 10.0734 4.68291 10.1843 4.46099 10.1843C3.92228 10.1843 3.59156 9.79607 3.39224 9.26935C3.19338 8.74396 3.13713 8.10665 3.13713 7.67127C3.13713 7.22665 3.19987 6.70795 3.38205 6.30352C3.56296 5.90197 3.85438 5.62481 4.31467 5.62481C4.8205 5.62481 5.10224 5.97465 5.42743 6.37837C5.44915 6.40544 5.47112 6.43271 5.49335 6.4601C5.84083 6.88866 6.24621 7.3336 7.02028 7.28423H7.02073C7.79231 7.23124 8.18164 6.71636 8.49128 6.14466C8.56199 6.01408 8.62919 5.87923 8.69594 5.74546L8.71518 5.70686C8.78844 5.55997 8.86163 5.4148 8.93959 5.27542C9.09585 4.99636 9.26879 4.74609 9.49365 4.56034C9.86947 4.25382 10.5234 4.25465 11.0958 4.71895C11.6655 5.18102 12.1505 6.10459 12.1505 7.62464C12.1505 9.12628 11.6911 10.1023 11.1275 10.5965C10.5653 11.0895 9.90247 11.1057 9.44938 10.7042Z" fill="url(#paint0_linear_1_370)" stroke="black" stroke-width="0.159247"/>
<path d="M3.7901 5.73285C3.93871 5.79655 4.35702 5.88573 4.84113 5.73285M3.37606 6.17874C3.7901 6.33799 4.45894 6.46539 5.31887 6.17874M3.21681 6.87943C3.64149 7.01747 4.67552 7.21066 5.41442 6.87943C5.55647 6.81573 5.9665 6.95377 6.01956 6.97498M3.12126 7.86676C3.6627 8.02601 4.68189 8.21711 5.41442 7.86676C6.43475 7.37883 7.89938 7.89931 8.24903 8.24896C8.53567 8.5356 10.2237 9.14074 12.1347 8.4719" stroke="black" stroke-width="0.159247"/>
<path d="M5.82839 6.87958C5.88145 7.27241 5.95579 8.21089 5.82839 8.8224M6.91127 7.29363V8.31281M7.73936 7.07068C7.66502 7.37854 7.561 8.09623 7.73936 8.50391M8.69484 5.7967C8.51438 6.50803 8.26169 8.27459 8.69484 9.65049M10.1599 4.39532C9.92634 4.95798 9.26813 5.47821 9.26813 7.42102C9.26813 9.80973 9.58663 10.9882 10.1599 10.9882M10.1918 4.39532C10.351 5.0111 10.3192 6.49102 10.3192 7.48472C10.3192 8.72685 10.3192 10.7652 10.1918 11.02" stroke="black" stroke-width="0.159247"/>
<path d="M10.1599 4.39532C10.4147 4.39532 11.4339 5.8604 11.4339 7.38917C11.4339 9.0772 11.2428 10.9882 10.2873 10.9882" stroke="black" stroke-width="0.159247"/>
<path d="M9.55478 4.52252C9.75652 4.63928 10.2937 4.8028 10.8288 4.52252M9.23629 4.80917C9.54415 4.9472 10.3701 5.1404 11.211 4.80917M8.85409 5.41431C9.2575 5.62662 10.3829 5.9239 11.6568 5.41431M8.5993 6.24239C8.93901 6.50783 10.0899 6.87938 11.9753 6.24239M7.83491 6.97493C7.85612 7.25094 10.7651 7.77117 12.1346 7.19788M8.56745 9.20439C9.20444 9.46983 10.7714 9.84138 11.9435 9.20439M8.85409 9.93693C9.26814 10.1705 10.4083 10.4975 11.6568 9.93693M3.24859 8.8222C3.60957 9.02393 4.6627 9.26809 5.98764 8.6311" stroke="black" stroke-width="0.159247"/>
<path d="M4.29961 5.60565C4.12972 5.97721 3.79002 6.93059 3.79002 7.77142C3.79002 8.82245 3.79002 10.192 4.33146 10.192" stroke="black" stroke-width="0.159247"/>
<path d="M4.29971 5.63739C4.50144 5.95588 4.90485 6.82219 4.90485 7.73945C4.90485 8.88604 4.873 10.1919 4.3634 10.1919" stroke="black" stroke-width="0.159247"/>
</g>
<defs>
<linearGradient id="paint0_linear_1_370" x1="7.03869" y1="11.0836" x2="7.13424" y2="4.26777" gradientUnits="userSpaceOnUse">
<stop stop-color="#97FCCB"/>
<stop offset="1" stop-color="#97FBFC"/>
</linearGradient>
<clipPath id="clip0_1_370">
<rect width="9.17265" height="9.17265" fill="white" transform="translate(3.05753 3.05756)"/>
</clipPath>
</defs>
</svg>
