<svg width="22" height="24" viewBox="0 0 22 24" fill="none" xmlns="http://www.w3.org/2000/svg">
<mask id="mask0_1713_2693" style="mask-type:alpha" maskUnits="userSpaceOnUse" x="0" y="0" width="22" height="24">
<path fill-rule="evenodd" clip-rule="evenodd" d="M21.6064 0.774109H0.141602V23.261H21.6064V0.774109ZM15.7057 10.185C16.1049 9.78581 16.1049 9.13864 15.7057 8.73946C15.3066 8.3403 14.6593 8.3403 14.2602 8.73946L9.34957 13.6501L7.50676 11.8147C7.1068 11.4162 6.45963 11.4176 6.06125 11.8175C5.66289 12.2175 5.66418 12.8647 6.06415 13.263L8.62968 15.8183C9.02913 16.2162 9.67512 16.2155 10.0738 15.8169L15.7057 10.185Z" fill="#D9D9D9"/>
</mask>
<g mask="url(#mask0_1713_2693)">
<path d="M10.8741 21.4724C16.0958 21.4724 20.3289 17.2393 20.3289 12.0176C20.3289 6.79595 16.0958 2.56293 10.8741 2.56293C5.65246 2.56293 1.41943 6.79595 1.41943 12.0176C1.41943 17.2393 5.65246 21.4724 10.8741 21.4724Z" fill="#2DC24E" stroke="#2DC24E" stroke-width="1.11505" stroke-miterlimit="10" stroke-linecap="round"/>
</g>
</svg>
