<svg width="22" height="22" viewBox="0 0 22 22" fill="none" xmlns="http://www.w3.org/2000/svg">
<path fill-rule="evenodd" clip-rule="evenodd" d="M9.11259 0.795301C9.75807 0.667606 10.4249 0.600769 11.1066 0.600769C11.7882 0.600769 12.4551 0.667606 13.1005 0.795301C13.5158 0.87747 13.786 1.28077 13.7038 1.69611C13.6216 2.11144 13.2183 2.38152 12.803 2.29936C12.2549 2.19093 11.6877 2.13397 11.1066 2.13397C10.5254 2.13397 9.9582 2.19093 9.41013 2.29936C8.9948 2.38152 8.59151 2.11144 8.50934 1.69611C8.42717 1.28077 8.69726 0.87747 9.11259 0.795301ZM6.4904 2.53339C6.72593 2.88521 6.63166 3.36135 6.27985 3.59689C5.33207 4.23141 4.51589 5.04758 3.88138 5.99536C3.64584 6.34718 3.1697 6.44145 2.81788 6.20591C2.46606 5.97038 2.3718 5.49423 2.60733 5.14242C3.35335 4.0281 4.31259 3.06887 5.42691 2.32284C5.77872 2.08732 6.25487 2.18158 6.4904 2.53339ZM15.7227 2.53339C15.9583 2.18158 16.4344 2.08732 16.7862 2.32284C17.9006 3.06887 18.8597 4.02811 19.6058 5.14242C19.8413 5.49423 19.747 5.97038 19.3952 6.20591C19.0434 6.44145 18.5673 6.34718 18.3318 5.99536C17.6973 5.04758 16.8811 4.23141 15.9333 3.59689C15.5815 3.36135 15.4872 2.88521 15.7227 2.53339ZM20.2326 8.22485C20.6479 8.14268 21.0512 8.41277 21.1334 8.82811C21.261 9.47358 21.3279 10.1404 21.3279 10.8221C21.3279 11.5037 21.261 12.1706 21.1334 12.8161C21.0512 13.2313 20.6479 13.5015 20.2326 13.4193C19.8172 13.3371 19.5471 12.9338 19.6293 12.5185C19.7377 11.9704 19.7947 11.4033 19.7947 10.8221C19.7947 10.2409 19.7377 9.67371 19.6293 9.12565C19.5471 8.71031 19.8172 8.30702 20.2326 8.22485ZM1.98059 8.22485C2.39592 8.30702 2.666 8.71033 2.58384 9.12565C2.47541 9.67371 2.41845 10.2409 2.41845 10.8221C2.41845 11.4033 2.47541 11.9704 2.58384 12.5185C2.666 12.9338 2.39592 13.3371 1.98059 13.4193C1.56526 13.5015 1.16195 13.2313 1.07979 12.8161C0.952091 12.1706 0.885254 11.5037 0.885254 10.8221C0.885254 10.1404 0.952091 9.47358 1.07979 8.82811C1.16195 8.41277 1.56526 8.14268 1.98059 8.22485ZM2.81788 15.4382C3.1697 15.2027 3.64584 15.297 3.88138 15.6488C4.51589 16.5966 5.33207 17.4128 6.27985 18.0473C6.63166 18.2828 6.72593 18.7589 6.4904 19.1107C6.25487 19.4626 5.77872 19.5568 5.42691 19.3213C4.31258 18.5752 3.35335 17.6161 2.60733 16.5018C2.3718 16.1499 2.46606 15.6738 2.81788 15.4382ZM19.3952 15.4382C19.747 15.6738 19.8413 16.1499 19.6058 16.5018C18.8597 17.6161 17.9006 18.5752 16.7862 19.3213C16.4344 19.5568 15.9583 19.4626 15.7227 19.1107C15.4872 18.7589 15.5815 18.2828 15.9333 18.0473C16.8811 17.4128 17.6973 16.5966 18.3318 15.6488C18.5673 15.297 19.0434 15.2027 19.3952 15.4382ZM8.50934 19.9481C8.59151 19.5327 8.99481 19.2626 9.41013 19.3448C9.9582 19.4533 10.5254 19.5102 11.1066 19.5102C11.6877 19.5102 12.2549 19.4533 12.803 19.3448C13.2183 19.2626 13.6216 19.5327 13.7038 19.9481C13.786 20.3634 13.5158 20.7667 13.1005 20.8489C12.4551 20.9765 11.7882 21.0434 11.1066 21.0434C10.4249 21.0434 9.75807 20.9765 9.11259 20.8489C8.69726 20.7667 8.42717 20.3634 8.50934 19.9481Z" fill="#CAEAE5"/>
<path fill-rule="evenodd" clip-rule="evenodd" d="M8.75866 5.15493C9.48287 4.85463 10.2762 4.68927 11.1064 4.68927C11.9366 4.68927 12.73 4.85463 13.4542 5.15493C13.8452 5.3171 14.0308 5.76561 13.8686 6.1567C13.7065 6.54779 13.258 6.73336 12.8668 6.57119C12.3256 6.34673 11.7315 6.22247 11.1064 6.22247C10.4814 6.22247 9.88722 6.34673 9.346 6.57119C8.95486 6.73336 8.50636 6.54779 8.34418 6.1567C8.182 5.76561 8.36757 5.3171 8.75866 5.15493ZM15.7717 8.05982C16.1629 7.89764 16.6114 8.0832 16.7735 8.47429C17.0738 9.1985 17.2392 9.99188 17.2392 10.8221C17.2392 11.6522 17.0738 12.4456 16.7735 13.1698C16.6114 13.5609 16.1629 13.7465 15.7717 13.5843C15.3807 13.4222 15.1951 12.9736 15.3573 12.5825C15.5817 12.0413 15.706 11.4471 15.706 10.8221C15.706 10.197 15.5817 9.60286 15.3573 9.06164C15.1951 8.6705 15.3807 8.222 15.7717 8.05982ZM6.44107 8.05982C6.83215 8.222 7.01772 8.6705 6.85555 9.06164C6.63109 9.60286 6.50683 10.197 6.50683 10.8221C6.50683 11.4471 6.63109 12.0413 6.85555 12.5825C7.01772 12.9736 6.83215 13.4222 6.44107 13.5843C6.04998 13.7465 5.60147 13.5609 5.4393 13.1698C5.13899 12.4456 4.97363 11.6522 4.97363 10.8221C4.97363 9.99188 5.13899 9.1985 5.4393 8.47429C5.60147 8.0832 6.04998 7.89764 6.44107 8.05982ZM8.34418 15.4874C8.50636 15.0963 8.95486 14.9108 9.346 15.0729C9.88722 15.2974 10.4814 15.4216 11.1064 15.4216C11.7315 15.4216 12.3256 15.2974 12.8668 15.0729C13.258 14.9108 13.7065 15.0963 13.8686 15.4874C14.0308 15.8785 13.8452 16.327 13.4542 16.4892C12.73 16.7895 11.9366 16.9548 11.1064 16.9548C10.2762 16.9548 9.48287 16.7895 8.75866 16.4892C8.36757 16.327 8.182 15.8785 8.34418 15.4874Z" fill="#CAEAE5"/>
</svg>
