<svg width="22" height="23" viewBox="0 0 22 23" fill="none" xmlns="http://www.w3.org/2000/svg">
<mask id="mask0_1713_2712" style="mask-type:alpha" maskUnits="userSpaceOnUse" x="0" y="0" width="22" height="23">
<path fill-rule="evenodd" clip-rule="evenodd" d="M21.4099 0.928772H0.803711V22.5162H21.4099V0.928772ZM14.9897 7.83958C15.3729 8.22278 15.3729 8.84407 14.9897 9.22728L12.4945 11.7225L14.9897 14.2177C15.3729 14.6009 15.3729 15.2222 14.9897 15.6054C14.6065 15.9885 13.9852 15.9885 13.602 15.6054L11.1068 13.1102L8.61159 15.6054C8.22839 15.9885 7.6071 15.9885 7.22389 15.6054C6.8407 15.2222 6.8407 14.6009 7.22389 14.2177L9.71911 11.7225L7.22389 9.22728C6.8407 8.84407 6.8407 8.22278 7.22389 7.83958C7.6071 7.45638 8.22839 7.45638 8.61159 7.83958L11.1068 10.3348L13.602 7.83958C13.9852 7.45638 14.6065 7.45638 14.9897 7.83958Z" fill="#D9D9D9"/>
</mask>
<g mask="url(#mask0_1713_2712)">
<path d="M11.1063 20.799C16.1191 20.799 20.1828 16.7352 20.1828 11.7225C20.1828 6.70964 16.1191 2.64594 11.1063 2.64594C6.09349 2.64594 2.02979 6.70964 2.02979 11.7225C2.02979 16.7352 6.09349 20.799 11.1063 20.799Z" fill="#E63235" stroke="#E63235" stroke-width="1.11505" stroke-miterlimit="10" stroke-linecap="round"/>
</g>
</svg>
