<svg width="15" height="15" viewBox="0 0 15 15" fill="none" xmlns="http://www.w3.org/2000/svg">
<path d="M7.5 15C11.6563 15 15 11.6563 15 7.5C15 3.34373 11.6563 0 7.5 0C3.34373 0 0 3.34373 0 7.5C0 11.6563 3.34373 15 7.5 15Z" fill="#2775CA"/>
<path d="M9.56199 8.68884C9.56199 7.59512 8.90574 7.22012 7.59324 7.06389C6.65574 6.93887 6.46824 6.68889 6.46824 6.25134C6.46824 5.81379 6.78076 5.53262 7.40574 5.53262C7.96824 5.53262 8.28076 5.72012 8.43699 6.18887C8.46826 6.28262 8.56201 6.34509 8.65576 6.34509H9.15571C9.28074 6.34509 9.37449 6.25134 9.37449 6.12639V6.09512C9.24946 5.40759 8.68696 4.87637 7.96824 4.81389V4.06389C7.96824 3.93887 7.87449 3.84512 7.71826 3.81384H7.24951C7.12449 3.81384 7.03074 3.90759 6.99946 4.06389V4.78262C6.06196 4.90764 5.46826 5.53262 5.46826 6.31389C5.46826 7.34514 6.09324 7.75134 7.40574 7.90764C8.28076 8.06387 8.56201 8.25137 8.56201 8.75139C8.56201 9.25142 8.12446 9.59514 7.53076 9.59514C6.71821 9.59514 6.43696 9.25134 6.34321 8.78259C6.31201 8.65764 6.21826 8.59509 6.12451 8.59509H5.59321C5.46826 8.59509 5.37451 8.68884 5.37451 8.81387V8.84514C5.49946 9.62634 5.99949 10.1888 7.03074 10.3451V11.0951C7.03074 11.2201 7.12449 11.3138 7.28071 11.3451H7.74946C7.87449 11.3451 7.96824 11.2514 7.99951 11.0951V10.3451C8.93701 10.1888 9.56199 9.53259 9.56199 8.68884Z" fill="white"/>
<path fill-rule="evenodd" clip-rule="evenodd" d="M3.12563 5.96394C2.21933 8.37024 3.46936 11.089 5.90686 11.9639C6.00061 12.0265 6.09436 12.1514 6.09436 12.2452V12.6827C6.09436 12.7452 6.09436 12.7765 6.06308 12.8077C6.03188 12.9327 5.90686 12.9952 5.78183 12.9327C4.03186 12.3702 2.68808 11.0264 2.12558 9.27647C1.18808 6.30774 2.81311 3.15144 5.78183 2.21394C5.81311 2.18274 5.87559 2.18274 5.90686 2.18274C6.03188 2.21394 6.09436 2.30769 6.09436 2.43271V2.87019C6.09436 3.02649 6.03188 3.12024 5.90686 3.18271C4.62563 3.65146 3.59438 4.65144 3.12563 5.96394ZM8.93752 2.33987C8.96873 2.21484 9.09375 2.15237 9.21878 2.21484C10.9375 2.77734 12.3125 4.12112 12.875 5.90237C13.8125 8.87109 12.1875 12.0274 9.21878 12.9649C9.1875 12.9961 9.12502 12.9961 9.09375 12.9961C8.96873 12.9649 8.90625 12.8711 8.90625 12.7461V12.3086C8.90625 12.1523 8.96873 12.0586 9.09375 11.9961C10.375 11.5274 11.4062 10.5274 11.875 9.21489C12.7813 6.80859 11.5312 4.08984 9.09375 3.21489C9 3.15234 8.90625 3.02739 8.90625 2.90237V2.46489C8.90625 2.40234 8.90625 2.37114 8.93752 2.33987Z" fill="white"/>
</svg>
