<svg width="92" height="46" viewBox="0 0 92 46" fill="none" xmlns="http://www.w3.org/2000/svg">
<path d="M91.332 45.666C91.332 33.5546 86.5208 21.9393 77.9568 13.3753C69.3927 4.81123 57.7774 9.25161e-07 45.666 1.0777e-08C33.5546 -9.03607e-07 21.9393 4.81122 13.3753 13.3753C4.81123 21.9393 1.89073e-06 33.5546 6.19593e-08 45.666H11.4165C11.4165 36.5825 15.0249 27.871 21.448 21.448C27.871 15.0249 36.5825 11.4165 45.666 11.4165C54.7496 11.4165 63.4611 15.0249 69.8841 21.448C76.3071 27.871 79.9155 36.5825 79.9155 45.666H91.332Z" fill="#059669"/>
<path d="M23.5491 5.71319C16.3936 9.6743 10.4332 15.4844 6.29076 22.5365C2.14829 29.5886 -0.0242304 37.6237 0.000203855 45.8024L11.4167 45.7683C11.3983 39.6343 13.0277 33.6079 16.1346 28.3189C19.2414 23.0298 23.7117 18.6722 29.0784 15.7014L23.5491 5.71319Z" fill="#A7F3D0"/>
<path d="M68.499 6.11808C61.5742 2.12005 53.721 0.0103556 45.7249 3.80268e-05C37.7289 -0.0102796 29.8703 2.07914 22.9351 6.05929L28.6179 15.961C33.8192 12.9759 39.7132 11.4088 45.7102 11.4165C51.7073 11.4243 57.5972 13.0065 62.7908 16.0051L68.499 6.11808Z" fill="#34D399"/>
</svg>
