<svg width="72" height="15" viewBox="0 0 72 15" fill="none" xmlns="http://www.w3.org/2000/svg">
<path d="M27.0656 4.32579H28.5264V10.5992H27.0656V8.08085H24.4039V10.5992H22.9342V4.32579H24.4039V6.75448H27.0656V4.32579ZM32.7787 6.17195H34.3022L31.542 12.517H30.0453L30.9057 10.5364L29.185 6.17195H30.6995L31.2104 7.57002L31.6943 9.01289L32.2141 7.57002L32.7787 6.17195ZM37.6289 6.08233C38.0411 6.08233 38.4086 6.18092 38.7312 6.37808C39.0538 6.56927 39.3048 6.84111 39.484 7.19361C39.6632 7.54014 39.7529 7.93746 39.7529 8.38555C39.7529 8.83365 39.6632 9.23395 39.484 9.58645C39.3048 9.93298 39.0538 10.2048 38.7312 10.402C38.4086 10.5932 38.0411 10.6888 37.6289 10.6888C37.0792 10.6888 36.6221 10.5155 36.2577 10.169V12.517H34.8507V6.17195H36.0695L36.1591 6.69175C36.5295 6.28547 37.0195 6.08233 37.6289 6.08233ZM37.2973 9.50579C37.608 9.50579 37.8619 9.40423 38.059 9.20109C38.2562 8.99198 38.3548 8.72013 38.3548 8.38555C38.3548 8.05097 38.2562 7.78212 38.059 7.57898C37.8619 7.36987 37.608 7.26531 37.2973 7.26531C36.9866 7.26531 36.7327 7.36987 36.5355 7.57898C36.3443 7.78809 36.2487 8.05695 36.2487 8.38555C36.2487 8.71416 36.3443 8.98302 36.5355 9.19213C36.7327 9.40124 36.9866 9.50579 37.2973 9.50579ZM42.6811 6.07337C43.165 6.07337 43.5833 6.16598 43.9358 6.35119C44.2883 6.53043 44.5571 6.78734 44.7423 7.12192C44.9335 7.45052 45.0291 7.83589 45.0291 8.27801C45.0291 8.4214 45.0142 8.59765 44.9843 8.80676H41.7311C41.773 9.0338 41.8954 9.21901 42.0986 9.3624C42.3017 9.49982 42.5616 9.56853 42.8783 9.56853C43.0993 9.56853 43.3144 9.53567 43.5235 9.46995C43.7326 9.40423 43.9119 9.31162 44.0612 9.19213L44.7961 9.98078C44.5452 10.2138 44.2464 10.393 43.8999 10.5185C43.5594 10.644 43.1949 10.7067 42.8066 10.7067C42.2927 10.7067 41.8476 10.6141 41.4712 10.4289C41.0948 10.2377 40.8051 9.96883 40.6019 9.6223C40.3988 9.27577 40.2972 8.86651 40.2972 8.39451C40.2972 7.94044 40.3958 7.53716 40.593 7.18465C40.7961 6.83215 41.0769 6.5603 41.4354 6.36912C41.7939 6.17195 42.2091 6.07337 42.6811 6.07337ZM42.7259 7.18465C42.4451 7.18465 42.2151 7.25635 42.0358 7.39974C41.8626 7.54313 41.764 7.74328 41.7401 8.00019H43.6938C43.6759 7.74328 43.5803 7.54313 43.407 7.39974C43.2397 7.25635 43.0127 7.18465 42.7259 7.18465ZM48.3263 6.07337C48.5295 6.07337 48.7326 6.11221 48.9358 6.18988C49.1389 6.26157 49.3151 6.36912 49.4645 6.51251L48.873 7.54313C48.7476 7.46546 48.6311 7.4087 48.5235 7.37285C48.416 7.33701 48.3024 7.31908 48.183 7.31908C47.8842 7.31908 47.6482 7.41468 47.475 7.60586C47.3017 7.79705 47.2151 8.07786 47.2151 8.44829V10.5992H45.808V6.17195H47.0358L47.1434 6.72759C47.4302 6.29145 47.8245 6.07337 48.3263 6.07337ZM50.0738 4.32579H51.5435V9.27278H54.6981V10.5992H50.0738V4.32579ZM57.4455 6.07337C57.9295 6.07337 58.3477 6.16598 58.7002 6.35119C59.0527 6.53043 59.3216 6.78734 59.5068 7.12192C59.698 7.45052 59.7936 7.83589 59.7936 8.27801C59.7936 8.4214 59.7786 8.59765 59.7488 8.80676H56.4956C56.5374 9.0338 56.6599 9.21901 56.863 9.3624C57.0662 9.49982 57.326 9.56853 57.6427 9.56853C57.8638 9.56853 58.0789 9.53567 58.288 9.46995C58.4971 9.40423 58.6763 9.31162 58.8257 9.19213L59.5606 9.98078C59.3096 10.2138 59.0109 10.393 58.6644 10.5185C58.3238 10.644 57.9594 10.7067 57.571 10.7067C57.0572 10.7067 56.6121 10.6141 56.2357 10.4289C55.8593 10.2377 55.5695 9.96883 55.3664 9.6223C55.1632 9.27577 55.0617 8.86651 55.0617 8.39451C55.0617 7.94044 55.1602 7.53716 55.3574 7.18465C55.5605 6.83215 55.8414 6.5603 56.1998 6.36912C56.5583 6.17195 56.9735 6.07337 57.4455 6.07337ZM57.4903 7.18465C57.2095 7.18465 56.9795 7.25635 56.8003 7.39974C56.627 7.54313 56.5284 7.74328 56.5045 8.00019H58.4582C58.4403 7.74328 58.3447 7.54313 58.1715 7.39974C58.0042 7.25635 57.7771 7.18465 57.4903 7.18465ZM63.3059 6.07337C63.8555 6.07337 64.2917 6.25261 64.6143 6.61109C64.9429 6.96957 65.1072 7.46546 65.1072 8.09877V10.5992H63.7002V8.17943C63.7002 7.89265 63.6285 7.6686 63.4851 7.50728C63.3417 7.34597 63.1446 7.26531 62.8936 7.26531C62.6188 7.26531 62.3977 7.35792 62.2304 7.54313C62.0632 7.72834 61.9795 7.97032 61.9795 8.26905V10.5992H60.5725V6.17195H61.7913L61.8809 6.69175C62.0542 6.49458 62.2603 6.34223 62.4993 6.23469C62.7443 6.12714 63.0131 6.07337 63.3059 6.07337ZM70.7547 4.32579V10.5992H69.5359L69.4463 10.0704C69.0699 10.4826 68.58 10.6888 67.9765 10.6888C67.5643 10.6888 67.1968 10.5932 66.8742 10.402C66.5575 10.2048 66.3096 9.93298 66.1304 9.58645C65.9511 9.23395 65.8615 8.83365 65.8615 8.38555C65.8615 7.93746 65.9511 7.54014 66.1304 7.19361C66.3096 6.84111 66.5575 6.56927 66.8742 6.37808C67.1968 6.18092 67.5643 6.08233 67.9765 6.08233C68.5202 6.08233 68.9773 6.25261 69.3477 6.59316V4.32579H70.7547ZM68.3081 9.50579C68.6188 9.50579 68.8727 9.40423 69.0699 9.20109C69.267 8.99198 69.3656 8.72013 69.3656 8.38555C69.3656 8.05097 69.267 7.78212 69.0699 7.57898C68.8727 7.36987 68.6188 7.26531 68.3081 7.26531C67.9974 7.26531 67.7435 7.36987 67.5463 7.57898C67.3552 7.78809 67.2596 8.05695 67.2596 8.38555C67.2596 8.71416 67.3552 8.98302 67.5463 9.19213C67.7435 9.40124 67.9974 9.50579 68.3081 9.50579Z" fill="#071311"/>
<path d="M16.9334 5.57577C16.9334 6.15104 16.9185 6.72632 16.9334 7.30159C16.9483 7.63348 16.8217 7.73673 16.5016 7.71461C16.1815 7.69248 15.8614 7.71461 15.5338 7.71461C15.1095 7.71461 14.7745 7.87687 14.499 8.194C13.5759 9.23392 12.6528 10.2665 11.7223 11.299C11.4692 11.5793 11.1342 11.7268 10.7396 11.7415C9.51871 11.771 9.38471 11.6825 9.42194 10.4656C9.44427 9.68382 9.42193 8.89466 9.42938 8.11288C9.42938 7.80311 9.31771 7.69248 9.01249 7.71461C8.60305 7.73673 8.28294 7.89162 8.01494 8.194C7.1216 9.20442 6.21338 10.2148 5.31261 11.2179C4.88083 11.6973 3.95772 11.9407 3.36961 11.7194C3.07928 11.6088 2.93783 11.3875 2.94528 11.063C2.96017 10.1042 2.94528 9.1528 2.94528 8.194C2.94528 7.74411 2.93039 7.72198 2.45395 7.72198C1.80628 7.72198 1.16606 7.70723 0.525837 7.72198C0.213171 7.72936 0.123837 7.61873 0.131282 7.31634C0.153615 6.57881 0.131282 5.84865 0.138727 5.11112C0.146171 4.17446 0.890614 3.43692 1.82861 3.42955C2.23806 3.42955 2.6475 3.45167 3.05694 3.42217C3.36961 3.40004 3.42172 3.52543 3.42172 3.79831C3.40683 4.77923 3.42172 5.76015 3.42172 6.74107C3.42172 6.92545 3.42172 7.10983 3.60039 7.23521C3.83117 7.40485 4.00983 7.32372 4.18105 7.13196C4.93294 6.29117 5.7295 5.47989 6.42927 4.59485C7.30027 3.51068 8.44671 3.32629 9.71971 3.42217C9.95793 3.4443 9.89093 3.62868 9.89838 3.75406C9.89838 4.6981 9.89838 5.64214 9.89838 6.58619C9.89838 6.69682 9.89838 6.80745 9.90582 6.91807C9.92816 7.10246 10.01 7.24996 10.1962 7.30897C10.3748 7.36059 10.5237 7.30159 10.6577 7.15408C11.4394 6.26905 12.2434 5.40613 13.0176 4.51372C13.6653 3.76881 14.4469 3.37792 15.4445 3.42217C15.8241 3.43692 16.2113 3.43692 16.5984 3.42217C16.844 3.4148 16.9259 3.5033 16.9259 3.73931C16.9185 4.35146 16.9259 4.96361 16.9259 5.57577H16.9334Z" fill="#071311"/>
</svg>
