<svg width="17" height="9" viewBox="0 0 17 9" fill="none"
  xmlns="http://www.w3.org/2000/svg">
  <path d="M16.9334 2.57577C16.9334 3.15104 16.9185 3.72632 16.9334 4.30159C16.9483 4.63348 16.8217 4.73673 16.5016 4.71461C16.1815 4.69248 15.8614 4.71461 15.5338 4.71461C15.1095 4.71461 14.7745 4.87687 14.499 5.194C13.5759 6.23392 12.6528 7.26647 11.7223 8.29902C11.4692 8.57928 11.1342 8.72678 10.7396 8.74153C9.51871 8.77104 9.38471 8.68253 9.42194 7.4656C9.44427 6.68382 9.42193 5.89466 9.42938 5.11288C9.42938 4.80311 9.31771 4.69248 9.01249 4.71461C8.60305 4.73673 8.28294 4.89162 8.01494 5.194C7.1216 6.20442 6.21338 7.21484 5.31261 8.21789C4.88083 8.69728 3.95772 8.94067 3.36961 8.71941C3.07928 8.60878 2.93783 8.38752 2.94528 8.063C2.96017 7.10421 2.94528 6.1528 2.94528 5.194C2.94528 4.74411 2.93039 4.72198 2.45395 4.72198C1.80628 4.72198 1.16606 4.70723 0.525837 4.72198C0.213171 4.72936 0.123837 4.61873 0.131282 4.31634C0.153615 3.57881 0.131282 2.84865 0.138727 2.11112C0.146171 1.17446 0.890614 0.436922 1.82861 0.429546C2.23806 0.429546 2.6475 0.451672 3.05694 0.422171C3.36961 0.400045 3.42172 0.525425 3.42172 0.798312C3.40683 1.77923 3.42172 2.76015 3.42172 3.74107C3.42172 3.92545 3.42172 4.10983 3.60039 4.23521C3.83117 4.40485 4.00983 4.32372 4.18105 4.13196C4.93294 3.29117 5.7295 2.47989 6.42927 1.59485C7.30027 0.510676 8.44671 0.326291 9.71971 0.422171C9.95793 0.444297 9.89093 0.62868 9.89838 0.75406C9.89838 1.6981 9.89838 2.64214 9.89838 3.58619C9.89838 3.69682 9.89838 3.80745 9.90582 3.91807C9.92816 4.10246 10.01 4.24996 10.1962 4.30897C10.3748 4.36059 10.5237 4.30159 10.6577 4.15408C11.4394 3.26905 12.2434 2.40613 13.0176 1.51372C13.6653 0.768812 14.4469 0.377919 15.4445 0.422171C15.8241 0.436921 16.2113 0.436921 16.5984 0.422171C16.844 0.414795 16.9259 0.5033 16.9259 0.739311C16.9185 1.35146 16.9259 1.96361 16.9259 2.57577H16.9334Z" fill="#071311"/>
</svg>
