<svg width="11" height="11" viewBox="0 0 11 11" fill="none" xmlns="http://www.w3.org/2000/svg">
<path fill-rule="evenodd" clip-rule="evenodd" d="M5.75996 1.96982L7.07598 3.93611L8.39199 5.90286L5.75996 7.22888L3.12793 5.89786L4.44395 3.93111L5.75996 1.96982ZM5.75996 7.75865L3.2739 6.43218L5.75996 9.8259L8.24602 6.43218L5.75996 7.75865Z" fill="#0E1C19"/>
<path fill-rule="evenodd" clip-rule="evenodd" d="M5.75977 1.96982L7.07578 3.93111L8.3918 5.89786L5.75977 4.90425V1.96982Z" fill="#0E1C19"/>
<path fill-rule="evenodd" clip-rule="evenodd" d="M5.75977 7.75866L8.25083 6.43219L5.75977 9.83091V7.75866Z" fill="#293935"/>
<path fill-rule="evenodd" clip-rule="evenodd" d="M5.75977 4.90424L8.3918 5.89784L5.75977 7.22386V4.90424Z" fill="#071311"/>
<path fill-rule="evenodd" clip-rule="evenodd" d="M5.75996 1.96982L4.44395 3.93111L3.12793 5.89786L5.75996 4.90425V1.96982Z" fill="#B7D5D1"/>
<path fill-rule="evenodd" clip-rule="evenodd" d="M5.7595 7.75866L3.27344 6.43219L5.7595 9.83091V7.75866Z" fill="#94AEAA"/>
<path fill-rule="evenodd" clip-rule="evenodd" d="M5.75996 4.90424L3.12793 5.89784L5.75996 7.22386V4.90424Z" fill="#293935"/>
</svg>
