<?xml version="1.0" encoding="UTF-8"?>
<svg xmlns="http://www.w3.org/2000/svg" version="1.1" viewBox="0 0 612 792">
  <defs>
    <style>
      .cls-1 {
        fill: #e2e3e4;
      }

      .cls-1, .cls-2, .cls-3, .cls-4, .cls-5, .cls-6, .cls-7, .cls-8, .cls-9, .cls-10, .cls-11, .cls-12, .cls-13, .cls-14, .cls-15 {
        stroke-width: 0px;
      }

      .cls-2 {
        fill: #313e2d;
      }

      .cls-3 {
        fill: #000;
      }

      .cls-4 {
        fill: #231f20;
      }

      .cls-5 {
        fill: #f392bd;
      }

      .cls-6 {
        fill: #a01c44;
      }

      .cls-7 {
        fill: #656768;
      }

      .cls-8 {
        fill: #333335;
      }

      .cls-9 {
        fill: #de84ad;
      }

      .cls-10 {
        fill: #98b0ad;
      }

      .cls-16 {
        stroke-width: 3px;
      }

      .cls-16, .cls-17 {
        fill: none;
      }

      .cls-16, .cls-17, .cls-18 {
        stroke: #231f20;
        stroke-miterlimit: 10;
      }

      .cls-17, .cls-18 {
        stroke-width: 2px;
      }

      .cls-11 {
        fill: #cbe9e4;
      }

      .cls-18, .cls-12 {
        fill: #fff;
      }

      .cls-13 {
        fill: #821745;
      }

      .cls-14 {
        fill: #515153;
      }

      .cls-15 {
        fill: #b2cdca;
      }
    </style>
  </defs>
  <g id="Pulover_base" data-name="Pulover base">
    <g id="pulover_barva" data-name="pulover barva">
      <path class="cls-11" d="M188.68,388.68l-21.68,9.83-21.81.98-5.67-43.88-6.17-5.36-19.93,14.22-28.64,11.65-19.81,1.07-2.92,4.17,1.55,12.77,4.9,1.68,15.05,38.75,15.26,20.61,11.25,6.19,8.86-.43,7.64,6.09,17.84-.43,16.54,7.25,14.76,1.59,23.55-6.3-5.45,33.05-3.07,52.32-3.04,11.39.83,6.29,5.79,9.96-2.51,4.08-1.36,8.94,3.87,8.43,21.56,8.07,25.8,7.74,44.04,8.1,33.97,1.38,30.7-2.8,36.43-9.56,25.54-10.98,8-6.63.84-9.13-4.49-10.19,4.49-4.51,3.07-5.52.77-6.99-1.57-5.96,12.04,6.21-3.85-14.4-.31-10.32s4.71-17.11,25.54-24.79,23.55,0,23.55,0l5.57,7.17-.82,5.08,2.28,11.57,6.17-11.57,1.24-19.18-4.15-13.34-21.45-23.83s-1.96-17.82-16.34-23.04c0,0-13.36-34.37-22.89-40.39l-3.08-4.68-17.18-13.76,19.06-24.53,10.73-19.57,10.31-25.9,6.98-29.94v-28.57l-10.78-40.39-11.98-27.04-19.36-31.13-18.93-22.29-20.28-18.16-19.66-14.79-43.12-25.09-51.51,19.43-39.89,23.33-30.41,24.88s-29.07,24.26-42.4,82.73l-5.21,37.54.65,27.02.37,21.95-1.28,12.4,5.09,11.56,13.03,17.79,14.6,18.47,12.82,11.66h.08Z"/>
      <polygon class="cls-1" points="226.91 401.7 230.63 410.36 232.62 415.94 235.07 426.38 234.37 437.88 229.3 449.43 226.91 459.09 226.91 469.1 226.91 469.1 235.08 466.38 236.71 456.35 239.61 447.45 243.41 435.49 244.16 428.86 241.5 419.06 239.49 409.69 237.18 401.62 231.77 399.97 226.91 401.7"/>
    </g>
  </g>
  <g id="Pulover_1st" data-name="Pulover 1st">
    <path class="cls-15" d="M132.85,371.77s12.04,30.16,8.7,36.9c-3.34,6.74-14.35,8.32-14.8,10.88s-6.25,5.79,6.73,5.71,17.22-14.32,19.38-14.22,3.37-4.11,3.37-4.11l-5.76-5.76-5.35-.8-2.2-8.51-6.55-15.12-3.52-4.98h0Z"/>
    <path class="cls-15" d="M68.3,396.72s3.63,3.22,6.59,18.32c3.2,16.3,6.15,0,6.15,0-.72-2.17,2.7-17.92,9.37-17.18,6.14.69,42.94-47.62,42.94-47.62l-69.39,27.6-.36,16.26,4.7,2.61Z"/>
    <path class="cls-15" d="M157.62,354.47s69.07,46.39,74.85,45.02-5.79,1.36-5.79,1.36l2.35,5.56,1.59,4.44,2.55,7.02.92,5.34s-17.29-9.27-23.76-9.27-22.51-8.66-22.51-8.66c0,0-8.64-.53-9.66,2.19s17.05,13.83,14.3,17.36c-3.38,4.33-27.96-32.97-31.4-26.33s25.81-9.93,25.81-9.93l-12.98-12.91-10.02-12.11-6.26-9.11v.02Z"/>
    <path class="cls-15" d="M227.49,459.02s-3.67,13.05-7.2,19.08,3.89,11.48,3.89,11.48c0,0,8.71,1.9,5.82-5.34l-2.16,1.45-1.36-2.43,1.13-7.8.24-5.84-2.04-1.54,1.68-9.06Z"/>
    <path class="cls-15" d="M236.96,402.86s37.15,17.36,41.75,29.28c0,0,2.21,5.79-5.79,5.11l-8-.68s-6.64-1.53-.51,2.38,16.51,3.95,18.38,10.23-17.53-4.16-17.53-4.16c0,0-14.62-18.84-17-17.14s-1.87,5.11-1.87,5.11c0,0-4.36,10.65-2.93,22.23s-9.37,18.23-9.37,18.23l-1.62-6.63,3.06-2.08,3.41-18.66s4.59-12.13,4.76-12.36-1.39-11.65-1.39-11.65l-2.58-11.23-2.77-7.97v-.02Z"/>
    <path class="cls-15" d="M446.04,326.33s-35,60.57-82.5,77.59c0,0-8.44,6.04-7.16,9.87,0,0-24.77,6.38-32.68,15.06s-4.15,6.13-4.15,6.13c0,0-3.19,2.68-4.53,3.7-1.44,1.09,5.11,2.17,9.45,1.15s-7.91,6.24-7.91,6.24c0,0-2.81,1.93,1.02,1.42,2.59-.35,5.61-1.65,7.29-2.45.93-.44,1.3-1.34,2.03-.61.21.2.21,1.07-.13,1.09-5.17.25-9.19,4.89-9.19,4.89,0,0-6.61,5.52,1.29,3.47s12.66-2.55,16.79-5.87,12.05-9.32,12.05-9.32c0,0,2.72-3.7,3.4,1.66s4.57,16.1,8.11,21.71l-.23-6.9-1.59-7.66-.51-6.64-.81-10.47v-15.32l1.75-3.05,6.72-.4.74,1.16.51,12.61.82,5.77s24.48-21.25,26.78-20.45,7.33-1.25,7.33-1.25l24.73-9.11-15.98-12.59,10.04-13.62,13.11-19.66,13.4-28.15h.01Z"/>
    <path class="cls-15" d="M356.35,495.04s-2.95,8.06,2.07,6.37,7.81-7.35,7.81-7.35c0,0,5.21-5.53,4.17-16.9s-.78-6.81-.78-6.81v6.38l-.84,3.15-1.36,3.23h0l-2.04-.25-1.06,3.45.13,2.11-.51,1.68-.18,1.69-2.94,3.32-1.15.94-1.79-.51-1.53-.5h0Z"/>
    <path class="cls-15" d="M396.38,473.45s-9.61-24.17-4-40.77,6.64-7.3,6.64-7.3c0,0,2.92,8.32,1.72,11.39s.29,9.3.29,9.3l-1.24,8.06-3.41,19.32h0Z"/>
    <path class="cls-15" d="M397.45,490.11s-11.2-7.64-11.45-18.1,1.28-9.95,1.28-9.95c0,0,4.78-2.5,4.43,12.53,0,0,3.76,11.72,4.9,8.01s.84,7.51.84,7.51h0Z"/>
    <path class="cls-15" d="M470.72,471.61s-21.29-1.25-27.78-2.06c-2.11-.26,5.54-7.54,4.85-9.55-1.47-4.31,3.84-4.34,13.02-.26,13.79,6.13,6.35,2.94,6.35,2.94l3.56,8.93Z"/>
    <path class="cls-15" d="M397.49,477.88s.26,8.68,4.6,0l4.34-8.68s8.43-12.02,3.57,2.42-5.5,22.46-5.5,22.46c0,0,2.44,16.24,10.87-6.75s10.47-22.82,10.47-22.82c0,0,12.77-13.35,4.85,4.61,0,0-12.22,16.68-15.3,33.53-3.08,16.85-1.04,1.36-1.04,1.36,0,0-4.09,12.3-2.81,12.62s1.53,12.19,9.96,0,17.36-23.98,29.36-26.51,34.47-2.56,37.53,3.97,6.16,15.11,6.16,15.11l-.33,7.44-1.61,7.6-4.08,9.62-.8,1.43-3.68-9.11.33-3.22.83-4.72-4.98-5.36-4.85-2.33-11.03-.73-10.8,4.22s-17.69-10.93-25.89-.55-7.81,16.23-7.81,16.23c0,0,5.66,15.41,9.4,13.21l2.23,10.74,3.78,10.72-12.07-7.48-8.04-13.11-9.66-23.09-6.18-20.84-3.46-22.47,1.66.51-.02-.03Z"/>
    <path class="cls-15" d="M205.01,484.81s6.62-28.89,4.06,1.24,13.43,55.87,13.43,55.87l-10.03,17.02-4.44,4.37s44.59,39.58,89.12,30.49c0,0,52.85,9.45,92.17-24.51l11.71-4.17-15.06-16s14.58-25.53,12.28-51.83l4.85,16.6,10.21,27.32,8.43,15.83s2.25,4.94,2.35,6.13-1.46,9.82-1.46,9.82l-6.77,6.51,3.07,7.82s1.47,8,1.34,8.81-2.62,4.81-2.62,4.81l-43.4,19.41-41.09,7.66-44.45.84-81.11-19.08-16.44-10.29-1.51-8.75,3.83-8.17v-1.26l-5.13-7.31-1.49-9.65,6.3-21.45s7.62-30.39,7.92-30.85,3.9-27.23,3.9-27.23h.03Z"/>
    <path class="cls-4" d="M333.07,458.28c-1.28.15-3.03.3-4.34.4-.99.08-1.86-.67-1.93-1.66l-.57-7.41c-.04-.45.1-.91.39-1.26l1.46-1.84c.32-.4.78-.64,1.29-.68l3.22-.22c.87-.06,1.66.51,1.87,1.35l1.77,6.97c.31,1.21,1.73,1.75,2.76,1.04.64-.44,1.24-.82,1.49-.89.63-.19,5.32-7.65,5.84-8.06.33-.27,3.23-1.32,5.26-2.05,1.05-.38,2.19.28,2.38,1.38l1.15,6.47c.1.55.44,1.02.94,1.28l.33.17c.77.4,1.71.2,2.25-.48l2.43-3.06s4.38-5.89,4.79-6.23c.38-.31,6.06-1.82,7-2.07.09-.02.18-.04.27-.05h0c1-.11,1.9.63,1.99,1.64l.81,9.35c.07.84-.44,1.61-1.24,1.87l-5.73,1.86c-.43.14-.8.44-1.02.84l-4.03,7.21c-.11.19-.25.36-.41.5l-3.55,3c-.31.26-.7.41-1.1.42l-.94.03c-.9.03-1.68-.61-1.83-1.49l-1.44-8.23c-.04-.21-.11-.41-.21-.59l-.36-.63c-.5-.87-1.62-1.17-2.49-.65l-.67.4c-.07.04-.14.09-.21.14-.54.44-3.14,2.57-3.2,3.23-.06.69-3.57,5.54-3.99,6.11-.03.04-.05.08-.08.12l-1,1.65c-.34.57-.96.9-1.62.87l-2.42-.11c-.82-.04-1.51-.62-1.68-1.43l-1.66-7.82c-.19-.91-1.04-1.53-1.97-1.42v.03Z"/>
    <path class="cls-1" d="M356.39,406.87l-.3,13.11.64,14.83,1.55,11.07.95,9.05-.72,12.73-.86,7.65-.57,4.07,7.47,3.74,2.21-.33s2.3-5.57,2.09-6.79.77-16.27.77-16.27l-1.16-13.72-1.92-10.52.08-4.34-.93-13.58-.85-10.38.22-2.21-3.47-1.22h-1.51l-3.7,3.1h.01Z"/>
    <path class="cls-15" d="M147.38,291.75c-1.38-2.38-.76-45.93-.76-45.93,0,0,5.87-21.41,7.39-23.83s18.66-34.91,18.66-34.91l25.89-30.34,27.12-17.87,31.99-10.78s-34.9,15.03-35.67,29.43l-23.06,17.93-14.69,15.85-13.23,20.4-8.33,19.08-5.43,15.01-6.77,25.53-3.11,20.43h0Z"/>
    <path class="cls-15" d="M452.05,302.3l-5.63-30.86-3.56-15.44s9.57-19.5,3.59-37.67,6.72,24.34,6.72,24.34l1.61,12.99v16.97l-.65,21.47-2.08,8.2Z"/>
    <path class="cls-15" d="M313.34,79.83l28.75,16.77,42.28,31.49,24,24.12,10.36,13.79s-44.99-35.02-82.31-32.48c-.48.03-.95.07-1.43.12-37.59,3.56.95-.08.95-.08"/>
    <path class="cls-15" d="M307.6,124.91s-3.74,2.62-5.97.97c-2.99-2.2-3.28-12.04,11.71-46.05"/>
    <path class="cls-15" d="M171.93,170.86s-2.96,13.17,6.66,7.79l-7.09,10.65-5.12,5.69-3.15,7.88-5.62,10.88-6.01,14.9h-2.33l2.33-13.55,2.91-12.23,7.62-16.23,9.79-15.77h0Z"/>
    <path class="cls-15" d="M322.08,146.86s14.22-13.07,26.48-6.94l-16.18-7.13-16.44-4.69-14.56-2.2-3.23,2.2-4.75,5.7,1.04,6.13,18.19,5.23,9.44,1.71h0Z"/>
    <path class="cls-15" d="M450.5,312.23s-19.19-65.78-26.86-71.39,8.83-21.66-5.89-42.57,9.1,15.48,9.1,15.48l4.37,10.59s6.98,16.93,7.78,18.34,3.86,13.33,3.86,13.33l7.64,56.23h0Z"/>
    <path class="cls-15" d="M198.83,470.53l-2.4,11.41s17.13-34.1,17.13-40.68-9.55,5.31-9.55,5.31c0,0-9.84,13.16-7.54,18.1s-45.51,6.15-43.81-6.16c.85-6.16,1.63-8.3,2.2-8.91.76-.81,1.4-1.71,1.61-2.79.91-4.69.46-6.75-5.2.59-7.79,10.1-6.06,11.27-9.14,12.86s-15.94,5.19-17.51-.01-2.55-25.32-.89-28.16-6.76-3.02-7.81,11.67-1.39,13.47-1.39,13.47c0,0-30.07-14.18-31.88-22.99s7.5,12.29,7.5,12.29l9.06,9.62,12.17,6.04,7.05-.76,6.18,5.51,8.26,2.68,11.04-2.54,7.04,5.04s9.53,1.31,10.89,2.33,14.48.54,15.58,1.46,12.82-2.93,12.82-2.93l8.59-2.44Z"/>
  </g>
  <g id="Pulover_2nd" data-name="Pulover 2nd">
    <path class="cls-10" d="M144.48,398.51s-.88,7.69-2.17,11.07,2.29,5.13,3.82,4.17,14.02-13.51,14.02-13.51l-18.32-.55,2.65-1.18Z"/>
    <path class="cls-10" d="M122.23,465.43s-8.34-9.59-6.06-13.92c2.27-4.33,4.64-5.61,5.17-.67s4.51,15.61,4.51,15.61l-3.61-1.02h0Z"/>
    <path class="cls-10" d="M143.25,466.31s4.07-13.03,6.53-14.02,3.85-1.97,2.19,1.99c-1.66,3.96-4.71,13.97-2.25,16.26s-6.47-4.22-6.47-4.22h0Z"/>
    <path class="cls-10" d="M75.42,417.43l-5.09-17.57s-.09-14.02,6.01-2.41,3.71,12.26,3.71,12.26l-2.92,11.02-1.71-3.31Z"/>
    <path class="cls-10" d="M192.28,500.73s1.79-7.6,1.49.74,1.67,26.65,4.41,30.68c2.74,4.03-7.31,23.71-7.31,23.71,0,0,.54-35.31.43-35.98s1.75-19.27,1.75-19.27l-.77.13Z"/>
    <path class="cls-10" d="M224.33,541.25c-.4.5-9.26,13.8-19.13,15.4s-14.33-6.42-14.33-6.42l-2.52,12.6.79,10.96,6.18,8.32,17.09,10.58,20.85,9.06s-23.32-13.11-22.46-27.96l-2.56-2.49s-1.41-5.55-.87-5.38,5.87-5.72,5.87-5.72l6.25-7.6,4.83-11.35h.01Z"/>
    <path class="cls-10" d="M236.01,533.27s4.94-13.89,1.19.1-5.28,25.57-18.38,35.61c0,0-9.74,5.65-6.15,13.13l-5.29-10.61s19.44,1.97,28.63-38.23h0Z"/>
    <path class="cls-10" d="M228.25,468.41s-7.43,6.23-5.7,10.86,2.57,8.34,5.06,8.56,2.77-2.61,2.77-2.61c0,0-3.04-1.24-3.11-1.57s-.11-1.37-.11-1.37l-.63-2.96,2.78-10.1-1.08-.81h0Z"/>
    <path class="cls-10" d="M199.95,470.14c-1.45-2.98-1.29-10.33,11.98-40.07,0,0,1.79-12.57-1.89-.91-3.68,11.66-15.08,33.89-12.34,41.95,0,0-3.48-.26-4.05-5.05s6.36-25.55,6.72-26.73,6.6-14.63-1.11.24c-7.72,14.87-7.53,31.54-7.53,31.54"/>
    <path class="cls-10" d="M195.73,487.1"/>
    <path class="cls-10" d="M192.28,471.97"/>
    <path class="cls-10" d="M238.8,406.86s29.93,16.68,32.09,20.76-1.93,4.11-1.93,4.11c0,0-26.8-11.9-27.66-14.13s-2.5-10.75-2.5-10.75h0Z"/>
    <path class="cls-10" d="M242.98,427.68l-.8-9.74,5.79,3.83s-2.85,10.8-1.08,14.09c1.09,2.03-10.61,23-10.28,19.28.68-7.68,5.09-12.81,5.09-12.81l2.07-8.09-.7-6.07-.1-.5Z"/>
    <path class="cls-10" d="M357.26,496.34s-1.16,7.54,5.12,2.02,5.82-15.55,5.82-15.55l-2.81.06-.94,5.56-1.14,4.41-3.11,3.06-2.93.43h-.01Z"/>
    <path class="cls-10" d="M356.82,416.73s-3.53,3.01-1.49,23.84,3.49,8.5,3.49,8.5l-2-32.34Z"/>
    <path class="cls-10" d="M432.88,356.66s-36.91,47.67-60.72,54.85c0,0-10.15,4.37,0,1.82s39.13-25.28,39.13-25.28l21.58-31.39h.01Z"/>
    <path class="cls-10" d="M392.89,400.88s20.1-10.89,33.74.26c13.64,11.15-16.87-14.31-16.87-14.31l-16.87,14.05Z"/>
    <path class="cls-10" d="M396.99,464.98s-3.03-16.93-.81-20.76,1.62-7.4,4.09,0,0,11.74,0,11.74l-3.28,9.02h0Z"/>
    <path class="cls-10" d="M398.94,492.98l2.96-6.9s3.65-4.83,3.65,2.06-2.3,18.63,0,20.04,5.97-3.36,5.97-3.36c0,0,1.63-2.9,0,1.7s-2.4,21.52-2.4,21.52l-9.31-33.15-.86-1.91h-.01Z"/>
    <path class="cls-10" d="M348.61,607.36c-1.02.01-22.47,2.56-26.56,2.05s53.09-3.83,59.99-16.09,10.8-8.94,13.32-19.53c0,0-27.05-23.62-27.71-42.25,0,0,.87-5.87,1.63,0s8.69,31.4,30.52,41.36c0,0,20.34-5.84,20.67-19.78l4.9,10.17-1.57,8.92-4.87,6.42-13.34,9.84-24.58,12.21-28.74,6.54-3.66.14h0Z"/>
    <path class="cls-10" d="M195.94,603.28c-.27,0-2.47-18.82,3.82-16.34s-5.11-4.08-5.11-4.08l-2.79,4.99s-1.23,6.4-1.21,6.78,5.29,8.66,5.29,8.66h0Z"/>
    <path class="cls-10" d="M205.85,608.54s-3.66-2.96-1.36-8.83c0,0-.03-3.7.3,1.02s2.17,7.81,2.17,7.81h-1.11Z"/>
    <path class="cls-10" d="M217.97,595.88s4.26,3.96,2.6,8.43,5.11-7.66,6.64-4.85-9.23-3.57-9.23-3.57h-.01Z"/>
    <path class="cls-10" d="M221.59,613.74l-1.02-5.21s.13-3.3-1.28,0l-1.4,3.3,4.15,2.49h-.7l.26-.58h0Z"/>
    <path class="cls-10" d="M289.76,627.66s2.17-8.68,1.53-11.36.21-7.28,1.57,0-.17,9.84,4.04,12.77-7.15-1.41-7.15-1.41h0Z"/>
    <path class="cls-10" d="M254.14,608.54s3.64,3.17,3.74,5.79,1.24,2.62,1.63,0,1.41-4.54,1.41-4.54l-6.77-1.25h-.01Z"/>
    <path class="cls-10" d="M237.16,617.96s1.49-1.28,1.45-2.3,1.11,2.94,1.11,2.94l-2.55-.64h0Z"/>
    <path class="cls-10" d="M407.59,588.22s9.48-5.83,13.59,6.28-2.65-13.42-2.65-13.42h-2.45l-8.5,7.15h.01Z"/>
    <path class="cls-10" d="M412.83,605.3c.13-.07-6.06-.27-6.93-6.98s-.9,11.15-.9,11.15l7.82-4.17h0Z"/>
    <path class="cls-10" d="M356.01,607.37s4.26,1.74,4.26,3.21.88,2.11,2.48-1.1,1.76-3.96,1.76-3.96l-8.5,1.85h0Z"/>
    <path class="cls-10" d="M341.07,608.12s-4.83.65-3.88,6.2c0,0-2.28,2.48-1.94-.58s1.97-4.27-.03-5.62,5.86,0,5.86,0h0Z"/>
    <path class="cls-10" d="M375.59,603.15s8.01,4.68,3.24,16.49l7.49-2.77s-5.45.61-5.36-5.08.06-11.12.06-11.12l-5.42,2.48h0Z"/>
    <path class="cls-10" d="M337.19,628.13c-.92-.43-4.16-1.52-3.65-4.38s-2.21,4.38-2.21,4.38h5.86Z"/>
    <path class="cls-10" d="M456.22,514.03s8.51-3.48-6.53-15.28l3.08-.76s7.3,12.55,10.85,13.35l-7.4,2.69Z"/>
    <path class="cls-10" d="M475.33,495.54s3.06,4.76,1.7,5.78c0,0,.17,3.74,1.87,0s1.87-4.81,1.87-4.81l-5.45-.97h.01Z"/>
    <path class="cls-10" d="M421.6,526.98s.89,17.66,9.61,22.09l.47,3.18s-12.36-16.81-10.99-12.63.91-12.63.91-12.63h0Z"/>
    <path class="cls-10" d="M483.1,515.52s4.08-.22,5.44-2.98c.34-.68.51-1.52.41-2.55l-2.6,9.03-3.25-3.5Z"/>
    <path class="cls-10" d="M486.04,528.93s6.67,1.05,7.75-4.05-3.38,8.39-3.38,8.39l-.72,1.38s-1.98.99-2.26,0-1.38-5.72-1.38-5.72h0Z"/>
    <path class="cls-10" d="M468.09,464.07c-.08-.29-6.88-5.42-7.56-3.78s-7.15,2.15-.85,5.38,8.41,3.23,8.41,3.23v-4.83h0Z"/>
    <path class="cls-10" d="M452.34,499.26s4.09-10.42,27.72-2.69l-9.32-1.17-11.14,2.17-7.25,1.69h0Z"/>
    <path class="cls-10" d="M488.24,503.92s5.13-2.3,4.2-7.35,1.55,6.36,1.55,6.36c0,0,1.38,3.71,1.24,4.15s.48,10.34.48,10.34l-2.47-1.89-4.99-11.61h-.01Z"/>
    <path class="cls-10" d="M435.16,411.95s-5.96-4.32-16.51,12.19,3.74-9.2,3.74-9.2c0,0,8.04-6.87,10.49-5.47s2.28,2.48,2.28,2.48h0Z"/>
    <path class="cls-10" d="M400.93,454.14c.02-.22,16.53-41.59,24.44-45.67,0,0,2.13-.92-1.57,0-3.22.8-17.11,26.7-24,45.67"/>
    <path class="cls-10" d="M356.7,422.94s-27.18,6.71-27.91,10.04c-.62,2.78,3.36,3.08,8.08,1.84,1.05-.28,2.15.04,2.98.74,1.13.96,2.97,1.89,5.12.6,3.57-2.15,13.19-5.76,13.15-4.21s-1.4-9.01-1.4-9.01h-.02Z"/>
    <path class="cls-10" d="M366.02,421.29s27.45-18.66,30.32-22.12,10.01-2.69,10.01-2.69l-39.65,30.54-.68-6.47v.73h0Z"/>
    <path class="cls-10" d="M354.09,406.61s3.62-8.05,10.6-5.56c0,0,4.44-2.25-1.01-2.18s-8.86,3.87-8.86,3.87c0,0-3.14,3.03-.72,3.87h-.01Z"/>
    <path class="cls-10" d="M301.38,125.72c0-.82-.48-4.57,1.8-7.29s-1.85,0-1.85,0c0,0-2.37,5.22-2.02,7.29s2.06,0,2.06,0h.01Z"/>
    <path class="cls-10" d="M311.78,85.73s-6.83,17.37-5.58,23.34c0,0-1.89,6.46-1.82-.21.07-6.66,1.18-10.37,1.18-10.37,0,0,5.44-15.25,6.21-12.76h0Z"/>
    <path class="cls-10" d="M288.27,126.43s.71,1.42,2.38,13.11c.17,1.19,4.51,0,4.51,0,0,0-.26-5.43,0-6.29s3.49-4.88,3.49-4.88l.66-2.65-11.05.71h0Z"/>
    <path class="cls-10" d="M309.51,143.79c.18.77,12.04.86,15.06-12.76l3.93,1.12s-8.49,6.09-11.17,15.08l-7.82-4.24v.8h0Z"/>
    <path class="cls-10" d="M355.61,166.18s5.68.59,7.55-2.39-1.89,6.09-1.89,6.09l-5.66-3.7h0Z"/>
    <path class="cls-10" d="M213.77,163.79s-8.77,3.99-10.31-9.41l-5.75,4.98s15.18,5.92,11.26,9.16,4.81-4.74,4.81-4.74h0Z"/>
    <path class="cls-10" d="M183.52,176.55s-1.77,4.28,0,5.85-6.18.7-6.18.7l6.18-6.55Z"/>
    <path class="cls-10" d="M426.98,246.1s6.86-2.22,9.39-13.12l1.49,3.94s-8.63,6.17-8.05,14.22l-2.83-5.04h0Z"/>
    <path class="cls-10" d="M148.92,285.26l-3.93-29.5-2.49,50.76,2.34,19.04s16.35,17.72,20.83,26.74l-11.58-20.71s-3.44-13.6-3.91-13.55-3.14-21.06-3.14-21.06l1.87-11.72h.01Z"/>
    <path class="cls-10" d="M167.54,367.36s23.88,22.28,27.28,23.44-8.28-2.88-8.28-2.88l-6.79-6.4-12.21-14.16Z"/>
    <path class="cls-10" d="M159.17,244.52s-.02-8.01-3.21-11.54,6.31,2.82,6.31,2.82l-3.11,8.72h.01Z"/>
    <path class="cls-10" d="M261.62,128.35s5.45,1.82,4.73,4.55,2.01,0,2.01,0c0,0-1.08-6.27,2.53-6.2s-9.27,1.65-9.27,1.65h0Z"/>
    <path class="cls-10" d="M401.05,176.55s5.22,9.07-11.14,15.56l4.99,6.98s-2.99-6.84,11.83-17.79l-5.68-4.75h0Z"/>
    <path class="cls-10" d="M152.77,228.65c.78-1.71,9.5-20.94,9.5-20.94,0,0-1.53-9.16,3.54-24.38,5.07-15.22-.72,1.15-.72,1.15l-6.68,14.51-2.74,4.69s-1.72,7.92-2.13,9.4-2.92,15.57-2.92,15.57h2.15Z"/>
  </g>
  <g id="Barva">
    <g id="barvva">
      <path class="cls-14" d="M221.43,122.8s-63.97,50.95-68.58,91.16c0,0-37.63-7.98-32.87-74.09s88.18-42.91,101.45-17.07Z"/>
      <path class="cls-14" d="M385.17,125.83s44.18-22.34,68.56-10.49,23.15,40.95,23.15,40.95c0,0,1.24,33.12-9.79,46.67s-16.9,20.17-19.62,19.35-3.83-10.41-3.83-10.41l-10.46-22.08-11.91-20.09-9.85-13.93-26.23-29.99-.02.02Z"/>
      <path class="cls-14" d="M435.64,562.85s-14.66-31,10.5-43.54,28.55-9.42,28.55-9.42c0,0,13.56,3.21,10.92,13.04l6.41,30.91s4.39,13.9-5.95,22.73-25.32,7.98-25.32,7.98l-19.67-4.9s-11.13-6.33-5.43-16.8h0Z"/>
      <path class="cls-14" d="M323.55,629.06l21.45,28.17,1.53,13.76,2.65,5.9,9.52,2.79,6.72,1.26,6.45,2.78,5.61,4.13,5.64.68,4.77-.68,2.04-2.36,7.16,1.22,8.84-1.56,8.38-.97,8.07-3.65,1.12-3.89.8-9.19v-5.11l-5.67-4.91-7.13-4.84-5.25-2.59-2.71-1.28,13.19-28.69,2.37-13.26s1.46-5.88-.59-5.62-24.51,12.17-24.51,12.17l-22.15,8.18-19.9,4.44-23.66,2.7-4.77.42h.03Z"/>
      <path class="cls-14" d="M195.38,603.7l7.59,30.28,7.22,16.1-9.71,4.94-8.43,7.99.18,8.21,2.68,7.22s-1.4,2.61,2.69,3.97,3.52,0,3.52,0l4.55,4.02,8.61-.62,8.03,2.02,8.04-2.36,6.33,1.5h5.63l12.02-6.07,7.66-2.33,7.06-2.3,2.7-7.53.22-8.44v-4.11l20.61-27.15-27.23-4.51-23.62-5.04-24.04-6.54-22.3-9.28v.03Z"/>
      <polygon class="cls-14" points="57.95 313.41 64.38 303.45 90.03 293.94 102.64 292.04 116.45 294.4 124.54 300.31 124.49 308.08 127.81 315.34 130.95 323.67 132.02 335.38 133.35 349.17 123.55 357.53 110.27 365.78 95.22 372.06 82.49 375.47 70.87 376.11 67.98 373.86 65.47 367.77 63.98 361.81 58.4 350.82 57.12 342.08 57.09 329.77 57.12 322.49 57.95 313.41"/>
      <path class="cls-14" d="M199.24,372.63l20.77,15.96,20.29,8.83,15.42,7.43,24.07,21.71s13.01,14.55,13.55,15.22,5.4,3.74,5.4,3.74h3.83l11.74-16.01,16.57-17.49,30.14-18.13,25.32-14.29-53,11.77-15.05,8.21-19.56,5.19-24.95-5.08-15.02-8.95-50.35-15.69-9.19-2.43h0Z"/>
      <path class="cls-14" d="M294.22,140.13s-58.48,1.16-89.47,31.05c-30.99,29.89-35.85,47.54-35.85,47.54l-13.45,37.42-6.69,34.95.83,18.82,6.04,21.04,6.88,12.1,17.42,17.36,17.72,12.91,37.06,9.14,19.27,6.38s6.59,2.82,7.79,3.54l13.46,8.03s14.97,4.66,17.01,5.15,24.17-3.75,24.17-3.75l8.87-4.53,7.06-5.19,17.1-3.13,16.74-3.84,19-4.22,10.21-4.81,16.81-13.81,14.91-15.8,13.04-21.03,5.99-16.75-5.5-24.05-6.04-19.99-2.07-5-5.84-14.1-13.02-23.12-13.67-18.23-14.84-15.56-17.5-14.57-18.25-12.01-12.9-6.18-16.79-8.16-25.52-7.53.02-.07Z"/>
      <path class="cls-2" d="M432.06,262.21l-.3,13.91s-3.06,37.41-6.42,43.29c0,0-17.22,46.16-24.46,52.12s16.63-13.32,16.63-13.32c0,0,9.83-11.06,10.34-11.79s8.31-13.15,8.31-13.15l6.48-14.86s2.06-10.12,2.06-10.51-.33-6.88-.42-7.4-1.61-4.79-1.42-6.23-6.07-23.78-6.07-23.78l-4.72-8.3v.02Z"/>
      <path class="cls-2" d="M157.46,250.55l1.55,12.08,2.84,29.67,4.2,21.02,4.14,16.25,5.11,13.45,8.39,15.88,2.56,5.56s-17.67-13.95-17.73-14.01-10.54-14.76-10.54-14.76l-7.13-19.07-2.6-18.88,1.49-16.98,2.47-13,3.25-11.64,2.01-5.58h0Z"/>
    </g>
    <polygon class="cls-14" points="417.13 580.25 419.81 586.23 421.62 591.72 427.18 600.25 436.89 614.78 454.61 636.3 470.3 650.34 485.33 659.3 498.25 663.22 512.26 663.22 531.05 658.9 542.08 654.53 553.47 648.34 567.82 637.12 580.2 622.63 590.32 605.77 594.72 587.12 594.59 572.69 590.47 560.32 582.5 548.66 573.66 539.01 561.79 532.09 545.89 529.43 532.55 532.62 521.48 540.5 516.92 545.69 511.55 553.19 507.31 560.95 504.03 569.73 502.21 579.43 501.42 586.5 496.85 591.41 489.86 591.25 485.08 588.08 480.09 582.41 479.32 581.33 472.86 583.61 462.79 584.56 452.57 583.3 440.57 578.57 434.41 573.38 433.72 566.06 434.82 562.89 432.18 561.6 424.75 557.07 425 561.37 425.45 564.91 424.75 569.28 420.78 575.98 417.13 580.25"/>
  </g>
  <g id="Barva_svetla" data-name="Barva svetla">
    <path class="cls-7" d="M263.02,166.87s26.89-8.02,29.96,0c0,0-5.44-4.25,2.22-3.56s12.42-.08,12.42-.08c0,0,20.77,10.3,25.53,8.93s27.23,14.64,27.23,14.64c0,0,36.48,25.53,39.01,38.81,0,0,20.57,38.24,16.82,60.48-3.74,22.24,4.09,4.7,4.09,4.7,0,0,6.47,3.09,2.04,6.57s-12.26,1.78-10.21,6.54c2.04,4.77,3.4,12.77,7.83,9.45,4.43-3.32-4.77,14.85-4.77,14.85,0,0-20.09-1.57-20.43,5.1-.34,6.68,3.4,11.75-5.45,15.51s-11.57,13.98-15.66,16.7-28.26,16.34-44.94,21.45c0,0-21.79,25.19-57.19,5.45-35.4-19.74-54.37-13.72-62.3-32s0-1.7,0-1.7c0,0,2.7-7.15,0-12.26s-9.19.34-9.19-7.49-13.28-7.22-13.28-10.76c0,0-8.85-12.55,0-14.85s-14.64-15.29-11.91-19.01c0,0-13.28-56.82,29.96-99.38,0,0,51.74-33.4,58.21-28.1h0Z"/>
    <path class="cls-7" d="M192.24,147.11s-.61.24-1.61.61c-3.96,1.46-14.12,4.9-17.48,3-4.21-2.38,9.54,3.4,9.54,3.4l-13.11,1.73s8.99,3.66,11.33,2.35-8.56,4.77-14.69,2.04,9.17,6.62,9.17,6.62"/>
    <path class="cls-7" d="M414.43,160.41s12.08,7.97,14.7,6.46-7.71.19-10.03.19,8.23,2.26,8.23,2.26l-5.34,4.55,7.72,1.7-2.33,4.53-12.95-19.69h0Z"/>
    <path class="cls-7" d="M200.27,375.54l14.42,9.88,13.08,7.55,14.03,5.24,16,7.34s-2.38-8.71-13.28-15.01c0,0-35.4-10.34-35.06-14.78s-9.19-.22-9.19-.22h0Z"/>
    <path class="cls-7" d="M336.14,409.9s13.24-22.7,18-21.96,27.23-6.42,27.23-6.42l-21.24,14.19-23.99,14.19h0Z"/>
    <path class="cls-7" d="M281.15,427.61s15.68,1.82,18.64,0,23.1-6.17,23.1-6.17l-15.37,16.2-5.5,8.37-3.38-1.5-17.49-16.9Z"/>
    <path class="cls-7" d="M58.15,342.87c.06.98.57,1.87,1.37,2.43,5.37,3.71,26.28,17.57,34.67,14.18,9.66-3.91,22.43-2.77,28.96-11.81,5.85-8.1,7.62-17.07,7.93-18.84.04-.2.05-.41.04-.62h0c-.07-2.57-2.98-4.02-5.07-2.53l-4.53,3.23c-.23.16-.44.36-.62.57-4.53,5.48-2.15,3.27-1.66-1.02.4-3.5-3.1-10.62-4.89-11.01-2.35-.51-7.89-5.01-10.55,1.2-6.19,14.45-4.03-6.74-3.69-9.89.04-.34.02-.68-.05-1.02-.34-1.52-1.85-5.1-8.59-3.2-.82.23-1.52.79-1.93,1.55-1.48,2.71-5.03,9.67-5.11,14-.26,13.99-2.04-16.13-5.7-14.13s-8.69,5.04-8.61,7.03c.7,17.98-1.24-.97-3.81.33-2.02,1.02-4.16,3.94-4.99,5.15-.24.34-.4.72-.49,1.13l-3.14,14.38c-.06.29-.09.6-.07.9l.53,7.99Z"/>
    <path class="cls-7" d="M484.52,531.6s-9.55-16.52-28.21-10.23c-.63.21-1.26.45-1.91.71-19.91,8.13-24.75,8.95-23.74,19.28s5.07,8.6,5.07,8.6c0,0,.89,2.04,6.29-2.72s-6.29,12.51-6.29,12.51l-2.56,7.32,2.56,8.44,6.29,3.08s15.06-11.44,15.51-16.97-11.62,17.89-9.76,18.83,15.37,2.99,15.37,2.99c0,0,27.73-2.15,30.18-26.49l-7.29-25.33"/>
    <path class="cls-7" d="M221.85,625.74c-4.45-3.65-10.4,2.68-6.29,6.71.41.4.87.74,1.38,1,5.45,2.72,5.64-1.36,14.05,7.49,8.41,8.85,3.55-1.02,10.92,7.49s14.18,8.17,7.37,8.51,2.91-6.81-14.88,0c0,0-7.85-6.44-12.49.01,0,0-8.03,1.69-6.67,3.73s-5.45-6.13-11.57,0c0,0-7.31-5.02-9.54.34s-4.89,11.84,0,16.78,6.14-1.11,6.14-1.11c0,0,7.49,2.04,10.55-1.36,0,0,6.13,5.45,13.28,1.36,0,0,7,3.4,10.31.68,0,0,12.5-.68,14.2-5.11s10.55-10.55,7.15-14.98,7.83-4.09,7.83-4.09c0,0,3.06-3.51,2.38-7.37s-5.11-6.24-5.11-6.24l.68-2.38s-1.02-3.06,2.38.68,6.13,3.4,7.15,1.7,5.11-2.72,0-6.47-3.74-5.96-7.83-4-3.06,1.62-7.49,3.32-7.83,4.77-10.89-.68,4.77-3.4-3.06-5.45-5.63-2.38-11.84-.68,2.3,8.85-6.21,1.7c-.67-.56-1.3-1.09-1.9-1.58h0Z"/>
    <path class="cls-7" d="M389.12,623.56c.58-.1,4.11-.74,6.46-1.86.96-.46,2.04.29,2,1.35-.14,3.19-.88,8.16-4.02,10.39-.16.12-.35.19-.55.23-1.05.2-4.58.95-5.15,1.82-.68,1.02-1.02,8.17-12.09,11.74-4.5,1.45-7.84,4.11-10.23,6.76-1.15,1.28.51,3.12,1.89,2.1,4.79-3.57,10.85-7.24,13.79-5.63,5.28,2.89,11.91-.51,12.43-.51s13.96,1.36,14.98,4.94c.77,2.69-2.23,3.16-3.76,3.23-.5.02-.96-.23-1.24-.65-.98-1.49-3.65-4.88-6.75-3.27-3.91,2.04-5.96,7.15-7.32,6.3-.01,0-.03-.02-.04-.03-1.29-.81-2.76.7-1.92,1.97.24.36.45.74.6,1.13.31.77-.19,1.63-.99,1.83-2.5.64-7.66,2.22-7.53,4.28.14,2.2,4.5-.38,6.17-1.45.42-.27.93-.3,1.38-.08,1.43.7,4.38,2.36,3.86,3.91-.68,2.04-12.77,5.79-14.98,4.26s-27.23-20.6-25.19-28.6c1.72-6.73-2.82-5.03-4.31-4.32-.33.16-.72.19-1.06.06-1.35-.5-4.11-2.26.61-7.66,5.21-5.96,12.39-4.62,14.09-4.19.26.07.52.06.78-.03,1.83-.61,9.32-3.2,10.66-5.14,1.47-2.12,16.09-2.84,17.28-2.89.06,0,.1,0,.16-.02v.03Z"/>
    <path class="cls-7" d="M520.3,599.83c.82-.57,1.17-1.61.86-2.56-1.42-4.34-4.77-16.39.55-20.13s5.51-15.15,5.45-20.15c-.02-1.59.55-3.13,1.62-4.3,3.74-4.09,12.7-12.4,17.07-3.53,5.61,11.38,1.02,25.15,1.53,24.91s7.66,12.01,15.32,4.6c7.66-7.41,7.15-17.87,11.74-12.51s8.94,20.17,5.62,23.74-17.36,12-14.81,19.15,9.7,16.6,4.6,23.74-14.3,1.03-15.83,7.41c-1.16,4.82-22.46,1.91-32.78.2-3.52-.58-7.1.51-9.69,2.97l-4.29,4.07-27.21-29.19,12.08-16.06,18.7,1.12c2.7.16,5.38-.6,7.6-2.16l1.86-1.31h0Z"/>
    <path class="cls-14" d="M440.68,551.05s-8.1,5.29,0,12.35,15.71-5.01,13.72-.68-5.75,4.33,2.15,9.61,13.3-5.27,13.3-5.27c0,0,8.63,18.21,17.44-.09h4.47l-11.06,13.28-17.56,4.28-13.9-2.52-11.7-3.95-4.51-6.65-.08-4.44,2.21-4-2.21-5.87,7.73-6.06h0Z"/>
    <path class="cls-7" d="M440.78,204.72s12.42-6.66,19.02-13.25c2.03-2.03,3.51-4.05,3.9-5.87l-5.31,9.64-3.15,6.95-3.01,2.52-6.49,5.45-1.44.94-3.53-5.04v-1.35h.01Z"/>
    <path class="cls-7" d="M158.03,198.18l-4.1,1.14h-3.06l-6.89-4.33-4.05-4.07s18.62,5.04,20.81.38-2.7,6.89-2.7,6.89h0Z"/>
    <path class="cls-14" d="M273.21,316.48c4.3-1.11,14.42-2.55,19.84-.82.73.23.25.29,1.07-.03,3.14-1.22,12.44-2.63,23.86.73,1.43.42,2.34,1.82,2.17,3.3l-.18,1.57c-.06.48-.22.95-.49,1.35l-.97,1.47c-.58.88-1.57,1.39-2.62,1.38l-41.58-.69c-1.49-.02-2.74-1.11-2.99-2.58l-.36-2.18c-.02-.14-.04-.27-.04-.41h0c-.04-1.43.91-2.71,2.3-3.07v-.02Z"/>
    <path class="cls-7" d="M492.14,602.19s-20.47-5.27-24.27-14.3c-.55-1.31-1.73-2.24-3.1-2.57l-20.06-4.85c-.57-.14-1.11-.38-1.59-.73l-8.37-5.98c-.18-.13-.35-.27-.51-.42l-3.79-3.62c-2.38-2.28-6.31-1.39-7.47,1.69h0c-.56,1.47-.33,3.12.62,4.38,4.18,5.57,16.08,20.65,22.53,20.82,7.92.22-.25,10.77,1.8,13.15s-2.71,7.81,15.97,6.47c15.71-1.12,14.84.85,16.26,14.2.09.83.14,1.66.54,2.4,2.15,3.95,11.07,20.71,26.57,14.6"/>
  </g>
  <g id="Učki_usta_nos" data-name="Učki, usta, nos">
    <path class="cls-5" d="M271.71,322.83l4.44-2.7,9.24.18s5.61-.25,6.2.5,1.36.85,2.13,1.1,6.81-.75,7.23-1.1,10.47-1.1,10.47-1.1l2.86.47,1.65,1.08,3.3,1.55-2.7,3.55s-3.82,4.42-4.43,4.55-16.44,12.42-16.44,12.42l-23.01-18.67-.94-1.85v.02Z"/>
    <path class="cls-6" d="M271.84,371.4s9.45-14.86,21.36-9.16c0,0,17.37-3.39,21.45,9.16l1.35,1.41-4.68,3.84-5.55,4.04c.41-.09-4.76,1.34-7.3,1.71-.92.13-11.15,1.27-11.32.73s-6.97-3.88-6.97-3.88l-5.46-3.88-2.89-4.36v.39h0Z"/>
    <path class="cls-13" d="M315.16,373.16s-5.9-11.4-20.27-8.94c0,0-3.39,6.04-2.45,8.94,0,0-2.04-6.38,1.79-10.21,0,0,17.78-3.6,21.78,9.86l-.49.92"/>
    <path class="cls-13" d="M277.46,377.17l-3.49-5.05s6.09-8.17,9.1-9.18h0s-8.58,3.69-10.21,9.17"/>
    <path class="cls-9" d="M277.46,319.72c-.65,0,12.26,1.26,12.26,1.26,0,0,4.06,1.53,4.63,1.45s5.51-1.73,5.51-1.73l8.08.36,4.51-.24,2.21.24s-21.12,4.79-18.82,12.44c0,0-5.7-13.86-18.38-13.78Z"/>
    <path class="cls-12" d="M336.65,298.27l6.43-.68,18.04,12.31s5.79-3.29,6.3-3.8,2.72-1.53,3.74-3.74.68-2.78,1.53-8.03,2.38-19.74,2.38-19.74h4.43l11.4,4.19-.44,15.55s-1.69,4.33-1.92,4.81-3.35,5.64-3.35,5.64l-7.39,6.77-7.18,2.93-8.03.92-11.18-1.43s-11.45-4.07-12.07-4.07-2.69-1.24-2.69-1.24v-10.39h0Z"/>
    <path class="cls-5" d="M74.36,307.42s-5.85,1.04-3.47,4.02,8.37,6.21,8.56,2.68,2.27-6.05,0-8.53-5.09,1.82-5.09,1.82Z"/>
    <path class="cls-5" d="M96.34,303.17c-1.53-.03-3.06-.12-4.54-.52s-3.08-.37-3.11,1.77c-.06,3.81,2.51,10.11,4.91,7.51s5.6-3.22,5.42-6.58c-.09-1.71-1.41-2.15-2.68-2.18Z"/>
    <path class="cls-5" d="M110.45,307.42s-5.85,1.04-3.47,4.02,8.37,6.21,8.56,2.68,2.27-6.05,0-8.53-5.09,1.82-5.09,1.82Z"/>
    <path class="cls-5" d="M127.61,314.75s-6.91,1.76-4.53,4.74,5.84,6.31,6.03,2.78,2.03-3.67-.24-6.15-1.26-1.37-1.26-1.37Z"/>
    <path class="cls-5" d="M63.83,315.81s.97-4.11-2.25-2.06c-2.4,1.53,1.56.23,0,0-3.5-.52-3.34,5.64-.49,7.42s2.74-5.36,2.74-5.36Z"/>
    <g>
      <path class="cls-5" d="M81.9,358.21c-1.1.43-15.51-13.07-5.62-17.94,9.88-4.87,32.78-3.44,34.39-1.79,1.76,1.79,5.48,3.18-3.4,15.37s-25.37,4.36-25.37,4.36Z"/>
      <path class="cls-9" d="M73.23,342.97s18.42,15.79,38.61,3c0,0,5.7-11.78-15.16-8.44,0,0-20.85-1.11-23.45,5.45Z"/>
    </g>
    <path class="cls-9" d="M61.59,313.75s-.24,5.58,1.69,6.33l.55-4.27-.24-2.44-2.01.37Z"/>
    <path class="cls-9" d="M74.36,307.42s2.68,6.78,5.19,5.75c0,0,.93-3.44.95-4.74s-1.19-4.56-3.52-3.4-2.63,2.39-2.63,2.39Z"/>
    <path class="cls-9" d="M91.19,302.52s4.43,8.29,5.95,6.52,2.7-1.85,1.65-4.64c0,0,.03-1.31-3.6-1.26s-4-.62-4-.62Z"/>
    <path class="cls-9" d="M110.37,308.2c1.17.76,3.23,2.2,4.4,3.62.39.47,1.14.32,1.28-.28l.52-2.17c.01-.06.02-.11.02-.17v-1.51c0-.12-.03-.25-.09-.35l-.87-1.56c-.06-.11-.15-.21-.27-.27l-.84-.5c-.19-.11-.41-.13-.62-.06l-1.65.59c-.07.03-.14.06-.2.11l-1.73,1.36c-.39.31-.37.91.05,1.18Z"/>
    <path class="cls-9" d="M124.24,316.14l4.63,3.94-1.26-5.32s-3.32.52-3.37,1.39Z"/>
  </g>
  <g id="Temna_barva" data-name="Temna barva">
    <path class="cls-8" d="M261.78,144.49s6.64,14.47,3.06,17.19-8.51-5.93-8.51-5.93c0,0-6.13-1.22-4.77,3.37s6.47,12.09-1.19,12.6-8.68-7.49-8.68-7.49c0,0-6.64-9.17-7.66-6.12s3.56,11.73,3.56,11.73c0,0,2.62,8.4-5.68,5.37-.22-.08-.45-.17-.68-.26-9.12-3.74-1.1-9.53-9.96-5.45l-6.82,5.11s-7.46-1.76-5.94-6.75,23.69-14.78,23.69-14.78l29.58-8.6h0Z"/>
    <path class="cls-8" d="M265.9,142.41s-3.78,1.74,5.75,5.66c0,0,5.45,9.53,6.81,0s4.43,5.96,4.43,5.96c0,0,1.87,10.38,6.13,8.51s2.72-8.34,2.72-8.34c0,0,2.09-9.02,3.43-.85s3.89,4.77,3.89,4.77c0,0,.51,7.32,4.77,6.47s9.53-8.82,9.53-8.82v-9.73l-19.07-5.96-28.39,2.35v-.02Z"/>
    <path class="cls-8" d="M327.48,152.36s-12.09,13.07-3.57,16.14,10.04,4.22,15.49-1.72,6.98,1.04,6.98,1.04c0,0,7.32.85,6.64-2.38s-25.53-13.07-25.53-13.07h-.01Z"/>
    <path class="cls-8" d="M356.42,166.77s-9.87,12.27-2.55,14.66,10.27-9.92,10.27-9.92l-7.71-4.74h-.01Z"/>
    <path class="cls-8" d="M204.71,171.01s4.38,9.23,0,12.8-7.1,1.7-7.1,1.7c0,0,1.19,6.3-3.91,9.19s-7.15,0-7.15,0c0,0-3.57.34-2.21,3.23s4.43,10.89,1.7,13.62-9.7,1.43-9.7,3.69,3.57,5.67-1.02,12.14-10.04,4.94-7.66,10.04-1.7,24-3.4,24.34-5.11,1.53,0,7.15-2.04,3.35.51,17.08,3.4-7.21,3.4-7.21c0,0,4.09-3.28,6.13,2.19s3.23,7.86.17,12.28-6.98.34-3.06,4.43,6.47,13.73,1.53,12.14-.34,5.5-.34,5.5l11.51,8.74s4.15-.5,2.61,5.2-6.93,7.74-2.61,9.61,9.81-1.66,11.4,4.27.23,7.3,2.96,8.49.34-1.09,4.6,4.99-2.55,7.78-2.55,7.78c0,0-10.55-6.98-11.74-9.87s-9.36-10.04-10.55-12.77-1.69-8.66-5.45-10.04-11.21-48.34-11.21-48.34c-.47-.3-3.28-26.04-2.92-22.81.18,1.66-1.2-6.62-.43-13.62.73-6.56,3.62-11.82,3.62-11.82l12.44-26.93,7.95-13.67,8.98-10.12,13.51-13.4h0Z"/>
    <path class="cls-8" d="M407.84,214.18s-3.08,11.34,2.37,20.53c0,0,3.74-1.02,3.74,5.11s5.79,12.26,5.79,12.26c0,0,5.45,2.96,5.45,10.5s4.18,3.5,4.18,3.5c0,0-2.72-10.29.58-7.53,3.3,2.76-.58,12.94-.58,12.94l2.56-5.4s-1.39-16.41-2.56-16.72-11.33-19.74-11.33-19.74l-10.2-15.42v-.03Z"/>
    <path class="cls-8" d="M461.72,137.28s-3.45-8.38-15.74,15.08c-12.29,23.46-29.3,10.76-29.3,10.76l-3.56-4.89s9-3.79,5.6-5.87,6.47-6.5,6.47-6.5c0,0-1.84-5.46,4.18-5.79v-6.46l12.13-5.51,10.07-1.49,3.37,1.49,3.95,4.84,2.83,4.36v-.02Z"/>
    <path class="cls-8" d="M140.25,125.06s.17-.65,3.66,11.26,22.69,38.07,25.91,36.09,0-5.86,0-5.86l4.13-1.9,2.72-4.46s-1.36-1.74,0-2.76,2.72-1.67,2.72-1.67l8.01-3.4h-12.77l12.77-3.57,6.97-4.29,6.13-8.51s-11.23,14.3-21.79,8.51c-10.56-5.79,6.13-6.81,6.13-6.81,0,0-.34-3.4-9.19-2.72s-.68-6.13-.68-6.13c0,0,3.66-3.4-5.15-5.79s-8.81-6.81-8.81-6.81h3.4l-3.44-3.14h-6.77l-3.4-.95-6.89,4.28-2.12,2.3-3.62,4.86,2.07,1.46h0Z"/>
    <path class="cls-8" d="M127.39,190.79s6.04,3.4,9.11,6.81,7.25-2.72,9.24,1.87,6.58,15.78,6.58,15.78l-8.41-4.11-5.73-4.69-4.39-4.77-2.38-5.79-4-5.11h-.02Z"/>
    <path class="cls-8" d="M430.89,284.8s-13.72-4.83-14.74,3.48,1.7,6.24,1.7,6.24c0,0,5.88-4.34,4.64.23s-6.57,6.27-6.57,6.27c0,0-5.9,7.94-3.18,9.08s4.43-2.5,6.47,0-.59,1.04,3.28,2.62,3.96-6.02,0,2.89-9.41,6.84-15.54,15.53-6.13,11.42-8.17,15.5,8.98-5.93-3.4,2.36-6.47,11.59-6.47,11.59c0,0-6.77,13.35,2.06,7.69s15.64-11.44,21.43-23.35,11.06-23.59,14.04-31.2,4.44-28.93,4.44-28.93h0Z"/>
    <path class="cls-8" d="M210.96,376s26.31,12.92,36.86,16.32c10.55,3.4,13.28,16.23,13.28,16.23,0,0,5.52.84,4.8-3.1s-9.57-5.3-4.8-5.81,12.57,0,12.57,0l-12.57-7.66-12.71-5.11-26.24-7.81-11.2-3.06h0Z"/>
    <path class="cls-8" d="M332.17,410.85l9.61-14.42s4.95-4.46-23.91,4.57l8.27-4.57,6.03-4.45,14.2-2.57,15.93-3.24s-19.04,12.19-30.14,24.67h.01Z"/>
    <path class="cls-8" d="M576.44,542.04s-14.49,21.06-5.19,23.36c9.3,2.31,13.51-1.08,15.04,4.49,1.53,5.57-5.11,7.51,1.91,9.68l7.01,2.18-3.62-16.35-7.56-13.63-4.68-6.55-2.91-3.18Z"/>
    <path class="cls-8" d="M501.55,664.27s-5.21-17.4-1.3-23,10.36-17.35-7.25-5.72c-17.61,11.63-6.77-4.31-6.77-4.31,0,0-16.28,4.99-20.24,5.02s-3.82,7.4-3.82,7.4l16.21,10.47,8.14,4.77,5.5,3.44,6.48,1.49"/>
    <path class="cls-8" d="M551.26,622.02s14.92-21.09,6.75,2.86c-.34,1-.38,2.07-.12,3.09,1.04,4.02,3.55,14.5,2.01,15.91-1.71,1.57,10.07-8.67,12.52-10.8.29-.26.56-.54.79-.85l3.9-5.22c1.57-2.11,1.42-5.04-.36-6.98l-8.55-9.27c-.8-.87-1.87-1.46-3.03-1.67-3.8-.7-12.19-1.51-13.93,4.59l-1.5,3.68c-.7,1.72-.06,3.69,1.51,4.68h0Z"/>
    <path class="cls-8" d="M420.2,586.13l10.42,17.2s3.95-7.87,4.62-8.31,9.71-.8,9.71-.8l3.05-5.73-4-3.35-6.97-.75-6.67-3.92-9.4-5.33-3.84,5.13,3.08,5.89h0Z"/>
    <path class="cls-8" d="M502.26,582.34s-2.33-13.73,2.78-16.91,16.68-6.69,11.57,0-8.84,9.42-6.81,9.93c2.03.51,5.54,2.06,3.94,5.18-1.6,3.12-7.65,17.3-7.65,17.3l-6.97,10.7-2.17-4.72,5.3-21.48h.01Z"/>
    <path class="cls-8" d="M476.5,579.8c-.43,4.43,2.58,14.24,5.71,14.31,3.13.07,7.54-1.5,7.54-1.5l-13.24-12.81h0Z"/>
    <path class="cls-8" d="M431.24,544.15s4.32,11.57,11.38,3.4l-6.67,13.19-4.13-8.3-.58-8.3h0Z"/>
    <path class="cls-8" d="M437.77,577.97s28.68-26.11,20.23-17.22c-6.6,6.94-10.11,18.84-10.11,18.84,0,0,.36,2.52,3.68,3.21,1.28.26,3.31.57,5.33.85,3.25.45,6.47.83,6.47.83,0,0,10.5-13.61,9.82-19.99s-10.83,18.47-10.83,18.47l5.82.88,1.91.29,10.25-6.17s7.79-19.52,7.15-15.35c-1.11,7.23.04,8.7.04,8.7l-3.82,6.65-7.86,4.81-31.53-2.02-6.54-2.79h-.01Z"/>
    <path class="cls-8" d="M195.05,678.89s4.77,2.11,5.45-3.68-4.09-2.72,2.72-13.96c0,0-4.09,11.23,0,15.32s7.73-3.4,7.73-3.4c0,0,1.46-11.91,4.86-11.91,0,0-6.47,11.57-2.04,16.34s11.23-2.04,11.23-2.04c0,0,.29-14.98,2.7-12.94,0,0-4.79,12.26,0,14.98,0,0,6.4-2.72,10.53-1.02s13.32-6.3,13.32-6.3l3.4-9.02s9.53-10.55,13.96-5.11,2.94,5.78,2.94,5.78l-.1,5.01-2.79,9.19s-5.84,2.13-6.82,2.33-6.71,1.89-6.71,1.89l-9.08,5.26-6.71,1.51h-8.42l-9.08.67-8.03-1.68-10.21,1.68-2.38-5.08-4.09-.34-2.39-3.47h.01Z"/>
    <path class="cls-8" d="M257.43,623.1s16.16,3.1,14.68,11.27-3.58,11.3,1.55,10.41,10.63-4.74,10.63-4.74l8.12-11.04-6.81-1.44-18.04-4.46h-10.14.01Z"/>
    <path class="cls-8" d="M389.78,685.43c.34-1.7,7.83-9.53,0-25.53s1.78,0,1.78,0c0,0,4.35,11.57,4.01,17.7s17.36-3.74,13.28-10.21c0,0-1.5,6.81.61,7.83s13,2.38,10.79-1.36c0,0-6.03-3.62-3.66-9.87,0,0-6.72-8.17-8.43-6.13s.51-6.8.51-6.8l12.41,8.69,3.12,8.5-.62,7.32.62,5.1s-3.16.94-3.96,1.36-10.34,2.76-10.34,2.76c0,0-2.62-.12-4.77.64s-12.63,1.36-12.63,1.36l-2.72-1.36h0Z"/>
    <path class="cls-8" d="M362.31,660.24s5.34-14.64,41.43-10.89l5.69-15.33v-5.01s-3.45-13.88-7.98,0v8.43s-1.12,7.15-4.86,1.7-5.8-7.83-9.88,0-14.99,9.87-14.99,9.87c0,0-9.65,7.15-9.41,11.23h0Z"/>
    <path class="cls-8" d="M253.56,227.22c.3.29,5.61,5.55,4.09,8.85-1.26,2.73-6.53,2.72-8.17,2.72-6.4,0-10.51-2.79-14.64-4.77-13.11-6.29-34.18,2.45-34.34.68-.28-3.06,41.12-19.09,53.06-7.49h0Z"/>
    <path class="cls-8" d="M365.95,233.34c-10.65,1.35-13.5,6.66-23.83,6.81-2.38.03-7.81.11-8.85-2.38-1.13-2.7,3.38-7.23,6.81-9.53,1.02-.69,6.03-3.91,14.98-3.74,12.65.24,32.88,12.53,32.34,14.3-.33,1.08-13.75-6.42-21.45-5.45h0Z"/>
    <path class="cls-8" d="M247.14,182.44s-2.38,19.25,4.43,15.5,12.26-3.45,11.57-7.51-15.82-9.84-16-7.99Z"/>
    <path class="cls-8" d="M276.76,166.55s-6.52,10.26-3.09,15.89-.31,12.78,3.43,5.63,7.83-6.1,3.74-13.81l-4.09-7.71h.01Z"/>
    <path class="cls-8" d="M343.82,186.03s-.68-9.33-3.74-7.22-6.57,11.18-3.11,12.26,6.86-.28,6.86-2.66v-2.38h-.01Z"/>
    <path class="cls-8" d="M302.29,171.01s-9.31,19.04-2.27,19.24,8.06-14.37,8.06-14.37l-5.79-4.87h0Z"/>
    <path class="cls-8" d="M277.6,203.02s.85,13.44,2.9,11.16,8.17-10.5,3.74-11.16-6.99-3.83-6.64,0h0Z"/>
    <path class="cls-8" d="M291.73,215.25s4.86,30.51,10.16,4.81c.13-.64.26-1.32.4-2.03,0,0-10.21-6.91-10.55-2.78h-.01Z"/>
    <path class="cls-8" d="M302.73,195.22s3.64,16.66,7.05,12.58,8.51-13.61,3.57-12.58-10.62,0-10.62,0Z"/>
    <path class="cls-8" d="M322.37,180.63s-5.39,6.7-1.5,9.62,5.25-.28,5.25-4.81-2.04-7.48-3.74-4.81h-.01Z"/>
    <path class="cls-8" d="M298.64,340.83s-.62-17.49,14.19-11.56l-14.19,11.56Z"/>
    <path class="cls-8" d="M277.18,328.94s18.66-3.74,12.73,10.89l-12.73-10.89Z"/>
    <path class="cls-8" d="M345.06,659.11l.86,9.82,2.24,7.67,7.4,3.04,6.74.7,9.41,3.33s3.64-.87,0-4.96-10.19-3.83-13.17-8.68-1.28-10.09-6.72-10.92-6.76,0-6.76,0h0Z"/>
    <path class="cls-8" d="M195.49,604.71l2.76,12.8.99,3.96s1.54-10.16,7.7-3.78c6.16,6.38,7.95-3.06,7.95-3.06l2.64-1.7-22.03-8.21h0Z"/>
    <path class="cls-8" d="M329.75,638.13s.28-11.09,5.9-9.13-12.26,0-12.26,0l6.36,9.13h0Z"/>
    <path class="cls-8" d="M260.32,352.87l12.26,19.16s7.57-14.77,21.36-9.16c0,0,17.18-3.6,21.78,9.86l15.32-17.26-15.65.72s-6.96-2.15-7.37-2.35-11.36-8.88-11.36-8.88l-3.23,1.75-2.47,2.81-5.87,3.49-14.04,1.53-8.07-1.59-2.66-.07h0Z"/>
    <path class="cls-14" d="M262.83,356.87s32.26,1.57,32.53-.18c0,0,29.17,7.42,30.17,5.05s3.04-5.05,3.04-5.05c0,0-6.21.71-6.64.71s-14.13-2.38-14.13-2.38c0,0-8.54-6.08-8.95-6.23s-3.49-4.29-3.49-4.29c0,0-1.86,4.11-2.11,4.29s-4.6,3.17-4.6,3.17l-5.02,1.96s-12,.57-12.09.63-10.38-2.21-10.38-2.21l1.67,4.54h0Z"/>
    <path class="cls-8" d="M56.23,316.94l1.84-4.54c.03-.08.09-.15.16-.2.82-.59,6.28-5.81,9.71,1.18.16.32.13-2.02.06-2.37-.46-2.52.39-6.02,2.32-7.47,2.04-1.53,3.91-1.74,5.4-2.08,0,0,0,0,0,0,.02,0,1.77-.14,1.91-.11,2.3.6,5.32,4.57,5.36,7.24.07,3.89.76,12.14,1.11,9.93.09-.55,1.39-11.92,1.28-12.46-.49-2.41-.78-4.52.43-6.18.67-.92,3.79-2.98,7.49-3.49,3.24-.45,7.05.46,8.3,2.17,2.6,3.57.47,13.79.47,13.79,0,0-.51,4.09,2.55-2.38s4.09-12.6,4.09-12.6c0,0-.34-2.89,4.09-1.02s7.32,1.87,8.17,4.77c.63,2.13-.57,15.72-1.26,20.35-.07.49.61-1.16.7-1.65,1.34-7.26,3.95-9.71,4.47-8.58.73,1.59.08-6.46,0-7.32,0-.05-.02-.09-.04-.14-.37-.66-3.46-6.21-3.87-6.53s-6.55-3.23-7.23-3.55c-.05-.02-.09-.03-.14-.04l-11.75-1.16s-.08,0-.12,0l-14.64,2.67-15.08,3.55s-.09.03-.13.05l-8.29,5.1s-.07.05-.1.08l-4.29,4.87s-.07.09-.08.14l-2.88,7.98Z"/>
    <path class="cls-8" d="M61.12,355.61l7.84,20.39s10.84,1.61,19.42-1.19,12.57-4.44,12.57-4.44c0,0-35.82.19-39.83-14.76Z"/>
    <path class="cls-8" d="M127.09,353.57l7.13-5.63s.02-.03.02-.05l-1.21-9.22c0-.05-.08-.07-.1-.02-.51,1.6-3.84,11.62-8.62,16.31-5.21,5.1,2.79-1.4,2.79-1.4Z"/>
    <path class="cls-8" d="M539.97,571.29s-8.94,9.57-3.83,16.65,4.6.09,3.83,7.16,8.94,0,8.94,0l2.55-11.83s-8.04-16.9-11.49-11.98Z"/>
  </g>
  <g id="Outline">
    <path class="cls-16" d="M295.7,139.91c-109.83-.98-135.36,99.76-137.34,108.35-.1.42-.22.84-.37,1.25-30.78,85.94,27.39,113.71,27.39,113.71,0,0,37.79,31.32,57.19,34.72,19.4,3.4,53.13,44.94,53.13,44.94,0,0,6.79,7.15,9.17,0,2.38-7.15,23.15-25.53,26.89-29.62,3.74-4.09,64-37.45,64-37.45,53.45-39.49,49.36-71.49,49.36-71.49-22.81-140.6-149.43-164.43-149.43-164.43-4.74-11.23,7.13-14.3,7.13-14.3,0,0,138.55,10.89,149.28,181.45"/>
    <path class="cls-17" d="M271.17,314.21s-1.36,7.49,3.06,11.91,19.79,17.02,21.47,16.68,19.38-13.62,23.13-19.06c3.74-5.45.34-13.62,2.04-9.53"/>
    <path class="cls-17" d="M275.93,321.7s-4.28-4.95,18.04,0c0,0,15.66-3.9,22.81-1.1"/>
    <path class="cls-17" d="M393.72,275.74c-65.7-34.72-60.94,33.7-60.94,33.7,0,0,4.09,1.36,6.81,0,0,0,43.57,22.43,52.77-21.46,0,0,6.13-9.17,7.83-7.13s-8.17-1.02-8.17-1.02l8.37-2.04-6.67-2.04Z"/>
    <path class="cls-17" d="M261.64,308.08s-13.7-24.78-62.64-35.06l-8.85,3.06,10.89,2.72-7.49,2.04,7.49,4.4s13.96,7.22,53.53,19.24l7.06,3.59Z"/>
    <path class="cls-17" d="M342.32,349.61c-30.3,18.72-46.72-5.79-46.72-5.79,0,0-3.66,19.12-43.49,5.81"/>
    <path class="cls-17" d="M330.23,355.57s-37.68,64.75-69.65-3.45"/>
    <path class="cls-17" d="M340.62,337.02s60.6-14.64,89.87-4.09"/>
    <path class="cls-17" d="M354.91,342.81s37.45-10.11,70.81,13.67"/>
    <path class="cls-17" d="M354.91,346.21s24.17,5.45,30.64,13.96"/>
    <path class="cls-17" d="M237.81,333.06c-1.7-.81-50.38-8.64-70.81-2.17"/>
    <path class="cls-17" d="M235.08,338.72c-1.02,0-53.79,1.7-68.09,15.66"/>
    <path class="cls-17" d="M237.81,344.51s-19.4,4.43-27.57,13.96"/>
    <path class="cls-17" d="M226.91,401.7s10.21,20.6,8.26,32.6c-2.05,12.66-11.16,18.5-8.26,34.81,0,0,4.77-2.72,8.17-2.72,0,0,.37-10.69,7.66-28.77,1.06-2.63,1.32-5.51.78-8.29-1.38-7.16-4.12-21.05-5.72-26.26-2.19-7.15-10.89-1.36-10.89-1.36Z"/>
    <path class="cls-17" d="M233.86,482.52s-3.69,1.71-5.61,1.71,0-15.82,0-15.82l5.16-1.85.45,15.96Z"/>
    <path class="cls-17" d="M356.65,406.84s-1.36,25.19,1.7,35.91c3.06,10.72-1,36.6-1,36.6,0,0,6.53,3.09,9.68,3.4,2.56.25,3.04-29.9.65-40.9-1.77-8.16-3.54-33.31-2.35-36.89,0,0-5.28-3.74-8.68,1.87Z"/>
    <path class="cls-17" d="M356.8,495.52s1.8.8,4.01.97,4.01-13.41,4.01-13.41l-5.96-2.71-2.06,15.15Z"/>
    <path class="cls-16" d="M195.76,391.83c-14.71-3.89-35.64-35.14-41.7-44.61-.9-1.41-1.82-2.83-3.04-3.97-16.68-15.64-3.68-100.7-2.39-103.59,10.37-122.04,164.58-159.83,164.58-159.83,0,0,50.6,22.46,89.87,65.36,6.5,7.1,12.88,15.66,18.38,24,37.05,56.17,60.38,134.96-11.23,218.04,0,0,20.6,14.69,20.26,18.07s6.81.29,22.89,40.77c0,0,14.55,5.08,16.34,23.04l21.45,23.83s12.32,19.08-3.25,44.1"/>
    <path class="cls-16" d="M298.15,125.61"/>
    <path class="cls-16" d="M148.63,239.32s18.28-60.94,61.69-90.81,92.51-22.89,92.51-22.89"/>
    <path class="cls-16" d="M221.82,122.58s-37.8-44.8-83.75-15.69c0,0-28.34,26.3-16.09,66.13s30.88,42.07,30.88,42.07"/>
    <path class="cls-17" d="M170.36,117.36s-7.28-6.38-19.02-5.36-46.21,56.43,0,87.32h6.71"/>
    <path class="cls-16" d="M382.16,124.91s-.78,1.9,6.88-1.16c7.66-3.06,47.74-23.49,70.98-4.85,23.23,18.64,16.85,58.21,16.85,58.21,0,0-4.94,32.8-29.02,44.99"/>
    <path class="cls-17" d="M429.91,133.44s20.45-12.26,26.81-4.34,17.34,25.02,10.96,47.49c-6.38,22.47-23.66,35.1-23.66,35.1"/>
    <path class="cls-17" d="M339.59,309.44s-6.04-8.26,0-11.06c0,0,5.79,16.6,25.19,13.53,19.4-3.06,15.32-26.07,15.32-26.07,0,0-.51-6.87-3.57-9.93,0,0,14.12-1.05,13.44,20.28"/>
    <path class="cls-17" d="M395.76,375.83c-8.95,6.97-63.06,16-63.06,16-33.61,27.57-63.92,5.11-71.07,0s-65.21-19.95-65.21-19.95"/>
    <path class="cls-17" d="M210.57,573.87c-1.54-1.54-2.44-3.86-2.95-5.78-.47-1.78.17-3.7,1.66-4.8,10.93-8.07,20.38-35.28,23.18-43.94.52-1.62,2.01-2.71,3.71-2.73,3.63-.06,6.67.42,14.57,1.41.9.11,0,0,.9.08,12.97,1.11,94.65,7.66,120.4-.33,1.54-.48,3.17.45,3.47,2.03,1.53,8.02,7.14,29.66,24.81,43.88,1.74,1.4,2.17,3.87,1.07,5.82-4.4,7.76-15.2,25.56-21.79,25.56"/>
    <path class="cls-16" d="M423.89,556.51c3.51,2.3,13.16,8.45,12.13,6.13-6.13-13.79-4.6-20.43-4.6-20.43,0,0-2.3-14.43,23.36-28.21s31.66,6.38,31.66,6.38c0,0-.64,3.45-2.3,4.34"/>
    <path class="cls-17" d="M493.85,524.21c-.14-33.96-26.43-30-26.43-30-38.04,6.89-29.87,9.7-41.11,22.4s-1.89,40.25-1.89,40.25"/>
    <path class="cls-16" d="M484.53,522.93s7.12,30.77,8.8,32.94,1.67,14.43-11.86,24.13c-13.53,9.7-38.3,0-38.3,0,0,0-15.06-3.57-7.15-17.36"/>
    <path class="cls-16" d="M417.13,580.25c8.94,17.36,1.79,20.68,1.79,20.68-98.81,61.28-223.15,2.55-223.15,2.55-10.72-9.45-1.02-21.45-1.02-21.45"/>
    <path class="cls-17" d="M401.68,452.8c-7.1,17.38-7.72,48.84,21.32,104.22,0,0,8.43,10.72-5.87,22.47-14.3,11.74-42.89,27.32-70.21,27.06"/>
    <path class="cls-17" d="M204.45,455.15s-15.36,27.45-13.73,99.32c0,0-9.54,18.84,7.97,29.84s60.4,29.13,76.74,24.79"/>
    <path class="cls-16" d="M188.12,565.78"/>
    <path class="cls-16" d="M99.68,346.96"/>
    <path class="cls-16" d="M189.09,388.59s-29.95,14.15-43.9,10.9"/>
    <path class="cls-16" d="M128.74,603.1"/>
    <g>
      <path class="cls-10" d="M136.62,349.72s4.44,6.33,3.3,9.53,2.36-.27.74,8.89c-8.47,4.43-9.26,5.89-9.26,5.89,0,0-.38-3.43-1.13-7.58-.21-7.98,3.69-15.58.37-13.64"/>
      <path class="cls-10" d="M93.1,387.46s31.05-3.82,39.05-20.1c8-16.28,4.43,2.63,4.43,2.63l-7.34,5.33-9.91,7.26-20.67,6.93-8.57,2.59-7.68.73-18.17,3.06-2.43-11.62.24-2.94s5.35,6.86,25.44,7.93c0,0,3.6-1.77,3.74-3.57s-.56-4.87-4.37-6.6-3.33-1.37-3.33-1.54,10.5-2.8,10.5-2.8c0,0-5.02,3.17-4.23,4.94s4.03,6.5,4.33,6.63,2.3,1.15,3.26.61"/>
      <path class="cls-10" d="M108.22,368.07s-3.43,4.03-1.81,8.26c1.62,4.23-1.94-2.29-2.87-2.84s-1.45-1.03-3.42-1.13,8.11-4.3,8.11-4.3h0Z"/>
      <path class="cls-10" d="M78.89,378.38s-3.45,2.64-2.26,4.64-2.84-4.2-4.47-4.42,6.48-.51,6.48-.51l.24.29h0Z"/>
      <path class="cls-10" d="M81.63,389s-3.82-2.21-3.95-3.61-.55,3.61-.55,3.61h4.5,0Z"/>
      <path class="cls-17" d="M133.64,351.67"/>
      <path class="cls-16" d="M118.93,336.93"/>
    </g>
    <path class="cls-16" d="M195.76,603.49s6.64,35.49,14.81,46.38c0,0-30.3,9.53-12.6,32.34,0,0,.24.68,3.52,0s-.12,7.15,13.16,3.4c0,0,6.97,4.77,16.08-.34,0,0,11.5,4.43,17.96-1.02s17.36-6.47,17.36-6.47c0,0,7.83,1.02,6.13-20.09,0,0,19.77-28.04,20.77-28.85"/>
    <path class="cls-16" d="M323.93,628.85s16,23.75,21.45,27.49c0,0-.34,20.77,6.98,22.13s16.85,1.36,21.96,6.81,13.96,2.38,16,0c0,0,10.21,3.06,16-.34,0,0,17.11-.34,17.57-7.15.47-6.81,2.84-12.54-3.11-19.2,0,0-10.72-8.71-16.51-9.39,0,0,2.04-9.87,9.87-23.15,7.83-13.28,4.77-25.11,4.77-25.11"/>
    <path class="cls-16" d="M436.49,576.35"/>
    <path class="cls-16" d="M419.02,577.81"/>
    <path class="cls-16" d="M420.78,589.23"/>
    <path class="cls-16" d="M442.79,579.43"/>
    <path class="cls-16" d="M429.42,560.59"/>
    <path class="cls-16" d="M425.45,564.34"/>
    <path class="cls-3" d="M332.71,309.44l6.27.23s-1.93-5.36-2-5.75,1.04-4.52,1.04-4.52l1.49-1.02,2.72,4.91,4.21,5.14,2.94,1.24,8.92,2.55,12.95-2.48,5.58-5.19s2.49-6.04,2.65-6.17.87-6.02.87-6.02l-.58-5.08-1.17-7.82-2.15-3.56,3.9.6,4.46,2.67,3.41,5.2,2.02,6.98-.33,2.74v.84s2.37-6.95,2.37-6.95l4.3-5.46.72-1.28-4.57-1.18,2.96-1.15,1.61-2.05-1.05-.32s-20.18-8.27-20.53-8.37-7.41-1.71-7.41-1.71l-11.51-.55-7.06,1.96s-4.25,3.05-4.59,3.57-5.61,6.47-5.61,6.47l-1.64,2.92-2.09,5.02-1.75,6.46-1.01,6.58-.33,10.57Z"/>
    <path class="cls-3" d="M261.64,307.17l-11.43-12-23.78-13.67c-.23-.13-3.04-1-3.29-1.08l-22.43-6.5-8.74,1.54,8.29,8.89,5,2.39"/>
    <path class="cls-18" d="M353.93,275.15c-1.18.47-2.22,1.25-2.91,2.32-1.24,1.92-2.4,5.21,1.26,8.37,3.53,3.05,7,.79,9.18-2.24,1.57-2.19,1.99-5.1.34-7.23-1.32-1.7-3.68-2.87-7.86-1.22Z"/>
    <path class="cls-3" d="M193.55,280.85l6.91,3.6.96-1.26s.53-.89.57-1.09.49-1.17.62-1.36.64-.83.68-.98.26-.96.26-.96c0,0-.64-.28-.74-.26s-3.02,1.28-3.36,1.21-2.79.55-3.09.55-1.74-.15-1.83-.09-.98.72-.98.72"/>
    <g>
      <path class="cls-17" d="M158.87,248.45s1.96,98.04,38.07,123.61"/>
      <path class="cls-17" d="M432.79,257.42s4.92,72.97-36.52,118.59"/>
    </g>
    <path class="cls-16" d="M149.15,415.04"/>
    <path class="cls-16" d="M138.05,367.74h0c1.64-.74,2.65-2.43,2.55-4.23-1.21-22.42-11.3-10.25-11.3-10.25,0,0-32.51,26.64-60.09,23.23,0,0-7.54-1.1-7.15,6.87s-.01,4.62.4,8.09c0,0,1.27,6.74,6.04,4.34,0,0,52.54-5.31,68.8-26.7.94-1.24,1.13-2.53,2.38-1.22.52.55.7,2.01.85,2.75l6.44,38.45"/>
    <path class="cls-16" d="M199.23,469.1s-28.19,15.28-54.85-2.54c0,0-18.68,6-25.48-5.65,0,0-27.22,13.67-50.41-65.12"/>
    <path class="cls-16" d="M69.21,376.49c-1.68-3.09-12.78-29.53-12.77-43.43.02-17.42,1.02-27.3,12.05-31.89,8.94-3.72,26.39-10.36,40.37-9.02,7.81.75,19.56,4.76,15.62,15.93-.77,2.17,3.32,2.79,4.47,6.87,4.53,16.11,4.39,35.29,4.39,35.29"/>
    <path class="cls-16" d="M99.68,291.97"/>
    <path class="cls-16" d="M420.78,589.23s41.45,79.43,88.77,74.32c14.79-1.6,27.33-6.1,37.59-11.53,23.82-12.62,41.28-35.11,46.95-61.46,1.41-6.54,1.48-12.23.22-19.6-1.71-10-8.62-17.95-13.09-23.99-7.3-9.86-18.36-16.42-30.59-17.4-9.75-.79-21.23,1.73-31.21,13.14-16.68,19.08-17.25,34.95-17.47,41.04-.13,3.66-2.49,6.98-6.01,7.99-3.93,1.12-9.62-.29-16.63-10.41"/>
  </g>
</svg>