<svg width="675" height="245" viewBox="0 0 675 245" fill="none" xmlns="http://www.w3.org/2000/svg">
<rect width="675" height="245" rx="15" fill="#050F0D"/>
<path d="M31.7988 20.7207H32.6309L28.4297 25.8301L27.9844 29H27.2402L27.6855 25.8301L24.9141 20.7207H25.7754L28.1777 25.1094L31.7988 20.7207ZM34.0957 29.1465C33.4902 29.1465 32.959 29.0078 32.502 28.7305C32.0488 28.4492 31.7168 28.0645 31.5059 27.5762C31.2949 27.084 31.2305 26.5391 31.3125 25.9414C31.3945 25.3438 31.6113 24.8008 31.9629 24.3125C32.3145 23.8203 32.7578 23.4355 33.293 23.1582C33.832 22.877 34.4043 22.7363 35.0098 22.7363C35.6113 22.7363 36.1387 22.877 36.5918 23.1582C37.0449 23.4355 37.377 23.8203 37.5879 24.3125C37.7988 24.8008 37.8633 25.3438 37.7812 25.9414C37.6992 26.5391 37.4824 27.084 37.1309 27.5762C36.7793 28.0645 36.3359 28.4492 35.8008 28.7305C35.2656 29.0078 34.6973 29.1465 34.0957 29.1465ZM32.4961 27.752C32.9102 28.2324 33.4766 28.4727 34.1953 28.4727C34.9141 28.4727 35.5469 28.2324 36.0938 27.752C36.6406 27.2676 36.9629 26.6641 37.0605 25.9414C37.1621 25.2188 37.0078 24.6172 36.5977 24.1367C36.1914 23.6523 35.6309 23.4102 34.916 23.4102C34.1973 23.4102 33.5625 23.6523 33.0117 24.1367C32.4609 24.6172 32.1348 25.2188 32.0332 25.9414C31.9316 26.6641 32.0859 27.2676 32.4961 27.752ZM43.5293 28.4434C42.9707 28.9121 42.2832 29.1465 41.4668 29.1465C40.6504 29.1465 40.0254 28.9121 39.5918 28.4434C39.1621 27.9746 39.002 27.3555 39.1113 26.5859L39.6387 22.8828H40.3359L39.8203 26.4922C39.7422 27.0898 39.8613 27.5703 40.1777 27.9336C40.4941 28.293 40.9551 28.4727 41.5605 28.4727C42.166 28.4727 42.6777 28.291 43.0957 27.9277C43.5137 27.5645 43.7656 27.0859 43.8516 26.4922L44.3555 22.8828H45.0527L44.5371 26.5859C44.4277 27.3555 44.0918 27.9746 43.5293 28.4434ZM49.8984 22.7832H50.0742L49.9805 23.5039H49.7871C49.084 23.5039 48.4961 23.7148 48.0234 24.1367C47.5547 24.5586 47.2715 25.127 47.1738 25.8418H47.1621L46.7168 29H46.0195L46.8867 22.8828H47.5781L47.4023 24.166C47.6875 23.7285 48.0449 23.3887 48.4746 23.1465C48.9082 22.9043 49.3828 22.7832 49.8984 22.7832ZM58.0898 20.7207C58.8086 20.7207 59.377 20.959 59.7949 21.4355C60.2129 21.9121 60.373 22.5059 60.2754 23.2168C60.1738 23.9316 59.8457 24.5293 59.291 25.0098C58.7402 25.4863 58.1035 25.7246 57.3809 25.7246H54.8379L54.3809 29H53.6543L54.8145 20.7207H58.0898ZM58.8105 24.5117C59.2012 24.1641 59.4336 23.7324 59.5078 23.2168C59.582 22.7012 59.4727 22.2734 59.1797 21.9336C58.8867 21.5898 58.4844 21.418 57.9727 21.418H55.4531L54.9492 25.0273H57.4688C57.9766 25.0273 58.4238 24.8555 58.8105 24.5117ZM63.4043 29.1465C62.7988 29.1465 62.2676 29.0078 61.8105 28.7305C61.3574 28.4492 61.0254 28.0645 60.8145 27.5762C60.6035 27.084 60.5391 26.5391 60.6211 25.9414C60.7031 25.3438 60.9199 24.8008 61.2715 24.3125C61.623 23.8203 62.0664 23.4355 62.6016 23.1582C63.1406 22.877 63.7129 22.7363 64.3184 22.7363C64.9199 22.7363 65.4473 22.877 65.9004 23.1582C66.3535 23.4355 66.6855 23.8203 66.8965 24.3125C67.1074 24.8008 67.1719 25.3438 67.0898 25.9414C67.0078 26.5391 66.791 27.084 66.4395 27.5762C66.0879 28.0645 65.6445 28.4492 65.1094 28.7305C64.5742 29.0078 64.0059 29.1465 63.4043 29.1465ZM61.8047 27.752C62.2188 28.2324 62.7852 28.4727 63.5039 28.4727C64.2227 28.4727 64.8555 28.2324 65.4023 27.752C65.9492 27.2676 66.2715 26.6641 66.3691 25.9414C66.4707 25.2188 66.3164 24.6172 65.9062 24.1367C65.5 23.6523 64.9395 23.4102 64.2246 23.4102C63.5059 23.4102 62.8711 23.6523 62.3203 24.1367C61.7695 24.6172 61.4434 25.2188 61.3418 25.9414C61.2402 26.6641 61.3945 27.2676 61.8047 27.752ZM70.0781 29.1465C69.582 29.1465 69.1406 29.0586 68.7539 28.8828C68.3672 28.707 68.0527 28.4707 67.8105 28.1738L68.2793 27.6699C68.4785 27.9316 68.7383 28.1367 69.0586 28.2852C69.3828 28.4336 69.75 28.5078 70.1602 28.5078C70.6445 28.5078 71.0586 28.4082 71.4023 28.209C71.75 28.0059 71.9473 27.7383 71.9941 27.4062C72.0098 27.3008 72.0059 27.2051 71.9824 27.1191C71.9629 27.0293 71.9316 26.9512 71.8887 26.8848C71.8496 26.8184 71.7871 26.7559 71.7012 26.6973C71.6152 26.6387 71.5352 26.5898 71.4609 26.5508C71.3867 26.5117 71.2852 26.4707 71.1562 26.4277C71.0273 26.3848 70.916 26.3516 70.8223 26.3281C70.7324 26.3008 70.6113 26.2676 70.459 26.2285C70.1934 26.1582 69.9902 26.1016 69.8496 26.0586C69.7129 26.0156 69.5352 25.9434 69.3164 25.8418C69.1016 25.7402 68.9434 25.6348 68.8418 25.5254C68.7402 25.4121 68.6562 25.2637 68.5898 25.0801C68.5234 24.8965 68.5078 24.6875 68.543 24.4531C68.5938 24.0938 68.7422 23.7832 68.9883 23.5215C69.2344 23.2559 69.5332 23.0586 69.8848 22.9297C70.2363 22.8008 70.6172 22.7363 71.0273 22.7363C71.8867 22.7363 72.5664 23.0195 73.0664 23.5859L72.5977 24.1016C72.4219 23.8711 72.1914 23.6914 71.9062 23.5625C71.6211 23.4336 71.2988 23.3691 70.9395 23.3691C70.502 23.3691 70.123 23.4648 69.8027 23.6562C69.4863 23.8438 69.3047 24.0938 69.2578 24.4062C69.2422 24.5117 69.2461 24.6094 69.2695 24.6992C69.293 24.7891 69.3242 24.8672 69.3633 24.9336C69.4062 25 69.4707 25.0645 69.5566 25.127C69.6426 25.1855 69.7227 25.2344 69.7969 25.2734C69.875 25.3086 69.9805 25.3496 70.1133 25.3965C70.2461 25.4395 70.3574 25.4727 70.4473 25.4961C70.541 25.5195 70.666 25.5508 70.8223 25.5898C71.0059 25.6367 71.1484 25.6758 71.25 25.707C71.3516 25.7344 71.4863 25.7773 71.6543 25.8359C71.8223 25.8945 71.9512 25.9512 72.041 26.0059C72.1348 26.0566 72.2383 26.127 72.3516 26.2168C72.4648 26.3066 72.5469 26.4023 72.5977 26.5039C72.6523 26.6055 72.6934 26.7266 72.7207 26.8672C72.748 27.0078 72.75 27.1621 72.7266 27.3301C72.6719 27.7012 72.5176 28.0254 72.2637 28.3027C72.0137 28.5801 71.6992 28.791 71.3203 28.9355C70.9414 29.0762 70.5273 29.1465 70.0781 29.1465ZM75.3633 21.4414C75.2188 21.4414 75.1055 21.3945 75.0234 21.3008C74.9414 21.2031 74.9102 21.082 74.9297 20.9375C74.9492 20.8008 75.0137 20.6855 75.123 20.5918C75.2324 20.4941 75.3594 20.4453 75.5039 20.4453C75.6445 20.4453 75.7559 20.4922 75.8379 20.5859C75.9238 20.6797 75.957 20.7969 75.9375 20.9375C75.9219 21.0781 75.8574 21.1973 75.7441 21.2949C75.6309 21.3926 75.5039 21.4414 75.3633 21.4414ZM73.9453 29L74.8125 22.8828H75.5039L74.6426 29H73.9453ZM78.7441 23.5156L78.1934 27.4297C78.1465 27.7969 78.2031 28.0625 78.3633 28.2266C78.5234 28.3906 78.7773 28.4727 79.125 28.4727C79.4219 28.4727 79.7266 28.3965 80.0391 28.2441L79.957 28.9062C79.6172 29.0664 79.2637 29.1465 78.8965 29.1465C78.3652 29.1465 77.9785 29.0117 77.7363 28.7422C77.4941 28.4688 77.4102 28.0664 77.4844 27.5352L78.0469 23.5156H76.8574L76.957 22.8828H78.1406L78.3809 21.1777H79.0781L78.8379 22.8828H80.7949L80.7129 23.5156H78.7441ZM82.7695 21.4414C82.625 21.4414 82.5117 21.3945 82.4297 21.3008C82.3477 21.2031 82.3164 21.082 82.3359 20.9375C82.3555 20.8008 82.4199 20.6855 82.5293 20.5918C82.6387 20.4941 82.7656 20.4453 82.9102 20.4453C83.0508 20.4453 83.1621 20.4922 83.2441 20.5859C83.3301 20.6797 83.3633 20.7969 83.3438 20.9375C83.3281 21.0781 83.2637 21.1973 83.1504 21.2949C83.0371 21.3926 82.9102 21.4414 82.7695 21.4414ZM81.3516 29L82.2188 22.8828H82.9102L82.0488 29H81.3516ZM86.7715 29.1465C86.166 29.1465 85.6348 29.0078 85.1777 28.7305C84.7246 28.4492 84.3926 28.0645 84.1816 27.5762C83.9707 27.084 83.9062 26.5391 83.9883 25.9414C84.0703 25.3438 84.2871 24.8008 84.6387 24.3125C84.9902 23.8203 85.4336 23.4355 85.9688 23.1582C86.5078 22.877 87.0801 22.7363 87.6855 22.7363C88.2871 22.7363 88.8145 22.877 89.2676 23.1582C89.7207 23.4355 90.0527 23.8203 90.2637 24.3125C90.4746 24.8008 90.5391 25.3438 90.457 25.9414C90.375 26.5391 90.1582 27.084 89.8066 27.5762C89.4551 28.0645 89.0117 28.4492 88.4766 28.7305C87.9414 29.0078 87.373 29.1465 86.7715 29.1465ZM85.1719 27.752C85.5859 28.2324 86.1523 28.4727 86.8711 28.4727C87.5898 28.4727 88.2227 28.2324 88.7695 27.752C89.3164 27.2676 89.6387 26.6641 89.7363 25.9414C89.8379 25.2188 89.6836 24.6172 89.2734 24.1367C88.8672 23.6523 88.3066 23.4102 87.5918 23.4102C86.873 23.4102 86.2383 23.6523 85.6875 24.1367C85.1367 24.6172 84.8105 25.2188 84.709 25.9414C84.6074 26.6641 84.7617 27.2676 85.1719 27.752ZM95.4844 22.7363C96.2539 22.7363 96.8398 22.9688 97.2422 23.4336C97.6445 23.8984 97.791 24.5176 97.6816 25.291L97.166 29H96.4688L96.9609 25.4961C97.0508 24.8672 96.9336 24.3633 96.6094 23.9844C96.2852 23.6016 95.8105 23.4102 95.1855 23.4102C94.5332 23.4102 93.9805 23.6035 93.5273 23.9902C93.0742 24.373 92.8027 24.8828 92.7129 25.5195L92.2207 29H91.5234L92.3906 22.8828H93.082L92.9297 24.0195C93.2109 23.6094 93.5723 23.293 94.0137 23.0703C94.459 22.8477 94.9492 22.7363 95.4844 22.7363Z" fill="#E1E1E1"/>
<path d="M44.4336 126.146C43.8242 126.146 43.3066 125.967 42.8809 125.607C42.4551 125.244 42.1562 124.736 41.9844 124.084C41.8125 123.432 41.7852 122.689 41.9023 121.857C42.0156 121.025 42.25 120.283 42.6055 119.631C42.9648 118.979 43.4082 118.473 43.9355 118.113C44.4668 117.754 45.0371 117.574 45.6465 117.574C46.2598 117.574 46.7793 117.754 47.2051 118.113C47.6348 118.473 47.9355 118.979 48.1074 119.631C48.2832 120.279 48.3145 121.021 48.2012 121.857C48.084 122.689 47.8457 123.432 47.4863 124.084C47.127 124.736 46.6816 125.244 46.1504 125.607C45.6191 125.967 45.0469 126.146 44.4336 126.146ZM44.5508 125.426C45.25 125.426 45.8672 125.094 46.4023 124.43C46.9414 123.762 47.2852 122.904 47.4336 121.857C47.5273 121.166 47.5098 120.551 47.3809 120.012C47.2559 119.469 47.0332 119.047 46.7129 118.746C46.3965 118.445 46.0078 118.295 45.5469 118.295C44.8477 118.295 44.2285 118.627 43.6895 119.291C43.1543 119.955 42.8145 120.811 42.6699 121.857C42.5723 122.549 42.5859 123.166 42.7109 123.709C42.8359 124.252 43.0586 124.674 43.3789 124.975C43.6992 125.275 44.0898 125.426 44.5508 125.426Z" fill="#E1E1E1"/>
<path d="M178.595 126.146C177.986 126.146 177.468 125.967 177.043 125.607C176.617 125.244 176.318 124.736 176.146 124.084C175.974 123.432 175.947 122.689 176.064 121.857C176.177 121.025 176.412 120.283 176.767 119.631C177.127 118.979 177.57 118.473 178.097 118.113C178.629 117.754 179.199 117.574 179.808 117.574C180.422 117.574 180.941 117.754 181.367 118.113C181.797 118.473 182.097 118.979 182.269 119.631C182.445 120.279 182.476 121.021 182.363 121.857C182.246 122.689 182.007 123.432 181.648 124.084C181.289 124.736 180.843 125.244 180.312 125.607C179.781 125.967 179.209 126.146 178.595 126.146ZM178.713 125.426C179.412 125.426 180.029 125.094 180.564 124.43C181.103 123.762 181.447 122.904 181.595 121.857C181.689 121.166 181.672 120.551 181.543 120.012C181.418 119.469 181.195 119.047 180.875 118.746C180.558 118.445 180.17 118.295 179.709 118.295C179.009 118.295 178.39 118.627 177.851 119.291C177.316 119.955 176.976 120.811 176.832 121.857C176.734 122.549 176.748 123.166 176.873 123.709C176.998 124.252 177.22 124.674 177.541 124.975C177.861 125.275 178.252 125.426 178.713 125.426ZM183.637 126.059C183.469 126.059 183.338 126.006 183.245 125.9C183.155 125.791 183.122 125.656 183.145 125.496C183.161 125.336 183.231 125.203 183.356 125.098C183.481 124.988 183.626 124.934 183.79 124.934C183.95 124.934 184.077 124.988 184.17 125.098C184.264 125.203 184.301 125.336 184.282 125.496C184.258 125.656 184.184 125.791 184.059 125.9C183.938 126.006 183.797 126.059 183.637 126.059ZM191.949 118.418H188.064L187.355 121.43C187.613 121.246 187.919 121.098 188.275 120.984C188.634 120.871 188.992 120.814 189.347 120.814C190.156 120.814 190.794 121.068 191.263 121.576C191.736 122.084 191.917 122.715 191.808 123.469C191.706 124.23 191.331 124.867 190.683 125.379C190.039 125.891 189.285 126.146 188.421 126.146C187.882 126.146 187.386 126.035 186.933 125.812C186.48 125.586 186.097 125.264 185.785 124.846L186.265 124.271C186.507 124.635 186.822 124.918 187.208 125.121C187.599 125.324 188.029 125.426 188.497 125.426C189.154 125.426 189.724 125.238 190.208 124.863C190.693 124.484 190.974 124.016 191.052 123.457C191.13 122.898 190.992 122.434 190.636 122.062C190.281 121.688 189.794 121.5 189.177 121.5C188.818 121.5 188.456 121.566 188.093 121.699C187.734 121.832 187.419 122.01 187.15 122.232L186.54 122.016L187.537 117.721H192.048L191.949 118.418ZM201.573 117.721H202.498L201.332 126H200.6L201.608 118.799L197.723 124.09H197.313L194.928 118.822L193.903 126H193.176L194.336 117.721H195.285L197.688 123.012L201.573 117.721Z" fill="#E1E1E1"/>
<path d="M470.636 117.721H471.152L469.986 126H469.242L470.285 118.605L468.293 119.613L468.052 119.027L470.636 117.721ZM472.585 126.059C472.417 126.059 472.286 126.006 472.192 125.9C472.102 125.791 472.069 125.656 472.092 125.496C472.108 125.336 472.178 125.203 472.303 125.098C472.428 124.988 472.573 124.934 472.737 124.934C472.897 124.934 473.024 124.988 473.118 125.098C473.211 125.203 473.249 125.336 473.229 125.496C473.206 125.656 473.131 125.791 473.006 125.9C472.885 126.006 472.745 126.059 472.585 126.059ZM480.896 118.418H477.011L476.302 121.43C476.56 121.246 476.867 121.098 477.222 120.984C477.581 120.871 477.939 120.814 478.294 120.814C479.103 120.814 479.742 121.068 480.21 121.576C480.683 122.084 480.865 122.715 480.755 123.469C480.654 124.23 480.279 124.867 479.63 125.379C478.986 125.891 478.232 126.146 477.369 126.146C476.83 126.146 476.333 126.035 475.88 125.812C475.427 125.586 475.044 125.264 474.732 124.846L475.212 124.271C475.455 124.635 475.769 124.918 476.156 125.121C476.546 125.324 476.976 125.426 477.445 125.426C478.101 125.426 478.671 125.238 479.156 124.863C479.64 124.484 479.921 124.016 479.999 123.457C480.078 122.898 479.939 122.434 479.583 122.062C479.228 121.688 478.742 121.5 478.124 121.5C477.765 121.5 477.404 121.566 477.04 121.699C476.681 121.832 476.367 122.01 476.097 122.232L475.488 122.016L476.484 117.721H480.996L480.896 118.418ZM490.52 117.721H491.446L490.28 126H489.547L490.555 118.799L486.67 124.09H486.26L483.875 118.822L482.85 126H482.123L483.284 117.721H484.233L486.635 123.012L490.52 117.721Z" fill="#E1E1E1"/>
<path d="M622.161 119.854C622.106 120.264 621.961 120.645 621.727 120.996C621.493 121.348 621.17 121.719 620.76 122.109L617.374 125.303H621.622L621.528 126H616.213L616.295 125.414L620.157 121.752C620.524 121.408 620.811 121.092 621.018 120.803C621.225 120.51 621.35 120.207 621.393 119.895C621.46 119.426 621.348 119.047 621.059 118.758C620.77 118.465 620.37 118.318 619.858 118.318C619.424 118.318 619.012 118.43 618.622 118.652C618.235 118.871 617.899 119.176 617.614 119.566L617.145 119.109C617.477 118.641 617.895 118.268 618.399 117.99C618.907 117.713 619.442 117.574 620.004 117.574C620.723 117.574 621.286 117.787 621.692 118.213C622.102 118.639 622.258 119.186 622.161 119.854ZM631.679 117.721H632.605L631.439 126H630.706L631.714 118.799L627.83 124.09H627.419L625.035 118.822L624.009 126H623.283L624.443 117.721H625.392L627.794 123.012L631.679 117.721Z" fill="#E1E1E1"/>
<path d="M330.538 117.721H331.053L329.887 126H329.143L330.186 118.605L328.194 119.613L327.954 119.027L330.538 117.721ZM340.619 117.721H341.544L340.378 126H339.646L340.654 118.799L336.769 124.09H336.359L333.974 118.822L332.949 126H332.222L333.382 117.721H334.331L336.734 123.012L340.619 117.721Z" fill="#E1E1E1"/>
<rect x="44.5" y="71.5" width="579" height="25" rx="7.5" fill="#071110" stroke="#2A2A2A"/>
<path d="M44.5 109V100.5" stroke="#363636"/>
<path d="M117 109V100.5" stroke="#363636"/>
<path d="M407 109V100.5" stroke="#363636"/>
<path d="M189 109V100.5" stroke="#363636"/>
<path d="M479 109V100.5" stroke="#363636"/>
<path d="M262 109V100.5" stroke="#363636"/>
<path d="M552 109V100.5" stroke="#363636"/>
<path d="M334 109V100.5" stroke="#363636"/>
<path d="M624 109V100.5" stroke="#363636"/>
<path d="M44.4336 225.146C43.8242 225.146 43.3066 224.967 42.8809 224.607C42.4551 224.244 42.1562 223.736 41.9844 223.084C41.8125 222.432 41.7852 221.689 41.9023 220.857C42.0156 220.025 42.25 219.283 42.6055 218.631C42.9648 217.979 43.4082 217.473 43.9355 217.113C44.4668 216.754 45.0371 216.574 45.6465 216.574C46.2598 216.574 46.7793 216.754 47.2051 217.113C47.6348 217.473 47.9355 217.979 48.1074 218.631C48.2832 219.279 48.3145 220.021 48.2012 220.857C48.084 221.689 47.8457 222.432 47.4863 223.084C47.127 223.736 46.6816 224.244 46.1504 224.607C45.6191 224.967 45.0469 225.146 44.4336 225.146ZM44.5508 224.426C45.25 224.426 45.8672 224.094 46.4023 223.43C46.9414 222.762 47.2852 221.904 47.4336 220.857C47.5273 220.166 47.5098 219.551 47.3809 219.012C47.2559 218.469 47.0332 218.047 46.7129 217.746C46.3965 217.445 46.0078 217.295 45.5469 217.295C44.8477 217.295 44.2285 217.627 43.6895 218.291C43.1543 218.955 42.8145 219.811 42.6699 220.857C42.5723 221.549 42.5859 222.166 42.7109 222.709C42.8359 223.252 43.0586 223.674 43.3789 223.975C43.6992 224.275 44.0898 224.426 44.5508 224.426Z" fill="#E1E1E1"/>
<path d="M178.595 225.146C177.986 225.146 177.468 224.967 177.043 224.607C176.617 224.244 176.318 223.736 176.146 223.084C175.974 222.432 175.947 221.689 176.064 220.857C176.177 220.025 176.412 219.283 176.767 218.631C177.127 217.979 177.57 217.473 178.097 217.113C178.629 216.754 179.199 216.574 179.808 216.574C180.422 216.574 180.941 216.754 181.367 217.113C181.797 217.473 182.097 217.979 182.269 218.631C182.445 219.279 182.476 220.021 182.363 220.857C182.246 221.689 182.007 222.432 181.648 223.084C181.289 223.736 180.843 224.244 180.312 224.607C179.781 224.967 179.209 225.146 178.595 225.146ZM178.713 224.426C179.412 224.426 180.029 224.094 180.564 223.43C181.103 222.762 181.447 221.904 181.595 220.857C181.689 220.166 181.672 219.551 181.543 219.012C181.418 218.469 181.195 218.047 180.875 217.746C180.558 217.445 180.17 217.295 179.709 217.295C179.009 217.295 178.39 217.627 177.851 218.291C177.316 218.955 176.976 219.811 176.832 220.857C176.734 221.549 176.748 222.166 176.873 222.709C176.998 223.252 177.22 223.674 177.541 223.975C177.861 224.275 178.252 224.426 178.713 224.426ZM183.637 225.059C183.469 225.059 183.338 225.006 183.245 224.9C183.155 224.791 183.122 224.656 183.145 224.496C183.161 224.336 183.231 224.203 183.356 224.098C183.481 223.988 183.626 223.934 183.79 223.934C183.95 223.934 184.077 223.988 184.17 224.098C184.264 224.203 184.301 224.336 184.282 224.496C184.258 224.656 184.184 224.791 184.059 224.9C183.938 225.006 183.797 225.059 183.637 225.059ZM191.949 217.418H188.064L187.355 220.43C187.613 220.246 187.919 220.098 188.275 219.984C188.634 219.871 188.992 219.814 189.347 219.814C190.156 219.814 190.794 220.068 191.263 220.576C191.736 221.084 191.917 221.715 191.808 222.469C191.706 223.23 191.331 223.867 190.683 224.379C190.039 224.891 189.285 225.146 188.421 225.146C187.882 225.146 187.386 225.035 186.933 224.812C186.48 224.586 186.097 224.264 185.785 223.846L186.265 223.271C186.507 223.635 186.822 223.918 187.208 224.121C187.599 224.324 188.029 224.426 188.497 224.426C189.154 224.426 189.724 224.238 190.208 223.863C190.693 223.484 190.974 223.016 191.052 222.457C191.13 221.898 190.992 221.434 190.636 221.062C190.281 220.688 189.794 220.5 189.177 220.5C188.818 220.5 188.456 220.566 188.093 220.699C187.734 220.832 187.419 221.01 187.15 221.232L186.54 221.016L187.537 216.721H192.048L191.949 217.418ZM201.573 216.721H202.498L201.332 225H200.6L201.608 217.799L197.723 223.09H197.313L194.928 217.822L193.903 225H193.176L194.336 216.721H195.285L197.688 222.012L201.573 216.721Z" fill="#E1E1E1"/>
<path d="M470.636 216.721H471.152L469.986 225H469.242L470.285 217.605L468.293 218.613L468.052 218.027L470.636 216.721ZM472.585 225.059C472.417 225.059 472.286 225.006 472.192 224.9C472.102 224.791 472.069 224.656 472.092 224.496C472.108 224.336 472.178 224.203 472.303 224.098C472.428 223.988 472.573 223.934 472.737 223.934C472.897 223.934 473.024 223.988 473.118 224.098C473.211 224.203 473.249 224.336 473.229 224.496C473.206 224.656 473.131 224.791 473.006 224.9C472.885 225.006 472.745 225.059 472.585 225.059ZM480.896 217.418H477.011L476.302 220.43C476.56 220.246 476.867 220.098 477.222 219.984C477.581 219.871 477.939 219.814 478.294 219.814C479.103 219.814 479.742 220.068 480.21 220.576C480.683 221.084 480.865 221.715 480.755 222.469C480.654 223.23 480.279 223.867 479.63 224.379C478.986 224.891 478.232 225.146 477.369 225.146C476.83 225.146 476.333 225.035 475.88 224.812C475.427 224.586 475.044 224.264 474.732 223.846L475.212 223.271C475.455 223.635 475.769 223.918 476.156 224.121C476.546 224.324 476.976 224.426 477.445 224.426C478.101 224.426 478.671 224.238 479.156 223.863C479.64 223.484 479.921 223.016 479.999 222.457C480.078 221.898 479.939 221.434 479.583 221.062C479.228 220.688 478.742 220.5 478.124 220.5C477.765 220.5 477.404 220.566 477.04 220.699C476.681 220.832 476.367 221.01 476.097 221.232L475.488 221.016L476.484 216.721H480.996L480.896 217.418ZM490.52 216.721H491.446L490.28 225H489.547L490.555 217.799L486.67 223.09H486.26L483.875 217.822L482.85 225H482.123L483.284 216.721H484.233L486.635 222.012L490.52 216.721Z" fill="#E1E1E1"/>
<path d="M622.161 218.854C622.106 219.264 621.961 219.645 621.727 219.996C621.493 220.348 621.17 220.719 620.76 221.109L617.374 224.303H621.622L621.528 225H616.213L616.295 224.414L620.157 220.752C620.524 220.408 620.811 220.092 621.018 219.803C621.225 219.51 621.35 219.207 621.393 218.895C621.46 218.426 621.348 218.047 621.059 217.758C620.77 217.465 620.37 217.318 619.858 217.318C619.424 217.318 619.012 217.43 618.622 217.652C618.235 217.871 617.899 218.176 617.614 218.566L617.145 218.109C617.477 217.641 617.895 217.268 618.399 216.99C618.907 216.713 619.442 216.574 620.004 216.574C620.723 216.574 621.286 216.787 621.692 217.213C622.102 217.639 622.258 218.186 622.161 218.854ZM631.679 216.721H632.605L631.439 225H630.706L631.714 217.799L627.83 223.09H627.419L625.035 217.822L624.009 225H623.283L624.443 216.721H625.392L627.794 222.012L631.679 216.721Z" fill="#E1E1E1"/>
<path d="M330.538 216.721H331.053L329.887 225H329.143L330.186 217.605L328.194 218.613L327.954 218.027L330.538 216.721ZM340.619 216.721H341.544L340.378 225H339.646L340.654 217.799L336.769 223.09H336.359L333.974 217.822L332.949 225H332.222L333.382 216.721H334.331L336.734 222.012L340.619 216.721Z" fill="#E1E1E1"/>
<rect x="44.5" y="170.5" width="579" height="25" rx="7.5" fill="#071110" stroke="#2A2A2A"/>
<path d="M44.5 208V199.5" stroke="#363636"/>
<path d="M117 208V199.5" stroke="#363636"/>
<path d="M407 208V199.5" stroke="#363636"/>
<path d="M189 208V199.5" stroke="#363636"/>
<path d="M479 208V199.5" stroke="#363636"/>
<path d="M262 208V199.5" stroke="#363636"/>
<path d="M552 208V199.5" stroke="#363636"/>
<path d="M334 208V199.5" stroke="#363636"/>
<path d="M624 208V199.5" stroke="#363636"/>
<path d="M52.0718 61.1831C51.3101 61.1831 50.5947 61.0464 49.9258 60.7729C49.2568 60.4946 48.6831 60.1187 48.2046 59.645C47.7261 59.1714 47.3477 58.605 47.0693 57.9458C46.7959 57.2817 46.6592 56.5737 46.6592 55.8218C46.6592 54.8208 46.8936 53.9126 47.3623 53.0972C47.8311 52.2769 48.478 51.6348 49.3032 51.1709C50.1333 50.7021 51.0562 50.4678 52.0718 50.4678C53.0142 50.4678 53.8809 50.6777 54.6719 51.0977C55.4629 51.5127 56.1025 52.0791 56.5908 52.7969L55.4043 53.5293C55.0479 52.9873 54.5791 52.5625 53.998 52.2549C53.417 51.9473 52.7749 51.7935 52.0718 51.7935C51.5103 51.7935 50.9805 51.896 50.4824 52.1011C49.9893 52.3062 49.5669 52.5869 49.2153 52.9434C48.8638 53.2998 48.5854 53.7271 48.3804 54.2251C48.1753 54.7231 48.0728 55.2554 48.0728 55.8218C48.0728 56.5737 48.2461 57.2598 48.5928 57.8799C48.9395 58.4951 49.418 58.9785 50.0283 59.3301C50.6436 59.6816 51.3247 59.8574 52.0718 59.8574C52.7749 59.8574 53.417 59.7036 53.998 59.396C54.5791 59.0884 55.0479 58.6636 55.4043 58.1216L56.5908 58.854C56.1025 59.5718 55.4629 60.1406 54.6719 60.5605C53.8809 60.9756 53.0142 61.1831 52.0718 61.1831ZM61.6665 61.1831C60.9048 61.1831 60.2114 61.0098 59.5864 60.6631C58.9614 60.3115 58.4707 59.8306 58.1143 59.2202C57.7627 58.605 57.5869 57.9238 57.5869 57.1768C57.5869 56.4297 57.7627 55.751 58.1143 55.1406C58.4707 54.5254 58.9614 54.0444 59.5864 53.6978C60.2114 53.3462 60.9048 53.1704 61.6665 53.1704C62.8188 53.1704 63.7832 53.5537 64.5596 54.3203C65.3408 55.0869 65.7314 56.0391 65.7314 57.1768C65.7314 58.3145 65.3408 59.2666 64.5596 60.0332C63.7832 60.7998 62.8188 61.1831 61.6665 61.1831ZM61.6665 59.938C62.4478 59.938 63.0972 59.6743 63.6147 59.147C64.1372 58.6196 64.3984 57.9629 64.3984 57.1768C64.3984 56.3906 64.1372 55.7339 63.6147 55.2065C63.0972 54.6792 62.4478 54.4155 61.6665 54.4155C60.8804 54.4155 60.2261 54.6792 59.7036 55.2065C59.1812 55.7339 58.9199 56.3906 58.9199 57.1768C58.9199 57.9629 59.1812 58.6196 59.7036 59.147C60.2261 59.6743 60.8804 59.938 61.6665 59.938ZM67.4307 61V50.1968H68.7197V61H67.4307ZM70.9023 61V50.1968H72.1914V61H70.9023ZM80.7021 53.3535H81.9912V61H80.7021V59.623C80.375 60.1113 79.9526 60.4946 79.4351 60.7729C78.9224 61.0464 78.3535 61.1831 77.7285 61.1831C77.0107 61.1831 76.3589 61.0098 75.7729 60.6631C75.187 60.3115 74.728 59.8306 74.396 59.2202C74.0688 58.605 73.9053 57.9238 73.9053 57.1768C73.9053 56.4297 74.0688 55.751 74.396 55.1406C74.728 54.5254 75.187 54.0444 75.7729 53.6978C76.3589 53.3462 77.0107 53.1704 77.7285 53.1704C78.3535 53.1704 78.9224 53.3096 79.4351 53.5879C79.9526 53.8613 80.375 54.2422 80.7021 54.7305V53.3535ZM77.9702 59.938C78.7515 59.938 79.4009 59.6743 79.9185 59.147C80.4409 58.6196 80.7021 57.9629 80.7021 57.1768C80.7021 56.3906 80.4409 55.7339 79.9185 55.2065C79.4009 54.6792 78.7515 54.4155 77.9702 54.4155C77.1841 54.4155 76.5298 54.6792 76.0073 55.2065C75.4849 55.7339 75.2236 56.3906 75.2236 57.1768C75.2236 57.9629 75.4849 58.6196 76.0073 59.147C76.5298 59.6743 77.1841 59.938 77.9702 59.938ZM88.5977 54.5181H86.2979V58.7515C86.2979 59.5425 86.708 59.938 87.5283 59.938C87.8848 59.938 88.2412 59.8428 88.5977 59.6523V60.8682C88.2119 61.0781 87.7651 61.1831 87.2573 61.1831C86.52 61.1831 85.9609 60.9902 85.5801 60.6045C85.1992 60.2188 85.0088 59.6694 85.0088 58.9565V54.5181H83.6318V53.3535H85.0088V51.2954H86.2979V53.3535H88.5977V54.5181ZM97.46 57.1768C97.46 57.25 97.4478 57.4404 97.4233 57.748H90.8389C90.9707 58.4219 91.2905 58.9663 91.7983 59.3813C92.311 59.7915 92.936 59.9966 93.6733 59.9966C94.2202 59.9966 94.7231 59.8818 95.1821 59.6523C95.6411 59.418 96 59.1177 96.2588 58.7515L97.145 59.5132C96.7593 60.0308 96.2588 60.4385 95.6436 60.7363C95.0332 61.0342 94.3618 61.1831 93.6294 61.1831C92.4331 61.1831 91.437 60.7974 90.6411 60.0259C89.8452 59.2544 89.4473 58.2949 89.4473 57.1475C89.4473 56.4053 89.6206 55.7314 89.9673 55.126C90.3188 54.5156 90.8022 54.0371 91.4175 53.6904C92.0327 53.3438 92.7163 53.1704 93.4683 53.1704C94.2153 53.1704 94.894 53.3438 95.5044 53.6904C96.1147 54.0371 96.5933 54.5181 96.9399 55.1333C97.2866 55.7437 97.46 56.4248 97.46 57.1768ZM93.4536 54.3569C92.7896 54.3569 92.2158 54.5645 91.7324 54.9795C91.249 55.3896 90.9463 55.9219 90.8242 56.5762H96.0903C95.9683 55.9121 95.6655 55.3774 95.1821 54.9722C94.6987 54.562 94.1226 54.3569 93.4536 54.3569ZM103.012 53.229H103.268V54.562H103.012C102.206 54.562 101.569 54.7988 101.1 55.2725C100.636 55.7412 100.404 56.376 100.404 57.1768V61H99.1152V53.3535H100.404V54.6719C101.005 53.71 101.874 53.229 103.012 53.229ZM110.644 53.3535H111.933V61H110.644V59.623C110.316 60.1113 109.894 60.4946 109.376 60.7729C108.864 61.0464 108.295 61.1831 107.67 61.1831C106.952 61.1831 106.3 61.0098 105.714 60.6631C105.128 60.3115 104.669 59.8306 104.337 59.2202C104.01 58.605 103.847 57.9238 103.847 57.1768C103.847 56.4297 104.01 55.751 104.337 55.1406C104.669 54.5254 105.128 54.0444 105.714 53.6978C106.3 53.3462 106.952 53.1704 107.67 53.1704C108.295 53.1704 108.864 53.3096 109.376 53.5879C109.894 53.8613 110.316 54.2422 110.644 54.7305V53.3535ZM107.912 59.938C108.693 59.938 109.342 59.6743 109.86 59.147C110.382 58.6196 110.644 57.9629 110.644 57.1768C110.644 56.3906 110.382 55.7339 109.86 55.2065C109.342 54.6792 108.693 54.4155 107.912 54.4155C107.125 54.4155 106.471 54.6792 105.949 55.2065C105.426 55.7339 105.165 56.3906 105.165 57.1768C105.165 57.9629 105.426 58.6196 105.949 59.147C106.471 59.6743 107.125 59.938 107.912 59.938ZM114.13 61V50.1968H115.419V61H114.13ZM127.636 50.1968H128.925V61H127.636V59.623C127.309 60.1113 126.886 60.4946 126.369 60.7729C125.856 61.0464 125.287 61.1831 124.662 61.1831C123.944 61.1831 123.292 61.0098 122.707 60.6631C122.121 60.3115 121.662 59.8306 121.33 59.2202C121.002 58.605 120.839 57.9238 120.839 57.1768C120.839 56.4297 121.002 55.751 121.33 55.1406C121.662 54.5254 122.121 54.0444 122.707 53.6978C123.292 53.3462 123.944 53.1704 124.662 53.1704C125.287 53.1704 125.856 53.3096 126.369 53.5879C126.886 53.8613 127.309 54.2422 127.636 54.7305V50.1968ZM124.904 59.938C125.685 59.938 126.334 59.6743 126.852 59.147C127.375 58.6196 127.636 57.9629 127.636 57.1768C127.636 56.3906 127.375 55.7339 126.852 55.2065C126.334 54.6792 125.685 54.4155 124.904 54.4155C124.118 54.4155 123.463 54.6792 122.941 55.2065C122.418 55.7339 122.157 56.3906 122.157 57.1768C122.157 57.9629 122.418 58.6196 122.941 59.147C123.463 59.6743 124.118 59.938 124.904 59.938ZM138.637 57.1768C138.637 57.25 138.625 57.4404 138.6 57.748H132.016C132.147 58.4219 132.467 58.9663 132.975 59.3813C133.488 59.7915 134.113 59.9966 134.85 59.9966C135.397 59.9966 135.9 59.8818 136.359 59.6523C136.818 59.418 137.177 59.1177 137.436 58.7515L138.322 59.5132C137.936 60.0308 137.436 60.4385 136.82 60.7363C136.21 61.0342 135.539 61.1831 134.806 61.1831C133.61 61.1831 132.614 60.7974 131.818 60.0259C131.022 59.2544 130.624 58.2949 130.624 57.1475C130.624 56.4053 130.797 55.7314 131.144 55.126C131.496 54.5156 131.979 54.0371 132.594 53.6904C133.209 53.3438 133.893 53.1704 134.645 53.1704C135.392 53.1704 136.071 53.3438 136.681 53.6904C137.292 54.0371 137.77 54.5181 138.117 55.1333C138.463 55.7437 138.637 56.4248 138.637 57.1768ZM134.63 54.3569C133.966 54.3569 133.393 54.5645 132.909 54.9795C132.426 55.3896 132.123 55.9219 132.001 56.5762H137.267C137.145 55.9121 136.842 55.3774 136.359 54.9722C135.875 54.562 135.299 54.3569 134.63 54.3569ZM144.547 53.1704C145.641 53.1704 146.554 53.5537 147.287 54.3203C148.019 55.0869 148.385 56.0391 148.385 57.1768C148.385 58.3145 148.019 59.2666 147.287 60.0332C146.554 60.7998 145.641 61.1831 144.547 61.1831C143.922 61.1831 143.354 61.0464 142.841 60.7729C142.328 60.4946 141.908 60.1113 141.581 59.623V63.8491H140.292V53.3535H141.581V54.7305C141.908 54.2422 142.328 53.8613 142.841 53.5879C143.354 53.3096 143.922 53.1704 144.547 53.1704ZM144.306 59.938C145.092 59.938 145.746 59.6743 146.269 59.147C146.791 58.6196 147.052 57.9629 147.052 57.1768C147.052 56.3906 146.791 55.7339 146.269 55.2065C145.746 54.6792 145.092 54.4155 144.306 54.4155C143.524 54.4155 142.875 54.6792 142.357 55.2065C141.84 55.7339 141.581 56.3906 141.581 57.1768C141.581 57.9629 141.84 58.6196 142.357 59.147C142.875 59.6743 143.524 59.938 144.306 59.938ZM153.688 61.1831C152.926 61.1831 152.233 61.0098 151.608 60.6631C150.983 60.3115 150.492 59.8306 150.136 59.2202C149.784 58.605 149.608 57.9238 149.608 57.1768C149.608 56.4297 149.784 55.751 150.136 55.1406C150.492 54.5254 150.983 54.0444 151.608 53.6978C152.233 53.3462 152.926 53.1704 153.688 53.1704C154.84 53.1704 155.805 53.5537 156.581 54.3203C157.362 55.0869 157.753 56.0391 157.753 57.1768C157.753 58.3145 157.362 59.2666 156.581 60.0332C155.805 60.7998 154.84 61.1831 153.688 61.1831ZM153.688 59.938C154.469 59.938 155.119 59.6743 155.636 59.147C156.159 58.6196 156.42 57.9629 156.42 57.1768C156.42 56.3906 156.159 55.7339 155.636 55.2065C155.119 54.6792 154.469 54.4155 153.688 54.4155C152.902 54.4155 152.248 54.6792 151.725 55.2065C151.203 55.7339 150.941 56.3906 150.941 57.1768C150.941 57.9629 151.203 58.6196 151.725 59.147C152.248 59.6743 152.902 59.938 153.688 59.938ZM161.957 61.1831C160.722 61.1831 159.687 60.7827 158.852 59.9819L159.569 59.0518C160.194 59.6914 160.983 60.0112 161.935 60.0112C162.453 60.0112 162.877 59.916 163.209 59.7256C163.542 59.5303 163.708 59.2642 163.708 58.9272C163.708 58.7856 163.671 58.6587 163.598 58.5464C163.529 58.4292 163.446 58.334 163.349 58.2607C163.256 58.1875 163.114 58.1167 162.924 58.0483C162.738 57.9751 162.575 57.9214 162.433 57.8872C162.296 57.8481 162.101 57.7969 161.847 57.7334C161.613 57.6748 161.427 57.6284 161.291 57.5942C161.154 57.5552 160.976 57.4966 160.756 57.4185C160.541 57.3403 160.365 57.2646 160.229 57.1914C160.097 57.1182 159.95 57.0229 159.789 56.9058C159.633 56.7837 159.508 56.6567 159.416 56.5249C159.328 56.3882 159.252 56.2271 159.188 56.0415C159.13 55.8511 159.101 55.6436 159.101 55.4189C159.101 54.9404 159.237 54.5278 159.511 54.1812C159.784 53.8345 160.138 53.5806 160.573 53.4194C161.007 53.2534 161.493 53.1704 162.03 53.1704C163.134 53.1704 164.069 53.5195 164.835 54.2178L164.11 55.1626C163.549 54.6157 162.86 54.3423 162.045 54.3423C161.581 54.3423 161.195 54.4302 160.888 54.606C160.58 54.7817 160.426 55.0283 160.426 55.3457C160.426 55.4922 160.463 55.624 160.536 55.7412C160.609 55.8535 160.692 55.9463 160.785 56.0195C160.883 56.0928 161.029 56.166 161.225 56.2393C161.42 56.3076 161.583 56.3613 161.715 56.4004C161.852 56.4346 162.052 56.4834 162.316 56.5469C162.545 56.6006 162.729 56.647 162.865 56.686C163.007 56.7202 163.185 56.7739 163.4 56.8472C163.615 56.9204 163.788 56.9937 163.92 57.0669C164.057 57.1353 164.203 57.228 164.359 57.3452C164.516 57.4624 164.638 57.5869 164.726 57.7188C164.813 57.8506 164.887 58.0117 164.945 58.2021C165.009 58.3877 165.041 58.5903 165.041 58.8101C165.041 59.5474 164.75 60.1284 164.169 60.5532C163.588 60.9731 162.851 61.1831 161.957 61.1831ZM167.318 51.8228C167.069 51.8228 166.862 51.7422 166.696 51.5811C166.53 51.415 166.447 51.21 166.447 50.9658C166.447 50.7168 166.53 50.5117 166.696 50.3506C166.862 50.1895 167.069 50.1089 167.318 50.1089C167.562 50.1089 167.765 50.1895 167.926 50.3506C168.087 50.5117 168.168 50.7168 168.168 50.9658C168.168 51.21 168.085 51.415 167.919 51.5811C167.758 51.7422 167.558 51.8228 167.318 51.8228ZM166.674 61V53.3535H167.963V61H166.674ZM174.555 54.5181H172.255V58.7515C172.255 59.5425 172.665 59.938 173.485 59.938C173.842 59.938 174.198 59.8428 174.555 59.6523V60.8682C174.169 61.0781 173.722 61.1831 173.214 61.1831C172.477 61.1831 171.918 60.9902 171.537 60.6045C171.156 60.2188 170.966 59.6694 170.966 58.9565V54.5181H169.589V53.3535H170.966V51.2954H172.255V53.3535H174.555V54.5181ZM183.417 57.1768C183.417 57.25 183.405 57.4404 183.38 57.748H176.796C176.928 58.4219 177.248 58.9663 177.755 59.3813C178.268 59.7915 178.893 59.9966 179.63 59.9966C180.177 59.9966 180.68 59.8818 181.139 59.6523C181.598 59.418 181.957 59.1177 182.216 58.7515L183.102 59.5132C182.716 60.0308 182.216 60.4385 181.601 60.7363C180.99 61.0342 180.319 61.1831 179.586 61.1831C178.39 61.1831 177.394 60.7974 176.598 60.0259C175.802 59.2544 175.404 58.2949 175.404 57.1475C175.404 56.4053 175.578 55.7314 175.924 55.126C176.276 54.5156 176.759 54.0371 177.375 53.6904C177.99 53.3438 178.673 53.1704 179.425 53.1704C180.172 53.1704 180.851 53.3438 181.461 53.6904C182.072 54.0371 182.55 54.5181 182.897 55.1333C183.244 55.7437 183.417 56.4248 183.417 57.1768ZM179.411 54.3569C178.747 54.3569 178.173 54.5645 177.689 54.9795C177.206 55.3896 176.903 55.9219 176.781 56.5762H182.047C181.925 55.9121 181.623 55.3774 181.139 54.9722C180.656 54.562 180.08 54.3569 179.411 54.3569ZM191.4 50.1968H192.689V61H191.4V59.623C191.073 60.1113 190.651 60.4946 190.133 60.7729C189.621 61.0464 189.052 61.1831 188.427 61.1831C187.709 61.1831 187.057 61.0098 186.471 60.6631C185.885 60.3115 185.426 59.8306 185.094 59.2202C184.767 58.605 184.604 57.9238 184.604 57.1768C184.604 56.4297 184.767 55.751 185.094 55.1406C185.426 54.5254 185.885 54.0444 186.471 53.6978C187.057 53.3462 187.709 53.1704 188.427 53.1704C189.052 53.1704 189.621 53.3096 190.133 53.5879C190.651 53.8613 191.073 54.2422 191.4 54.7305V50.1968ZM188.668 59.938C189.45 59.938 190.099 59.6743 190.617 59.147C191.139 58.6196 191.4 57.9629 191.4 57.1768C191.4 56.3906 191.139 55.7339 190.617 55.2065C190.099 54.6792 189.45 54.4155 188.668 54.4155C187.882 54.4155 187.228 54.6792 186.706 55.2065C186.183 55.7339 185.922 56.3906 185.922 57.1768C185.922 57.9629 186.183 58.6196 186.706 59.147C187.228 59.6743 187.882 59.938 188.668 59.938Z" fill="white"/>
<path d="M53.0166 154.507C53.5732 154.663 54.0249 154.993 54.3716 155.496C54.7183 155.994 54.8916 156.565 54.8916 157.209C54.8916 158.01 54.6182 158.677 54.0713 159.209C53.5293 159.736 52.853 160 52.0425 160H47.2158V149.651H51.6836C52.4453 149.651 53.0776 149.897 53.5806 150.391C54.0884 150.879 54.3423 151.497 54.3423 152.244C54.3423 152.742 54.2178 153.198 53.9688 153.613C53.7197 154.023 53.4023 154.321 53.0166 154.507ZM51.3687 150.896H48.5488V154.045H51.3687C51.8032 154.045 52.1719 153.894 52.4746 153.591C52.7773 153.289 52.9287 152.915 52.9287 152.471C52.9287 152.021 52.7798 151.648 52.4819 151.35C52.189 151.047 51.8179 150.896 51.3687 150.896ZM51.7275 158.755C52.2305 158.755 52.6479 158.586 52.98 158.25C53.3169 157.908 53.4854 157.485 53.4854 156.982C53.4854 156.479 53.3169 156.062 52.98 155.73C52.6479 155.398 52.2305 155.232 51.7275 155.232H48.5488V158.755H51.7275ZM60.0698 160.183C59.3081 160.183 58.6147 160.01 57.9897 159.663C57.3647 159.312 56.874 158.831 56.5176 158.22C56.166 157.605 55.9902 156.924 55.9902 156.177C55.9902 155.43 56.166 154.751 56.5176 154.141C56.874 153.525 57.3647 153.044 57.9897 152.698C58.6147 152.346 59.3081 152.17 60.0698 152.17C61.2222 152.17 62.1865 152.554 62.9629 153.32C63.7441 154.087 64.1348 155.039 64.1348 156.177C64.1348 157.314 63.7441 158.267 62.9629 159.033C62.1865 159.8 61.2222 160.183 60.0698 160.183ZM60.0698 158.938C60.8511 158.938 61.5005 158.674 62.0181 158.147C62.5405 157.62 62.8018 156.963 62.8018 156.177C62.8018 155.391 62.5405 154.734 62.0181 154.207C61.5005 153.679 60.8511 153.416 60.0698 153.416C59.2837 153.416 58.6294 153.679 58.1069 154.207C57.5845 154.734 57.3232 155.391 57.3232 156.177C57.3232 156.963 57.5845 157.62 58.1069 158.147C58.6294 158.674 59.2837 158.938 60.0698 158.938ZM69.7305 152.229H69.9868V153.562H69.7305C68.9248 153.562 68.2876 153.799 67.8188 154.272C67.355 154.741 67.123 155.376 67.123 156.177V160H65.834V152.354H67.123V153.672C67.7236 152.71 68.5928 152.229 69.7305 152.229ZM75.2822 152.229H75.5386V153.562H75.2822C74.4766 153.562 73.8394 153.799 73.3706 154.272C72.9067 154.741 72.6748 155.376 72.6748 156.177V160H71.3857V152.354H72.6748V153.672C73.2754 152.71 74.1445 152.229 75.2822 152.229ZM80.1675 160.183C79.4058 160.183 78.7124 160.01 78.0874 159.663C77.4624 159.312 76.9717 158.831 76.6152 158.22C76.2637 157.605 76.0879 156.924 76.0879 156.177C76.0879 155.43 76.2637 154.751 76.6152 154.141C76.9717 153.525 77.4624 153.044 78.0874 152.698C78.7124 152.346 79.4058 152.17 80.1675 152.17C81.3198 152.17 82.2842 152.554 83.0605 153.32C83.8418 154.087 84.2324 155.039 84.2324 156.177C84.2324 157.314 83.8418 158.267 83.0605 159.033C82.2842 159.8 81.3198 160.183 80.1675 160.183ZM80.1675 158.938C80.9487 158.938 81.5981 158.674 82.1157 158.147C82.6382 157.62 82.8994 156.963 82.8994 156.177C82.8994 155.391 82.6382 154.734 82.1157 154.207C81.5981 153.679 80.9487 153.416 80.1675 153.416C79.3813 153.416 78.7271 153.679 78.2046 154.207C77.6821 154.734 77.4209 155.391 77.4209 156.177C77.4209 156.963 77.6821 157.62 78.2046 158.147C78.7271 158.674 79.3813 158.938 80.1675 158.938ZM95.7754 152.354H97.189L94.3838 160H93.0361L90.9194 153.877L88.8027 160H87.4551L84.6499 152.354H86.1001L88.1729 158.425L90.2749 152.354H91.5933L93.71 158.44L95.7754 152.354Z" fill="white"/>
<rect x="44.5" y="71.5" width="434" height="25" rx="7.5" fill="#CAEAE5" stroke="#2A2A2A"/>
<rect x="44" y="170" width="137" height="26" rx="8" fill="#CAEAE5"/>
</svg>
