<svg width="426" height="245" viewBox="0 0 426 245" fill="none" xmlns="http://www.w3.org/2000/svg">
<rect width="426" height="245" rx="15" fill="#050F0D"/>
<mask id="mask0_1968_3482" style="mask-type:alpha" maskUnits="userSpaceOnUse" x="0" y="0" width="426" height="245">
<rect width="426" height="245" rx="15" fill="#050F0D"/>
</mask>
<g mask="url(#mask0_1968_3482)">
<g filter="url(#filter0_dd_1968_3482)">
<ellipse cx="214.5" cy="193.001" rx="104.5" ry="106" fill="url(#paint0_linear_1968_3482)" fill-opacity="0.9"/>
<path d="M318 193.001C318 251.004 271.648 298.001 214.5 298.001C157.352 298.001 111 251.004 111 193.001C111 134.998 157.352 88.001 214.5 88.001C271.648 88.001 318 134.998 318 193.001Z" stroke="#2B2B2B" stroke-width="2"/>
</g>
<g opacity="0.7" filter="url(#filter1_i_1968_3482)">
<path d="M350.06 167.721C349.809 166.279 348.404 165.399 347.004 165.693L346.918 165.711C345.596 165.989 344.697 167.229 344.976 168.592C345.252 169.943 346.554 170.944 347.958 170.723C349.342 170.504 350.315 169.203 350.074 167.804L350.06 167.721ZM350.06 167.721L349.567 167.806L350.06 167.72L350.06 167.721ZM87.1135 142.958L87.5776 143.143L87.1135 142.958L87.1035 142.982L87.0935 143.007C86.556 144.349 87.2542 145.879 88.6165 146.357C89.9277 146.818 91.3553 146.136 91.8784 144.872C92.4017 143.608 91.8282 142.133 90.5476 141.6L90.3555 142.061L90.5475 141.6L90.4549 141.561C89.1465 141.017 87.6427 141.636 87.1135 142.958ZM343.089 143.414L342.623 143.594L343.089 143.414L343.043 143.293C342.521 141.951 340.99 141.341 339.68 141.886C338.362 142.435 337.74 143.945 338.237 145.266C338.735 146.593 340.213 147.224 341.519 146.716L341.591 146.689C342.886 146.186 343.603 144.749 343.089 143.414ZM316.435 100.808L316.072 101.152L316.435 100.808L316.356 100.725C315.383 99.699 313.745 99.641 312.718 100.63L313.064 100.99L312.718 100.63L312.676 100.67C311.678 101.631 311.682 103.201 312.62 104.19C313.566 105.186 315.176 105.342 316.235 104.393L316.277 104.356C317.315 103.427 317.401 101.827 316.435 100.808ZM135.817 87.5488L135.51 87.1539L135.817 87.5488L135.859 87.5165C136.95 86.6672 137.089 85.1278 136.288 84.0491L136.26 84.0114L135.858 84.3095L136.26 84.0113C135.392 82.8433 133.73 82.627 132.581 83.502C131.452 84.3605 131.273 85.9668 132.131 87.0737C133.013 88.2108 134.674 88.4365 135.817 87.5488ZM297.789 83.9053L297.482 84.2997L297.789 83.9053L297.747 83.8728C296.609 82.9865 294.987 83.2442 294.139 84.386L294.106 84.4305C293.286 85.5344 293.49 87.0956 294.601 87.9275C295.716 88.7627 297.317 88.5865 298.197 87.4878C299.076 86.3902 298.906 84.7763 297.789 83.9053ZM179.16 66.2046L179.013 65.7264L179.16 66.2046L179.28 66.1675C180.592 65.7641 181.343 64.3876 180.985 63.0668C180.61 61.6783 179.161 60.879 177.787 61.2633L177.745 61.2751C176.364 61.6614 175.606 63.1136 176.009 64.4679C176.405 65.7995 177.795 66.6218 179.16 66.2046ZM272.845 71.7886L273.295 72.0074L272.845 71.7887C272.233 73.0478 272.764 74.5458 274.006 75.1663C275.225 75.7755 276.761 75.3471 277.415 74.1134L277.444 74.0594C278.098 72.8266 277.64 71.2863 276.384 70.645L276.282 70.5929L276.055 71.0384L276.282 70.5928C275.02 69.9502 273.482 70.4788 272.866 71.7463L272.845 71.7886ZM202.538 56.7213L202.595 57.218L202.538 56.7213C201.154 56.8808 200.125 58.1352 200.268 59.5303C200.413 60.9418 201.677 61.9585 203.082 61.8229C204.42 61.6937 205.491 60.5284 205.385 59.1491L205.375 59.0212C205.267 57.6095 204.03 56.5494 202.606 56.7134L202.538 56.7213ZM349.852 196.27C351.276 196.27 352.434 195.116 352.434 193.691C352.434 192.266 351.276 191.112 349.852 191.112C348.428 191.112 347.27 192.266 347.27 193.691C347.27 195.116 348.428 196.27 349.852 196.27ZM77.5 193.264C77.5 194.69 78.6582 195.843 80.0817 195.843C81.5053 195.843 82.6635 194.69 82.6635 193.264C82.6635 191.839 81.5053 190.685 80.0817 190.685C78.6582 190.685 77.5 191.839 77.5 193.264ZM82.0138 170.23C83.4399 170.493 84.7927 169.508 85.0714 168.116C85.3419 166.765 84.4637 165.46 83.1237 165.179C81.6751 164.874 80.2747 165.867 80.0001 167.294C79.7363 168.664 80.6466 169.979 82.0138 170.23ZM327.421 123.712C328.116 124.862 329.621 125.271 330.793 124.583L330.925 124.505C332.172 123.772 332.557 122.15 331.782 120.933C331.025 119.746 329.436 119.412 328.256 120.161C327.064 120.919 326.69 122.502 327.421 123.712ZM99.4169 124.1C100.593 124.811 102.14 124.426 102.881 123.289C103.663 122.087 103.298 120.494 102.097 119.73C100.913 118.978 99.3271 119.332 98.5738 120.514C97.8009 121.727 98.1903 123.357 99.4169 124.1ZM114.02 104.075C115.092 105.034 116.755 104.882 117.713 103.87C118.687 102.842 118.562 101.298 117.578 100.351C116.53 99.3412 114.854 99.3966 113.859 100.446C112.87 101.488 112.959 103.125 114.02 104.075ZM153.081 73.7988C153.704 75.0078 155.14 75.5799 156.403 74.9355C157.652 74.2985 158.238 72.737 157.611 71.4474L157.577 71.3773C156.974 70.1379 155.503 69.5447 154.225 70.1805C152.917 70.8317 152.385 72.4471 153.055 73.7475L153.081 73.7988ZM251.348 66.2961C252.676 66.6484 254.064 65.9169 254.471 64.5849C254.871 63.2777 254.142 61.8779 252.825 61.48C252.736 61.4531 252.647 61.4264 252.558 61.4C251.219 61.0025 249.875 61.8256 249.52 63.1387L249.504 63.1971C249.132 64.571 250.014 65.9422 251.348 66.2961ZM227.405 61.8928C228.748 62.0295 229.937 61.0601 230.078 59.7192L230.091 59.5919C230.237 58.2089 229.268 56.9281 227.852 56.7899L227.687 56.7741C226.295 56.6426 225.094 57.7069 224.989 59.0783C224.878 60.5216 226.006 61.7504 227.405 61.8928Z" fill="url(#paint1_linear_1968_3482)" stroke="url(#paint2_linear_1968_3482)"/>
</g>
<path fill-rule="evenodd" clip-rule="evenodd" d="M215 118.3C215.869 118.3 216.588 117.613 216.607 116.744L216.672 113.727C216.693 112.783 215.944 112 215 112C214.056 112 213.307 112.783 213.328 113.727L213.393 116.744C213.412 117.613 214.131 118.3 215 118.3ZM201.723 117.931C201.879 118.782 202.692 119.344 203.546 119.207C204.401 119.07 205.003 118.28 204.884 117.422L204.469 114.422C204.339 113.49 203.476 112.838 202.547 112.986C201.617 113.135 201.006 114.026 201.176 114.952L201.723 117.931ZM225.116 117.423C224.997 118.28 225.599 119.07 226.454 119.207C227.308 119.344 228.121 118.782 228.277 117.931L228.824 114.952C228.994 114.026 228.383 113.135 227.453 112.986C226.524 112.838 225.661 113.49 225.531 114.422L225.116 117.423ZM236.566 119.946C236.311 120.774 236.779 121.651 237.601 121.922C238.421 122.194 239.314 121.77 239.604 120.956L240.624 118.102C240.941 117.214 240.48 116.236 239.584 115.941C238.691 115.645 237.736 116.151 237.459 117.05L236.566 119.946ZM190.396 120.956C190.686 121.77 191.579 122.194 192.399 121.922C193.221 121.65 193.689 120.774 193.434 119.946L192.541 117.05C192.264 116.151 191.309 115.645 190.416 115.941C189.52 116.236 189.059 117.214 189.376 118.102L190.396 120.956ZM179.699 125.75C180.115 126.506 181.064 126.781 181.83 126.383C182.599 125.984 182.919 125.044 182.535 124.267L181.187 121.548C180.77 120.706 179.749 120.36 178.916 120.793C178.08 121.227 177.779 122.266 178.234 123.092L179.699 125.75ZM247.466 124.267C247.081 125.044 247.401 125.984 248.17 126.383C248.936 126.781 249.885 126.506 250.301 125.75L251.766 123.092C252.221 122.266 251.92 121.227 251.084 120.793C250.251 120.36 249.23 120.706 248.813 121.548L247.466 124.267ZM257.54 130.263C257.037 130.969 257.204 131.948 257.901 132.464C258.594 132.978 259.575 132.856 260.105 132.175L261.973 129.778C262.552 129.035 262.419 127.962 261.662 127.401C260.908 126.843 259.847 127.024 259.303 127.788L257.54 130.263ZM169.895 132.175C170.425 132.856 171.406 132.978 172.099 132.464C172.796 131.948 172.963 130.969 172.46 130.263L170.697 127.788C170.153 127.024 169.092 126.843 168.338 127.401C167.581 127.962 167.448 129.035 168.027 129.778L169.895 132.175ZM161.22 140.054C161.851 140.643 162.838 140.611 163.443 139.995C164.05 139.377 164.062 138.384 163.455 137.765L161.323 135.593C160.667 134.924 159.592 134.911 158.935 135.579C158.275 136.25 158.311 137.331 158.998 137.974L161.22 140.054ZM266.545 137.765C265.938 138.384 265.95 139.377 266.557 139.995C267.162 140.611 268.149 140.643 268.78 140.054L271.002 137.974C271.689 137.331 271.725 136.25 271.065 135.579C270.408 134.911 269.333 134.924 268.677 135.593L266.545 137.765ZM153.879 149.182C154.592 149.666 155.563 149.481 156.064 148.779C156.568 148.074 156.426 147.092 155.731 146.576L153.284 144.757C152.532 144.199 151.469 144.352 150.924 145.114C150.377 145.879 150.579 146.94 151.357 147.469L153.879 149.182ZM274.269 146.576C273.574 147.092 273.432 148.074 273.936 148.779C274.437 149.481 275.408 149.666 276.121 149.182L278.643 147.469C279.421 146.94 279.623 145.879 279.076 145.114C278.531 144.352 277.468 144.199 276.716 144.757L274.269 146.576ZM280.53 156.473C279.764 156.876 279.471 157.822 279.859 158.596C280.246 159.368 281.176 159.702 281.957 159.334L284.716 158.03C285.566 157.629 285.93 156.611 285.508 155.771C285.088 154.934 284.061 154.618 283.232 155.054L280.53 156.473ZM148.043 159.334C148.824 159.702 149.754 159.368 150.141 158.596C150.529 157.822 150.236 156.875 149.47 156.473L146.768 155.054C145.939 154.618 144.912 154.934 144.492 155.771C144.07 156.611 144.434 157.629 145.284 158.03L148.043 159.334ZM285.175 167.217C284.356 167.496 283.92 168.384 284.183 169.208C284.445 170.03 285.313 170.506 286.141 170.263L289.072 169.401C289.973 169.136 290.489 168.188 290.204 167.293C289.919 166.4 288.954 165.93 288.067 166.232L285.175 167.217ZM143.859 170.263C144.687 170.506 145.555 170.03 145.817 169.208C146.08 168.384 145.644 167.496 144.825 167.217L141.933 166.232C141.046 165.93 140.081 166.4 139.796 167.293C139.511 168.188 140.027 169.136 140.928 169.401L143.859 170.263ZM288.093 178.549C287.241 178.698 286.673 179.507 286.805 180.361C286.937 181.215 287.722 181.82 288.578 181.707L291.609 181.306C292.539 181.184 293.195 180.326 293.051 179.399C292.908 178.474 292.028 177.86 291.105 178.022L288.093 178.549ZM141.422 181.707C142.278 181.82 143.063 181.215 143.195 180.361C143.327 179.507 142.759 178.698 141.907 178.549L138.895 178.022C137.972 177.86 137.092 178.474 136.949 179.399C136.805 180.326 137.461 181.184 138.391 181.306L141.422 181.707ZM289.235 190.197C288.367 190.215 287.68 190.933 287.68 191.801C287.68 192.463 288.217 193 288.879 193L292.801 193C293.463 193 294 192.463 294 191.801C294 190.861 293.221 190.115 292.281 190.135L289.235 190.197ZM142.32 191.801C142.32 190.933 141.633 190.215 140.765 190.197L137.719 190.135C136.779 190.115 136 190.861 136 191.801C136 192.463 136.537 193 137.199 193L141.121 193C141.783 193 142.32 192.463 142.32 191.801Z" fill="url(#paint3_linear_1968_3482)"/>
<path d="M199.598 182.148C201.52 182.148 203.059 182.773 204.215 184.023C205.379 185.273 205.961 186.93 205.961 188.992C205.961 190.289 205.719 191.531 205.234 192.719C204.758 193.906 204.078 194.969 203.195 195.906C202.32 196.836 201.223 197.605 199.902 198.215C198.582 198.816 197.129 199.176 195.543 199.293L194.828 195.836C196.32 195.711 197.613 195.328 198.707 194.688C199.801 194.039 200.617 193.262 201.156 192.355C200.367 192.848 199.465 193.094 198.449 193.094C196.996 193.094 195.777 192.586 194.793 191.57C193.809 190.547 193.316 189.297 193.316 187.82C193.316 186.75 193.59 185.781 194.137 184.914C194.684 184.047 195.434 183.371 196.387 182.887C197.348 182.395 198.418 182.148 199.598 182.148ZM197.125 187.738C197.125 188.301 197.355 188.77 197.816 189.145C198.285 189.52 198.871 189.707 199.574 189.707C200.277 189.707 200.879 189.535 201.379 189.191C201.887 188.848 202.141 188.383 202.141 187.797C202.141 187.203 201.902 186.711 201.426 186.32C200.957 185.922 200.355 185.723 199.621 185.723C198.91 185.723 198.316 185.918 197.84 186.309C197.363 186.691 197.125 187.168 197.125 187.738ZM208.17 199.234C207.482 199.234 206.908 199.008 206.447 198.555C205.994 198.102 205.767 197.531 205.767 196.844C205.767 196.172 205.994 195.609 206.447 195.156C206.908 194.695 207.482 194.465 208.17 194.465C208.865 194.465 209.443 194.691 209.904 195.145C210.365 195.598 210.595 196.164 210.595 196.844C210.595 197.531 210.365 198.102 209.904 198.555C209.443 199.008 208.865 199.234 208.17 199.234ZM222.449 190.41C223.214 190.848 223.812 191.406 224.242 192.086C224.679 192.758 224.898 193.496 224.898 194.301C224.898 195.223 224.621 196.066 224.066 196.832C223.511 197.598 222.746 198.199 221.769 198.637C220.792 199.074 219.707 199.293 218.511 199.293C217.332 199.293 216.257 199.078 215.289 198.648C214.32 198.211 213.558 197.609 213.003 196.844C212.457 196.078 212.183 195.23 212.183 194.301C212.183 193.496 212.394 192.758 212.816 192.086C213.246 191.406 213.839 190.848 214.597 190.41C213.941 189.98 213.429 189.461 213.062 188.852C212.695 188.234 212.511 187.562 212.511 186.836C212.511 185.516 213.078 184.406 214.21 183.508C215.351 182.602 216.785 182.148 218.511 182.148C220.238 182.148 221.675 182.602 222.824 183.508C223.98 184.406 224.558 185.516 224.558 186.836C224.558 187.562 224.371 188.234 223.996 188.852C223.628 189.461 223.113 189.98 222.449 190.41ZM218.511 185.723C217.886 185.723 217.367 185.863 216.953 186.145C216.539 186.426 216.332 186.781 216.332 187.211C216.332 187.641 216.539 188 216.953 188.289C217.367 188.578 217.886 188.723 218.511 188.723C219.152 188.723 219.683 188.578 220.105 188.289C220.535 188 220.75 187.641 220.75 187.211C220.75 186.781 220.535 186.426 220.105 186.145C219.683 185.863 219.152 185.723 218.511 185.723ZM218.511 195.707C219.246 195.707 219.851 195.539 220.328 195.203C220.812 194.867 221.054 194.445 221.054 193.938C221.054 193.43 220.812 193.008 220.328 192.672C219.843 192.328 219.238 192.156 218.511 192.156C217.8 192.156 217.203 192.328 216.718 192.672C216.234 193.016 215.992 193.438 215.992 193.938C215.992 194.438 216.234 194.859 216.718 195.203C217.203 195.539 217.8 195.707 218.511 195.707ZM231.068 182.441H233.704V199H229.978V186.883L227.517 188.277L225.923 185.277L231.068 182.441Z" fill="white"/>
<path d="M27.752 21.7207H28.4961L27.3301 30H26.5859L27.1309 26.1855H21.9102L21.3652 30H20.6387L21.7988 21.7207H22.5312L22.0039 25.4883H27.2246L27.752 21.7207ZM33.0371 23.7363C33.6309 23.7363 34.1504 23.875 34.5957 24.1523C35.041 24.4297 35.3672 24.8145 35.5742 25.3066C35.7812 25.7949 35.8438 26.3398 35.7617 26.9414C35.7539 26.9961 35.7324 27.0957 35.6973 27.2402H30.084C30.0645 27.9043 30.2637 28.4473 30.6816 28.8691C31.1035 29.2871 31.6641 29.4961 32.3633 29.4961C32.8477 29.4961 33.3086 29.3906 33.7461 29.1797C34.1836 28.9648 34.543 28.6816 34.8242 28.3301L35.2578 28.7402C34.8906 29.1777 34.4434 29.5215 33.916 29.7715C33.3926 30.0215 32.8359 30.1465 32.2461 30.1465C31.625 30.1465 31.0801 30.0059 30.6113 29.7246C30.1465 29.4434 29.8047 29.0586 29.5859 28.5703C29.3711 28.0781 29.3047 27.5312 29.3867 26.9297C29.4688 26.332 29.6836 25.7891 30.0312 25.3008C30.3789 24.8125 30.8164 24.4297 31.3438 24.1523C31.875 23.875 32.4395 23.7363 33.0371 23.7363ZM34.5078 25.0137C34.1133 24.5957 33.5898 24.3867 32.9375 24.3867C32.2852 24.3867 31.6992 24.5957 31.1797 25.0137C30.6641 25.4277 30.3262 25.9609 30.166 26.6133H35.0645C35.0918 25.9609 34.9062 25.4277 34.5078 25.0137ZM43.0215 23.8828H43.7188L42.8516 30H42.1602L42.3594 28.582C42.0273 29.0664 41.6113 29.4492 41.1113 29.7305C40.6113 30.0078 40.0723 30.1465 39.4941 30.1465C38.9121 30.1465 38.4023 30.0078 37.9648 29.7305C37.5312 29.4492 37.2148 29.0645 37.0156 28.5762C36.8164 28.084 36.7578 27.5391 36.8398 26.9414C36.9219 26.3438 37.1328 25.8008 37.4727 25.3125C37.8125 24.8203 38.2402 24.4355 38.7559 24.1582C39.2754 23.877 39.8262 23.7363 40.4082 23.7363C40.9863 23.7363 41.4844 23.875 41.9023 24.1523C42.3242 24.4297 42.6289 24.8105 42.8164 25.2949L43.0215 23.8828ZM39.7227 29.4727C40.4375 29.4727 41.0684 29.2324 41.6152 28.752C42.1621 28.2676 42.4863 27.6641 42.5879 26.9414C42.6895 26.2188 42.5352 25.6172 42.125 25.1367C41.7148 24.6523 41.1504 24.4102 40.4316 24.4102C39.709 24.4102 39.0742 24.6523 38.5273 25.1367C37.9805 25.6211 37.6582 26.2227 37.5605 26.9414C37.459 27.6641 37.6133 28.2676 38.0234 28.752C38.4375 29.2324 39.0039 29.4727 39.7227 29.4727ZM44.75 30L45.9629 21.3574H46.6602L45.4473 30H44.75ZM49.5488 24.5156L48.998 28.4297C48.9512 28.7969 49.0078 29.0625 49.168 29.2266C49.3281 29.3906 49.582 29.4727 49.9297 29.4727C50.2266 29.4727 50.5312 29.3965 50.8438 29.2441L50.7617 29.9062C50.4219 30.0664 50.0684 30.1465 49.7012 30.1465C49.1699 30.1465 48.7832 30.0117 48.541 29.7422C48.2988 29.4688 48.2148 29.0664 48.2891 28.5352L48.8516 24.5156H47.6621L47.7617 23.8828H48.9453L49.1855 22.1777H49.8828L49.6426 23.8828H51.5996L51.5176 24.5156H49.5488ZM56.1172 23.7363C56.8867 23.7363 57.4727 23.9688 57.875 24.4336C58.2773 24.8984 58.4238 25.5176 58.3145 26.291L57.7988 30H57.1016L57.5938 26.4961C57.6836 25.8672 57.5664 25.3633 57.2422 24.9844C56.918 24.6016 56.4434 24.4102 55.8184 24.4102C55.166 24.4102 54.6133 24.6035 54.1602 24.9902C53.707 25.373 53.4355 25.8828 53.3457 26.5195L52.8535 30H52.1562L53.3691 21.3574H54.0664L53.5508 25.0547C53.8398 24.6328 54.2051 24.3086 54.6465 24.082C55.0918 23.8516 55.582 23.7363 56.1172 23.7363ZM69.0723 22.418H64.6602L64.2148 25.5586H68.1172L68.0176 26.2559H64.1211L63.5879 30H62.8613L64.0215 21.7207H69.1719L69.0723 22.418ZM75.2715 23.8828H75.9688L75.1016 30H74.4102L74.6094 28.582C74.2773 29.0664 73.8613 29.4492 73.3613 29.7305C72.8613 30.0078 72.3223 30.1465 71.7441 30.1465C71.1621 30.1465 70.6523 30.0078 70.2148 29.7305C69.7812 29.4492 69.4648 29.0645 69.2656 28.5762C69.0664 28.084 69.0078 27.5391 69.0898 26.9414C69.1719 26.3438 69.3828 25.8008 69.7227 25.3125C70.0625 24.8203 70.4902 24.4355 71.0059 24.1582C71.5254 23.877 72.0762 23.7363 72.6582 23.7363C73.2363 23.7363 73.7344 23.875 74.1523 24.1523C74.5742 24.4297 74.8789 24.8105 75.0664 25.2949L75.2715 23.8828ZM71.9727 29.4727C72.6875 29.4727 73.3184 29.2324 73.8652 28.752C74.4121 28.2676 74.7363 27.6641 74.8379 26.9414C74.9395 26.2188 74.7852 25.6172 74.375 25.1367C73.9648 24.6523 73.4004 24.4102 72.6816 24.4102C71.959 24.4102 71.3242 24.6523 70.7773 25.1367C70.2305 25.6211 69.9082 26.2227 69.8105 26.9414C69.709 27.6641 69.8633 28.2676 70.2734 28.752C70.6875 29.2324 71.2539 29.4727 71.9727 29.4727ZM79.8184 30.1465C79.2129 30.1465 78.6816 30.0078 78.2246 29.7305C77.7715 29.4492 77.4395 29.0645 77.2285 28.5762C77.0176 28.084 76.9531 27.5391 77.0352 26.9414C77.1172 26.3438 77.334 25.8008 77.6855 25.3125C78.0371 24.8203 78.4805 24.4355 79.0156 24.1582C79.5547 23.877 80.127 23.7363 80.7324 23.7363C81.3301 23.7363 81.8516 23.873 82.2969 24.1465C82.7422 24.4199 83.0723 24.7949 83.2871 25.2715L82.6309 25.6465C82.4746 25.2676 82.2207 24.9668 81.8691 24.7441C81.5176 24.5215 81.1074 24.4102 80.6387 24.4102C79.9199 24.4102 79.2852 24.6523 78.7344 25.1367C78.1836 25.6172 77.8574 26.2188 77.7559 26.9414C77.6543 27.6641 77.8086 28.2676 78.2188 28.752C78.6328 29.2324 79.1992 29.4727 79.918 29.4727C80.3828 29.4727 80.8242 29.3613 81.2422 29.1387C81.6602 28.916 82.0059 28.6152 82.2793 28.2363L82.8301 28.6055C82.4824 29.082 82.043 29.459 81.5117 29.7363C80.9805 30.0098 80.416 30.1465 79.8184 30.1465ZM86.1699 24.5156L85.6191 28.4297C85.5723 28.7969 85.6289 29.0625 85.7891 29.2266C85.9492 29.3906 86.2031 29.4727 86.5508 29.4727C86.8477 29.4727 87.1523 29.3965 87.4648 29.2441L87.3828 29.9062C87.043 30.0664 86.6895 30.1465 86.3223 30.1465C85.791 30.1465 85.4043 30.0117 85.1621 29.7422C84.9199 29.4688 84.8359 29.0664 84.9102 28.5352L85.4727 24.5156H84.2832L84.3828 23.8828H85.5664L85.8066 22.1777H86.5039L86.2637 23.8828H88.2207L88.1387 24.5156H86.1699ZM91.3027 30.1465C90.6973 30.1465 90.166 30.0078 89.709 29.7305C89.2559 29.4492 88.9238 29.0645 88.7129 28.5762C88.502 28.084 88.4375 27.5391 88.5195 26.9414C88.6016 26.3438 88.8184 25.8008 89.1699 25.3125C89.5215 24.8203 89.9648 24.4355 90.5 24.1582C91.0391 23.877 91.6113 23.7363 92.2168 23.7363C92.8184 23.7363 93.3457 23.877 93.7988 24.1582C94.252 24.4355 94.584 24.8203 94.7949 25.3125C95.0059 25.8008 95.0703 26.3438 94.9883 26.9414C94.9062 27.5391 94.6895 28.084 94.3379 28.5762C93.9863 29.0645 93.543 29.4492 93.0078 29.7305C92.4727 30.0078 91.9043 30.1465 91.3027 30.1465ZM89.7031 28.752C90.1172 29.2324 90.6836 29.4727 91.4023 29.4727C92.1211 29.4727 92.7539 29.2324 93.3008 28.752C93.8477 28.2676 94.1699 27.6641 94.2676 26.9414C94.3691 26.2188 94.2148 25.6172 93.8047 25.1367C93.3984 24.6523 92.8379 24.4102 92.123 24.4102C91.4043 24.4102 90.7695 24.6523 90.2188 25.1367C89.668 25.6172 89.3418 26.2188 89.2402 26.9414C89.1387 27.6641 89.293 28.2676 89.7031 28.752ZM99.9336 23.7832H100.109L100.016 24.5039H99.8223C99.1191 24.5039 98.5312 24.7148 98.0586 25.1367C97.5898 25.5586 97.3066 26.127 97.209 26.8418H97.1973L96.752 30H96.0547L96.9219 23.8828H97.6133L97.4375 25.166C97.7227 24.7285 98.0801 24.3887 98.5098 24.1465C98.9434 23.9043 99.418 23.7832 99.9336 23.7832Z" fill="#E1E1E1"/>
</g>
<defs>
<filter id="filter0_dd_1968_3482" x="76" y="56.001" width="289" height="292" filterUnits="userSpaceOnUse" color-interpolation-filters="sRGB">
<feFlood flood-opacity="0" result="BackgroundImageFix"/>
<feColorMatrix in="SourceAlpha" type="matrix" values="0 0 0 0 0 0 0 0 0 0 0 0 0 0 0 0 0 0 127 0" result="hardAlpha"/>
<feOffset dx="6" dy="9"/>
<feGaussianBlur stdDeviation="20"/>
<feColorMatrix type="matrix" values="0 0 0 0 0.144861 0 0 0 0 0.169633 0 0 0 0 0.233333 0 0 0 0.5 0"/>
<feBlend mode="normal" in2="BackgroundImageFix" result="effect1_dropShadow_1968_3482"/>
<feColorMatrix in="SourceAlpha" type="matrix" values="0 0 0 0 0 0 0 0 0 0 0 0 0 0 0 0 0 0 127 0" result="hardAlpha"/>
<feOffset dx="-6" dy="-6"/>
<feGaussianBlur stdDeviation="8"/>
<feColorMatrix type="matrix" values="0 0 0 0 0.166667 0 0 0 0 0.166667 0 0 0 0 0.166667 0 0 0 0.6 0"/>
<feBlend mode="normal" in2="effect1_dropShadow_1968_3482" result="effect2_dropShadow_1968_3482"/>
<feBlend mode="normal" in="SourceGraphic" in2="effect2_dropShadow_1968_3482" result="shape"/>
</filter>
<filter id="filter1_i_1968_3482" x="77" y="56.1968" width="276.934" height="141.573" filterUnits="userSpaceOnUse" color-interpolation-filters="sRGB">
<feFlood flood-opacity="0" result="BackgroundImageFix"/>
<feBlend mode="normal" in="SourceGraphic" in2="BackgroundImageFix" result="shape"/>
<feColorMatrix in="SourceAlpha" type="matrix" values="0 0 0 0 0 0 0 0 0 0 0 0 0 0 0 0 0 0 127 0" result="hardAlpha"/>
<feOffset dx="1" dy="1"/>
<feGaussianBlur stdDeviation="1"/>
<feComposite in2="hardAlpha" operator="arithmetic" k2="-1" k3="1"/>
<feColorMatrix type="matrix" values="0 0 0 0 0 0 0 0 0 0 0 0 0 0 0 0 0 0 0.19534 0"/>
<feBlend mode="normal" in2="shape" result="effect1_innerShadow_1968_3482"/>
</filter>
<linearGradient id="paint0_linear_1968_3482" x1="214.312" y1="67.001" x2="214.312" y2="313.001" gradientUnits="userSpaceOnUse">
<stop stop-color="#050F0D"/>
<stop offset="1" stop-color="#050F0D" stop-opacity="0.88"/>
</linearGradient>
<linearGradient id="paint1_linear_1968_3482" x1="214.967" y1="57" x2="214.967" y2="195.77" gradientUnits="userSpaceOnUse">
<stop stop-color="#CAEAE5"/>
<stop offset="1" stop-color="#CAEAE5" stop-opacity="0"/>
</linearGradient>
<linearGradient id="paint2_linear_1968_3482" x1="214.967" y1="57" x2="214.967" y2="195.77" gradientUnits="userSpaceOnUse">
<stop stop-color="#CAEAE5"/>
<stop offset="1" stop-color="#CAEAE5" stop-opacity="0.3"/>
</linearGradient>
<linearGradient id="paint3_linear_1968_3482" x1="290.84" y1="191.801" x2="136" y2="191.798" gradientUnits="userSpaceOnUse">
<stop offset="0.01" stop-color="#323333"/>
<stop offset="0.07" stop-color="#53E71F"/>
<stop offset="1" stop-color="#CAEAE5"/>
</linearGradient>
</defs>
</svg>
