<svg width="1120" height="138" viewBox="0 0 1120 138" fill="none" xmlns="http://www.w3.org/2000/svg">
<rect width="1120" height="138" rx="15" fill="#050F0D"/>
<path d="M38.4531 37.1465C37.8477 37.1465 37.293 37.0371 36.7891 36.8184C36.2852 36.5957 35.8691 36.2949 35.541 35.916C35.2168 35.5371 34.9805 35.084 34.832 34.5566C34.6875 34.0254 34.6582 33.459 34.7441 32.8574C34.8535 32.0566 35.1406 31.3301 35.6055 30.6777C36.0742 30.0215 36.666 29.5078 37.3809 29.1367C38.0957 28.7617 38.8574 28.5742 39.666 28.5742C40.416 28.5742 41.082 28.7402 41.6641 29.0723C42.2461 29.4043 42.6914 29.8594 43 30.4375L42.3027 30.8301C42.0527 30.3535 41.6875 29.9785 41.207 29.7051C40.7305 29.4316 40.1836 29.2949 39.5664 29.2949C38.8984 29.2949 38.2715 29.4492 37.6855 29.7578C37.0996 30.0664 36.6133 30.4922 36.2266 31.0352C35.8438 31.5781 35.6055 32.1855 35.5117 32.8574C35.418 33.5254 35.4863 34.1328 35.7168 34.6797C35.9512 35.2266 36.3164 35.6543 36.8125 35.9629C37.3125 36.2715 37.8945 36.4258 38.5586 36.4258C39.1797 36.4258 39.7676 36.2891 40.3223 36.0156C40.877 35.7422 41.3457 35.3672 41.7285 34.8906L42.3145 35.2832C41.8418 35.8574 41.2676 36.3125 40.5918 36.6484C39.916 36.9805 39.2031 37.1465 38.4531 37.1465ZM48.1621 36.4434C47.6035 36.9121 46.916 37.1465 46.0996 37.1465C45.2832 37.1465 44.6582 36.9121 44.2246 36.4434C43.7949 35.9746 43.6348 35.3555 43.7441 34.5859L44.2715 30.8828H44.9688L44.4531 34.4922C44.375 35.0898 44.4941 35.5703 44.8105 35.9336C45.127 36.293 45.5879 36.4727 46.1934 36.4727C46.7988 36.4727 47.3105 36.291 47.7285 35.9277C48.1465 35.5645 48.3984 35.0859 48.4844 34.4922L48.9883 30.8828H49.6855L49.1699 34.5859C49.0605 35.3555 48.7246 35.9746 48.1621 36.4434ZM54.5312 30.7832H54.707L54.6133 31.5039H54.4199C53.7168 31.5039 53.1289 31.7148 52.6562 32.1367C52.1875 32.5586 51.9043 33.127 51.8066 33.8418H51.7949L51.3496 37H50.6523L51.5195 30.8828H52.2109L52.0352 32.166C52.3203 31.7285 52.6777 31.3887 53.1074 31.1465C53.541 30.9043 54.0156 30.7832 54.5312 30.7832ZM58.9258 30.7832H59.1016L59.0078 31.5039H58.8145C58.1113 31.5039 57.5234 31.7148 57.0508 32.1367C56.582 32.5586 56.2988 33.127 56.2012 33.8418H56.1895L55.7441 37H55.0469L55.9141 30.8828H56.6055L56.4297 32.166C56.7148 31.7285 57.0723 31.3887 57.502 31.1465C57.9355 30.9043 58.4102 30.7832 58.9258 30.7832ZM62.7637 30.7363C63.3574 30.7363 63.877 30.875 64.3223 31.1523C64.7676 31.4297 65.0938 31.8145 65.3008 32.3066C65.5078 32.7949 65.5703 33.3398 65.4883 33.9414C65.4805 33.9961 65.459 34.0957 65.4238 34.2402H59.8105C59.791 34.9043 59.9902 35.4473 60.4082 35.8691C60.8301 36.2871 61.3906 36.4961 62.0898 36.4961C62.5742 36.4961 63.0352 36.3906 63.4727 36.1797C63.9102 35.9648 64.2695 35.6816 64.5508 35.3301L64.9844 35.7402C64.6172 36.1777 64.1699 36.5215 63.6426 36.7715C63.1191 37.0215 62.5625 37.1465 61.9727 37.1465C61.3516 37.1465 60.8066 37.0059 60.3379 36.7246C59.873 36.4434 59.5312 36.0586 59.3125 35.5703C59.0977 35.0781 59.0312 34.5312 59.1133 33.9297C59.1953 33.332 59.4102 32.7891 59.7578 32.3008C60.1055 31.8125 60.543 31.4297 61.0703 31.1523C61.6016 30.875 62.166 30.7363 62.7637 30.7363ZM64.2344 32.0137C63.8398 31.5957 63.3164 31.3867 62.6641 31.3867C62.0117 31.3867 61.4258 31.5957 60.9062 32.0137C60.3906 32.4277 60.0527 32.9609 59.8926 33.6133H64.791C64.8184 32.9609 64.6328 32.4277 64.2344 32.0137ZM70.4805 30.7363C71.25 30.7363 71.8359 30.9688 72.2383 31.4336C72.6406 31.8984 72.7871 32.5176 72.6777 33.291L72.1621 37H71.4648L71.957 33.4961C72.0469 32.8672 71.9297 32.3633 71.6055 31.9844C71.2812 31.6016 70.8066 31.4102 70.1816 31.4102C69.5293 31.4102 68.9766 31.6035 68.5234 31.9902C68.0703 32.373 67.7988 32.8828 67.709 33.5195L67.2168 37H66.5195L67.3867 30.8828H68.0781L67.9258 32.0195C68.207 31.6094 68.5684 31.293 69.0098 31.0703C69.4551 30.8477 69.9453 30.7363 70.4805 30.7363ZM75.7949 31.5156L75.2441 35.4297C75.1973 35.7969 75.2539 36.0625 75.4141 36.2266C75.5742 36.3906 75.8281 36.4727 76.1758 36.4727C76.4727 36.4727 76.7773 36.3965 77.0898 36.2441L77.0078 36.9062C76.668 37.0664 76.3145 37.1465 75.9473 37.1465C75.416 37.1465 75.0293 37.0117 74.7871 36.7422C74.5449 36.4688 74.4609 36.0664 74.5352 35.5352L75.0977 31.5156H73.9082L74.0078 30.8828H75.1914L75.4316 29.1777H76.1289L75.8887 30.8828H77.8457L77.7637 31.5156H75.7949ZM85.7441 30.7363C86.3301 30.7363 86.8418 30.877 87.2793 31.1582C87.7168 31.4355 88.0352 31.8184 88.2344 32.3066C88.4336 32.7949 88.4922 33.3398 88.4102 33.9414C88.3281 34.5391 88.1172 35.084 87.7773 35.5762C87.4375 36.0645 87.0078 36.4492 86.4883 36.7305C85.9688 37.0078 85.416 37.1465 84.8301 37.1465C84.252 37.1465 83.752 37.0059 83.3301 36.7246C82.9121 36.4434 82.6094 36.0586 82.4219 35.5703L82.2168 37H81.5195L82.7324 28.3574H83.4297L82.873 32.3066C83.2051 31.8184 83.6211 31.4355 84.1211 31.1582C84.6211 30.877 85.1621 30.7363 85.7441 30.7363ZM87.6895 33.9414C87.7871 33.2188 87.6309 32.6172 87.2207 32.1367C86.8105 31.6523 86.2461 31.4102 85.5273 31.4102C84.8086 31.4102 84.1738 31.6523 83.623 32.1367C83.0762 32.6172 82.752 33.2188 82.6504 33.9414C82.5527 34.6641 82.707 35.2676 83.1133 35.752C83.5234 36.2324 84.0879 36.4727 84.8066 36.4727C85.5254 36.4727 86.1602 36.2324 86.7109 35.752C87.2617 35.2676 87.5879 34.6641 87.6895 33.9414ZM95.7051 30.8828H96.4023L95.5352 37H94.8438L95.043 35.582C94.7109 36.0664 94.2949 36.4492 93.7949 36.7305C93.2949 37.0078 92.7559 37.1465 92.1777 37.1465C91.5957 37.1465 91.0859 37.0078 90.6484 36.7305C90.2148 36.4492 89.8984 36.0645 89.6992 35.5762C89.5 35.084 89.4414 34.5391 89.5234 33.9414C89.6055 33.3438 89.8164 32.8008 90.1562 32.3125C90.4961 31.8203 90.9238 31.4355 91.4395 31.1582C91.959 30.877 92.5098 30.7363 93.0918 30.7363C93.6699 30.7363 94.168 30.875 94.5859 31.1523C95.0078 31.4297 95.3125 31.8105 95.5 32.2949L95.7051 30.8828ZM92.4062 36.4727C93.1211 36.4727 93.752 36.2324 94.2988 35.752C94.8457 35.2676 95.1699 34.6641 95.2715 33.9414C95.373 33.2188 95.2188 32.6172 94.8086 32.1367C94.3984 31.6523 93.834 31.4102 93.1152 31.4102C92.3926 31.4102 91.7578 31.6523 91.2109 32.1367C90.6641 32.6211 90.3418 33.2227 90.2441 33.9414C90.1426 34.6641 90.2969 35.2676 90.707 35.752C91.1211 36.2324 91.6875 36.4727 92.4062 36.4727ZM97.4336 37L98.6465 28.3574H99.3438L98.1309 37H97.4336ZM106.264 30.8828H106.961L106.094 37H105.402L105.602 35.582C105.27 36.0664 104.854 36.4492 104.354 36.7305C103.854 37.0078 103.314 37.1465 102.736 37.1465C102.154 37.1465 101.645 37.0078 101.207 36.7305C100.773 36.4492 100.457 36.0645 100.258 35.5762C100.059 35.084 100 34.5391 100.082 33.9414C100.164 33.3438 100.375 32.8008 100.715 32.3125C101.055 31.8203 101.482 31.4355 101.998 31.1582C102.518 30.877 103.068 30.7363 103.65 30.7363C104.229 30.7363 104.727 30.875 105.145 31.1523C105.566 31.4297 105.871 31.8105 106.059 32.2949L106.264 30.8828ZM102.965 36.4727C103.68 36.4727 104.311 36.2324 104.857 35.752C105.404 35.2676 105.729 34.6641 105.83 33.9414C105.932 33.2188 105.777 32.6172 105.367 32.1367C104.957 31.6523 104.393 31.4102 103.674 31.4102C102.951 31.4102 102.316 31.6523 101.77 32.1367C101.223 32.6211 100.9 33.2227 100.803 33.9414C100.701 34.6641 100.855 35.2676 101.266 35.752C101.68 36.2324 102.246 36.4727 102.965 36.4727ZM111.953 30.7363C112.723 30.7363 113.309 30.9688 113.711 31.4336C114.113 31.8984 114.26 32.5176 114.15 33.291L113.635 37H112.938L113.43 33.4961C113.52 32.8672 113.402 32.3633 113.078 31.9844C112.754 31.6016 112.279 31.4102 111.654 31.4102C111.002 31.4102 110.449 31.6035 109.996 31.9902C109.543 32.373 109.271 32.8828 109.182 33.5195L108.689 37H107.992L108.859 30.8828H109.551L109.398 32.0195C109.68 31.6094 110.041 31.293 110.482 31.0703C110.928 30.8477 111.418 30.7363 111.953 30.7363ZM118.275 37.1465C117.67 37.1465 117.139 37.0078 116.682 36.7305C116.229 36.4492 115.896 36.0645 115.686 35.5762C115.475 35.084 115.41 34.5391 115.492 33.9414C115.574 33.3438 115.791 32.8008 116.143 32.3125C116.494 31.8203 116.938 31.4355 117.473 31.1582C118.012 30.877 118.584 30.7363 119.189 30.7363C119.787 30.7363 120.309 30.873 120.754 31.1465C121.199 31.4199 121.529 31.7949 121.744 32.2715L121.088 32.6465C120.932 32.2676 120.678 31.9668 120.326 31.7441C119.975 31.5215 119.564 31.4102 119.096 31.4102C118.377 31.4102 117.742 31.6523 117.191 32.1367C116.641 32.6172 116.314 33.2188 116.213 33.9414C116.111 34.6641 116.266 35.2676 116.676 35.752C117.09 36.2324 117.656 36.4727 118.375 36.4727C118.84 36.4727 119.281 36.3613 119.699 36.1387C120.117 35.916 120.463 35.6152 120.736 35.2363L121.287 35.6055C120.939 36.082 120.5 36.459 119.969 36.7363C119.438 37.0098 118.873 37.1465 118.275 37.1465ZM126.162 30.7363C126.756 30.7363 127.275 30.875 127.721 31.1523C128.166 31.4297 128.492 31.8145 128.699 32.3066C128.906 32.7949 128.969 33.3398 128.887 33.9414C128.879 33.9961 128.857 34.0957 128.822 34.2402H123.209C123.189 34.9043 123.389 35.4473 123.807 35.8691C124.229 36.2871 124.789 36.4961 125.488 36.4961C125.973 36.4961 126.434 36.3906 126.871 36.1797C127.309 35.9648 127.668 35.6816 127.949 35.3301L128.383 35.7402C128.016 36.1777 127.568 36.5215 127.041 36.7715C126.518 37.0215 125.961 37.1465 125.371 37.1465C124.75 37.1465 124.205 37.0059 123.736 36.7246C123.271 36.4434 122.93 36.0586 122.711 35.5703C122.496 35.0781 122.43 34.5312 122.512 33.9297C122.594 33.332 122.809 32.7891 123.156 32.3008C123.504 31.8125 123.941 31.4297 124.469 31.1523C125 30.875 125.564 30.7363 126.162 30.7363ZM127.633 32.0137C127.238 31.5957 126.715 31.3867 126.062 31.3867C125.41 31.3867 124.824 31.5957 124.305 32.0137C123.789 32.4277 123.451 32.9609 123.291 33.6133H128.189C128.217 32.9609 128.031 32.4277 127.633 32.0137Z" fill="#E1E1E1"/>
<path fill-rule="evenodd" clip-rule="evenodd" d="M145 31.3491C144.087 31.3491 143.349 32.0866 143.349 33C143.349 33.9133 144.087 34.6508 145 34.6508C145.913 34.6508 146.651 33.9133 146.651 33C146.651 32.0866 145.913 31.3491 145 31.3491ZM142.474 33C142.474 31.6033 143.603 30.4741 145 30.4741C146.397 30.4741 147.526 31.6033 147.526 33C147.526 34.3966 146.397 35.5258 145 35.5258C143.603 35.5258 142.474 34.3966 142.474 33Z" fill="#E1E1E1"/>
<path fill-rule="evenodd" clip-rule="evenodd" d="M139.317 31.2482C140.711 29.0558 142.755 27.7324 145 27.7324C147.245 27.7324 149.289 29.0559 150.683 31.2484C151.001 31.7468 151.145 32.3852 151.145 32.997C151.145 33.6088 151.001 34.2472 150.683 34.7456C149.289 36.9381 147.245 38.2616 145 38.2616C142.755 38.2616 140.711 36.9381 139.317 34.7456C138.999 34.2472 138.854 33.6088 138.854 32.997C138.854 32.3851 138.999 31.7466 139.317 31.2482ZM145 28.6074C143.126 28.6074 141.332 29.7106 140.055 31.7181L140.055 31.7186C139.848 32.0427 139.729 32.5066 139.729 32.997C139.729 33.4874 139.848 33.9513 140.055 34.2754L140.055 34.2759C141.332 36.2834 143.126 37.3866 145 37.3866C146.873 37.3866 148.668 36.2834 149.945 34.2759L149.945 34.2754C150.152 33.9513 150.27 33.4874 150.27 32.997C150.27 32.5066 150.152 32.0427 149.945 31.7186L149.945 31.7181C148.668 29.7106 146.873 28.6074 145 28.6074Z" fill="#E1E1E1"/>
<path d="M49.5723 71.4492C49.5723 72.9714 48.998 74.2383 47.8496 75.25C46.7012 76.2617 45.2292 76.8542 43.4336 77.0273V78.9277H41.4238V77.0273C40.2116 76.9089 39.0358 76.5853 37.8965 76.0566C36.7572 75.528 35.7865 74.8626 34.9844 74.0605L36.6387 71.709C37.2949 72.3105 38.0378 72.8255 38.8672 73.2539C39.7057 73.6823 40.5579 73.9603 41.4238 74.0879V68.5781C40.6035 68.3685 39.8561 68.1087 39.1816 67.7988C38.5163 67.4889 37.9102 67.1152 37.3633 66.6777C36.8164 66.2402 36.388 65.7161 36.0781 65.1055C35.7773 64.4857 35.627 63.8021 35.627 63.0547C35.627 61.5964 36.1556 60.3796 37.2129 59.4043C38.2793 58.4199 39.6829 57.8366 41.4238 57.6543V55.7266H43.4336V57.6543C44.5091 57.7454 45.5026 58.0007 46.4141 58.4199C47.3255 58.8392 48.0775 59.3587 48.6699 59.9785L47.0703 62.3301C46.6602 61.9199 46.1315 61.5553 45.4844 61.2363C44.8464 60.9082 44.1628 60.694 43.4336 60.5938V65.8301C43.8346 65.9212 44.2266 66.0306 44.6094 66.1582C44.9922 66.2858 45.4297 66.4544 45.9219 66.6641C46.4232 66.8737 46.8743 67.1289 47.2754 67.4297C47.6855 67.7214 48.0684 68.054 48.4238 68.4277C48.7884 68.8014 49.071 69.248 49.2715 69.7676C49.472 70.2871 49.5723 70.8477 49.5723 71.4492ZM38.9902 62.8906C38.9902 63.9297 39.8014 64.7318 41.4238 65.2969V60.5938C40.6947 60.7305 40.1068 61.0085 39.6602 61.4277C39.2135 61.8379 38.9902 62.3255 38.9902 62.8906ZM43.4336 74.1152C44.2721 73.9876 44.9421 73.7096 45.4434 73.2812C45.9538 72.8529 46.209 72.3014 46.209 71.627C46.209 70.5241 45.2839 69.681 43.4336 69.0977V74.1152ZM56.4727 57.6816H58.8243V77H55.5157V61.6328L52.0704 63.5605L50.6485 60.8945L56.4727 57.6816ZM61.7873 81.0605L63.7423 73.5273H67.4338L64.4943 81.0605H61.7873ZM84.1916 69.8633V72.9941H81.9495V77H78.6135V72.9941H70.0276L69.2346 70.3145L78.2854 57.6816H81.9495V69.8633H84.1916ZM72.8987 69.8633H78.6135V61.8789L72.8987 69.8633ZM90.9417 73.8691H98.9808V77H86.2659V74.3066L93.1839 66.8691C93.8037 66.1673 94.2822 65.5339 94.6195 64.9688C94.9658 64.3945 95.139 63.8203 95.139 63.2461C95.139 62.4805 94.861 61.8607 94.305 61.3867C93.749 60.9128 93.0381 60.6758 92.1722 60.6758C90.6318 60.6758 89.2874 61.4596 88.139 63.0273L85.8421 60.8672C86.5075 59.7917 87.4189 58.9349 88.5765 58.2969C89.734 57.6589 90.9964 57.3398 92.3636 57.3398C94.1865 57.3398 95.6767 57.8776 96.8343 58.9531C98.001 60.0286 98.5843 61.3958 98.5843 63.0547C98.5843 64.112 98.361 65.0645 97.9144 65.9121C97.4678 66.7507 96.8616 67.5801 96.096 68.4004L90.9417 73.8691ZM109.231 64.5723C111.108 64.5723 112.681 65.1738 113.948 66.377C115.224 67.5801 115.862 69.0749 115.862 70.8613C115.862 72.7207 115.169 74.2656 113.784 75.4961C112.407 76.7266 110.657 77.3418 108.534 77.3418C107.33 77.3418 106.141 77.1094 104.965 76.6445C103.799 76.1797 102.728 75.4961 101.752 74.5938L103.434 71.9277C104.063 72.6113 104.806 73.1491 105.662 73.541C106.528 73.9238 107.417 74.1152 108.329 74.1152C109.541 74.1152 110.53 73.7962 111.295 73.1582C112.061 72.5111 112.444 71.7181 112.444 70.7793C112.444 69.877 112.097 69.125 111.405 68.5234C110.721 67.9219 109.855 67.6211 108.807 67.6211C108.187 67.6211 107.59 67.735 107.016 67.9629C106.442 68.1908 105.95 68.4961 105.539 68.8789L102.6 68.0176L103.543 57.6816H114.522V60.8125H106.346L105.95 65.4062C106.87 64.8503 107.964 64.5723 109.231 64.5723ZM117.499 81.0605L119.454 73.5273H123.145L120.206 81.0605H117.499ZM128.063 57.6816H130.415V77H127.106V61.6328L123.661 63.5605L122.239 60.8945L128.063 57.6816ZM145.354 66.9785C146.339 67.4798 147.109 68.1406 147.665 68.9609C148.23 69.7721 148.512 70.6699 148.512 71.6543C148.512 73.2676 147.824 74.6211 146.448 75.7148C145.081 76.7995 143.372 77.3418 141.321 77.3418C139.972 77.3418 138.746 77.0957 137.643 76.6035C136.549 76.1113 135.688 75.4323 135.059 74.5664C134.439 73.6914 134.13 72.7207 134.13 71.6543C134.13 70.6699 134.408 69.7721 134.964 68.9609C135.529 68.1406 136.303 67.4798 137.288 66.9785C136.422 66.5046 135.743 65.8939 135.251 65.1465C134.758 64.39 134.512 63.5605 134.512 62.6582C134.512 61.1543 135.159 59.8919 136.454 58.8711C137.748 57.8503 139.37 57.3398 141.321 57.3398C143.262 57.3398 144.88 57.8503 146.174 58.8711C147.478 59.8919 148.13 61.1543 148.13 62.6582C148.13 63.5605 147.879 64.39 147.378 65.1465C146.885 65.8939 146.211 66.5046 145.354 66.9785ZM141.321 60.5664C140.355 60.5664 139.548 60.7988 138.901 61.2637C138.254 61.7285 137.93 62.3073 137.93 63C137.93 63.7018 138.254 64.2897 138.901 64.7637C139.548 65.2285 140.355 65.4609 141.321 65.4609C142.278 65.4609 143.08 65.224 143.727 64.75C144.383 64.276 144.712 63.6927 144.712 63C144.712 62.3073 144.383 61.7285 143.727 61.2637C143.08 60.7988 142.278 60.5664 141.321 60.5664ZM138.614 73.3359C139.334 73.8555 140.236 74.1152 141.321 74.1152C142.406 74.1152 143.308 73.8555 144.028 73.3359C144.748 72.8073 145.108 72.1419 145.108 71.3398C145.108 70.556 144.743 69.8997 144.014 69.3711C143.294 68.8424 142.396 68.5781 141.321 68.5781C140.245 68.5781 139.348 68.8424 138.628 69.3711C137.908 69.8997 137.548 70.556 137.548 71.3398C137.548 72.1419 137.903 72.8073 138.614 73.3359ZM160.964 66.8691C161.975 67.3249 162.768 67.9766 163.342 68.8242C163.926 69.6719 164.217 70.6335 164.217 71.709C164.217 73.3496 163.552 74.6986 162.221 75.7559C160.9 76.8132 159.191 77.3418 157.094 77.3418C155.727 77.3418 154.424 77.1003 153.184 76.6172C151.945 76.1341 150.906 75.4596 150.067 74.5938L152.009 72.1602C152.601 72.7799 153.33 73.263 154.196 73.6094C155.062 73.9466 155.955 74.1152 156.876 74.1152C158.024 74.1152 158.963 73.8464 159.692 73.3086C160.43 72.7617 160.8 72.069 160.8 71.2305C160.8 70.3919 160.444 69.7038 159.733 69.166C159.031 68.6191 158.134 68.3457 157.04 68.3457H154.223V65.4609H157.04C157.988 65.4609 158.772 65.2331 159.391 64.7773C160.011 64.3216 160.321 63.7383 160.321 63.0273C160.321 62.3164 159.984 61.7285 159.309 61.2637C158.635 60.7988 157.769 60.5664 156.712 60.5664C155.919 60.5664 155.148 60.7077 154.401 60.9902C153.663 61.2728 153.052 61.6647 152.569 62.166L150.778 59.7461C151.535 58.9896 152.478 58.4017 153.608 57.9824C154.738 57.554 155.914 57.3398 157.135 57.3398C159.077 57.3398 160.663 57.832 161.893 58.8164C163.124 59.7917 163.739 61.0358 163.739 62.5488C163.739 63.4785 163.493 64.3216 163.001 65.0781C162.509 65.8346 161.829 66.4316 160.964 66.8691Z" fill="white"/>
<path d="M40.5967 103.324V104.418H38.2998V106.729H37.1787V104.418H34.8818V103.324H37.1787V101.014H38.2998V103.324H40.5967ZM49.3311 105.3C49.3311 106.047 49.044 106.669 48.4698 107.166C47.8955 107.663 47.1664 107.945 46.2823 108.014V108.964H45.3731V108C44.7761 107.945 44.1996 107.786 43.6436 107.521C43.0876 107.257 42.6091 106.922 42.208 106.517L42.8643 105.594C43.1924 105.917 43.5752 106.193 44.0127 106.421C44.4502 106.644 44.9037 106.788 45.3731 106.852V103.618C44.9812 103.522 44.6257 103.404 44.3067 103.263C43.9877 103.121 43.6869 102.946 43.4043 102.736C43.1263 102.527 42.9076 102.271 42.7481 101.971C42.5931 101.665 42.5157 101.328 42.5157 100.959C42.5157 100.243 42.7777 99.6488 43.3018 99.1748C43.8304 98.6963 44.5209 98.4183 45.3731 98.3408V97.3633H46.2823V98.3271C46.8109 98.3727 47.3008 98.5026 47.752 98.7168C48.2032 98.931 48.5769 99.1976 48.8731 99.5166L48.2237 100.439C48.0186 100.212 47.7429 100.009 47.3965 99.8311C47.0502 99.6533 46.6788 99.5394 46.2823 99.4893V102.565C46.4873 102.611 46.6856 102.666 46.877 102.729C47.0684 102.789 47.2871 102.871 47.5332 102.976C47.7839 103.076 48.0072 103.197 48.2032 103.338C48.4037 103.479 48.5928 103.643 48.7705 103.83C48.9483 104.012 49.085 104.231 49.1807 104.486C49.281 104.737 49.3311 105.008 49.3311 105.3ZM43.8282 100.877C43.8282 101.538 44.3431 102.028 45.3731 102.347V99.4893C44.9128 99.5576 44.5391 99.7194 44.252 99.9746C43.9694 100.225 43.8282 100.526 43.8282 100.877ZM46.2823 106.852C46.7927 106.792 47.2074 106.635 47.5264 106.38C47.8454 106.125 48.0049 105.792 48.0049 105.382C48.0049 104.675 47.4307 104.163 46.2823 103.844V106.852ZM52.2481 106.797H56.7325V108H50.4571V106.975L54.128 102.989C54.4652 102.62 54.725 102.278 54.9073 101.964C55.0942 101.645 55.1876 101.324 55.1876 101C55.1876 100.544 55.019 100.173 54.6817 99.8857C54.349 99.5941 53.9298 99.4482 53.4239 99.4482C52.9818 99.4482 52.5717 99.5645 52.1934 99.7969C51.8152 100.029 51.4893 100.351 51.2159 100.761L50.3204 99.9473C50.6485 99.4049 51.0929 98.9743 51.6534 98.6553C52.2139 98.3317 52.8292 98.1699 53.4991 98.1699C54.3787 98.1699 55.0987 98.4297 55.6593 98.9492C56.2244 99.4642 56.5069 100.125 56.5069 100.932C56.5069 101.433 56.3975 101.893 56.1788 102.312C55.96 102.727 55.6501 103.153 55.2491 103.591L52.2481 106.797ZM59.9913 106.797H64.4757V108H58.2003V106.975L61.8712 102.989C62.2084 102.62 62.4682 102.278 62.6505 101.964C62.8374 101.645 62.9308 101.324 62.9308 101C62.9308 100.544 62.7622 100.173 62.4249 99.8857C62.0922 99.5941 61.673 99.4482 61.1671 99.4482C60.7251 99.4482 60.3149 99.5645 59.9366 99.7969C59.5584 100.029 59.2325 100.351 58.9591 100.761L58.0636 99.9473C58.3917 99.4049 58.8361 98.9743 59.3966 98.6553C59.9571 98.3317 60.5724 98.1699 61.2423 98.1699C62.1219 98.1699 62.8419 98.4297 63.4025 98.9492C63.9676 99.4642 64.2501 100.125 64.2501 100.932C64.2501 101.433 64.1407 101.893 63.922 102.312C63.7032 102.727 63.3933 103.153 62.9923 103.591L59.9913 106.797ZM65.7043 110.03L66.6818 106.544H68.1105L66.757 110.03H65.7043ZM73.133 101.868C74.0718 101.868 74.8557 102.167 75.4846 102.764C76.118 103.361 76.4348 104.104 76.4348 104.992C76.4348 105.904 76.0952 106.662 75.4162 107.269C74.7417 107.87 73.8872 108.171 72.8527 108.171C72.2375 108.171 71.6382 108.048 71.0549 107.802C70.4761 107.556 69.9589 107.198 69.5031 106.729L70.1662 105.717C70.4943 106.1 70.8863 106.398 71.342 106.612C71.8023 106.826 72.2785 106.934 72.7707 106.934C73.4589 106.934 74.0217 106.747 74.4592 106.373C74.9012 105.995 75.1223 105.525 75.1223 104.965C75.1223 104.418 74.9172 103.962 74.507 103.598C74.1014 103.229 73.591 103.044 72.9758 103.044C72.6066 103.044 72.2512 103.112 71.9094 103.249C71.5721 103.381 71.285 103.561 71.048 103.789L69.927 103.434L70.3986 98.3408H75.7785V99.5439H71.465L71.1984 102.429C71.7635 102.055 72.4084 101.868 73.133 101.868ZM81.6008 108.171C80.5025 108.171 79.607 107.706 78.9143 106.776C78.2261 105.847 77.8821 104.644 77.8821 103.167C77.8821 101.69 78.2261 100.49 78.9143 99.5645C79.607 98.6348 80.5025 98.1699 81.6008 98.1699C82.3209 98.1699 82.9612 98.3796 83.5217 98.7988C84.0868 99.2181 84.5266 99.8083 84.8411 100.569C85.1555 101.33 85.3127 102.196 85.3127 103.167C85.3127 104.138 85.1555 105.004 84.8411 105.765C84.5266 106.526 84.0868 107.118 83.5217 107.542C82.9612 107.961 82.3209 108.171 81.6008 108.171ZM81.6008 106.934C82.3026 106.934 82.8769 106.585 83.3235 105.888C83.7746 105.186 84.0002 104.279 84.0002 103.167C84.0002 102.055 83.7746 101.15 83.3235 100.453C82.8769 99.7559 82.3026 99.4072 81.6008 99.4072C80.8899 99.4072 80.3111 99.7559 79.8645 100.453C79.4179 101.15 79.1946 102.055 79.1946 103.167C79.1946 104.279 79.4179 105.186 79.8645 105.888C80.3157 106.585 80.8944 106.934 81.6008 106.934ZM90.8069 108.171C89.7086 108.171 88.8131 107.706 88.1204 106.776C87.4322 105.847 87.0882 104.644 87.0882 103.167C87.0882 101.69 87.4322 100.49 88.1204 99.5645C88.8131 98.6348 89.7086 98.1699 90.8069 98.1699C91.527 98.1699 92.1673 98.3796 92.7278 98.7988C93.2929 99.2181 93.7327 99.8083 94.0471 100.569C94.3616 101.33 94.5188 102.196 94.5188 103.167C94.5188 104.138 94.3616 105.004 94.0471 105.765C93.7327 106.526 93.2929 107.118 92.7278 107.542C92.1673 107.961 91.527 108.171 90.8069 108.171ZM90.8069 106.934C91.5087 106.934 92.083 106.585 92.5296 105.888C92.9807 105.186 93.2063 104.279 93.2063 103.167C93.2063 102.055 92.9807 101.15 92.5296 100.453C92.083 99.7559 91.5087 99.4072 90.8069 99.4072C90.096 99.4072 89.5172 99.7559 89.0706 100.453C88.624 101.15 88.4007 102.055 88.4007 103.167C88.4007 104.279 88.624 105.186 89.0706 105.888C89.5218 106.585 90.1005 106.934 90.8069 106.934ZM96.7523 108.096C96.4971 108.096 96.2829 108.009 96.1097 107.836C95.9411 107.663 95.8568 107.451 95.8568 107.2C95.8568 106.95 95.9411 106.738 96.1097 106.564C96.2829 106.391 96.4971 106.305 96.7523 106.305C97.012 106.305 97.2285 106.391 97.4017 106.564C97.5749 106.733 97.6614 106.945 97.6614 107.2C97.6614 107.455 97.5749 107.67 97.4017 107.843C97.2285 108.011 97.012 108.096 96.7523 108.096ZM102.752 101.868C103.691 101.868 104.475 102.167 105.104 102.764C105.737 103.361 106.054 104.104 106.054 104.992C106.054 105.904 105.715 106.662 105.036 107.269C104.361 107.87 103.507 108.171 102.472 108.171C101.857 108.171 101.258 108.048 100.674 107.802C100.095 107.556 99.5782 107.198 99.1224 106.729L99.7855 105.717C100.114 106.1 100.506 106.398 100.961 106.612C101.422 106.826 101.898 106.934 102.39 106.934C103.078 106.934 103.641 106.747 104.078 106.373C104.521 105.995 104.742 105.525 104.742 104.965C104.742 104.418 104.536 103.962 104.126 103.598C103.721 103.229 103.21 103.044 102.595 103.044C102.226 103.044 101.87 103.112 101.529 103.249C101.191 103.381 100.904 103.561 100.667 103.789L99.5462 103.434L100.018 98.3408H105.398V99.5439H101.084L100.818 102.429C101.383 102.055 102.028 101.868 102.752 101.868ZM112.69 102.989C113.223 103.226 113.645 103.554 113.954 103.974C114.269 104.393 114.426 104.862 114.426 105.382C114.426 105.901 114.274 106.375 113.968 106.804C113.663 107.228 113.239 107.562 112.697 107.809C112.159 108.05 111.56 108.171 110.899 108.171C110.243 108.171 109.646 108.05 109.108 107.809C108.57 107.562 108.149 107.228 107.843 106.804C107.538 106.375 107.385 105.901 107.385 105.382C107.385 104.862 107.54 104.393 107.85 103.974C108.164 103.554 108.588 103.226 109.121 102.989C108.648 102.761 108.274 102.454 108 102.066C107.732 101.679 107.597 101.248 107.597 100.774C107.597 100.036 107.912 99.4186 108.54 98.9219C109.174 98.4206 109.96 98.1699 110.899 98.1699C111.847 98.1699 112.635 98.4206 113.264 98.9219C113.898 99.4186 114.214 100.036 114.214 100.774C114.214 101.248 114.078 101.679 113.804 102.066C113.531 102.449 113.159 102.757 112.69 102.989ZM110.899 99.4072C110.329 99.4072 109.855 99.5508 109.477 99.8379C109.099 100.12 108.91 100.476 108.91 100.904C108.91 101.333 109.099 101.693 109.477 101.984C109.86 102.271 110.334 102.415 110.899 102.415C111.473 102.415 111.949 102.271 112.328 101.984C112.71 101.693 112.902 101.333 112.902 100.904C112.902 100.476 112.71 100.12 112.328 99.8379C111.949 99.5508 111.473 99.4072 110.899 99.4072ZM110.899 106.934C111.528 106.934 112.054 106.776 112.478 106.462C112.902 106.143 113.114 105.746 113.114 105.272C113.114 104.799 112.902 104.402 112.478 104.083C112.054 103.764 111.528 103.604 110.899 103.604C110.274 103.604 109.753 103.764 109.333 104.083C108.914 104.402 108.704 104.799 108.704 105.272C108.704 105.746 108.914 106.143 109.333 106.462C109.753 106.776 110.274 106.934 110.899 106.934ZM121.942 110.659C121.345 109.866 120.864 108.87 120.499 107.672C120.139 106.473 119.959 105.277 119.959 104.083C119.959 102.889 120.139 101.693 120.499 100.494C120.864 99.291 121.345 98.293 121.942 97.5H123.166C122.582 98.293 122.113 99.291 121.757 100.494C121.406 101.693 121.231 102.889 121.231 104.083C121.231 105.277 121.406 106.473 121.757 107.672C122.113 108.87 122.582 109.866 123.166 110.659H121.942ZM129.76 103.324V104.418H127.463V106.729H126.342V104.418H124.045V103.324H126.342V101.014H127.463V103.324H129.76ZM133.087 98.3408H133.983V108H132.705V99.8789L130.777 100.932L130.23 99.9062L133.087 98.3408ZM137.064 108.096C136.809 108.096 136.595 108.009 136.421 107.836C136.253 107.663 136.169 107.451 136.169 107.2C136.169 106.95 136.253 106.738 136.421 106.564C136.595 106.391 136.809 106.305 137.064 106.305C137.324 106.305 137.54 106.391 137.713 106.564C137.887 106.733 137.973 106.945 137.973 107.2C137.973 107.455 137.887 107.67 137.713 107.843C137.54 108.011 137.324 108.096 137.064 108.096ZM143.064 101.868C144.003 101.868 144.787 102.167 145.416 102.764C146.049 103.361 146.366 104.104 146.366 104.992C146.366 105.904 146.026 106.662 145.347 107.269C144.673 107.87 143.818 108.171 142.784 108.171C142.169 108.171 141.569 108.048 140.986 107.802C140.407 107.556 139.89 107.198 139.434 106.729L140.097 105.717C140.425 106.1 140.817 106.398 141.273 106.612C141.733 106.826 142.21 106.934 142.702 106.934C143.39 106.934 143.953 106.747 144.39 106.373C144.832 105.995 145.053 105.525 145.053 104.965C145.053 104.418 144.848 103.962 144.438 103.598C144.033 103.229 143.522 103.044 142.907 103.044C142.538 103.044 142.182 103.112 141.84 103.249C141.503 103.381 141.216 103.561 140.979 103.789L139.858 103.434L140.33 98.3408H145.71V99.5439H141.396L141.13 102.429C141.695 102.055 142.339 101.868 143.064 101.868ZM152.489 102.907C153.036 103.117 153.469 103.443 153.788 103.885C154.111 104.322 154.273 104.821 154.273 105.382C154.273 106.198 153.947 106.868 153.296 107.392C152.644 107.911 151.808 108.171 150.787 108.171C150.126 108.171 149.49 108.05 148.88 107.809C148.273 107.567 147.761 107.23 147.341 106.797L148.093 105.847C148.412 106.193 148.8 106.462 149.256 106.653C149.716 106.84 150.197 106.934 150.698 106.934C151.354 106.934 151.894 106.772 152.318 106.448C152.742 106.12 152.954 105.708 152.954 105.211C152.954 104.714 152.751 104.302 152.345 103.974C151.94 103.641 151.429 103.475 150.814 103.475H149.358V102.374H150.814C151.352 102.374 151.799 102.235 152.154 101.957C152.509 101.674 152.687 101.324 152.687 100.904C152.687 100.476 152.496 100.12 152.113 99.8379C151.73 99.5508 151.24 99.4072 150.643 99.4072C150.206 99.4072 149.786 99.4915 149.385 99.6602C148.989 99.8242 148.661 100.052 148.401 100.344L147.704 99.4346C148.064 99.0381 148.52 98.7282 149.071 98.5049C149.622 98.2816 150.199 98.1699 150.8 98.1699C151.735 98.1699 152.503 98.4115 153.104 98.8945C153.706 99.373 154.007 99.9814 154.007 100.72C154.007 101.203 153.87 101.64 153.596 102.032C153.323 102.42 152.954 102.711 152.489 102.907ZM157.778 102.654C157.131 102.654 156.591 102.44 156.158 102.012C155.725 101.583 155.509 101.05 155.509 100.412C155.509 99.7741 155.725 99.2409 156.158 98.8125C156.591 98.3841 157.131 98.1699 157.778 98.1699C158.421 98.1699 158.956 98.3841 159.384 98.8125C159.817 99.2409 160.034 99.7741 160.034 100.412C160.034 101.05 159.817 101.583 159.384 102.012C158.956 102.44 158.421 102.654 157.778 102.654ZM156.548 108L163.548 98.3408H164.846L157.846 108H156.548ZM157.778 101.67C158.129 101.67 158.423 101.549 158.66 101.308C158.901 101.066 159.022 100.768 159.022 100.412C159.022 100.057 158.901 99.7581 158.66 99.5166C158.423 99.2751 158.129 99.1543 157.778 99.1543C157.423 99.1543 157.126 99.2751 156.889 99.5166C156.652 99.7581 156.534 100.057 156.534 100.412C156.534 100.768 156.652 101.066 156.889 101.308C157.126 101.549 157.423 101.67 157.778 101.67ZM165.216 107.528C164.783 107.957 164.245 108.171 163.602 108.171C162.96 108.171 162.42 107.957 161.982 107.528C161.549 107.095 161.333 106.562 161.333 105.929C161.333 105.295 161.549 104.764 161.982 104.336C162.42 103.903 162.96 103.687 163.602 103.687C164.245 103.687 164.783 103.903 165.216 104.336C165.653 104.764 165.872 105.295 165.872 105.929C165.872 106.562 165.653 107.095 165.216 107.528ZM162.714 106.824C162.951 107.066 163.247 107.187 163.602 107.187C163.958 107.187 164.254 107.066 164.491 106.824C164.728 106.583 164.846 106.284 164.846 105.929C164.846 105.573 164.728 105.275 164.491 105.033C164.254 104.792 163.958 104.671 163.602 104.671C163.247 104.671 162.951 104.792 162.714 105.033C162.477 105.275 162.358 105.573 162.358 105.929C162.358 106.284 162.477 106.583 162.714 106.824ZM166.964 110.659C167.547 109.871 168.014 108.877 168.365 107.679C168.716 106.476 168.891 105.277 168.891 104.083C168.891 102.889 168.716 101.69 168.365 100.487C168.014 99.2842 167.547 98.2884 166.964 97.5H168.18C168.777 98.293 169.258 99.291 169.623 100.494C169.987 101.693 170.17 102.889 170.17 104.083C170.17 105.272 169.987 106.469 169.623 107.672C169.258 108.87 168.777 109.866 168.18 110.659H166.964Z" fill="#2DC24E"/>
<path d="M303.465 28.7207L303.365 29.418H300.559L299.492 37H298.76L299.814 29.418H297.008L297.113 28.7207H303.465ZM305.299 37.1465C304.693 37.1465 304.162 37.0078 303.705 36.7305C303.252 36.4492 302.92 36.0645 302.709 35.5762C302.498 35.084 302.434 34.5391 302.516 33.9414C302.598 33.3438 302.814 32.8008 303.166 32.3125C303.518 31.8203 303.961 31.4355 304.496 31.1582C305.035 30.877 305.607 30.7363 306.213 30.7363C306.814 30.7363 307.342 30.877 307.795 31.1582C308.248 31.4355 308.58 31.8203 308.791 32.3125C309.002 32.8008 309.066 33.3438 308.984 33.9414C308.902 34.5391 308.686 35.084 308.334 35.5762C307.982 36.0645 307.539 36.4492 307.004 36.7305C306.469 37.0078 305.9 37.1465 305.299 37.1465ZM303.699 35.752C304.113 36.2324 304.68 36.4727 305.398 36.4727C306.117 36.4727 306.75 36.2324 307.297 35.752C307.844 35.2676 308.166 34.6641 308.264 33.9414C308.365 33.2188 308.211 32.6172 307.801 32.1367C307.395 31.6523 306.834 31.4102 306.119 31.4102C305.4 31.4102 304.766 31.6523 304.215 32.1367C303.664 32.6172 303.338 33.2188 303.236 33.9414C303.135 34.6641 303.289 35.2676 303.699 35.752ZM311.814 31.5156L311.264 35.4297C311.217 35.7969 311.273 36.0625 311.434 36.2266C311.594 36.3906 311.848 36.4727 312.195 36.4727C312.492 36.4727 312.797 36.3965 313.109 36.2441L313.027 36.9062C312.688 37.0664 312.334 37.1465 311.967 37.1465C311.436 37.1465 311.049 37.0117 310.807 36.7422C310.564 36.4688 310.48 36.0664 310.555 35.5352L311.117 31.5156H309.928L310.027 30.8828H311.211L311.451 29.1777H312.148L311.908 30.8828H313.865L313.783 31.5156H311.814ZM320.357 30.8828H321.055L320.188 37H319.496L319.695 35.582C319.363 36.0664 318.947 36.4492 318.447 36.7305C317.947 37.0078 317.408 37.1465 316.83 37.1465C316.248 37.1465 315.738 37.0078 315.301 36.7305C314.867 36.4492 314.551 36.0645 314.352 35.5762C314.152 35.084 314.094 34.5391 314.176 33.9414C314.258 33.3438 314.469 32.8008 314.809 32.3125C315.148 31.8203 315.576 31.4355 316.092 31.1582C316.611 30.877 317.162 30.7363 317.744 30.7363C318.322 30.7363 318.82 30.875 319.238 31.1523C319.66 31.4297 319.965 31.8105 320.152 32.2949L320.357 30.8828ZM317.059 36.4727C317.773 36.4727 318.404 36.2324 318.951 35.752C319.498 35.2676 319.822 34.6641 319.924 33.9414C320.025 33.2188 319.871 32.6172 319.461 32.1367C319.051 31.6523 318.486 31.4102 317.768 31.4102C317.045 31.4102 316.41 31.6523 315.863 32.1367C315.316 32.6211 314.994 33.2227 314.896 33.9414C314.795 34.6641 314.949 35.2676 315.359 35.752C315.773 36.2324 316.34 36.4727 317.059 36.4727ZM322.086 37L323.299 28.3574H323.996L322.783 37H322.086ZM332.029 30.7363C332.615 30.7363 333.127 30.877 333.564 31.1582C334.002 31.4355 334.32 31.8184 334.52 32.3066C334.719 32.7949 334.777 33.3398 334.695 33.9414C334.613 34.5391 334.402 35.084 334.062 35.5762C333.723 36.0645 333.293 36.4492 332.773 36.7305C332.254 37.0078 331.701 37.1465 331.115 37.1465C330.537 37.1465 330.037 37.0059 329.615 36.7246C329.197 36.4434 328.895 36.0586 328.707 35.5703L328.18 39.2793H327.482L328.672 30.8828H329.363L329.158 32.2949C329.49 31.8145 329.908 31.4355 330.412 31.1582C330.916 30.877 331.455 30.7363 332.029 30.7363ZM333.975 33.9414C334.072 33.2188 333.916 32.6172 333.506 32.1367C333.096 31.6523 332.531 31.4102 331.812 31.4102C331.094 31.4102 330.459 31.6523 329.908 32.1367C329.361 32.6172 329.037 33.2188 328.936 33.9414C328.838 34.6641 328.992 35.2676 329.398 35.752C329.809 36.2324 330.373 36.4727 331.092 36.4727C331.811 36.4727 332.445 36.2324 332.996 35.752C333.547 35.2676 333.873 34.6641 333.975 33.9414ZM338.58 37.1465C337.975 37.1465 337.443 37.0078 336.986 36.7305C336.533 36.4492 336.201 36.0645 335.99 35.5762C335.779 35.084 335.715 34.5391 335.797 33.9414C335.879 33.3438 336.096 32.8008 336.447 32.3125C336.799 31.8203 337.242 31.4355 337.777 31.1582C338.316 30.877 338.889 30.7363 339.494 30.7363C340.096 30.7363 340.623 30.877 341.076 31.1582C341.529 31.4355 341.861 31.8203 342.072 32.3125C342.283 32.8008 342.348 33.3438 342.266 33.9414C342.184 34.5391 341.967 35.084 341.615 35.5762C341.264 36.0645 340.82 36.4492 340.285 36.7305C339.75 37.0078 339.182 37.1465 338.58 37.1465ZM336.98 35.752C337.395 36.2324 337.961 36.4727 338.68 36.4727C339.398 36.4727 340.031 36.2324 340.578 35.752C341.125 35.2676 341.447 34.6641 341.545 33.9414C341.646 33.2188 341.492 32.6172 341.082 32.1367C340.676 31.6523 340.115 31.4102 339.4 31.4102C338.682 31.4102 338.047 31.6523 337.496 32.1367C336.945 32.6172 336.619 33.2188 336.518 33.9414C336.416 34.6641 336.57 35.2676 336.98 35.752ZM344.75 29.4414C344.605 29.4414 344.492 29.3945 344.41 29.3008C344.328 29.2031 344.297 29.082 344.316 28.9375C344.336 28.8008 344.4 28.6855 344.51 28.5918C344.619 28.4941 344.746 28.4453 344.891 28.4453C345.031 28.4453 345.143 28.4922 345.225 28.5859C345.311 28.6797 345.344 28.7969 345.324 28.9375C345.309 29.0781 345.244 29.1973 345.131 29.2949C345.018 29.3926 344.891 29.4414 344.75 29.4414ZM343.332 37L344.199 30.8828H344.891L344.029 37H343.332ZM349.895 30.7363C350.664 30.7363 351.25 30.9688 351.652 31.4336C352.055 31.8984 352.201 32.5176 352.092 33.291L351.576 37H350.879L351.371 33.4961C351.461 32.8672 351.344 32.3633 351.02 31.9844C350.695 31.6016 350.221 31.4102 349.596 31.4102C348.943 31.4102 348.391 31.6035 347.938 31.9902C347.484 32.373 347.213 32.8828 347.123 33.5195L346.631 37H345.934L346.801 30.8828H347.492L347.34 32.0195C347.621 31.6094 347.982 31.293 348.424 31.0703C348.869 30.8477 349.359 30.7363 349.895 30.7363ZM355.209 31.5156L354.658 35.4297C354.611 35.7969 354.668 36.0625 354.828 36.2266C354.988 36.3906 355.242 36.4727 355.59 36.4727C355.887 36.4727 356.191 36.3965 356.504 36.2441L356.422 36.9062C356.082 37.0664 355.729 37.1465 355.361 37.1465C354.83 37.1465 354.443 37.0117 354.201 36.7422C353.959 36.4688 353.875 36.0664 353.949 35.5352L354.512 31.5156H353.322L353.422 30.8828H354.605L354.846 29.1777H355.543L355.303 30.8828H357.26L357.178 31.5156H355.209ZM359.539 37.1465C359.043 37.1465 358.602 37.0586 358.215 36.8828C357.828 36.707 357.514 36.4707 357.271 36.1738L357.74 35.6699C357.939 35.9316 358.199 36.1367 358.52 36.2852C358.844 36.4336 359.211 36.5078 359.621 36.5078C360.105 36.5078 360.52 36.4082 360.863 36.209C361.211 36.0059 361.408 35.7383 361.455 35.4062C361.471 35.3008 361.467 35.2051 361.443 35.1191C361.424 35.0293 361.393 34.9512 361.35 34.8848C361.311 34.8184 361.248 34.7559 361.162 34.6973C361.076 34.6387 360.996 34.5898 360.922 34.5508C360.848 34.5117 360.746 34.4707 360.617 34.4277C360.488 34.3848 360.377 34.3516 360.283 34.3281C360.193 34.3008 360.072 34.2676 359.92 34.2285C359.654 34.1582 359.451 34.1016 359.311 34.0586C359.174 34.0156 358.996 33.9434 358.777 33.8418C358.562 33.7402 358.404 33.6348 358.303 33.5254C358.201 33.4121 358.117 33.2637 358.051 33.0801C357.984 32.8965 357.969 32.6875 358.004 32.4531C358.055 32.0938 358.203 31.7832 358.449 31.5215C358.695 31.2559 358.994 31.0586 359.346 30.9297C359.697 30.8008 360.078 30.7363 360.488 30.7363C361.348 30.7363 362.027 31.0195 362.527 31.5859L362.059 32.1016C361.883 31.8711 361.652 31.6914 361.367 31.5625C361.082 31.4336 360.76 31.3691 360.4 31.3691C359.963 31.3691 359.584 31.4648 359.264 31.6562C358.947 31.8438 358.766 32.0938 358.719 32.4062C358.703 32.5117 358.707 32.6094 358.73 32.6992C358.754 32.7891 358.785 32.8672 358.824 32.9336C358.867 33 358.932 33.0645 359.018 33.127C359.104 33.1855 359.184 33.2344 359.258 33.2734C359.336 33.3086 359.441 33.3496 359.574 33.3965C359.707 33.4395 359.818 33.4727 359.908 33.4961C360.002 33.5195 360.127 33.5508 360.283 33.5898C360.467 33.6367 360.609 33.6758 360.711 33.707C360.812 33.7344 360.947 33.7773 361.115 33.8359C361.283 33.8945 361.412 33.9512 361.502 34.0059C361.596 34.0566 361.699 34.127 361.812 34.2168C361.926 34.3066 362.008 34.4023 362.059 34.5039C362.113 34.6055 362.154 34.7266 362.182 34.8672C362.209 35.0078 362.211 35.1621 362.188 35.3301C362.133 35.7012 361.979 36.0254 361.725 36.3027C361.475 36.5801 361.16 36.791 360.781 36.9355C360.402 37.0762 359.988 37.1465 359.539 37.1465Z" fill="#E1E1E1"/>
<path fill-rule="evenodd" clip-rule="evenodd" d="M378 31.3491C377.087 31.3491 376.349 32.0866 376.349 33C376.349 33.9133 377.087 34.6508 378 34.6508C378.913 34.6508 379.651 33.9133 379.651 33C379.651 32.0866 378.913 31.3491 378 31.3491ZM375.474 33C375.474 31.6033 376.603 30.4741 378 30.4741C379.397 30.4741 380.526 31.6033 380.526 33C380.526 34.3966 379.397 35.5258 378 35.5258C376.603 35.5258 375.474 34.3966 375.474 33Z" fill="#E1E1E1"/>
<path fill-rule="evenodd" clip-rule="evenodd" d="M372.317 31.2482C373.711 29.0558 375.755 27.7324 378 27.7324C380.245 27.7324 382.289 29.0559 383.683 31.2484C384.001 31.7468 384.145 32.3852 384.145 32.997C384.145 33.6088 384.001 34.2472 383.683 34.7456C382.289 36.9381 380.245 38.2616 378 38.2616C375.755 38.2616 373.711 36.9381 372.317 34.7456C371.999 34.2472 371.854 33.6088 371.854 32.997C371.854 32.3851 371.999 31.7466 372.317 31.2482ZM378 28.6074C376.126 28.6074 374.332 29.7106 373.055 31.7181L373.055 31.7186C372.848 32.0427 372.729 32.5066 372.729 32.997C372.729 33.4874 372.848 33.9513 373.055 34.2754L373.055 34.2759C374.332 36.2834 376.126 37.3866 378 37.3866C379.873 37.3866 381.668 36.2834 382.945 34.2759L382.945 34.2754C383.152 33.9513 383.27 33.4874 383.27 32.997C383.27 32.5066 383.152 32.0427 382.945 31.7186L382.945 31.7181C381.668 29.7106 379.873 28.6074 378 28.6074Z" fill="#E1E1E1"/>
<path d="M311.654 69.8633V72.9941H309.412V77H306.076V72.9941H297.49L296.697 70.3145L305.748 57.6816H309.412V69.8633H311.654ZM300.361 69.8633H306.076V61.8789L300.361 69.8633ZM318.404 73.8691H326.443V77H313.729V74.3066L320.647 66.8691C321.266 66.1673 321.745 65.5339 322.082 64.9688C322.428 64.3945 322.602 63.8203 322.602 63.2461C322.602 62.4805 322.324 61.8607 321.768 61.3867C321.212 60.9128 320.501 60.6758 319.635 60.6758C318.094 60.6758 316.75 61.4596 315.602 63.0273L313.305 60.8672C313.97 59.7917 314.882 58.9349 316.039 58.2969C317.197 57.6589 318.459 57.3398 319.826 57.3398C321.649 57.3398 323.139 57.8776 324.297 58.9531C325.464 60.0286 326.047 61.3958 326.047 63.0547C326.047 64.112 325.824 65.0645 325.377 65.9121C324.93 66.7507 324.324 67.5801 323.559 68.4004L318.404 73.8691ZM334.151 57.6816H336.502V77H333.194V61.6328L329.748 63.5605L328.326 60.8945L334.151 57.6816ZM339.465 81.0605L341.42 73.5273H345.112L342.172 81.0605H339.465ZM352.532 73.8691H360.571V77H347.856V74.3066L354.774 66.8691C355.394 66.1673 355.872 65.5339 356.209 64.9688C356.556 64.3945 356.729 63.8203 356.729 63.2461C356.729 62.4805 356.451 61.8607 355.895 61.3867C355.339 60.9128 354.628 60.6758 353.762 60.6758C352.222 60.6758 350.877 61.4596 349.729 63.0273L347.432 60.8672C348.097 59.7917 349.009 58.9349 350.166 58.2969C351.324 57.6589 352.586 57.3398 353.953 57.3398C355.776 57.3398 357.267 57.8776 358.424 58.9531C359.591 60.0286 360.174 61.3958 360.174 63.0547C360.174 64.112 359.951 65.0645 359.504 65.9121C359.058 66.7507 358.451 67.5801 357.686 68.4004L352.532 73.8691ZM368.278 57.6816H370.629V77H367.321V61.6328L363.875 63.5605L362.454 60.8945L368.278 57.6816Z" fill="white"/>
<path d="M302.597 103.324V104.418H300.3V106.729H299.179V104.418H296.882V103.324H299.179V101.014H300.3V103.324H302.597ZM305.924 98.3408H306.819V108H305.541V99.8789L303.613 100.932L303.066 99.9062L305.924 98.3408ZM310.68 106.797H315.164V108H308.889V106.975L312.56 102.989C312.897 102.62 313.157 102.278 313.339 101.964C313.526 101.645 313.619 101.324 313.619 101C313.619 100.544 313.451 100.173 313.113 99.8857C312.781 99.5941 312.361 99.4482 311.856 99.4482C311.413 99.4482 311.003 99.5645 310.625 99.7969C310.247 100.029 309.921 100.351 309.648 100.761L308.752 99.9473C309.08 99.4049 309.524 98.9743 310.085 98.6553C310.646 98.3317 311.261 98.1699 311.931 98.1699C312.81 98.1699 313.53 98.4297 314.091 98.9492C314.656 99.4642 314.939 100.125 314.939 100.932C314.939 101.433 314.829 101.893 314.61 102.312C314.392 102.727 314.082 103.153 313.681 103.591L310.68 106.797ZM317.753 108.096C317.498 108.096 317.284 108.009 317.11 107.836C316.942 107.663 316.858 107.451 316.858 107.2C316.858 106.95 316.942 106.738 317.11 106.564C317.284 106.391 317.498 106.305 317.753 106.305C318.013 106.305 318.229 106.391 318.402 106.564C318.576 106.733 318.662 106.945 318.662 107.2C318.662 107.455 318.576 107.67 318.402 107.843C318.229 108.011 318.013 108.096 317.753 108.096ZM320.055 98.3408H326.358V99.332L322.283 108H320.841L324.833 99.5439H320.055V98.3408ZM332.761 102.989C333.294 103.226 333.716 103.554 334.026 103.974C334.34 104.393 334.497 104.862 334.497 105.382C334.497 105.901 334.345 106.375 334.039 106.804C333.734 107.228 333.31 107.562 332.768 107.809C332.23 108.05 331.631 108.171 330.97 108.171C330.314 108.171 329.717 108.05 329.179 107.809C328.641 107.562 328.22 107.228 327.914 106.804C327.609 106.375 327.456 105.901 327.456 105.382C327.456 104.862 327.611 104.393 327.921 103.974C328.236 103.554 328.659 103.226 329.193 102.989C328.719 102.761 328.345 102.454 328.071 102.066C327.803 101.679 327.668 101.248 327.668 100.774C327.668 100.036 327.983 99.4186 328.612 98.9219C329.245 98.4206 330.031 98.1699 330.97 98.1699C331.918 98.1699 332.706 98.4206 333.335 98.9219C333.969 99.4186 334.285 100.036 334.285 100.774C334.285 101.248 334.149 101.679 333.875 102.066C333.602 102.449 333.23 102.757 332.761 102.989ZM330.97 99.4072C330.4 99.4072 329.926 99.5508 329.548 99.8379C329.17 100.12 328.981 100.476 328.981 100.904C328.981 101.333 329.17 101.693 329.548 101.984C329.931 102.271 330.405 102.415 330.97 102.415C331.544 102.415 332.02 102.271 332.399 101.984C332.781 101.693 332.973 101.333 332.973 100.904C332.973 100.476 332.781 100.12 332.399 99.8379C332.02 99.5508 331.544 99.4072 330.97 99.4072ZM330.97 106.934C331.599 106.934 332.125 106.776 332.549 106.462C332.973 106.143 333.185 105.746 333.185 105.272C333.185 104.799 332.973 104.402 332.549 104.083C332.125 103.764 331.599 103.604 330.97 103.604C330.346 103.604 329.824 103.764 329.404 104.083C328.985 104.402 328.776 104.799 328.776 105.272C328.776 105.746 328.985 106.143 329.404 106.462C329.824 106.776 330.346 106.934 330.97 106.934ZM342.013 110.659C341.416 109.866 340.935 108.87 340.571 107.672C340.211 106.473 340.031 105.277 340.031 104.083C340.031 102.889 340.211 101.693 340.571 100.494C340.935 99.291 341.416 98.293 342.013 97.5H343.237C342.653 98.293 342.184 99.291 341.828 100.494C341.477 101.693 341.302 102.889 341.302 104.083C341.302 105.277 341.477 106.473 341.828 107.672C342.184 108.87 342.653 109.866 343.237 110.659H342.013ZM349.831 103.324V104.418H347.534V106.729H346.413V104.418H344.117V103.324H346.413V101.014H347.534V103.324H349.831ZM356.098 102.907C356.645 103.117 357.078 103.443 357.397 103.885C357.72 104.322 357.882 104.821 357.882 105.382C357.882 106.198 357.556 106.868 356.905 107.392C356.253 107.911 355.417 108.171 354.396 108.171C353.735 108.171 353.099 108.05 352.489 107.809C351.883 107.567 351.37 107.23 350.951 106.797L351.702 105.847C352.022 106.193 352.409 106.462 352.865 106.653C353.325 106.84 353.806 106.934 354.307 106.934C354.963 106.934 355.503 106.772 355.927 106.448C356.351 106.12 356.563 105.708 356.563 105.211C356.563 104.714 356.36 104.302 355.954 103.974C355.549 103.641 355.038 103.475 354.423 103.475H352.967V102.374H354.423C354.961 102.374 355.408 102.235 355.763 101.957C356.119 101.674 356.296 101.324 356.296 100.904C356.296 100.476 356.105 100.12 355.722 99.8379C355.339 99.5508 354.849 99.4072 354.252 99.4072C353.815 99.4072 353.396 99.4915 352.994 99.6602C352.598 99.8242 352.27 100.052 352.01 100.344L351.313 99.4346C351.673 99.0381 352.129 98.7282 352.68 98.5049C353.231 98.2816 353.808 98.1699 354.41 98.1699C355.344 98.1699 356.112 98.4115 356.713 98.8945C357.315 99.373 357.616 99.9814 357.616 100.72C357.616 101.203 357.479 101.64 357.205 102.032C356.932 102.42 356.563 102.711 356.098 102.907ZM360.28 108.096C360.024 108.096 359.81 108.009 359.637 107.836C359.468 107.663 359.384 107.451 359.384 107.2C359.384 106.95 359.468 106.738 359.637 106.564C359.81 106.391 360.024 106.305 360.28 106.305C360.539 106.305 360.756 106.391 360.929 106.564C361.102 106.733 361.189 106.945 361.189 107.2C361.189 107.455 361.102 107.67 360.929 107.843C360.756 108.011 360.539 108.096 360.28 108.096ZM367.996 102.989C368.529 103.226 368.95 103.554 369.26 103.974C369.575 104.393 369.732 104.862 369.732 105.382C369.732 105.901 369.579 106.375 369.274 106.804C368.969 107.228 368.545 107.562 368.002 107.809C367.465 108.05 366.865 108.171 366.205 108.171C365.548 108.171 364.951 108.05 364.414 107.809C363.876 107.562 363.454 107.228 363.149 106.804C362.844 106.375 362.691 105.901 362.691 105.382C362.691 104.862 362.846 104.393 363.156 103.974C363.47 103.554 363.894 103.226 364.427 102.989C363.953 102.761 363.58 102.454 363.306 102.066C363.037 101.679 362.903 101.248 362.903 100.774C362.903 100.036 363.217 99.4186 363.846 98.9219C364.48 98.4206 365.266 98.1699 366.205 98.1699C367.152 98.1699 367.941 98.4206 368.57 98.9219C369.203 99.4186 369.52 100.036 369.52 100.774C369.52 101.248 369.383 101.679 369.11 102.066C368.836 102.449 368.465 102.757 367.996 102.989ZM366.205 99.4072C365.635 99.4072 365.161 99.5508 364.783 99.8379C364.404 100.12 364.215 100.476 364.215 100.904C364.215 101.333 364.404 101.693 364.783 101.984C365.165 102.271 365.639 102.415 366.205 102.415C366.779 102.415 367.255 102.271 367.633 101.984C368.016 101.693 368.207 101.333 368.207 100.904C368.207 100.476 368.016 100.12 367.633 99.8379C367.255 99.5508 366.779 99.4072 366.205 99.4072ZM366.205 106.934C366.833 106.934 367.36 106.776 367.784 106.462C368.207 106.143 368.419 105.746 368.419 105.272C368.419 104.799 368.207 104.402 367.784 104.083C367.36 103.764 366.833 103.604 366.205 103.604C365.58 103.604 365.058 103.764 364.639 104.083C364.22 104.402 364.01 104.799 364.01 105.272C364.01 105.746 364.22 106.143 364.639 106.462C365.058 106.776 365.58 106.934 366.205 106.934ZM374.296 98.1699C375.39 98.1699 376.265 98.5072 376.921 99.1816C377.582 99.8516 377.913 100.77 377.913 101.937C377.913 102.684 377.771 103.409 377.489 104.11C377.211 104.812 376.821 105.443 376.32 106.004C375.823 106.564 375.203 107.038 374.46 107.426C373.722 107.809 372.916 108.057 372.041 108.171L371.808 106.975C372.966 106.788 373.93 106.373 374.7 105.73C375.474 105.088 376.008 104.331 376.299 103.461C376.008 103.771 375.643 104.008 375.206 104.172C374.773 104.336 374.321 104.418 373.852 104.418C372.968 104.418 372.227 104.126 371.63 103.543C371.038 102.955 370.742 102.233 370.742 101.376C370.742 100.455 371.077 99.6921 371.747 99.0859C372.421 98.4753 373.271 98.1699 374.296 98.1699ZM374.228 103.242C374.515 103.242 374.795 103.206 375.069 103.133C375.342 103.055 375.593 102.946 375.821 102.805C376.053 102.663 376.24 102.474 376.381 102.237C376.523 101.996 376.593 101.727 376.593 101.431C376.593 100.838 376.381 100.353 375.957 99.9746C375.538 99.5964 374.985 99.4072 374.296 99.4072C373.654 99.4072 373.118 99.5918 372.69 99.9609C372.266 100.33 372.054 100.797 372.054 101.362C372.054 101.9 372.259 102.349 372.669 102.709C373.084 103.064 373.604 103.242 374.228 103.242ZM381.418 102.654C380.77 102.654 380.23 102.44 379.797 102.012C379.364 101.583 379.148 101.05 379.148 100.412C379.148 99.7741 379.364 99.2409 379.797 98.8125C380.23 98.3841 380.77 98.1699 381.418 98.1699C382.06 98.1699 382.596 98.3841 383.024 98.8125C383.457 99.2409 383.673 99.7741 383.673 100.412C383.673 101.05 383.457 101.583 383.024 102.012C382.596 102.44 382.06 102.654 381.418 102.654ZM380.187 108L387.187 98.3408H388.486L381.486 108H380.187ZM381.418 101.67C381.768 101.67 382.062 101.549 382.299 101.308C382.541 101.066 382.662 100.768 382.662 100.412C382.662 100.057 382.541 99.7581 382.299 99.5166C382.062 99.2751 381.768 99.1543 381.418 99.1543C381.062 99.1543 380.766 99.2751 380.529 99.5166C380.292 99.7581 380.173 100.057 380.173 100.412C380.173 100.768 380.292 101.066 380.529 101.308C380.766 101.549 381.062 101.67 381.418 101.67ZM388.855 107.528C388.422 107.957 387.884 108.171 387.242 108.171C386.599 108.171 386.059 107.957 385.622 107.528C385.189 107.095 384.972 106.562 384.972 105.929C384.972 105.295 385.189 104.764 385.622 104.336C386.059 103.903 386.599 103.687 387.242 103.687C387.884 103.687 388.422 103.903 388.855 104.336C389.293 104.764 389.511 105.295 389.511 105.929C389.511 106.562 389.293 107.095 388.855 107.528ZM386.353 106.824C386.59 107.066 386.886 107.187 387.242 107.187C387.597 107.187 387.893 107.066 388.13 106.824C388.367 106.583 388.486 106.284 388.486 105.929C388.486 105.573 388.367 105.275 388.13 105.033C387.893 104.792 387.597 104.671 387.242 104.671C386.886 104.671 386.59 104.792 386.353 105.033C386.116 105.275 385.998 105.573 385.998 105.929C385.998 106.284 386.116 106.583 386.353 106.824ZM390.603 110.659C391.186 109.871 391.654 108.877 392.004 107.679C392.355 106.476 392.531 105.277 392.531 104.083C392.531 102.889 392.355 101.69 392.004 100.487C391.654 99.2842 391.186 98.2884 390.603 97.5H391.82C392.417 98.293 392.898 99.291 393.262 100.494C393.627 101.693 393.809 102.889 393.809 104.083C393.809 105.272 393.627 106.469 393.262 107.672C392.898 108.87 392.417 109.866 391.82 110.659H390.603Z" fill="#2DC24E"/>
<path d="M550.542 98.7963H529V111C529 111.552 529.448 112 530 112H1077.03C1077.59 112 1078.03 111.552 1078.03 111V28.5141L1053.64 39.6095C1053.22 39.8005 1052.72 39.6794 1052.44 39.3165L1041.51 25.3827C1041.32 25.1411 1041.03 25 1040.72 25H1009.58C1009.46 25 1009.35 25.0203 1009.24 25.0601L987.89 32.8175C987.729 32.876 987.555 32.8922 987.386 32.8645L961.421 28.6058C961.074 28.5489 960.723 28.6782 960.496 28.9464L941.262 51.6597C940.974 51.9999 940.495 52.1083 940.089 51.9254L917.859 41.9251C917.538 41.7806 917.164 41.8158 916.875 42.0178L912.699 44.9407C912.458 45.109 912.155 45.1631 911.871 45.0886L899.348 41.8021C899.08 41.7319 898.795 41.7757 898.561 41.9232L882.474 52.055C882.289 52.1713 882.072 52.224 881.854 52.205L862.63 50.5234C862.3 50.4945 861.977 50.6307 861.768 50.8871L842.262 74.775C842.104 74.9687 841.879 75.096 841.632 75.1321L812.258 79.4145C812.018 79.4494 811.774 79.3963 811.571 79.265L790.691 65.7772C790.349 65.5565 789.908 65.5647 789.575 65.7978L780.283 72.3001C780.151 72.3923 779.999 72.4514 779.84 72.4723L760.346 75.0301C760.119 75.0598 759.91 75.1663 759.752 75.3318L748.535 87.1064C748.37 87.2799 748.147 87.3883 747.909 87.4118L721.671 89.9938C721.556 90.0052 721.443 90.0365 721.338 90.0865L703.483 98.6058C703.229 98.7271 702.935 98.7356 702.674 98.6291L688.316 92.7678C688.123 92.689 687.91 92.6725 687.707 92.7208L646.41 102.538C646.254 102.575 646.09 102.574 645.934 102.535L631.356 98.8592C631.193 98.8179 631.021 98.8187 630.858 98.8616L617.841 102.278C617.758 102.299 617.672 102.31 617.587 102.31H591.109C590.993 102.31 590.878 102.29 590.769 102.251L564.536 92.7855C564.29 92.6964 564.018 92.7079 563.78 92.8173L550.959 98.705C550.828 98.7651 550.686 98.7963 550.542 98.7963Z" fill="url(#paint0_linear_1968_3820)"/>
<path d="M532.268 98.7963H550.105C550.537 98.7963 550.964 98.7029 551.357 98.5225L563.036 93.1589C563.751 92.8305 564.566 92.7962 565.306 93.0632L590.44 102.132C590.767 102.25 591.111 102.31 591.459 102.31H617.329C617.586 102.31 617.842 102.277 618.09 102.212L630.139 99.0504C630.767 98.8854 631.432 98.929 632.034 99.1746L645.2 104.549C645.829 104.806 646.527 104.842 647.18 104.65L687.012 92.9427C687.664 92.751 688.362 92.7865 688.991 93.0434L701.856 98.2948C702.638 98.6142 703.519 98.5888 704.281 98.2249L721.022 90.2375C721.336 90.0876 721.674 89.9936 722.02 89.9595L747.169 87.4846C747.885 87.4141 748.552 87.089 749.048 86.5683L759.265 75.8434C759.738 75.3468 760.367 75.0274 761.047 74.9382L779.355 72.536C779.833 72.4732 780.289 72.296 780.684 72.0194L788.473 66.569C789.472 65.8696 790.796 65.845 791.821 66.507L810.94 78.8575C811.55 79.2515 812.282 79.4109 813.001 79.3062L840.863 75.2442C841.605 75.136 842.279 74.7539 842.754 74.1731L861.099 51.7067C861.727 50.9376 862.695 50.5291 863.684 50.6156L881.184 52.1463C881.836 52.2034 882.49 52.0453 883.044 51.6962L897.827 42.3856C898.53 41.9431 899.384 41.8116 900.187 42.0224L910.976 44.8535C911.828 45.0772 912.736 44.9149 913.457 44.4097L915.945 42.6692C916.811 42.0632 917.932 41.9576 918.895 42.3913L938.715 51.3075C939.935 51.8563 941.371 51.5311 942.235 50.5103L959.764 29.8109C960.445 29.0064 961.499 28.6185 962.539 28.7891L986.871 32.7799C987.378 32.8631 987.898 32.8146 988.381 32.6391L1008.91 25.1804C1009.24 25.061 1009.58 25 1009.93 25H1039.75C1040.67 25 1041.54 25.4234 1042.11 26.1482L1051.39 37.9722C1052.28 39.1098 1053.85 39.4489 1055.14 38.7789L1074.77 28.5141" stroke="#CAEAE5" stroke-width="2" stroke-linecap="round"/>
<defs>
<linearGradient id="paint0_linear_1968_3820" x1="803.517" y1="25" x2="803.517" y2="112" gradientUnits="userSpaceOnUse">
<stop stop-color="#CAEAE5" stop-opacity="0.2"/>
<stop offset="1" stop-color="#FEF0EE" stop-opacity="0"/>
</linearGradient>
</defs>
</svg>
